G75*
%MOIN*%
%OFA0B0*%
%FSLAX24Y24*%
%IPPOS*%
%LPD*%
%AMOC8*
5,1,8,0,0,1.08239X$1,22.5*
%
%ADD10C,0.0520*%
%ADD11C,0.0600*%
%ADD12C,0.0476*%
%ADD13C,0.0160*%
%ADD14R,0.0396X0.0396*%
D10*
X003420Y006180D02*
X003940Y006180D01*
X003940Y007180D02*
X003420Y007180D01*
X003420Y008180D02*
X003940Y008180D01*
X003940Y009180D02*
X003420Y009180D01*
X003420Y010180D02*
X003940Y010180D01*
X003940Y011180D02*
X003420Y011180D01*
X003420Y012180D02*
X003940Y012180D01*
X003940Y013180D02*
X003420Y013180D01*
X003420Y014180D02*
X003940Y014180D01*
X003940Y015180D02*
X003420Y015180D01*
X003420Y016180D02*
X003940Y016180D01*
X003940Y017180D02*
X003420Y017180D01*
X003420Y018180D02*
X003940Y018180D01*
X003940Y019180D02*
X003420Y019180D01*
X003420Y020180D02*
X003940Y020180D01*
X003940Y021180D02*
X003420Y021180D01*
X003420Y022180D02*
X003940Y022180D01*
X003940Y023180D02*
X003420Y023180D01*
X003420Y024180D02*
X003940Y024180D01*
X003940Y025180D02*
X003420Y025180D01*
X009420Y025180D02*
X009940Y025180D01*
X009940Y024180D02*
X009420Y024180D01*
X009420Y023180D02*
X009940Y023180D01*
X009940Y022180D02*
X009420Y022180D01*
X009420Y021180D02*
X009940Y021180D01*
X009940Y020180D02*
X009420Y020180D01*
X009420Y019180D02*
X009940Y019180D01*
X009940Y018180D02*
X009420Y018180D01*
X009420Y017180D02*
X009940Y017180D01*
X009940Y016180D02*
X009420Y016180D01*
X009420Y015180D02*
X009940Y015180D01*
X009940Y014180D02*
X009420Y014180D01*
X009420Y013180D02*
X009940Y013180D01*
X009940Y012180D02*
X009420Y012180D01*
X009420Y011180D02*
X009940Y011180D01*
X009940Y010180D02*
X009420Y010180D01*
X009420Y009180D02*
X009940Y009180D01*
X009940Y008180D02*
X009420Y008180D01*
X009420Y007180D02*
X009940Y007180D01*
X009940Y006180D02*
X009420Y006180D01*
X011920Y006180D02*
X012440Y006180D01*
X012440Y007180D02*
X011920Y007180D01*
X011920Y008180D02*
X012440Y008180D01*
X012440Y009180D02*
X011920Y009180D01*
X011920Y010180D02*
X012440Y010180D01*
X012440Y011180D02*
X011920Y011180D01*
X011920Y012180D02*
X012440Y012180D01*
X012440Y013180D02*
X011920Y013180D01*
X011920Y014180D02*
X012440Y014180D01*
X012440Y015180D02*
X011920Y015180D01*
X011920Y016180D02*
X012440Y016180D01*
X012440Y017180D02*
X011920Y017180D01*
X011920Y018180D02*
X012440Y018180D01*
X012440Y019180D02*
X011920Y019180D01*
X011920Y020180D02*
X012440Y020180D01*
X012440Y021180D02*
X011920Y021180D01*
X011920Y022180D02*
X012440Y022180D01*
X012440Y023180D02*
X011920Y023180D01*
X011920Y024180D02*
X012440Y024180D01*
X012440Y025180D02*
X011920Y025180D01*
X017920Y025180D02*
X018440Y025180D01*
X018440Y024180D02*
X017920Y024180D01*
X017920Y023180D02*
X018440Y023180D01*
X018440Y022180D02*
X017920Y022180D01*
X017920Y021180D02*
X018440Y021180D01*
X018440Y020180D02*
X017920Y020180D01*
X017920Y019180D02*
X018440Y019180D01*
X018440Y018180D02*
X017920Y018180D01*
X017920Y017180D02*
X018440Y017180D01*
X018440Y016180D02*
X017920Y016180D01*
X017920Y015180D02*
X018440Y015180D01*
X018440Y014180D02*
X017920Y014180D01*
X017920Y013180D02*
X018440Y013180D01*
X018440Y012180D02*
X017920Y012180D01*
X017920Y011180D02*
X018440Y011180D01*
X018440Y010180D02*
X017920Y010180D01*
X017920Y009180D02*
X018440Y009180D01*
X018440Y008180D02*
X017920Y008180D01*
X017920Y007180D02*
X018440Y007180D01*
X018440Y006180D02*
X017920Y006180D01*
D11*
X015680Y027880D02*
X015680Y028480D01*
X014680Y028480D02*
X014680Y027880D01*
X013680Y027880D02*
X013680Y028480D01*
X008180Y028480D02*
X008180Y027880D01*
X007180Y027880D02*
X007180Y028480D01*
X006180Y028480D02*
X006180Y027880D01*
X001980Y025680D02*
X001380Y025680D01*
X001380Y024680D02*
X001980Y024680D01*
X001980Y020680D02*
X001380Y020680D01*
X001380Y019680D02*
X001980Y019680D01*
X001980Y018680D02*
X001380Y018680D01*
X001380Y017680D02*
X001980Y017680D01*
X001980Y016680D02*
X001380Y016680D01*
X001380Y015680D02*
X001980Y015680D01*
X001980Y014680D02*
X001380Y014680D01*
X001380Y013680D02*
X001980Y013680D01*
X001980Y012680D02*
X001380Y012680D01*
X001380Y011680D02*
X001980Y011680D01*
X001980Y010680D02*
X001380Y010680D01*
X001380Y009680D02*
X001980Y009680D01*
X001980Y008680D02*
X001380Y008680D01*
X001380Y007680D02*
X001980Y007680D01*
X001980Y005680D02*
X001380Y005680D01*
X001380Y004680D02*
X001980Y004680D01*
D12*
X003680Y004180D03*
X004680Y004180D03*
X006680Y004180D03*
X007680Y004180D03*
X008680Y004180D03*
X009680Y004180D03*
X011180Y004180D03*
X012180Y004180D03*
X013680Y004180D03*
X014680Y004180D03*
X015680Y004180D03*
X016680Y004180D03*
X016680Y001180D03*
X015680Y001180D03*
X014680Y001180D03*
X013680Y001180D03*
X009680Y001180D03*
X008680Y001180D03*
X007680Y001180D03*
X006680Y001180D03*
D13*
X000660Y002133D02*
X000660Y028227D01*
X000792Y027998D01*
X000998Y027792D01*
X001252Y027646D01*
X001534Y027570D01*
X001826Y027570D01*
X002108Y027646D01*
X002362Y027792D01*
X002568Y027998D01*
X002714Y028252D01*
X002790Y028534D01*
X002790Y028826D01*
X002714Y029108D01*
X002568Y029362D01*
X002362Y029568D01*
X002133Y029700D01*
X018227Y029700D01*
X017998Y029568D01*
X017792Y029362D01*
X017646Y029108D01*
X017570Y028826D01*
X017570Y028534D01*
X017646Y028252D01*
X017792Y027998D01*
X017998Y027792D01*
X018252Y027646D01*
X018534Y027570D01*
X018826Y027570D01*
X019108Y027646D01*
X019362Y027792D01*
X019568Y027998D01*
X019700Y028227D01*
X019700Y002133D01*
X019568Y002362D01*
X019362Y002568D01*
X019108Y002714D01*
X018826Y002790D01*
X018534Y002790D01*
X018252Y002714D01*
X017998Y002568D01*
X017792Y002362D01*
X017646Y002108D01*
X017570Y001826D01*
X017570Y001534D01*
X017646Y001252D01*
X017792Y000998D01*
X017998Y000792D01*
X018227Y000660D01*
X002133Y000660D01*
X002362Y000792D01*
X002568Y000998D01*
X002714Y001252D01*
X002790Y001534D01*
X002790Y001826D01*
X002714Y002108D01*
X002568Y002362D01*
X002362Y002568D01*
X002108Y002714D01*
X001826Y002790D01*
X001534Y002790D01*
X001252Y002714D01*
X000998Y002568D01*
X000792Y002362D01*
X000660Y002133D01*
X000660Y002241D02*
X000722Y002241D01*
X000660Y002399D02*
X000829Y002399D01*
X000988Y002558D02*
X000660Y002558D01*
X000660Y002716D02*
X001258Y002716D01*
X000660Y002875D02*
X003533Y002875D01*
X003374Y003033D02*
X000660Y003033D01*
X000660Y003192D02*
X003216Y003192D01*
X003057Y003350D02*
X000660Y003350D01*
X000660Y003509D02*
X002899Y003509D01*
X002740Y003667D02*
X000660Y003667D01*
X000660Y003826D02*
X002582Y003826D01*
X002423Y003984D02*
X000660Y003984D01*
X000660Y004143D02*
X001267Y004143D01*
X001273Y004140D02*
X002087Y004140D01*
X002215Y004193D01*
X005409Y000999D01*
X005499Y000909D01*
X005616Y000860D01*
X006324Y000860D01*
X006409Y000775D01*
X006585Y000702D01*
X006775Y000702D01*
X006951Y000775D01*
X007036Y000860D01*
X007324Y000860D01*
X007409Y000775D01*
X007585Y000702D01*
X007775Y000702D01*
X007951Y000775D01*
X008036Y000860D01*
X008324Y000860D01*
X008409Y000775D01*
X008585Y000702D01*
X008775Y000702D01*
X008951Y000775D01*
X009036Y000860D01*
X009324Y000860D01*
X009409Y000775D01*
X009585Y000702D01*
X009775Y000702D01*
X009951Y000775D01*
X010085Y000909D01*
X010158Y001085D01*
X010158Y001275D01*
X010085Y001451D01*
X009951Y001585D01*
X009775Y001658D01*
X009585Y001658D01*
X009409Y001585D01*
X009324Y001500D01*
X009036Y001500D01*
X008951Y001585D01*
X008775Y001658D01*
X008585Y001658D01*
X008409Y001585D01*
X008324Y001500D01*
X008036Y001500D01*
X007951Y001585D01*
X007775Y001658D01*
X007585Y001658D01*
X007409Y001585D01*
X007324Y001500D01*
X007036Y001500D01*
X006951Y001585D01*
X006775Y001658D01*
X006585Y001658D01*
X006409Y001585D01*
X006324Y001500D01*
X005813Y001500D01*
X003610Y003702D01*
X003775Y003702D01*
X003951Y003775D01*
X004085Y003909D01*
X004158Y004085D01*
X004158Y004275D01*
X004085Y004451D01*
X004000Y004536D01*
X004000Y005680D01*
X004039Y005680D01*
X004223Y005756D01*
X004327Y005860D01*
X005244Y005860D01*
X005361Y005909D01*
X005813Y006360D01*
X009018Y006360D01*
X009012Y006349D01*
X008991Y006283D01*
X008980Y006215D01*
X008980Y006180D01*
X009680Y006180D01*
X009680Y004180D01*
X009180Y004680D01*
X006180Y004680D01*
X005680Y004180D01*
X004680Y004180D01*
X005098Y004180D01*
X005098Y004213D01*
X005088Y004278D01*
X005067Y004340D01*
X005037Y004399D01*
X004999Y004452D01*
X004952Y004499D01*
X004899Y004537D01*
X004840Y004567D01*
X004778Y004588D01*
X004713Y004598D01*
X004680Y004598D01*
X004647Y004598D01*
X004582Y004588D01*
X004520Y004567D01*
X004461Y004537D01*
X004408Y004499D01*
X004361Y004452D01*
X004323Y004399D01*
X004293Y004340D01*
X004272Y004278D01*
X004262Y004213D01*
X004262Y004180D01*
X004262Y004147D01*
X004272Y004082D01*
X004293Y004020D01*
X004323Y003961D01*
X004361Y003908D01*
X004408Y003861D01*
X004461Y003823D01*
X004520Y003793D01*
X004582Y003772D01*
X004647Y003762D01*
X004680Y003762D01*
X004713Y003762D01*
X004778Y003772D01*
X004840Y003793D01*
X004899Y003823D01*
X004952Y003861D01*
X004999Y003908D01*
X005037Y003961D01*
X005067Y004020D01*
X005088Y004082D01*
X005098Y004147D01*
X005098Y004180D01*
X004680Y004180D01*
X004680Y004180D01*
X004680Y004180D01*
X004680Y004598D01*
X004680Y004180D01*
X004680Y003762D01*
X004680Y004180D01*
X004680Y004180D01*
X004680Y004180D01*
X004262Y004180D01*
X004680Y004180D01*
X004680Y004143D02*
X004680Y004143D01*
X004680Y004301D02*
X004680Y004301D01*
X004680Y004460D02*
X004680Y004460D01*
X004369Y004460D02*
X004076Y004460D01*
X004147Y004301D02*
X004280Y004301D01*
X004263Y004143D02*
X004158Y004143D01*
X004116Y003984D02*
X004311Y003984D01*
X004457Y003826D02*
X004001Y003826D01*
X003804Y003509D02*
X019700Y003509D01*
X019700Y003667D02*
X003646Y003667D01*
X003680Y004180D02*
X003680Y006180D01*
X005180Y006180D01*
X005680Y006680D01*
X011680Y006680D01*
X012180Y006180D01*
X012133Y006680D02*
X012133Y006680D01*
X012539Y006680D01*
X012723Y006756D01*
X012864Y006897D01*
X012940Y007081D01*
X012940Y007279D01*
X012864Y007463D01*
X012723Y007604D01*
X012539Y007680D01*
X012723Y007756D01*
X012864Y007897D01*
X012940Y008081D01*
X012940Y008279D01*
X012864Y008463D01*
X012723Y008604D01*
X012539Y008680D01*
X012723Y008756D01*
X012864Y008897D01*
X012940Y009081D01*
X012940Y009279D01*
X012864Y009463D01*
X012723Y009604D01*
X012539Y009680D01*
X012723Y009756D01*
X012864Y009897D01*
X012940Y010081D01*
X012940Y010279D01*
X012864Y010463D01*
X012723Y010604D01*
X012539Y010680D01*
X012723Y010756D01*
X012864Y010897D01*
X012940Y011081D01*
X012940Y011279D01*
X012864Y011463D01*
X012723Y011604D01*
X012539Y011680D01*
X012723Y011756D01*
X012864Y011897D01*
X012940Y012081D01*
X012940Y012279D01*
X012864Y012463D01*
X012723Y012604D01*
X012539Y012680D01*
X012723Y012756D01*
X012864Y012897D01*
X012940Y013081D01*
X012940Y013279D01*
X012864Y013463D01*
X012723Y013604D01*
X012539Y013680D01*
X012723Y013756D01*
X012864Y013897D01*
X012940Y014081D01*
X012940Y014279D01*
X012864Y014463D01*
X012723Y014604D01*
X012539Y014680D01*
X012723Y014756D01*
X012864Y014897D01*
X012940Y015081D01*
X012940Y015279D01*
X012864Y015463D01*
X012723Y015604D01*
X012539Y015680D01*
X012723Y015756D01*
X012864Y015897D01*
X012940Y016081D01*
X012940Y016279D01*
X012864Y016463D01*
X012723Y016604D01*
X012539Y016680D01*
X012723Y016756D01*
X012864Y016897D01*
X012940Y017081D01*
X012940Y017279D01*
X012864Y017463D01*
X012723Y017604D01*
X012539Y017680D01*
X012723Y017756D01*
X012864Y017897D01*
X012940Y018081D01*
X012940Y018279D01*
X012864Y018463D01*
X012723Y018604D01*
X012539Y018680D01*
X012723Y018756D01*
X012864Y018897D01*
X012940Y019081D01*
X012940Y019279D01*
X012864Y019463D01*
X012723Y019604D01*
X012539Y019680D01*
X012723Y019756D01*
X012864Y019897D01*
X012940Y020081D01*
X012940Y020279D01*
X012864Y020463D01*
X012723Y020604D01*
X012539Y020680D01*
X011821Y020680D01*
X011637Y020604D01*
X011496Y020463D01*
X011453Y020359D01*
X010861Y020951D01*
X010744Y021000D01*
X010407Y021000D01*
X010440Y021081D01*
X010440Y021279D01*
X010364Y021463D01*
X010223Y021604D01*
X010039Y021680D01*
X009321Y021680D01*
X009137Y021604D01*
X008996Y021463D01*
X008920Y021279D01*
X008920Y021081D01*
X008953Y021000D01*
X004407Y021000D01*
X004440Y021081D01*
X004440Y021279D01*
X004364Y021463D01*
X004223Y021604D01*
X004039Y021680D01*
X003321Y021680D01*
X003137Y021604D01*
X002996Y021463D01*
X002920Y021279D01*
X002920Y021081D01*
X002953Y021000D01*
X002424Y021000D01*
X002286Y021138D01*
X002087Y021220D01*
X001273Y021220D01*
X001074Y021138D01*
X000922Y020986D01*
X000840Y020787D01*
X000840Y020573D01*
X000922Y020374D01*
X001074Y020222D01*
X001176Y020180D01*
X001074Y020138D01*
X000922Y019986D01*
X000840Y019787D01*
X000840Y019573D01*
X000922Y019374D01*
X001074Y019222D01*
X001176Y019180D01*
X001074Y019138D01*
X000922Y018986D01*
X000840Y018787D01*
X000840Y018573D01*
X000922Y018374D01*
X001074Y018222D01*
X001176Y018180D01*
X001074Y018138D01*
X000922Y017986D01*
X000840Y017787D01*
X000840Y017573D01*
X000922Y017374D01*
X001074Y017222D01*
X001176Y017180D01*
X001074Y017138D01*
X000922Y016986D01*
X000840Y016787D01*
X000840Y016573D01*
X000922Y016374D01*
X001074Y016222D01*
X001176Y016180D01*
X001074Y016138D01*
X000922Y015986D01*
X000840Y015787D01*
X000840Y015573D01*
X000922Y015374D01*
X001074Y015222D01*
X001176Y015180D01*
X001074Y015138D01*
X000922Y014986D01*
X000840Y014787D01*
X000840Y014573D01*
X000922Y014374D01*
X001074Y014222D01*
X001176Y014180D01*
X001074Y014138D01*
X000922Y013986D01*
X000840Y013787D01*
X000840Y013573D01*
X000922Y013374D01*
X001074Y013222D01*
X001176Y013180D01*
X001074Y013138D01*
X000922Y012986D01*
X000840Y012787D01*
X000840Y012573D01*
X000922Y012374D01*
X001074Y012222D01*
X001176Y012180D01*
X001074Y012138D01*
X000922Y011986D01*
X000840Y011787D01*
X000840Y011573D01*
X000922Y011374D01*
X001074Y011222D01*
X001176Y011180D01*
X001074Y011138D01*
X000922Y010986D01*
X000840Y010787D01*
X000840Y010573D01*
X000922Y010374D01*
X001074Y010222D01*
X001176Y010180D01*
X001074Y010138D01*
X000922Y009986D01*
X000840Y009787D01*
X000840Y009573D01*
X000922Y009374D01*
X001074Y009222D01*
X001259Y009145D01*
X001196Y009125D01*
X001128Y009091D01*
X001067Y009046D01*
X001014Y008993D01*
X000969Y008932D01*
X000935Y008864D01*
X000912Y008792D01*
X000900Y008718D01*
X000900Y008700D01*
X001660Y008700D01*
X001660Y008660D01*
X000900Y008660D01*
X000900Y008642D01*
X000912Y008568D01*
X000935Y008496D01*
X000969Y008428D01*
X001014Y008367D01*
X001067Y008314D01*
X001128Y008269D01*
X001196Y008235D01*
X001259Y008215D01*
X001074Y008138D01*
X000922Y007986D01*
X000840Y007787D01*
X000840Y007573D01*
X000922Y007374D01*
X001074Y007222D01*
X001273Y007140D01*
X002087Y007140D01*
X002286Y007222D01*
X002438Y007374D01*
X002520Y007573D01*
X002520Y007787D01*
X002438Y007986D01*
X002286Y008138D01*
X002101Y008215D01*
X002164Y008235D01*
X002232Y008269D01*
X002293Y008314D01*
X002346Y008367D01*
X002391Y008428D01*
X002425Y008496D01*
X002448Y008568D01*
X002460Y008642D01*
X002460Y008660D01*
X001700Y008660D01*
X001700Y008700D01*
X002460Y008700D01*
X002460Y008718D01*
X002448Y008792D01*
X002425Y008864D01*
X002391Y008932D01*
X002346Y008993D01*
X002293Y009046D01*
X002232Y009091D01*
X002164Y009125D01*
X002101Y009145D01*
X002286Y009222D01*
X002424Y009360D01*
X002953Y009360D01*
X002920Y009279D01*
X002920Y009081D01*
X002981Y008933D01*
X002909Y008861D01*
X002860Y008744D01*
X002860Y008616D01*
X002909Y008499D01*
X002981Y008427D01*
X002920Y008279D01*
X002920Y008081D01*
X002996Y007897D01*
X003137Y007756D01*
X003321Y007680D01*
X003137Y007604D01*
X002996Y007463D01*
X002920Y007279D01*
X002920Y007081D01*
X002996Y006897D01*
X003137Y006756D01*
X003321Y006680D01*
X004039Y006680D01*
X004223Y006756D01*
X004364Y006897D01*
X004440Y007081D01*
X004440Y007279D01*
X004364Y007463D01*
X004223Y007604D01*
X004039Y007680D01*
X003321Y007680D01*
X004039Y007680D01*
X004223Y007756D01*
X004364Y007897D01*
X004440Y008081D01*
X004440Y008279D01*
X004364Y008463D01*
X004223Y008604D01*
X004039Y008680D01*
X004223Y008756D01*
X004364Y008897D01*
X004440Y009081D01*
X004440Y009279D01*
X004407Y009360D01*
X008953Y009360D01*
X008920Y009279D01*
X008920Y009081D01*
X008996Y008897D01*
X009137Y008756D01*
X009321Y008680D01*
X010039Y008680D01*
X010223Y008756D01*
X010364Y008897D01*
X010440Y009081D01*
X010440Y009279D01*
X010407Y009360D01*
X011453Y009360D01*
X011420Y009279D01*
X011420Y009081D01*
X011496Y008897D01*
X011637Y008756D01*
X011821Y008680D01*
X012539Y008680D01*
X011821Y008680D01*
X011637Y008604D01*
X011496Y008463D01*
X011420Y008279D01*
X011420Y008081D01*
X011496Y007897D01*
X011637Y007756D01*
X011821Y007680D01*
X012539Y007680D01*
X011821Y007680D01*
X011637Y007604D01*
X011496Y007463D01*
X011420Y007279D01*
X011420Y007081D01*
X011453Y007000D01*
X010407Y007000D01*
X010440Y007081D01*
X010440Y007279D01*
X010364Y007463D01*
X010223Y007604D01*
X010039Y007680D01*
X010223Y007756D01*
X010364Y007897D01*
X010440Y008081D01*
X010440Y008279D01*
X010364Y008463D01*
X010223Y008604D01*
X010039Y008680D01*
X009321Y008680D01*
X009137Y008604D01*
X008996Y008463D01*
X008920Y008279D01*
X008920Y008081D01*
X008996Y007897D01*
X009137Y007756D01*
X009321Y007680D01*
X010039Y007680D01*
X009321Y007680D01*
X009137Y007604D01*
X008996Y007463D01*
X008920Y007279D01*
X008920Y007081D01*
X008953Y007000D01*
X005616Y007000D01*
X005499Y006951D01*
X005409Y006861D01*
X005047Y006500D01*
X004327Y006500D01*
X004223Y006604D01*
X004039Y006680D01*
X003321Y006680D01*
X003137Y006604D01*
X002996Y006463D01*
X002920Y006279D01*
X002920Y006081D01*
X002996Y005897D01*
X003137Y005756D01*
X003321Y005680D01*
X003360Y005680D01*
X003360Y004536D01*
X003275Y004451D01*
X003202Y004275D01*
X003202Y004110D01*
X002516Y004796D01*
X002438Y004986D01*
X002286Y005138D01*
X002184Y005180D01*
X002286Y005222D01*
X002438Y005374D01*
X002520Y005573D01*
X002520Y005787D01*
X002438Y005986D01*
X002286Y006138D01*
X002087Y006220D01*
X001273Y006220D01*
X001074Y006138D01*
X000922Y005986D01*
X000840Y005787D01*
X000840Y005573D01*
X000922Y005374D01*
X001074Y005222D01*
X001176Y005180D01*
X001074Y005138D01*
X000922Y004986D01*
X000840Y004787D01*
X000840Y004573D01*
X000922Y004374D01*
X001074Y004222D01*
X001273Y004140D01*
X000995Y004301D02*
X000660Y004301D01*
X000660Y004460D02*
X000887Y004460D01*
X000840Y004618D02*
X000660Y004618D01*
X000660Y004777D02*
X000840Y004777D01*
X000901Y004935D02*
X000660Y004935D01*
X000660Y005094D02*
X001030Y005094D01*
X001044Y005252D02*
X000660Y005252D01*
X000660Y005411D02*
X000907Y005411D01*
X000841Y005569D02*
X000660Y005569D01*
X000660Y005728D02*
X000840Y005728D01*
X000881Y005886D02*
X000660Y005886D01*
X000660Y006045D02*
X000981Y006045D01*
X001232Y006203D02*
X000660Y006203D01*
X000660Y006362D02*
X002954Y006362D01*
X002920Y006203D02*
X002128Y006203D01*
X002379Y006045D02*
X002935Y006045D01*
X003007Y005886D02*
X002479Y005886D01*
X002520Y005728D02*
X003206Y005728D01*
X003360Y005569D02*
X002519Y005569D01*
X002453Y005411D02*
X003360Y005411D01*
X003360Y005252D02*
X002316Y005252D01*
X002330Y005094D02*
X003360Y005094D01*
X003360Y004935D02*
X002459Y004935D01*
X002536Y004777D02*
X003360Y004777D01*
X003360Y004618D02*
X002695Y004618D01*
X002853Y004460D02*
X003284Y004460D01*
X003213Y004301D02*
X003012Y004301D01*
X003170Y004143D02*
X003202Y004143D01*
X004000Y004618D02*
X006489Y004618D01*
X006409Y004585D02*
X006275Y004451D01*
X006202Y004275D01*
X006202Y004085D01*
X006275Y003909D01*
X006409Y003775D01*
X006585Y003702D01*
X006775Y003702D01*
X006951Y003775D01*
X007085Y003909D01*
X007158Y004085D01*
X007158Y004275D01*
X007085Y004451D01*
X006951Y004585D01*
X006775Y004658D01*
X006585Y004658D01*
X006409Y004585D01*
X006284Y004460D02*
X004991Y004460D01*
X005080Y004301D02*
X006213Y004301D01*
X006202Y004143D02*
X005097Y004143D01*
X005049Y003984D02*
X006244Y003984D01*
X006359Y003826D02*
X004903Y003826D01*
X004680Y003826D02*
X004680Y003826D01*
X004680Y003984D02*
X004680Y003984D01*
X003963Y003350D02*
X019700Y003350D01*
X019700Y003192D02*
X004121Y003192D01*
X004280Y003033D02*
X019700Y003033D01*
X019700Y002875D02*
X004438Y002875D01*
X004597Y002716D02*
X018258Y002716D01*
X017988Y002558D02*
X004755Y002558D01*
X004914Y002399D02*
X017829Y002399D01*
X017722Y002241D02*
X005072Y002241D01*
X005231Y002082D02*
X017639Y002082D01*
X017596Y001924D02*
X005389Y001924D01*
X005548Y001765D02*
X017570Y001765D01*
X017570Y001607D02*
X016899Y001607D01*
X016951Y001585D02*
X016775Y001658D01*
X016585Y001658D01*
X016409Y001585D01*
X016324Y001500D01*
X016036Y001500D01*
X015951Y001585D01*
X015775Y001658D01*
X015585Y001658D01*
X015409Y001585D01*
X015324Y001500D01*
X015036Y001500D01*
X014951Y001585D01*
X014775Y001658D01*
X014585Y001658D01*
X014409Y001585D01*
X014324Y001500D01*
X014036Y001500D01*
X013951Y001585D01*
X013775Y001658D01*
X013585Y001658D01*
X013409Y001585D01*
X013275Y001451D01*
X013202Y001275D01*
X013202Y001085D01*
X013275Y000909D01*
X013409Y000775D01*
X013585Y000702D01*
X013775Y000702D01*
X013951Y000775D01*
X014036Y000860D01*
X014324Y000860D01*
X014409Y000775D01*
X014585Y000702D01*
X014775Y000702D01*
X014951Y000775D01*
X015036Y000860D01*
X015324Y000860D01*
X015409Y000775D01*
X015585Y000702D01*
X015775Y000702D01*
X015951Y000775D01*
X016036Y000860D01*
X016324Y000860D01*
X016409Y000775D01*
X016585Y000702D01*
X016775Y000702D01*
X016951Y000775D01*
X017085Y000909D01*
X017158Y001085D01*
X017158Y001275D01*
X017085Y001451D01*
X016951Y001585D01*
X017086Y001448D02*
X017593Y001448D01*
X017636Y001290D02*
X017152Y001290D01*
X017158Y001131D02*
X017715Y001131D01*
X017818Y000973D02*
X017111Y000973D01*
X016990Y000814D02*
X017976Y000814D01*
X019102Y002716D02*
X019700Y002716D01*
X019700Y002558D02*
X019372Y002558D01*
X019531Y002399D02*
X019700Y002399D01*
X019700Y002241D02*
X019638Y002241D01*
X019700Y003826D02*
X016903Y003826D01*
X016899Y003823D02*
X016952Y003861D01*
X016999Y003908D01*
X017037Y003961D01*
X017067Y004020D01*
X017088Y004082D01*
X017098Y004147D01*
X017098Y004180D01*
X017098Y004213D01*
X017088Y004278D01*
X017067Y004340D01*
X017037Y004399D01*
X016999Y004452D01*
X016952Y004499D01*
X016899Y004537D01*
X016840Y004567D01*
X016778Y004588D01*
X016713Y004598D01*
X016680Y004598D01*
X016647Y004598D01*
X016582Y004588D01*
X016520Y004567D01*
X016461Y004537D01*
X016408Y004499D01*
X016361Y004452D01*
X016323Y004399D01*
X016293Y004340D01*
X016272Y004278D01*
X016262Y004213D01*
X016262Y004180D01*
X016262Y004147D01*
X016272Y004082D01*
X016293Y004020D01*
X016323Y003961D01*
X016361Y003908D01*
X016408Y003861D01*
X016461Y003823D01*
X016520Y003793D01*
X016582Y003772D01*
X016647Y003762D01*
X016680Y003762D01*
X016713Y003762D01*
X016778Y003772D01*
X016840Y003793D01*
X016899Y003823D01*
X017049Y003984D02*
X019700Y003984D01*
X019700Y004143D02*
X017097Y004143D01*
X017098Y004180D02*
X016680Y004180D01*
X016180Y004680D01*
X011680Y004680D01*
X011180Y004180D01*
X009680Y004180D01*
X009680Y004180D01*
X009680Y004598D01*
X009647Y004598D01*
X009582Y004588D01*
X009520Y004567D01*
X009461Y004537D01*
X009408Y004499D01*
X009361Y004452D01*
X009323Y004399D01*
X009293Y004340D01*
X009272Y004278D01*
X009262Y004213D01*
X009262Y004180D01*
X009262Y004147D01*
X009272Y004082D01*
X009293Y004020D01*
X009323Y003961D01*
X009361Y003908D01*
X009408Y003861D01*
X009461Y003823D01*
X009520Y003793D01*
X009582Y003772D01*
X009647Y003762D01*
X009680Y003762D01*
X009713Y003762D01*
X009778Y003772D01*
X009840Y003793D01*
X009899Y003823D01*
X009952Y003861D01*
X009999Y003908D01*
X010037Y003961D01*
X010067Y004020D01*
X010088Y004082D01*
X010098Y004147D01*
X010098Y004180D01*
X010098Y004213D01*
X010088Y004278D01*
X010067Y004340D01*
X010037Y004399D01*
X009999Y004452D01*
X009952Y004499D01*
X009899Y004537D01*
X009840Y004567D01*
X009778Y004588D01*
X009713Y004598D01*
X009680Y004598D01*
X009680Y004180D01*
X010098Y004180D01*
X009680Y004180D01*
X009680Y004180D01*
X009680Y004180D01*
X009262Y004180D01*
X009680Y004180D01*
X009680Y003762D01*
X009680Y004180D01*
X009680Y004180D01*
X009680Y004143D02*
X009680Y004143D01*
X009680Y004301D02*
X009680Y004301D01*
X009680Y004460D02*
X009680Y004460D01*
X009369Y004460D02*
X009076Y004460D01*
X009085Y004451D02*
X008951Y004585D01*
X008775Y004658D01*
X008585Y004658D01*
X008409Y004585D01*
X008275Y004451D01*
X008202Y004275D01*
X008202Y004085D01*
X008275Y003909D01*
X008409Y003775D01*
X008585Y003702D01*
X008775Y003702D01*
X008951Y003775D01*
X009085Y003909D01*
X009158Y004085D01*
X009158Y004275D01*
X009085Y004451D01*
X009147Y004301D02*
X009280Y004301D01*
X009263Y004143D02*
X009158Y004143D01*
X009116Y003984D02*
X009311Y003984D01*
X009457Y003826D02*
X009001Y003826D01*
X008359Y003826D02*
X008001Y003826D01*
X007951Y003775D02*
X008085Y003909D01*
X008158Y004085D01*
X008158Y004275D01*
X008085Y004451D01*
X007951Y004585D01*
X007775Y004658D01*
X007585Y004658D01*
X007409Y004585D01*
X007275Y004451D01*
X007202Y004275D01*
X007202Y004085D01*
X007275Y003909D01*
X007409Y003775D01*
X007585Y003702D01*
X007775Y003702D01*
X007951Y003775D01*
X008116Y003984D02*
X008244Y003984D01*
X008202Y004143D02*
X008158Y004143D01*
X008147Y004301D02*
X008213Y004301D01*
X008284Y004460D02*
X008076Y004460D01*
X007871Y004618D02*
X008489Y004618D01*
X008871Y004618D02*
X011989Y004618D01*
X011909Y004585D02*
X011775Y004451D01*
X011702Y004275D01*
X011702Y004085D01*
X011775Y003909D01*
X011909Y003775D01*
X012085Y003702D01*
X012275Y003702D01*
X012451Y003775D01*
X012585Y003909D01*
X012658Y004085D01*
X012658Y004275D01*
X012585Y004451D01*
X012451Y004585D01*
X012275Y004658D01*
X012085Y004658D01*
X011909Y004585D01*
X011784Y004460D02*
X011491Y004460D01*
X011499Y004452D02*
X011452Y004499D01*
X011399Y004537D01*
X011340Y004567D01*
X011278Y004588D01*
X011213Y004598D01*
X011180Y004598D01*
X011147Y004598D01*
X011082Y004588D01*
X011020Y004567D01*
X010961Y004537D01*
X010908Y004499D01*
X010861Y004452D01*
X010823Y004399D01*
X010793Y004340D01*
X010772Y004278D01*
X010762Y004213D01*
X010762Y004180D01*
X010762Y004147D01*
X010772Y004082D01*
X010793Y004020D01*
X010823Y003961D01*
X010861Y003908D01*
X010908Y003861D01*
X010961Y003823D01*
X011020Y003793D01*
X011082Y003772D01*
X011147Y003762D01*
X011180Y003762D01*
X011213Y003762D01*
X011278Y003772D01*
X011340Y003793D01*
X011399Y003823D01*
X011452Y003861D01*
X011499Y003908D01*
X011537Y003961D01*
X011567Y004020D01*
X011588Y004082D01*
X011598Y004147D01*
X011598Y004180D01*
X011598Y004213D01*
X011588Y004278D01*
X011567Y004340D01*
X011537Y004399D01*
X011499Y004452D01*
X011580Y004301D02*
X011713Y004301D01*
X011702Y004143D02*
X011597Y004143D01*
X011598Y004180D02*
X011180Y004180D01*
X011598Y004180D01*
X011549Y003984D02*
X011744Y003984D01*
X011859Y003826D02*
X011403Y003826D01*
X011180Y003826D02*
X011180Y003826D01*
X011180Y003762D02*
X011180Y004180D01*
X011180Y004180D01*
X011180Y004180D01*
X011180Y004598D01*
X011180Y004180D01*
X011180Y004180D01*
X011180Y004180D01*
X010762Y004180D01*
X011180Y004180D01*
X011180Y003762D01*
X011180Y003984D02*
X011180Y003984D01*
X011180Y004143D02*
X011180Y004143D01*
X011180Y004301D02*
X011180Y004301D01*
X011180Y004460D02*
X011180Y004460D01*
X010869Y004460D02*
X009991Y004460D01*
X010080Y004301D02*
X010780Y004301D01*
X010763Y004143D02*
X010097Y004143D01*
X010049Y003984D02*
X010811Y003984D01*
X010957Y003826D02*
X009903Y003826D01*
X009680Y003826D02*
X009680Y003826D01*
X009680Y003984D02*
X009680Y003984D01*
X009680Y005740D02*
X009975Y005740D01*
X010043Y005751D01*
X010109Y005772D01*
X010171Y005804D01*
X010227Y005844D01*
X010276Y005893D01*
X010316Y005949D01*
X010348Y006011D01*
X010369Y006077D01*
X010380Y006145D01*
X010380Y006180D01*
X010380Y006215D01*
X010369Y006283D01*
X010348Y006349D01*
X010342Y006360D01*
X011453Y006360D01*
X011420Y006279D01*
X011420Y006081D01*
X011496Y005897D01*
X011637Y005756D01*
X011821Y005680D01*
X012539Y005680D01*
X012723Y005756D01*
X012864Y005897D01*
X012940Y006081D01*
X012940Y006279D01*
X012864Y006463D01*
X012723Y006604D01*
X012539Y006680D01*
X012133Y006680D01*
X012543Y006679D02*
X019700Y006679D01*
X019700Y006837D02*
X018804Y006837D01*
X018864Y006897D02*
X018940Y007081D01*
X018940Y007279D01*
X018864Y007463D01*
X018723Y007604D01*
X018539Y007680D01*
X017821Y007680D01*
X017637Y007604D01*
X017496Y007463D01*
X017420Y007279D01*
X017420Y007081D01*
X017496Y006897D01*
X017637Y006756D01*
X017821Y006680D01*
X018539Y006680D01*
X018723Y006756D01*
X018864Y006897D01*
X018905Y006996D02*
X019700Y006996D01*
X019700Y007154D02*
X018940Y007154D01*
X018926Y007313D02*
X019700Y007313D01*
X019700Y007471D02*
X018856Y007471D01*
X018661Y007630D02*
X019700Y007630D01*
X019700Y007788D02*
X018755Y007788D01*
X018723Y007756D02*
X018864Y007897D01*
X018940Y008081D01*
X018940Y008279D01*
X018864Y008463D01*
X018723Y008604D01*
X018539Y008680D01*
X017821Y008680D01*
X017637Y008604D01*
X017496Y008463D01*
X017420Y008279D01*
X017420Y008081D01*
X017496Y007897D01*
X017637Y007756D01*
X017821Y007680D01*
X018539Y007680D01*
X018723Y007756D01*
X018884Y007947D02*
X019700Y007947D01*
X019700Y008105D02*
X018940Y008105D01*
X018940Y008264D02*
X019700Y008264D01*
X019700Y008422D02*
X018881Y008422D01*
X018747Y008581D02*
X019700Y008581D01*
X019700Y008739D02*
X018682Y008739D01*
X018723Y008756D02*
X018864Y008897D01*
X018940Y009081D01*
X018940Y009279D01*
X018864Y009463D01*
X018723Y009604D01*
X018539Y009680D01*
X017821Y009680D01*
X017637Y009604D01*
X017496Y009463D01*
X017420Y009279D01*
X017420Y009081D01*
X017496Y008897D01*
X017637Y008756D01*
X017821Y008680D01*
X018539Y008680D01*
X018723Y008756D01*
X018864Y008898D02*
X019700Y008898D01*
X019700Y009056D02*
X018930Y009056D01*
X018940Y009215D02*
X019700Y009215D01*
X019700Y009373D02*
X018901Y009373D01*
X018796Y009532D02*
X019700Y009532D01*
X019700Y009690D02*
X018564Y009690D01*
X018539Y009680D02*
X018723Y009756D01*
X018864Y009897D01*
X018940Y010081D01*
X018940Y010279D01*
X018864Y010463D01*
X018723Y010604D01*
X018539Y010680D01*
X018723Y010756D01*
X018864Y010897D01*
X018940Y011081D01*
X018940Y011279D01*
X018864Y011463D01*
X018723Y011604D01*
X018539Y011680D01*
X018723Y011756D01*
X018864Y011897D01*
X018940Y012081D01*
X018940Y012279D01*
X018864Y012463D01*
X018723Y012604D01*
X018539Y012680D01*
X017821Y012680D01*
X017637Y012604D01*
X017496Y012463D01*
X017420Y012279D01*
X017420Y012081D01*
X017496Y011897D01*
X017637Y011756D01*
X017821Y011680D01*
X018539Y011680D01*
X017821Y011680D01*
X017637Y011604D01*
X017496Y011463D01*
X017420Y011279D01*
X017420Y011081D01*
X017496Y010897D01*
X017637Y010756D01*
X017821Y010680D01*
X018539Y010680D01*
X017821Y010680D01*
X017637Y010604D01*
X017496Y010463D01*
X017420Y010279D01*
X017420Y010081D01*
X017496Y009897D01*
X017637Y009756D01*
X017821Y009680D01*
X018539Y009680D01*
X018816Y009849D02*
X019700Y009849D01*
X019700Y010007D02*
X018910Y010007D01*
X018940Y010166D02*
X019700Y010166D01*
X019700Y010324D02*
X018922Y010324D01*
X018845Y010483D02*
X019700Y010483D01*
X019700Y010641D02*
X018634Y010641D01*
X018767Y010800D02*
X019700Y010800D01*
X019700Y010958D02*
X018889Y010958D01*
X018940Y011117D02*
X019700Y011117D01*
X019700Y011275D02*
X018940Y011275D01*
X018876Y011434D02*
X019700Y011434D01*
X019700Y011592D02*
X018735Y011592D01*
X018710Y011751D02*
X019700Y011751D01*
X019700Y011909D02*
X018869Y011909D01*
X018935Y012068D02*
X019700Y012068D01*
X019700Y012226D02*
X018940Y012226D01*
X018896Y012385D02*
X019700Y012385D01*
X019700Y012543D02*
X018784Y012543D01*
X018723Y012756D02*
X018864Y012897D01*
X018940Y013081D01*
X018940Y013279D01*
X018864Y013463D01*
X018723Y013604D01*
X018539Y013680D01*
X017821Y013680D01*
X017637Y013604D01*
X017496Y013463D01*
X017420Y013279D01*
X017420Y013081D01*
X017496Y012897D01*
X017637Y012756D01*
X017821Y012680D01*
X018539Y012680D01*
X018723Y012756D01*
X018591Y012702D02*
X019700Y012702D01*
X019700Y012860D02*
X018827Y012860D01*
X018914Y013019D02*
X019700Y013019D01*
X019700Y013177D02*
X018940Y013177D01*
X018917Y013336D02*
X019700Y013336D01*
X019700Y013494D02*
X018833Y013494D01*
X018606Y013653D02*
X019700Y013653D01*
X019700Y013811D02*
X018778Y013811D01*
X018723Y013756D02*
X018864Y013897D01*
X018940Y014081D01*
X018940Y014279D01*
X018864Y014463D01*
X018723Y014604D01*
X018539Y014680D01*
X017821Y014680D01*
X017637Y014604D01*
X017496Y014463D01*
X017420Y014279D01*
X017420Y014081D01*
X017496Y013897D01*
X017637Y013756D01*
X017821Y013680D01*
X018539Y013680D01*
X018723Y013756D01*
X018894Y013970D02*
X019700Y013970D01*
X019700Y014128D02*
X018940Y014128D01*
X018937Y014287D02*
X019700Y014287D01*
X019700Y014445D02*
X018871Y014445D01*
X018724Y014604D02*
X019700Y014604D01*
X019700Y014762D02*
X018729Y014762D01*
X018723Y014756D02*
X018864Y014897D01*
X018940Y015081D01*
X018940Y015279D01*
X018864Y015463D01*
X018723Y015604D01*
X018539Y015680D01*
X017821Y015680D01*
X017637Y015604D01*
X017496Y015463D01*
X017420Y015279D01*
X017420Y015081D01*
X017496Y014897D01*
X017637Y014756D01*
X017821Y014680D01*
X018539Y014680D01*
X018723Y014756D01*
X018874Y014921D02*
X019700Y014921D01*
X019700Y015079D02*
X018939Y015079D01*
X018940Y015238D02*
X019700Y015238D01*
X019700Y015396D02*
X018892Y015396D01*
X018773Y015555D02*
X019700Y015555D01*
X019700Y015713D02*
X018619Y015713D01*
X018539Y015680D02*
X018723Y015756D01*
X018864Y015897D01*
X018940Y016081D01*
X018940Y016279D01*
X018864Y016463D01*
X018723Y016604D01*
X018539Y016680D01*
X017821Y016680D01*
X017637Y016604D01*
X017496Y016463D01*
X017420Y016279D01*
X017420Y016081D01*
X017496Y015897D01*
X017637Y015756D01*
X017821Y015680D01*
X018539Y015680D01*
X018839Y015872D02*
X019700Y015872D01*
X019700Y016030D02*
X018919Y016030D01*
X018940Y016189D02*
X019700Y016189D01*
X019700Y016347D02*
X018912Y016347D01*
X018822Y016506D02*
X019700Y016506D01*
X019700Y016664D02*
X018578Y016664D01*
X018539Y016680D02*
X018723Y016756D01*
X018864Y016897D01*
X018940Y017081D01*
X018940Y017279D01*
X018864Y017463D01*
X018723Y017604D01*
X018539Y017680D01*
X017821Y017680D01*
X017637Y017604D01*
X017496Y017463D01*
X017420Y017279D01*
X017420Y017081D01*
X017496Y016897D01*
X017637Y016756D01*
X017821Y016680D01*
X018539Y016680D01*
X018790Y016823D02*
X019700Y016823D01*
X019700Y016981D02*
X018899Y016981D01*
X018940Y017140D02*
X019700Y017140D01*
X019700Y017298D02*
X018932Y017298D01*
X018867Y017457D02*
X019700Y017457D01*
X019700Y017615D02*
X018696Y017615D01*
X018723Y017756D02*
X018864Y017897D01*
X018940Y018081D01*
X018940Y018279D01*
X018864Y018463D01*
X018723Y018604D01*
X018539Y018680D01*
X017821Y018680D01*
X017637Y018604D01*
X017496Y018463D01*
X017420Y018279D01*
X017420Y018081D01*
X017496Y017897D01*
X017637Y017756D01*
X017821Y017680D01*
X018539Y017680D01*
X018723Y017756D01*
X018741Y017774D02*
X019700Y017774D01*
X019700Y017932D02*
X018878Y017932D01*
X018940Y018091D02*
X019700Y018091D01*
X019700Y018249D02*
X018940Y018249D01*
X018887Y018408D02*
X019700Y018408D01*
X019700Y018566D02*
X018761Y018566D01*
X018723Y018756D02*
X018864Y018897D01*
X018940Y019081D01*
X018940Y019279D01*
X018864Y019463D01*
X018723Y019604D01*
X018539Y019680D01*
X017821Y019680D01*
X017637Y019604D01*
X017496Y019463D01*
X017420Y019279D01*
X017420Y019081D01*
X017496Y018897D01*
X017637Y018756D01*
X017821Y018680D01*
X018539Y018680D01*
X018723Y018756D01*
X018647Y018725D02*
X019700Y018725D01*
X019700Y018883D02*
X018850Y018883D01*
X018924Y019042D02*
X019700Y019042D01*
X019700Y019200D02*
X018940Y019200D01*
X018907Y019359D02*
X019700Y019359D01*
X019700Y019517D02*
X018810Y019517D01*
X018723Y019756D02*
X018864Y019897D01*
X018940Y020081D01*
X018940Y020279D01*
X018864Y020463D01*
X018723Y020604D01*
X018539Y020680D01*
X017821Y020680D01*
X017637Y020604D01*
X017496Y020463D01*
X017420Y020279D01*
X017420Y020081D01*
X017496Y019897D01*
X017637Y019756D01*
X017821Y019680D01*
X018539Y019680D01*
X018723Y019756D01*
X018801Y019834D02*
X019700Y019834D01*
X019700Y019676D02*
X018550Y019676D01*
X018904Y019993D02*
X019700Y019993D01*
X019700Y020151D02*
X018940Y020151D01*
X018928Y020310D02*
X019700Y020310D01*
X019700Y020468D02*
X018859Y020468D01*
X018669Y020627D02*
X019700Y020627D01*
X019700Y020785D02*
X018752Y020785D01*
X018723Y020756D02*
X018864Y020897D01*
X018940Y021081D01*
X018940Y021279D01*
X018864Y021463D01*
X018723Y021604D01*
X018539Y021680D01*
X017821Y021680D01*
X017637Y021604D01*
X017496Y021463D01*
X017420Y021279D01*
X017420Y021081D01*
X017496Y020897D01*
X017637Y020756D01*
X017821Y020680D01*
X018539Y020680D01*
X018723Y020756D01*
X018883Y020944D02*
X019700Y020944D01*
X019700Y021102D02*
X018940Y021102D01*
X018940Y021261D02*
X019700Y021261D01*
X019700Y021419D02*
X018882Y021419D01*
X018750Y021578D02*
X019700Y021578D01*
X019700Y021736D02*
X018675Y021736D01*
X018723Y021756D02*
X018864Y021897D01*
X018940Y022081D01*
X018940Y022279D01*
X018864Y022463D01*
X018723Y022604D01*
X018539Y022680D01*
X017821Y022680D01*
X017637Y022604D01*
X017496Y022463D01*
X017420Y022279D01*
X017420Y022081D01*
X017496Y021897D01*
X017637Y021756D01*
X017821Y021680D01*
X018539Y021680D01*
X018723Y021756D01*
X018862Y021895D02*
X019700Y021895D01*
X019700Y022053D02*
X018929Y022053D01*
X018940Y022212D02*
X019700Y022212D01*
X019700Y022370D02*
X018902Y022370D01*
X018799Y022529D02*
X019700Y022529D01*
X019700Y022687D02*
X018556Y022687D01*
X018539Y022680D02*
X018723Y022756D01*
X018864Y022897D01*
X018940Y023081D01*
X018940Y023279D01*
X018864Y023463D01*
X018723Y023604D01*
X018539Y023680D01*
X017821Y023680D01*
X017637Y023604D01*
X017496Y023463D01*
X017420Y023279D01*
X017420Y023081D01*
X017496Y022897D01*
X017637Y022756D01*
X017821Y022680D01*
X018539Y022680D01*
X018813Y022846D02*
X019700Y022846D01*
X019700Y023004D02*
X018908Y023004D01*
X018940Y023163D02*
X019700Y023163D01*
X019700Y023321D02*
X018923Y023321D01*
X018848Y023480D02*
X019700Y023480D01*
X019700Y023638D02*
X018641Y023638D01*
X018539Y023680D02*
X018723Y023756D01*
X018864Y023897D01*
X018940Y024081D01*
X018940Y024279D01*
X018864Y024463D01*
X018723Y024604D01*
X018539Y024680D01*
X017821Y024680D01*
X017637Y024604D01*
X017496Y024463D01*
X017420Y024279D01*
X017420Y024081D01*
X017496Y023897D01*
X017637Y023756D01*
X017821Y023680D01*
X018539Y023680D01*
X018764Y023797D02*
X019700Y023797D01*
X019700Y023955D02*
X018888Y023955D01*
X018940Y024114D02*
X019700Y024114D01*
X019700Y024272D02*
X018940Y024272D01*
X018877Y024431D02*
X019700Y024431D01*
X019700Y024589D02*
X018738Y024589D01*
X018703Y024748D02*
X019700Y024748D01*
X019700Y024906D02*
X018868Y024906D01*
X018864Y024897D02*
X018940Y025081D01*
X018940Y025279D01*
X018864Y025463D01*
X018723Y025604D01*
X018539Y025680D01*
X017821Y025680D01*
X017637Y025604D01*
X017496Y025463D01*
X017420Y025279D01*
X017420Y025081D01*
X017496Y024897D01*
X017637Y024756D01*
X017821Y024680D01*
X018539Y024680D01*
X018723Y024756D01*
X018864Y024897D01*
X018933Y025065D02*
X019700Y025065D01*
X019700Y025223D02*
X018940Y025223D01*
X018898Y025382D02*
X019700Y025382D01*
X019700Y025540D02*
X018787Y025540D01*
X019700Y025699D02*
X011552Y025699D01*
X011637Y025604D02*
X011624Y025591D01*
X011464Y025831D01*
X011451Y025861D01*
X011429Y025884D01*
X011411Y025910D01*
X011384Y025928D01*
X011361Y025951D01*
X011332Y025964D01*
X011305Y025981D01*
X011273Y025988D01*
X011244Y026000D01*
X011212Y026000D01*
X011180Y026006D01*
X011149Y026000D01*
X002424Y026000D01*
X002286Y026138D01*
X002087Y026220D01*
X001273Y026220D01*
X001074Y026138D01*
X000922Y025986D01*
X000840Y025787D01*
X000840Y025573D01*
X000922Y025374D01*
X001074Y025222D01*
X001176Y025180D01*
X001074Y025138D01*
X000922Y024986D01*
X000840Y024787D01*
X000840Y024573D01*
X000922Y024374D01*
X001074Y024222D01*
X001273Y024140D01*
X001767Y024140D01*
X001909Y023999D01*
X001999Y023909D01*
X002116Y023860D01*
X003033Y023860D01*
X003137Y023756D01*
X003321Y023680D01*
X003137Y023604D01*
X002996Y023463D01*
X002920Y023279D01*
X002920Y023081D01*
X002996Y022897D01*
X003137Y022756D01*
X003321Y022680D01*
X003137Y022604D01*
X002996Y022463D01*
X002920Y022279D01*
X002920Y022081D01*
X002996Y021897D01*
X003137Y021756D01*
X003321Y021680D01*
X004039Y021680D01*
X004223Y021756D01*
X004364Y021897D01*
X004440Y022081D01*
X004440Y022279D01*
X004364Y022463D01*
X004223Y022604D01*
X004039Y022680D01*
X003321Y022680D01*
X004039Y022680D01*
X004223Y022756D01*
X004364Y022897D01*
X004440Y023081D01*
X004440Y023279D01*
X004364Y023463D01*
X004223Y023604D01*
X004039Y023680D01*
X003321Y023680D01*
X004039Y023680D01*
X004223Y023756D01*
X004364Y023897D01*
X004440Y024081D01*
X004440Y024279D01*
X004364Y024463D01*
X004223Y024604D01*
X004039Y024680D01*
X004223Y024756D01*
X004364Y024897D01*
X004440Y025081D01*
X004440Y025279D01*
X004407Y025360D01*
X008953Y025360D01*
X008920Y025279D01*
X008920Y025081D01*
X008996Y024897D01*
X009137Y024756D01*
X009321Y024680D01*
X009137Y024604D01*
X008996Y024463D01*
X008920Y024279D01*
X008920Y024081D01*
X008996Y023897D01*
X009137Y023756D01*
X009321Y023680D01*
X010039Y023680D01*
X010223Y023756D01*
X010364Y023897D01*
X010440Y024081D01*
X010440Y024279D01*
X010364Y024463D01*
X010223Y024604D01*
X010039Y024680D01*
X009321Y024680D01*
X010039Y024680D01*
X010223Y024756D01*
X010364Y024897D01*
X010440Y025081D01*
X010440Y025279D01*
X010407Y025360D01*
X011009Y025360D01*
X011562Y024530D01*
X011496Y024463D01*
X011420Y024279D01*
X011420Y024081D01*
X011496Y023897D01*
X011637Y023756D01*
X011821Y023680D01*
X012539Y023680D01*
X012723Y023756D01*
X012864Y023897D01*
X012940Y024081D01*
X012940Y024279D01*
X012864Y024463D01*
X012723Y024604D01*
X012539Y024680D01*
X012723Y024756D01*
X012864Y024897D01*
X012940Y025081D01*
X012940Y025279D01*
X012864Y025463D01*
X012723Y025604D01*
X012539Y025680D01*
X011821Y025680D01*
X011637Y025604D01*
X011453Y025857D02*
X019700Y025857D01*
X019700Y026016D02*
X002408Y026016D01*
X002198Y026174D02*
X019700Y026174D01*
X019700Y026333D02*
X000660Y026333D01*
X000660Y026491D02*
X019700Y026491D01*
X019700Y026650D02*
X000660Y026650D01*
X000660Y026808D02*
X019700Y026808D01*
X019700Y026967D02*
X000660Y026967D01*
X000660Y027125D02*
X019700Y027125D01*
X019700Y027284D02*
X000660Y027284D01*
X000660Y027442D02*
X005854Y027442D01*
X005874Y027422D02*
X006073Y027340D01*
X006287Y027340D01*
X006486Y027422D01*
X006638Y027574D01*
X006680Y027676D01*
X006722Y027574D01*
X006874Y027422D01*
X007073Y027340D01*
X007287Y027340D01*
X007486Y027422D01*
X007638Y027574D01*
X007680Y027676D01*
X007722Y027574D01*
X007874Y027422D01*
X008073Y027340D01*
X008287Y027340D01*
X008486Y027422D01*
X008638Y027574D01*
X008720Y027773D01*
X008720Y028587D01*
X008638Y028786D01*
X008486Y028938D01*
X008287Y029020D01*
X008073Y029020D01*
X007874Y028938D01*
X007722Y028786D01*
X007680Y028684D01*
X007638Y028786D01*
X007486Y028938D01*
X007287Y029020D01*
X007073Y029020D01*
X006874Y028938D01*
X006722Y028786D01*
X006680Y028684D01*
X006638Y028786D01*
X006486Y028938D01*
X006287Y029020D01*
X006073Y029020D01*
X005874Y028938D01*
X005722Y028786D01*
X005640Y028587D01*
X005640Y027773D01*
X005722Y027574D01*
X005874Y027422D01*
X005711Y027601D02*
X001940Y027601D01*
X002305Y027759D02*
X005646Y027759D01*
X005640Y027918D02*
X002487Y027918D01*
X002613Y028076D02*
X005640Y028076D01*
X005640Y028235D02*
X002704Y028235D01*
X002752Y028393D02*
X005640Y028393D01*
X005640Y028552D02*
X002790Y028552D01*
X002790Y028710D02*
X005691Y028710D01*
X005805Y028869D02*
X002779Y028869D01*
X002736Y029027D02*
X017624Y029027D01*
X017581Y028869D02*
X016055Y028869D01*
X015986Y028938D02*
X015787Y029020D01*
X015573Y029020D01*
X015374Y028938D01*
X015222Y028786D01*
X015180Y028684D01*
X015138Y028786D01*
X014986Y028938D01*
X014787Y029020D01*
X014573Y029020D01*
X014374Y028938D01*
X014222Y028786D01*
X014180Y028684D01*
X014138Y028786D01*
X013986Y028938D01*
X013787Y029020D01*
X013573Y029020D01*
X013374Y028938D01*
X013222Y028786D01*
X013140Y028587D01*
X013140Y027773D01*
X013222Y027574D01*
X013374Y027422D01*
X013573Y027340D01*
X013787Y027340D01*
X013986Y027422D01*
X014138Y027574D01*
X014180Y027676D01*
X014222Y027574D01*
X014374Y027422D01*
X014573Y027340D01*
X014787Y027340D01*
X014986Y027422D01*
X015138Y027574D01*
X015180Y027676D01*
X015222Y027574D01*
X015374Y027422D01*
X015573Y027340D01*
X015787Y027340D01*
X015986Y027422D01*
X016138Y027574D01*
X016220Y027773D01*
X016220Y028587D01*
X016138Y028786D01*
X015986Y028938D01*
X016169Y028710D02*
X017570Y028710D01*
X017570Y028552D02*
X016220Y028552D01*
X016220Y028393D02*
X017608Y028393D01*
X017656Y028235D02*
X016220Y028235D01*
X016220Y028076D02*
X017747Y028076D01*
X017873Y027918D02*
X016220Y027918D01*
X016214Y027759D02*
X018055Y027759D01*
X018420Y027601D02*
X016149Y027601D01*
X016006Y027442D02*
X019700Y027442D01*
X019700Y027601D02*
X018940Y027601D01*
X019305Y027759D02*
X019700Y027759D01*
X019700Y027918D02*
X019487Y027918D01*
X019613Y028076D02*
X019700Y028076D01*
X018159Y029661D02*
X002201Y029661D01*
X002427Y029503D02*
X017933Y029503D01*
X017782Y029344D02*
X002578Y029344D01*
X002670Y029186D02*
X017690Y029186D01*
X015305Y028869D02*
X015055Y028869D01*
X015169Y028710D02*
X015191Y028710D01*
X014305Y028869D02*
X014055Y028869D01*
X014169Y028710D02*
X014191Y028710D01*
X013305Y028869D02*
X008555Y028869D01*
X008669Y028710D02*
X013191Y028710D01*
X013140Y028552D02*
X008720Y028552D01*
X008720Y028393D02*
X013140Y028393D01*
X013140Y028235D02*
X008720Y028235D01*
X008720Y028076D02*
X013140Y028076D01*
X013140Y027918D02*
X008720Y027918D01*
X008714Y027759D02*
X013146Y027759D01*
X013211Y027601D02*
X008649Y027601D01*
X008506Y027442D02*
X013354Y027442D01*
X014006Y027442D02*
X014354Y027442D01*
X014211Y027601D02*
X014149Y027601D01*
X015006Y027442D02*
X015354Y027442D01*
X015211Y027601D02*
X015149Y027601D01*
X012898Y025382D02*
X017462Y025382D01*
X017420Y025223D02*
X012940Y025223D01*
X012933Y025065D02*
X017427Y025065D01*
X017492Y024906D02*
X012868Y024906D01*
X012703Y024748D02*
X017657Y024748D01*
X017622Y024589D02*
X012738Y024589D01*
X012877Y024431D02*
X017483Y024431D01*
X017420Y024272D02*
X012940Y024272D01*
X012940Y024114D02*
X017420Y024114D01*
X017472Y023955D02*
X012888Y023955D01*
X012764Y023797D02*
X017596Y023797D01*
X017719Y023638D02*
X012641Y023638D01*
X012723Y023604D02*
X012539Y023680D01*
X011821Y023680D01*
X011637Y023604D01*
X011496Y023463D01*
X011420Y023279D01*
X011420Y023081D01*
X011496Y022897D01*
X011637Y022756D01*
X011821Y022680D01*
X012539Y022680D01*
X012723Y022756D01*
X012864Y022897D01*
X012940Y023081D01*
X012940Y023279D01*
X012864Y023463D01*
X012723Y023604D01*
X012848Y023480D02*
X017512Y023480D01*
X017437Y023321D02*
X012923Y023321D01*
X012940Y023163D02*
X017420Y023163D01*
X017452Y023004D02*
X012908Y023004D01*
X012813Y022846D02*
X017547Y022846D01*
X017804Y022687D02*
X012556Y022687D01*
X012539Y022680D02*
X011821Y022680D01*
X011637Y022604D01*
X011496Y022463D01*
X011420Y022279D01*
X011420Y022081D01*
X011496Y021897D01*
X011637Y021756D01*
X011821Y021680D01*
X012539Y021680D01*
X012723Y021756D01*
X012864Y021897D01*
X012940Y022081D01*
X012940Y022279D01*
X012864Y022463D01*
X012723Y022604D01*
X012539Y022680D01*
X012799Y022529D02*
X017561Y022529D01*
X017458Y022370D02*
X012902Y022370D01*
X012940Y022212D02*
X017420Y022212D01*
X017431Y022053D02*
X012929Y022053D01*
X012862Y021895D02*
X017498Y021895D01*
X017685Y021736D02*
X012675Y021736D01*
X012723Y021604D02*
X012539Y021680D01*
X011821Y021680D01*
X011637Y021604D01*
X011496Y021463D01*
X011420Y021279D01*
X011420Y021081D01*
X011496Y020897D01*
X011637Y020756D01*
X011821Y020680D01*
X012539Y020680D01*
X012723Y020756D01*
X012864Y020897D01*
X012940Y021081D01*
X012940Y021279D01*
X012864Y021463D01*
X012723Y021604D01*
X012750Y021578D02*
X017610Y021578D01*
X017478Y021419D02*
X012882Y021419D01*
X012940Y021261D02*
X017420Y021261D01*
X017420Y021102D02*
X012940Y021102D01*
X012883Y020944D02*
X017477Y020944D01*
X017608Y020785D02*
X012752Y020785D01*
X012669Y020627D02*
X017691Y020627D01*
X017501Y020468D02*
X012859Y020468D01*
X012928Y020310D02*
X017432Y020310D01*
X017420Y020151D02*
X012940Y020151D01*
X012904Y019993D02*
X017456Y019993D01*
X017559Y019834D02*
X012801Y019834D01*
X012550Y019676D02*
X017810Y019676D01*
X017550Y019517D02*
X012810Y019517D01*
X012907Y019359D02*
X017453Y019359D01*
X017420Y019200D02*
X012940Y019200D01*
X012924Y019042D02*
X017436Y019042D01*
X017510Y018883D02*
X012850Y018883D01*
X012647Y018725D02*
X017713Y018725D01*
X017599Y018566D02*
X012761Y018566D01*
X012887Y018408D02*
X017473Y018408D01*
X017420Y018249D02*
X012940Y018249D01*
X012940Y018091D02*
X017420Y018091D01*
X017482Y017932D02*
X012878Y017932D01*
X012741Y017774D02*
X017619Y017774D01*
X017664Y017615D02*
X012696Y017615D01*
X012539Y017680D02*
X012133Y017680D01*
X012133Y017680D01*
X012539Y017680D01*
X012867Y017457D02*
X017493Y017457D01*
X017428Y017298D02*
X012932Y017298D01*
X012940Y017140D02*
X017420Y017140D01*
X017461Y016981D02*
X012899Y016981D01*
X012790Y016823D02*
X017570Y016823D01*
X017782Y016664D02*
X012578Y016664D01*
X012539Y016680D02*
X011896Y016680D01*
X011896Y016680D01*
X012539Y016680D01*
X012822Y016506D02*
X017538Y016506D01*
X017448Y016347D02*
X012912Y016347D01*
X012940Y016189D02*
X017420Y016189D01*
X017441Y016030D02*
X012919Y016030D01*
X012839Y015872D02*
X017521Y015872D01*
X017741Y015713D02*
X012619Y015713D01*
X012539Y015680D02*
X012133Y015680D01*
X012133Y015680D01*
X012539Y015680D01*
X012773Y015555D02*
X017587Y015555D01*
X017468Y015396D02*
X012892Y015396D01*
X012940Y015238D02*
X017420Y015238D01*
X017421Y015079D02*
X012939Y015079D01*
X012874Y014921D02*
X017486Y014921D01*
X017631Y014762D02*
X012729Y014762D01*
X012724Y014604D02*
X017636Y014604D01*
X017489Y014445D02*
X012871Y014445D01*
X012937Y014287D02*
X017423Y014287D01*
X017420Y014128D02*
X012940Y014128D01*
X012894Y013970D02*
X017466Y013970D01*
X017582Y013811D02*
X012778Y013811D01*
X012606Y013653D02*
X017754Y013653D01*
X017527Y013494D02*
X012833Y013494D01*
X012917Y013336D02*
X017443Y013336D01*
X017420Y013177D02*
X012940Y013177D01*
X012914Y013019D02*
X017446Y013019D01*
X017533Y012860D02*
X012827Y012860D01*
X012784Y012543D02*
X017576Y012543D01*
X017464Y012385D02*
X012896Y012385D01*
X012940Y012226D02*
X017420Y012226D01*
X017425Y012068D02*
X012935Y012068D01*
X012869Y011909D02*
X017491Y011909D01*
X017650Y011751D02*
X012710Y011751D01*
X012735Y011592D02*
X017625Y011592D01*
X017484Y011434D02*
X012876Y011434D01*
X012940Y011275D02*
X017420Y011275D01*
X017420Y011117D02*
X012940Y011117D01*
X012889Y010958D02*
X017471Y010958D01*
X017593Y010800D02*
X012767Y010800D01*
X012634Y010641D02*
X017726Y010641D01*
X017515Y010483D02*
X012845Y010483D01*
X012922Y010324D02*
X017438Y010324D01*
X017420Y010166D02*
X012940Y010166D01*
X012910Y010007D02*
X017450Y010007D01*
X017544Y009849D02*
X012816Y009849D01*
X012564Y009690D02*
X017796Y009690D01*
X017564Y009532D02*
X012796Y009532D01*
X012901Y009373D02*
X017459Y009373D01*
X017420Y009215D02*
X012940Y009215D01*
X012930Y009056D02*
X017430Y009056D01*
X017496Y008898D02*
X012864Y008898D01*
X012682Y008739D02*
X017678Y008739D01*
X017613Y008581D02*
X012747Y008581D01*
X012881Y008422D02*
X017479Y008422D01*
X017420Y008264D02*
X012940Y008264D01*
X012940Y008105D02*
X017420Y008105D01*
X017476Y007947D02*
X012884Y007947D01*
X012755Y007788D02*
X017605Y007788D01*
X017699Y007630D02*
X012661Y007630D01*
X012856Y007471D02*
X017504Y007471D01*
X017434Y007313D02*
X012926Y007313D01*
X012940Y007154D02*
X017420Y007154D01*
X017455Y006996D02*
X012905Y006996D01*
X012804Y006837D02*
X017556Y006837D01*
X017689Y006556D02*
X017633Y006516D01*
X017584Y006467D01*
X017544Y006411D01*
X017512Y006349D01*
X017491Y006283D01*
X017480Y006215D01*
X017480Y006180D01*
X018180Y006180D01*
X018180Y004680D01*
X017680Y004180D01*
X016680Y004180D01*
X016680Y004180D01*
X016680Y004598D01*
X016680Y004180D01*
X017098Y004180D01*
X017080Y004301D02*
X019700Y004301D01*
X019700Y004460D02*
X016991Y004460D01*
X016680Y004460D02*
X016680Y004460D01*
X016680Y004301D02*
X016680Y004301D01*
X016680Y004180D02*
X016680Y004180D01*
X016680Y004180D01*
X016262Y004180D01*
X016680Y004180D01*
X016680Y003762D01*
X016680Y004180D01*
X016680Y004180D01*
X016680Y004143D02*
X016680Y004143D01*
X016680Y003984D02*
X016680Y003984D01*
X016680Y003826D02*
X016680Y003826D01*
X016457Y003826D02*
X016001Y003826D01*
X015951Y003775D02*
X016085Y003909D01*
X016158Y004085D01*
X016158Y004275D01*
X016085Y004451D01*
X015951Y004585D01*
X015775Y004658D01*
X015585Y004658D01*
X015409Y004585D01*
X015275Y004451D01*
X015202Y004275D01*
X015202Y004085D01*
X015275Y003909D01*
X015409Y003775D01*
X015585Y003702D01*
X015775Y003702D01*
X015951Y003775D01*
X016116Y003984D02*
X016311Y003984D01*
X016263Y004143D02*
X016158Y004143D01*
X016147Y004301D02*
X016280Y004301D01*
X016369Y004460D02*
X016076Y004460D01*
X015871Y004618D02*
X019700Y004618D01*
X019700Y004777D02*
X004000Y004777D01*
X004000Y004935D02*
X019700Y004935D01*
X019700Y005094D02*
X004000Y005094D01*
X004000Y005252D02*
X019700Y005252D01*
X019700Y005411D02*
X004000Y005411D01*
X004000Y005569D02*
X019700Y005569D01*
X019700Y005728D02*
X012654Y005728D01*
X012853Y005886D02*
X017592Y005886D01*
X017584Y005893D02*
X017633Y005844D01*
X017689Y005804D01*
X017751Y005772D01*
X017817Y005751D01*
X017885Y005740D01*
X018180Y005740D01*
X018475Y005740D01*
X018543Y005751D01*
X018609Y005772D01*
X018671Y005804D01*
X018727Y005844D01*
X018776Y005893D01*
X018816Y005949D01*
X018848Y006011D01*
X018869Y006077D01*
X018880Y006145D01*
X018880Y006180D01*
X018880Y006215D01*
X018869Y006283D01*
X018848Y006349D01*
X018816Y006411D01*
X018776Y006467D01*
X018727Y006516D01*
X018671Y006556D01*
X018609Y006588D01*
X018543Y006609D01*
X018475Y006620D01*
X018180Y006620D01*
X018180Y006180D01*
X018180Y006180D01*
X018880Y006180D01*
X018180Y006180D01*
X018180Y006180D01*
X018180Y006620D01*
X017885Y006620D01*
X017817Y006609D01*
X017751Y006588D01*
X017689Y006556D01*
X017639Y006520D02*
X012807Y006520D01*
X012906Y006362D02*
X017519Y006362D01*
X017480Y006203D02*
X012940Y006203D01*
X012925Y006045D02*
X017501Y006045D01*
X017491Y006077D02*
X017512Y006011D01*
X017544Y005949D01*
X017584Y005893D01*
X017491Y006077D02*
X017480Y006145D01*
X017480Y006180D01*
X018180Y006180D01*
X018180Y005740D01*
X018180Y006180D01*
X018180Y006180D01*
X018180Y006180D01*
X018180Y006203D02*
X018180Y006203D01*
X018180Y006045D02*
X018180Y006045D01*
X018180Y005886D02*
X018180Y005886D01*
X018180Y006362D02*
X018180Y006362D01*
X018180Y006520D02*
X018180Y006520D01*
X018721Y006520D02*
X019700Y006520D01*
X019700Y006362D02*
X018841Y006362D01*
X018880Y006203D02*
X019700Y006203D01*
X019700Y006045D02*
X018859Y006045D01*
X018768Y005886D02*
X019700Y005886D01*
X016461Y001607D02*
X015899Y001607D01*
X015680Y001180D02*
X014680Y001180D01*
X013680Y001180D01*
X013990Y000814D02*
X014370Y000814D01*
X014990Y000814D02*
X015370Y000814D01*
X015680Y001180D02*
X016680Y001180D01*
X016370Y000814D02*
X015990Y000814D01*
X015461Y001607D02*
X014899Y001607D01*
X014461Y001607D02*
X013899Y001607D01*
X013461Y001607D02*
X009899Y001607D01*
X010086Y001448D02*
X013274Y001448D01*
X013208Y001290D02*
X010152Y001290D01*
X010158Y001131D02*
X013202Y001131D01*
X013249Y000973D02*
X010111Y000973D01*
X009990Y000814D02*
X013370Y000814D01*
X013585Y003702D02*
X013409Y003775D01*
X013275Y003909D01*
X013202Y004085D01*
X013202Y004275D01*
X013275Y004451D01*
X013409Y004585D01*
X013585Y004658D01*
X013775Y004658D01*
X013951Y004585D01*
X014085Y004451D01*
X014158Y004275D01*
X014158Y004085D01*
X014085Y003909D01*
X013951Y003775D01*
X013775Y003702D01*
X013585Y003702D01*
X013359Y003826D02*
X012501Y003826D01*
X012616Y003984D02*
X013244Y003984D01*
X013202Y004143D02*
X012658Y004143D01*
X012647Y004301D02*
X013213Y004301D01*
X013284Y004460D02*
X012576Y004460D01*
X012371Y004618D02*
X013489Y004618D01*
X013871Y004618D02*
X014489Y004618D01*
X014409Y004585D02*
X014585Y004658D01*
X014775Y004658D01*
X014951Y004585D01*
X015085Y004451D01*
X015158Y004275D01*
X015158Y004085D01*
X015085Y003909D01*
X014951Y003775D01*
X014775Y003702D01*
X014585Y003702D01*
X014409Y003775D01*
X014275Y003909D01*
X014202Y004085D01*
X014202Y004275D01*
X014275Y004451D01*
X014409Y004585D01*
X014284Y004460D02*
X014076Y004460D01*
X014147Y004301D02*
X014213Y004301D01*
X014202Y004143D02*
X014158Y004143D01*
X014116Y003984D02*
X014244Y003984D01*
X014359Y003826D02*
X014001Y003826D01*
X015001Y003826D02*
X015359Y003826D01*
X015244Y003984D02*
X015116Y003984D01*
X015158Y004143D02*
X015202Y004143D01*
X015213Y004301D02*
X015147Y004301D01*
X015076Y004460D02*
X015284Y004460D01*
X015489Y004618D02*
X014871Y004618D01*
X012180Y009180D02*
X011680Y009680D01*
X003180Y009680D01*
X003680Y009180D01*
X003633Y008680D02*
X004039Y008680D01*
X003633Y008680D01*
X003633Y008680D01*
X003180Y008680D02*
X003680Y008180D01*
X004247Y008581D02*
X009113Y008581D01*
X009178Y008739D02*
X004182Y008739D01*
X004364Y008898D02*
X008996Y008898D01*
X008930Y009056D02*
X004430Y009056D01*
X004440Y009215D02*
X008920Y009215D01*
X008979Y008422D02*
X004381Y008422D01*
X004440Y008264D02*
X008920Y008264D01*
X008920Y008105D02*
X004440Y008105D01*
X004384Y007947D02*
X008976Y007947D01*
X009105Y007788D02*
X004255Y007788D01*
X004161Y007630D02*
X009199Y007630D01*
X009004Y007471D02*
X004356Y007471D01*
X004426Y007313D02*
X008934Y007313D01*
X008920Y007154D02*
X004440Y007154D01*
X004405Y006996D02*
X005606Y006996D01*
X005384Y006837D02*
X004304Y006837D01*
X004307Y006520D02*
X005067Y006520D01*
X005226Y006679D02*
X004043Y006679D01*
X003317Y006679D02*
X000660Y006679D01*
X000660Y006837D02*
X003056Y006837D01*
X002955Y006996D02*
X000660Y006996D01*
X000660Y007154D02*
X001239Y007154D01*
X000984Y007313D02*
X000660Y007313D01*
X000660Y007471D02*
X000882Y007471D01*
X000840Y007630D02*
X000660Y007630D01*
X000660Y007788D02*
X000840Y007788D01*
X000906Y007947D02*
X000660Y007947D01*
X000660Y008105D02*
X001041Y008105D01*
X001140Y008264D02*
X000660Y008264D01*
X000660Y008422D02*
X000974Y008422D01*
X000910Y008581D02*
X000660Y008581D01*
X000660Y008739D02*
X000903Y008739D01*
X000952Y008898D02*
X000660Y008898D01*
X000660Y009056D02*
X001081Y009056D01*
X001093Y009215D02*
X000660Y009215D01*
X000660Y009373D02*
X000923Y009373D01*
X000857Y009532D02*
X000660Y009532D01*
X000660Y009690D02*
X000840Y009690D01*
X000865Y009849D02*
X000660Y009849D01*
X000660Y010007D02*
X000943Y010007D01*
X001141Y010166D02*
X000660Y010166D01*
X000660Y010324D02*
X000972Y010324D01*
X000877Y010483D02*
X000660Y010483D01*
X000660Y010641D02*
X000840Y010641D01*
X000845Y010800D02*
X000660Y010800D01*
X000660Y010958D02*
X000911Y010958D01*
X001053Y011117D02*
X000660Y011117D01*
X000660Y011275D02*
X001021Y011275D01*
X000898Y011434D02*
X000660Y011434D01*
X000660Y011592D02*
X000840Y011592D01*
X000840Y011751D02*
X000660Y011751D01*
X000660Y011909D02*
X000890Y011909D01*
X001004Y012068D02*
X000660Y012068D01*
X000660Y012226D02*
X001070Y012226D01*
X000918Y012385D02*
X000660Y012385D01*
X000660Y012543D02*
X000852Y012543D01*
X000840Y012702D02*
X000660Y012702D01*
X000660Y012860D02*
X000870Y012860D01*
X000955Y013019D02*
X000660Y013019D01*
X000660Y013177D02*
X001169Y013177D01*
X000961Y013336D02*
X000660Y013336D01*
X000660Y013494D02*
X000873Y013494D01*
X000840Y013653D02*
X000660Y013653D01*
X000660Y013811D02*
X000850Y013811D01*
X000915Y013970D02*
X000660Y013970D01*
X000660Y014128D02*
X001064Y014128D01*
X001010Y014287D02*
X000660Y014287D01*
X000660Y014445D02*
X000893Y014445D01*
X000840Y014604D02*
X000660Y014604D01*
X000660Y014762D02*
X000840Y014762D01*
X000895Y014921D02*
X000660Y014921D01*
X000660Y015079D02*
X001015Y015079D01*
X001059Y015238D02*
X000660Y015238D01*
X000660Y015396D02*
X000913Y015396D01*
X000847Y015555D02*
X000660Y015555D01*
X000660Y015713D02*
X000840Y015713D01*
X000875Y015872D02*
X000660Y015872D01*
X000660Y016030D02*
X000966Y016030D01*
X001155Y016189D02*
X000660Y016189D01*
X000660Y016347D02*
X000949Y016347D01*
X000868Y016506D02*
X000660Y016506D01*
X000660Y016664D02*
X000840Y016664D01*
X000855Y016823D02*
X000660Y016823D01*
X000660Y016981D02*
X000920Y016981D01*
X001078Y017140D02*
X000660Y017140D01*
X000660Y017298D02*
X000998Y017298D01*
X000888Y017457D02*
X000660Y017457D01*
X000660Y017615D02*
X000840Y017615D01*
X000840Y017774D02*
X000660Y017774D01*
X000660Y017932D02*
X000900Y017932D01*
X001027Y018091D02*
X000660Y018091D01*
X000660Y018249D02*
X001047Y018249D01*
X000908Y018408D02*
X000660Y018408D01*
X000660Y018566D02*
X000843Y018566D01*
X000840Y018725D02*
X000660Y018725D01*
X000660Y018883D02*
X000880Y018883D01*
X000978Y019042D02*
X000660Y019042D01*
X000660Y019200D02*
X001128Y019200D01*
X000938Y019359D02*
X000660Y019359D01*
X000660Y019517D02*
X000863Y019517D01*
X000840Y019676D02*
X000660Y019676D01*
X000660Y019834D02*
X000859Y019834D01*
X000929Y019993D02*
X000660Y019993D01*
X000660Y020151D02*
X001106Y020151D01*
X000987Y020310D02*
X000660Y020310D01*
X000660Y020468D02*
X000883Y020468D01*
X000840Y020627D02*
X000660Y020627D01*
X000660Y020785D02*
X000840Y020785D01*
X000905Y020944D02*
X000660Y020944D01*
X000660Y021102D02*
X001038Y021102D01*
X000660Y021261D02*
X002920Y021261D01*
X002920Y021102D02*
X002322Y021102D01*
X002978Y021419D02*
X000660Y021419D01*
X000660Y021578D02*
X003110Y021578D01*
X003185Y021736D02*
X000660Y021736D01*
X000660Y021895D02*
X002998Y021895D01*
X002931Y022053D02*
X000660Y022053D01*
X000660Y022212D02*
X002920Y022212D01*
X002958Y022370D02*
X000660Y022370D01*
X000660Y022529D02*
X003061Y022529D01*
X003304Y022687D02*
X000660Y022687D01*
X000660Y022846D02*
X003047Y022846D01*
X002952Y023004D02*
X000660Y023004D01*
X000660Y023163D02*
X002920Y023163D01*
X002937Y023321D02*
X000660Y023321D01*
X000660Y023480D02*
X003012Y023480D01*
X003219Y023638D02*
X000660Y023638D01*
X000660Y023797D02*
X003096Y023797D01*
X003033Y024500D02*
X002490Y024500D01*
X002520Y024573D01*
X002520Y024787D01*
X002438Y024986D01*
X002286Y025138D01*
X002184Y025180D01*
X002286Y025222D01*
X002424Y025360D01*
X002953Y025360D01*
X002920Y025279D01*
X002920Y025081D01*
X002996Y024897D01*
X003137Y024756D01*
X003321Y024680D01*
X004039Y024680D01*
X003321Y024680D01*
X003137Y024604D01*
X003033Y024500D01*
X003122Y024589D02*
X002520Y024589D01*
X002520Y024748D02*
X003157Y024748D01*
X002992Y024906D02*
X002471Y024906D01*
X002359Y025065D02*
X002927Y025065D01*
X002920Y025223D02*
X002287Y025223D01*
X001680Y025680D02*
X011180Y025680D01*
X012180Y024180D01*
X012231Y024680D02*
X012231Y024680D01*
X012539Y024680D01*
X012231Y024680D01*
X012787Y025540D02*
X017573Y025540D01*
X012539Y019680D02*
X012133Y019680D01*
X012133Y019680D01*
X012539Y019680D01*
X012180Y019180D02*
X010680Y020680D01*
X001680Y020680D01*
X001680Y019680D02*
X005180Y019680D01*
X004680Y018680D02*
X004180Y018180D01*
X003680Y018180D01*
X003180Y017680D02*
X003680Y017180D01*
X003180Y016680D02*
X003680Y016180D01*
X003180Y015680D02*
X003680Y015180D01*
X003180Y014680D02*
X011680Y014680D01*
X012180Y014180D01*
X012133Y013680D02*
X012539Y013680D01*
X012133Y013680D01*
X012133Y013680D01*
X011680Y013680D02*
X012180Y013180D01*
X012133Y012680D02*
X012539Y012680D01*
X012133Y012680D01*
X012133Y012680D01*
X011680Y012680D02*
X012180Y012180D01*
X012133Y011680D02*
X012539Y011680D01*
X012133Y011680D01*
X012133Y011680D01*
X011680Y011680D02*
X012180Y011180D01*
X012133Y010680D02*
X012539Y010680D01*
X012133Y010680D01*
X012133Y010680D01*
X011680Y010680D02*
X012180Y010180D01*
X012133Y009680D02*
X012539Y009680D01*
X012133Y009680D01*
X012133Y009680D01*
X011420Y009215D02*
X010440Y009215D01*
X010430Y009056D02*
X011430Y009056D01*
X011496Y008898D02*
X010364Y008898D01*
X010182Y008739D02*
X011678Y008739D01*
X011613Y008581D02*
X010247Y008581D01*
X010381Y008422D02*
X011479Y008422D01*
X011420Y008264D02*
X010440Y008264D01*
X010440Y008105D02*
X011420Y008105D01*
X011476Y007947D02*
X010384Y007947D01*
X010255Y007788D02*
X011605Y007788D01*
X011699Y007630D02*
X010161Y007630D01*
X010356Y007471D02*
X011504Y007471D01*
X011434Y007313D02*
X010426Y007313D01*
X010440Y007154D02*
X011420Y007154D01*
X011420Y006203D02*
X010380Y006203D01*
X010380Y006180D02*
X009680Y006180D01*
X009680Y006180D01*
X010380Y006180D01*
X010359Y006045D02*
X011435Y006045D01*
X011507Y005886D02*
X010268Y005886D01*
X009680Y005886D02*
X009680Y005886D01*
X009680Y005740D02*
X009385Y005740D01*
X009317Y005751D01*
X009251Y005772D01*
X009189Y005804D01*
X009133Y005844D01*
X009084Y005893D01*
X009044Y005949D01*
X009012Y006011D01*
X008991Y006077D01*
X008980Y006145D01*
X008980Y006180D01*
X009680Y006180D01*
X009680Y005740D01*
X009680Y006180D01*
X009680Y006180D01*
X009680Y006180D01*
X009680Y006045D02*
X009680Y006045D01*
X009092Y005886D02*
X005306Y005886D01*
X005497Y006045D02*
X009001Y006045D01*
X008980Y006203D02*
X005656Y006203D01*
X006871Y004618D02*
X007489Y004618D01*
X007284Y004460D02*
X007076Y004460D01*
X007147Y004301D02*
X007213Y004301D01*
X007202Y004143D02*
X007158Y004143D01*
X007116Y003984D02*
X007244Y003984D01*
X007359Y003826D02*
X007001Y003826D01*
X006899Y001607D02*
X007461Y001607D01*
X007899Y001607D02*
X008461Y001607D01*
X008899Y001607D02*
X009461Y001607D01*
X009680Y001180D02*
X008680Y001180D01*
X007680Y001180D01*
X006680Y001180D01*
X005680Y001180D01*
X002180Y004680D01*
X001680Y004680D01*
X002093Y004143D02*
X002265Y004143D01*
X002102Y002716D02*
X003691Y002716D01*
X003850Y002558D02*
X002372Y002558D01*
X002531Y002399D02*
X004008Y002399D01*
X004167Y002241D02*
X002638Y002241D01*
X002721Y002082D02*
X004325Y002082D01*
X004484Y001924D02*
X002764Y001924D01*
X002790Y001765D02*
X004642Y001765D01*
X004801Y001607D02*
X002790Y001607D01*
X002767Y001448D02*
X004959Y001448D01*
X005118Y001290D02*
X002724Y001290D01*
X002645Y001131D02*
X005276Y001131D01*
X005435Y000973D02*
X002542Y000973D01*
X002384Y000814D02*
X006370Y000814D01*
X006990Y000814D02*
X007370Y000814D01*
X007990Y000814D02*
X008370Y000814D01*
X008990Y000814D02*
X009370Y000814D01*
X006461Y001607D02*
X005706Y001607D01*
X004154Y005728D02*
X011706Y005728D01*
X011680Y010680D02*
X003180Y010680D01*
X003680Y010180D01*
X003180Y009680D02*
X001680Y009680D01*
X002267Y009215D02*
X002920Y009215D01*
X002930Y009056D02*
X002279Y009056D01*
X002408Y008898D02*
X002945Y008898D01*
X002860Y008739D02*
X002457Y008739D01*
X002450Y008581D02*
X002875Y008581D01*
X002979Y008422D02*
X002386Y008422D01*
X002220Y008264D02*
X002920Y008264D01*
X002920Y008105D02*
X002319Y008105D01*
X002454Y007947D02*
X002976Y007947D01*
X003105Y007788D02*
X002520Y007788D01*
X002520Y007630D02*
X003199Y007630D01*
X003004Y007471D02*
X002478Y007471D01*
X002376Y007313D02*
X002934Y007313D01*
X002920Y007154D02*
X002121Y007154D01*
X003053Y006520D02*
X000660Y006520D01*
X001680Y010680D02*
X003180Y010680D01*
X003680Y011180D02*
X003180Y011680D01*
X011680Y011680D01*
X011680Y012680D02*
X003180Y012680D01*
X003680Y012180D01*
X003180Y011680D02*
X001680Y011680D01*
X001680Y012680D02*
X003180Y012680D01*
X003680Y013180D02*
X003180Y013680D01*
X011680Y013680D01*
X012133Y014680D02*
X012539Y014680D01*
X012133Y014680D01*
X012133Y014680D01*
X012180Y015180D02*
X011680Y015680D01*
X003180Y015680D01*
X001680Y015680D01*
X001680Y014680D02*
X003180Y014680D01*
X003680Y014180D01*
X003180Y013680D02*
X001680Y013680D01*
X001680Y016680D02*
X003180Y016680D01*
X011180Y016680D01*
X012180Y016180D01*
X012180Y017180D02*
X011680Y017680D01*
X005180Y017680D01*
X004680Y018680D02*
X011680Y018680D01*
X012180Y018180D01*
X012133Y018680D02*
X012133Y018680D01*
X012539Y018680D01*
X012133Y018680D01*
X011501Y020468D02*
X011345Y020468D01*
X011186Y020627D02*
X011691Y020627D01*
X011608Y020785D02*
X011028Y020785D01*
X010869Y020944D02*
X011477Y020944D01*
X011420Y021102D02*
X010440Y021102D01*
X010440Y021261D02*
X011420Y021261D01*
X011478Y021419D02*
X010382Y021419D01*
X010250Y021578D02*
X011610Y021578D01*
X011685Y021736D02*
X010175Y021736D01*
X010223Y021756D02*
X010039Y021680D01*
X009321Y021680D01*
X009137Y021756D01*
X008996Y021897D01*
X008920Y022081D01*
X008920Y022279D01*
X008996Y022463D01*
X009137Y022604D01*
X009321Y022680D01*
X009137Y022756D01*
X008996Y022897D01*
X008920Y023081D01*
X008920Y023279D01*
X008996Y023463D01*
X009137Y023604D01*
X009321Y023680D01*
X010039Y023680D01*
X010223Y023604D01*
X010364Y023463D01*
X010440Y023279D01*
X010440Y023081D01*
X010364Y022897D01*
X010223Y022756D01*
X010039Y022680D01*
X009321Y022680D01*
X010039Y022680D01*
X010223Y022604D01*
X010364Y022463D01*
X010440Y022279D01*
X010440Y022081D01*
X010364Y021897D01*
X010223Y021756D01*
X010362Y021895D02*
X011498Y021895D01*
X011431Y022053D02*
X010429Y022053D01*
X010440Y022212D02*
X011420Y022212D01*
X011458Y022370D02*
X010402Y022370D01*
X010299Y022529D02*
X011561Y022529D01*
X011804Y022687D02*
X010056Y022687D01*
X010313Y022846D02*
X011547Y022846D01*
X011452Y023004D02*
X010408Y023004D01*
X010440Y023163D02*
X011420Y023163D01*
X011437Y023321D02*
X010423Y023321D01*
X010348Y023480D02*
X011512Y023480D01*
X011719Y023638D02*
X010141Y023638D01*
X010264Y023797D02*
X011596Y023797D01*
X011472Y023955D02*
X010388Y023955D01*
X010440Y024114D02*
X011420Y024114D01*
X011420Y024272D02*
X010440Y024272D01*
X010377Y024431D02*
X011483Y024431D01*
X011523Y024589D02*
X010238Y024589D01*
X010203Y024748D02*
X011417Y024748D01*
X011311Y024906D02*
X010368Y024906D01*
X010433Y025065D02*
X011206Y025065D01*
X011100Y025223D02*
X010440Y025223D01*
X009219Y023638D02*
X004141Y023638D01*
X004264Y023797D02*
X009096Y023797D01*
X008972Y023955D02*
X004388Y023955D01*
X004440Y024114D02*
X008920Y024114D01*
X008920Y024272D02*
X004440Y024272D01*
X004377Y024431D02*
X008983Y024431D01*
X009122Y024589D02*
X004238Y024589D01*
X004203Y024748D02*
X009157Y024748D01*
X008992Y024906D02*
X004368Y024906D01*
X004433Y025065D02*
X008927Y025065D01*
X008920Y025223D02*
X004440Y025223D01*
X003680Y024180D02*
X002180Y024180D01*
X001680Y024680D01*
X001794Y024114D02*
X000660Y024114D01*
X000660Y024272D02*
X001024Y024272D01*
X000899Y024431D02*
X000660Y024431D01*
X000660Y024589D02*
X000840Y024589D01*
X000840Y024748D02*
X000660Y024748D01*
X000660Y024906D02*
X000889Y024906D01*
X001001Y025065D02*
X000660Y025065D01*
X000660Y025223D02*
X001073Y025223D01*
X000919Y025382D02*
X000660Y025382D01*
X000660Y025540D02*
X000853Y025540D01*
X000840Y025699D02*
X000660Y025699D01*
X000660Y025857D02*
X000869Y025857D01*
X000952Y026016D02*
X000660Y026016D01*
X000660Y026174D02*
X001162Y026174D01*
X001420Y027601D02*
X000660Y027601D01*
X000660Y027759D02*
X001055Y027759D01*
X000873Y027918D02*
X000660Y027918D01*
X000660Y028076D02*
X000747Y028076D01*
X000660Y023955D02*
X001952Y023955D01*
X004056Y022687D02*
X009304Y022687D01*
X009061Y022529D02*
X004299Y022529D01*
X004402Y022370D02*
X008958Y022370D01*
X008920Y022212D02*
X004440Y022212D01*
X004429Y022053D02*
X008931Y022053D01*
X008998Y021895D02*
X004362Y021895D01*
X004175Y021736D02*
X009185Y021736D01*
X009110Y021578D02*
X004250Y021578D01*
X004382Y021419D02*
X008978Y021419D01*
X008920Y021261D02*
X004440Y021261D01*
X004440Y021102D02*
X008920Y021102D01*
X009047Y022846D02*
X004313Y022846D01*
X004408Y023004D02*
X008952Y023004D01*
X008920Y023163D02*
X004440Y023163D01*
X004423Y023321D02*
X008937Y023321D01*
X009012Y023480D02*
X004348Y023480D01*
X006506Y027442D02*
X006854Y027442D01*
X006711Y027601D02*
X006649Y027601D01*
X007506Y027442D02*
X007854Y027442D01*
X007711Y027601D02*
X007649Y027601D01*
X007669Y028710D02*
X007691Y028710D01*
X007805Y028869D02*
X007555Y028869D01*
X006805Y028869D02*
X006555Y028869D01*
X006669Y028710D02*
X006691Y028710D01*
X003680Y019180D02*
X003180Y018680D01*
X001680Y018680D01*
X001680Y017680D02*
X003180Y017680D01*
X012591Y012702D02*
X017769Y012702D01*
D14*
X005180Y017680D03*
X005180Y019680D03*
X003680Y018180D03*
M02*
