G75*
%MOIN*%
%OFA0B0*%
%FSLAX24Y24*%
%IPPOS*%
%LPD*%
%AMOC8*
5,1,8,0,0,1.08239X$1,22.5*
%
%ADD10C,0.1340*%
%ADD11C,0.0600*%
%ADD12C,0.0680*%
%ADD13C,0.0556*%
%ADD14R,0.0476X0.0476*%
D10*
X001680Y001680D03*
X018680Y001680D03*
X018680Y028680D03*
X001680Y028680D03*
D11*
X003420Y025180D02*
X003940Y025180D01*
X003940Y024180D02*
X003420Y024180D01*
X003420Y023180D02*
X003940Y023180D01*
X003940Y022180D02*
X003420Y022180D01*
X003420Y021180D02*
X003940Y021180D01*
X003940Y020180D02*
X003420Y020180D01*
X003420Y019180D02*
X003940Y019180D01*
X003940Y018180D02*
X003420Y018180D01*
X003420Y017180D02*
X003940Y017180D01*
X003940Y016180D02*
X003420Y016180D01*
X003420Y015180D02*
X003940Y015180D01*
X003940Y014180D02*
X003420Y014180D01*
X003420Y013180D02*
X003940Y013180D01*
X003940Y012180D02*
X003420Y012180D01*
X003420Y011180D02*
X003940Y011180D01*
X003940Y010180D02*
X003420Y010180D01*
X003420Y009180D02*
X003940Y009180D01*
X003940Y008180D02*
X003420Y008180D01*
X003420Y007180D02*
X003940Y007180D01*
X003940Y006180D02*
X003420Y006180D01*
X009420Y006180D02*
X009940Y006180D01*
X009940Y007180D02*
X009420Y007180D01*
X009420Y008180D02*
X009940Y008180D01*
X009940Y009180D02*
X009420Y009180D01*
X009420Y010180D02*
X009940Y010180D01*
X009940Y011180D02*
X009420Y011180D01*
X009420Y012180D02*
X009940Y012180D01*
X009940Y013180D02*
X009420Y013180D01*
X009420Y014180D02*
X009940Y014180D01*
X009940Y015180D02*
X009420Y015180D01*
X009420Y016180D02*
X009940Y016180D01*
X009940Y017180D02*
X009420Y017180D01*
X009420Y018180D02*
X009940Y018180D01*
X009940Y019180D02*
X009420Y019180D01*
X009420Y020180D02*
X009940Y020180D01*
X009940Y021180D02*
X009420Y021180D01*
X009420Y022180D02*
X009940Y022180D01*
X009940Y023180D02*
X009420Y023180D01*
X009420Y024180D02*
X009940Y024180D01*
X009940Y025180D02*
X009420Y025180D01*
X011920Y025180D02*
X012440Y025180D01*
X012440Y024180D02*
X011920Y024180D01*
X011920Y023180D02*
X012440Y023180D01*
X012440Y022180D02*
X011920Y022180D01*
X011920Y021180D02*
X012440Y021180D01*
X012440Y020180D02*
X011920Y020180D01*
X011920Y019180D02*
X012440Y019180D01*
X012440Y018180D02*
X011920Y018180D01*
X011920Y017180D02*
X012440Y017180D01*
X012440Y016180D02*
X011920Y016180D01*
X011920Y015180D02*
X012440Y015180D01*
X012440Y014180D02*
X011920Y014180D01*
X011920Y013180D02*
X012440Y013180D01*
X012440Y012180D02*
X011920Y012180D01*
X011920Y011180D02*
X012440Y011180D01*
X012440Y010180D02*
X011920Y010180D01*
X011920Y009180D02*
X012440Y009180D01*
X012440Y008180D02*
X011920Y008180D01*
X011920Y007180D02*
X012440Y007180D01*
X012440Y006180D02*
X011920Y006180D01*
X017920Y006180D02*
X018440Y006180D01*
X018440Y007180D02*
X017920Y007180D01*
X017920Y008180D02*
X018440Y008180D01*
X018440Y009180D02*
X017920Y009180D01*
X017920Y010180D02*
X018440Y010180D01*
X018440Y011180D02*
X017920Y011180D01*
X017920Y012180D02*
X018440Y012180D01*
X018440Y013180D02*
X017920Y013180D01*
X017920Y014180D02*
X018440Y014180D01*
X018440Y015180D02*
X017920Y015180D01*
X017920Y016180D02*
X018440Y016180D01*
X018440Y017180D02*
X017920Y017180D01*
X017920Y018180D02*
X018440Y018180D01*
X018440Y019180D02*
X017920Y019180D01*
X017920Y020180D02*
X018440Y020180D01*
X018440Y021180D02*
X017920Y021180D01*
X017920Y022180D02*
X018440Y022180D01*
X018440Y023180D02*
X017920Y023180D01*
X017920Y024180D02*
X018440Y024180D01*
X018440Y025180D02*
X017920Y025180D01*
D12*
X015680Y027880D02*
X015680Y028480D01*
X014680Y028480D02*
X014680Y027880D01*
X013680Y027880D02*
X013680Y028480D01*
X008180Y028480D02*
X008180Y027880D01*
X007180Y027880D02*
X007180Y028480D01*
X006180Y028480D02*
X006180Y027880D01*
X001980Y025680D02*
X001380Y025680D01*
X001380Y024680D02*
X001980Y024680D01*
X001980Y020680D02*
X001380Y020680D01*
X001380Y019680D02*
X001980Y019680D01*
X001980Y018680D02*
X001380Y018680D01*
X001380Y017680D02*
X001980Y017680D01*
X001980Y016680D02*
X001380Y016680D01*
X001380Y015680D02*
X001980Y015680D01*
X001980Y014680D02*
X001380Y014680D01*
X001380Y013680D02*
X001980Y013680D01*
X001980Y012680D02*
X001380Y012680D01*
X001380Y011680D02*
X001980Y011680D01*
X001980Y010680D02*
X001380Y010680D01*
X001380Y009680D02*
X001980Y009680D01*
X001980Y008680D02*
X001380Y008680D01*
X001380Y007680D02*
X001980Y007680D01*
X001980Y005680D02*
X001380Y005680D01*
X001380Y004680D02*
X001980Y004680D01*
D13*
X003680Y004180D03*
X004680Y004180D03*
X006680Y004180D03*
X007680Y004180D03*
X008680Y004180D03*
X009680Y004180D03*
X011180Y004180D03*
X012180Y004180D03*
X013680Y004180D03*
X014680Y004180D03*
X015680Y004180D03*
X016680Y004180D03*
X016680Y001180D03*
X015680Y001180D03*
X014680Y001180D03*
X013680Y001180D03*
X009680Y001180D03*
X008680Y001180D03*
X007680Y001180D03*
X006680Y001180D03*
D14*
X005180Y017680D03*
X005180Y019680D03*
X003680Y018180D03*
M02*
