%
M48
M72
T01C0.0236
T02C0.0276
T03C0.0320
T04C0.0400
T05C0.1260
%
T01
X5180Y17680
X5180Y19680
X3680Y18180
T02
X3680Y4180
X4680Y4180
X6680Y4180
X7680Y4180
X8680Y4180
X9680Y4180
X11180Y4180
X12180Y4180
X13680Y4180
X14680Y4180
X15680Y4180
X16680Y4180
X16680Y1180
X15680Y1180
X14680Y1180
X13680Y1180
X9680Y1180
X8680Y1180
X7680Y1180
X6680Y1180
T03
X3680Y6180
X3680Y7180
X3680Y8180
X3680Y9180
X3680Y10180
X3680Y11180
X3680Y12180
X3680Y13180
X3680Y14180
X3680Y15180
X3680Y16180
X3680Y17180
X3680Y18180
X3680Y19180
X3680Y20180
X3680Y21180
X3680Y22180
X3680Y23180
X3680Y24180
X3680Y25180
X9680Y25180
X9680Y24180
X9680Y23180
X9680Y22180
X9680Y21180
X9680Y20180
X9680Y19180
X9680Y18180
X9680Y17180
X9680Y16180
X9680Y15180
X9680Y14180
X9680Y13180
X9680Y12180
X9680Y11180
X9680Y10180
X9680Y9180
X9680Y8180
X9680Y7180
X9680Y6180
X12180Y6180
X12180Y7180
X12180Y8180
X12180Y9180
X12180Y10180
X12180Y11180
X12180Y12180
X12180Y13180
X12180Y14180
X12180Y15180
X12180Y16180
X12180Y17180
X12180Y18180
X12180Y19180
X12180Y20180
X12180Y21180
X12180Y22180
X12180Y23180
X12180Y24180
X12180Y25180
X18180Y25180
X18180Y24180
X18180Y23180
X18180Y22180
X18180Y21180
X18180Y20180
X18180Y19180
X18180Y18180
X18180Y17180
X18180Y16180
X18180Y15180
X18180Y14180
X18180Y13180
X18180Y12180
X18180Y11180
X18180Y10180
X18180Y9180
X18180Y8180
X18180Y7180
X18180Y6180
T04
X15680Y28180
X14680Y28180
X13680Y28180
X8180Y28180
X7180Y28180
X6180Y28180
X1680Y25680
X1680Y24680
X1680Y20680
X1680Y19680
X1680Y18680
X1680Y17680
X1680Y16680
X1680Y15680
X1680Y14680
X1680Y13680
X1680Y12680
X1680Y11680
X1680Y10680
X1680Y9680
X1680Y8680
X1680Y7680
X1680Y5680
X1680Y4680
T05
X1680Y1680
X18680Y1680
X18680Y28680
X1680Y28680
M30
