G75*
%MOIN*%
%OFA0B0*%
%FSLAX24Y24*%
%IPPOS*%
%LPD*%
%AMOC8*
5,1,8,0,0,1.08239X$1,22.5*
%
%ADD10C,0.0000*%
%ADD11C,0.0050*%
%ADD12C,0.0060*%
%ADD13C,0.0160*%
D10*
X000180Y000180D02*
X000180Y030180D01*
X020180Y030180D01*
X020180Y000180D01*
X000180Y000180D01*
X001050Y001680D02*
X001052Y001730D01*
X001058Y001780D01*
X001068Y001829D01*
X001082Y001877D01*
X001099Y001924D01*
X001120Y001969D01*
X001145Y002013D01*
X001173Y002054D01*
X001205Y002093D01*
X001239Y002130D01*
X001276Y002164D01*
X001316Y002194D01*
X001358Y002221D01*
X001402Y002245D01*
X001448Y002266D01*
X001495Y002282D01*
X001543Y002295D01*
X001593Y002304D01*
X001642Y002309D01*
X001693Y002310D01*
X001743Y002307D01*
X001792Y002300D01*
X001841Y002289D01*
X001889Y002274D01*
X001935Y002256D01*
X001980Y002234D01*
X002023Y002208D01*
X002064Y002179D01*
X002103Y002147D01*
X002139Y002112D01*
X002171Y002074D01*
X002201Y002034D01*
X002228Y001991D01*
X002251Y001947D01*
X002270Y001901D01*
X002286Y001853D01*
X002298Y001804D01*
X002306Y001755D01*
X002310Y001705D01*
X002310Y001655D01*
X002306Y001605D01*
X002298Y001556D01*
X002286Y001507D01*
X002270Y001459D01*
X002251Y001413D01*
X002228Y001369D01*
X002201Y001326D01*
X002171Y001286D01*
X002139Y001248D01*
X002103Y001213D01*
X002064Y001181D01*
X002023Y001152D01*
X001980Y001126D01*
X001935Y001104D01*
X001889Y001086D01*
X001841Y001071D01*
X001792Y001060D01*
X001743Y001053D01*
X001693Y001050D01*
X001642Y001051D01*
X001593Y001056D01*
X001543Y001065D01*
X001495Y001078D01*
X001448Y001094D01*
X001402Y001115D01*
X001358Y001139D01*
X001316Y001166D01*
X001276Y001196D01*
X001239Y001230D01*
X001205Y001267D01*
X001173Y001306D01*
X001145Y001347D01*
X001120Y001391D01*
X001099Y001436D01*
X001082Y001483D01*
X001068Y001531D01*
X001058Y001580D01*
X001052Y001630D01*
X001050Y001680D01*
X018050Y001680D02*
X018052Y001730D01*
X018058Y001780D01*
X018068Y001829D01*
X018082Y001877D01*
X018099Y001924D01*
X018120Y001969D01*
X018145Y002013D01*
X018173Y002054D01*
X018205Y002093D01*
X018239Y002130D01*
X018276Y002164D01*
X018316Y002194D01*
X018358Y002221D01*
X018402Y002245D01*
X018448Y002266D01*
X018495Y002282D01*
X018543Y002295D01*
X018593Y002304D01*
X018642Y002309D01*
X018693Y002310D01*
X018743Y002307D01*
X018792Y002300D01*
X018841Y002289D01*
X018889Y002274D01*
X018935Y002256D01*
X018980Y002234D01*
X019023Y002208D01*
X019064Y002179D01*
X019103Y002147D01*
X019139Y002112D01*
X019171Y002074D01*
X019201Y002034D01*
X019228Y001991D01*
X019251Y001947D01*
X019270Y001901D01*
X019286Y001853D01*
X019298Y001804D01*
X019306Y001755D01*
X019310Y001705D01*
X019310Y001655D01*
X019306Y001605D01*
X019298Y001556D01*
X019286Y001507D01*
X019270Y001459D01*
X019251Y001413D01*
X019228Y001369D01*
X019201Y001326D01*
X019171Y001286D01*
X019139Y001248D01*
X019103Y001213D01*
X019064Y001181D01*
X019023Y001152D01*
X018980Y001126D01*
X018935Y001104D01*
X018889Y001086D01*
X018841Y001071D01*
X018792Y001060D01*
X018743Y001053D01*
X018693Y001050D01*
X018642Y001051D01*
X018593Y001056D01*
X018543Y001065D01*
X018495Y001078D01*
X018448Y001094D01*
X018402Y001115D01*
X018358Y001139D01*
X018316Y001166D01*
X018276Y001196D01*
X018239Y001230D01*
X018205Y001267D01*
X018173Y001306D01*
X018145Y001347D01*
X018120Y001391D01*
X018099Y001436D01*
X018082Y001483D01*
X018068Y001531D01*
X018058Y001580D01*
X018052Y001630D01*
X018050Y001680D01*
X018050Y028680D02*
X018052Y028730D01*
X018058Y028780D01*
X018068Y028829D01*
X018082Y028877D01*
X018099Y028924D01*
X018120Y028969D01*
X018145Y029013D01*
X018173Y029054D01*
X018205Y029093D01*
X018239Y029130D01*
X018276Y029164D01*
X018316Y029194D01*
X018358Y029221D01*
X018402Y029245D01*
X018448Y029266D01*
X018495Y029282D01*
X018543Y029295D01*
X018593Y029304D01*
X018642Y029309D01*
X018693Y029310D01*
X018743Y029307D01*
X018792Y029300D01*
X018841Y029289D01*
X018889Y029274D01*
X018935Y029256D01*
X018980Y029234D01*
X019023Y029208D01*
X019064Y029179D01*
X019103Y029147D01*
X019139Y029112D01*
X019171Y029074D01*
X019201Y029034D01*
X019228Y028991D01*
X019251Y028947D01*
X019270Y028901D01*
X019286Y028853D01*
X019298Y028804D01*
X019306Y028755D01*
X019310Y028705D01*
X019310Y028655D01*
X019306Y028605D01*
X019298Y028556D01*
X019286Y028507D01*
X019270Y028459D01*
X019251Y028413D01*
X019228Y028369D01*
X019201Y028326D01*
X019171Y028286D01*
X019139Y028248D01*
X019103Y028213D01*
X019064Y028181D01*
X019023Y028152D01*
X018980Y028126D01*
X018935Y028104D01*
X018889Y028086D01*
X018841Y028071D01*
X018792Y028060D01*
X018743Y028053D01*
X018693Y028050D01*
X018642Y028051D01*
X018593Y028056D01*
X018543Y028065D01*
X018495Y028078D01*
X018448Y028094D01*
X018402Y028115D01*
X018358Y028139D01*
X018316Y028166D01*
X018276Y028196D01*
X018239Y028230D01*
X018205Y028267D01*
X018173Y028306D01*
X018145Y028347D01*
X018120Y028391D01*
X018099Y028436D01*
X018082Y028483D01*
X018068Y028531D01*
X018058Y028580D01*
X018052Y028630D01*
X018050Y028680D01*
X001050Y028680D02*
X001052Y028730D01*
X001058Y028780D01*
X001068Y028829D01*
X001082Y028877D01*
X001099Y028924D01*
X001120Y028969D01*
X001145Y029013D01*
X001173Y029054D01*
X001205Y029093D01*
X001239Y029130D01*
X001276Y029164D01*
X001316Y029194D01*
X001358Y029221D01*
X001402Y029245D01*
X001448Y029266D01*
X001495Y029282D01*
X001543Y029295D01*
X001593Y029304D01*
X001642Y029309D01*
X001693Y029310D01*
X001743Y029307D01*
X001792Y029300D01*
X001841Y029289D01*
X001889Y029274D01*
X001935Y029256D01*
X001980Y029234D01*
X002023Y029208D01*
X002064Y029179D01*
X002103Y029147D01*
X002139Y029112D01*
X002171Y029074D01*
X002201Y029034D01*
X002228Y028991D01*
X002251Y028947D01*
X002270Y028901D01*
X002286Y028853D01*
X002298Y028804D01*
X002306Y028755D01*
X002310Y028705D01*
X002310Y028655D01*
X002306Y028605D01*
X002298Y028556D01*
X002286Y028507D01*
X002270Y028459D01*
X002251Y028413D01*
X002228Y028369D01*
X002201Y028326D01*
X002171Y028286D01*
X002139Y028248D01*
X002103Y028213D01*
X002064Y028181D01*
X002023Y028152D01*
X001980Y028126D01*
X001935Y028104D01*
X001889Y028086D01*
X001841Y028071D01*
X001792Y028060D01*
X001743Y028053D01*
X001693Y028050D01*
X001642Y028051D01*
X001593Y028056D01*
X001543Y028065D01*
X001495Y028078D01*
X001448Y028094D01*
X001402Y028115D01*
X001358Y028139D01*
X001316Y028166D01*
X001276Y028196D01*
X001239Y028230D01*
X001205Y028267D01*
X001173Y028306D01*
X001145Y028347D01*
X001120Y028391D01*
X001099Y028436D01*
X001082Y028483D01*
X001068Y028531D01*
X001058Y028580D01*
X001052Y028630D01*
X001050Y028680D01*
D11*
X002362Y025955D02*
X002362Y025405D01*
X002545Y025405D02*
X002178Y025405D01*
X002270Y024955D02*
X002178Y024864D01*
X002545Y024497D01*
X002453Y024405D01*
X002270Y024405D01*
X002178Y024497D01*
X002178Y024864D01*
X002270Y024955D02*
X002453Y024955D01*
X002545Y024864D01*
X002545Y024497D01*
X003283Y024405D02*
X003558Y024680D01*
X003650Y024588D02*
X003283Y024955D01*
X003650Y024955D02*
X003650Y024405D01*
X003836Y024405D02*
X004203Y024405D01*
X004203Y024955D01*
X004388Y024864D02*
X004480Y024955D01*
X004663Y024955D01*
X004755Y024864D01*
X004755Y024497D01*
X004663Y024405D01*
X004480Y024405D01*
X004388Y024497D01*
X004480Y025405D02*
X004388Y025497D01*
X004480Y025405D02*
X004663Y025405D01*
X004755Y025497D01*
X004755Y025864D01*
X004663Y025955D01*
X004480Y025955D01*
X004388Y025864D01*
X004203Y025955D02*
X004203Y025405D01*
X003836Y025405D01*
X003650Y025405D02*
X003650Y025955D01*
X003558Y025680D02*
X003283Y025405D01*
X003650Y025588D02*
X003283Y025955D01*
X002545Y025772D02*
X002362Y025955D01*
X002441Y020955D02*
X002441Y020405D01*
X002624Y020405D02*
X002257Y020405D01*
X002624Y020772D02*
X002441Y020955D01*
X003362Y020864D02*
X003362Y020680D01*
X003454Y020588D01*
X003729Y020588D01*
X003729Y020405D02*
X003729Y020955D01*
X003454Y020955D01*
X003362Y020864D01*
X003546Y020588D02*
X003362Y020405D01*
X003362Y019955D02*
X003362Y019405D01*
X003545Y019405D02*
X003178Y019405D01*
X003454Y018955D02*
X003362Y018864D01*
X003362Y018680D01*
X003454Y018588D01*
X003729Y018588D01*
X003729Y018405D02*
X003729Y018955D01*
X003454Y018955D01*
X003546Y018588D02*
X003362Y018405D01*
X003453Y017955D02*
X003270Y017955D01*
X003178Y017864D01*
X003545Y017497D01*
X003453Y017405D01*
X003270Y017405D01*
X003178Y017497D01*
X003178Y017864D01*
X003453Y017955D02*
X003545Y017864D01*
X003545Y017497D01*
X003731Y017313D02*
X004098Y017313D01*
X004283Y017405D02*
X004650Y017405D01*
X004467Y017405D02*
X004467Y017955D01*
X004650Y017772D01*
X004836Y017864D02*
X004927Y017955D01*
X005111Y017955D01*
X005203Y017864D01*
X005203Y017497D01*
X005111Y017405D01*
X004927Y017405D01*
X004836Y017497D01*
X004865Y016955D02*
X004590Y016955D01*
X004498Y016864D01*
X004498Y016497D01*
X004590Y016405D01*
X004865Y016405D01*
X004865Y016955D01*
X004312Y016772D02*
X004312Y016405D01*
X004312Y016680D02*
X003945Y016680D01*
X003945Y016772D02*
X003945Y016405D01*
X003945Y016772D02*
X004129Y016955D01*
X004312Y016772D01*
X004129Y015955D02*
X003945Y015772D01*
X003945Y015405D01*
X003945Y015680D02*
X004312Y015680D01*
X004312Y015772D02*
X004129Y015955D01*
X004312Y015772D02*
X004312Y015405D01*
X004498Y015497D02*
X004498Y015864D01*
X004590Y015955D01*
X004865Y015955D01*
X004865Y015405D01*
X004590Y015405D01*
X004498Y015497D01*
X004590Y014955D02*
X004865Y014955D01*
X004865Y014405D01*
X004590Y014405D01*
X004498Y014497D01*
X004498Y014864D01*
X004590Y014955D01*
X004312Y014772D02*
X004129Y014955D01*
X003945Y014772D01*
X003945Y014405D01*
X003945Y014680D02*
X004312Y014680D01*
X004312Y014772D02*
X004312Y014405D01*
X004129Y013955D02*
X003945Y013772D01*
X003945Y013405D01*
X003945Y013680D02*
X004312Y013680D01*
X004312Y013772D02*
X004129Y013955D01*
X004312Y013772D02*
X004312Y013405D01*
X004498Y013497D02*
X004498Y013864D01*
X004590Y013955D01*
X004865Y013955D01*
X004865Y013405D01*
X004590Y013405D01*
X004498Y013497D01*
X004590Y012955D02*
X004865Y012955D01*
X004865Y012405D01*
X004590Y012405D01*
X004498Y012497D01*
X004498Y012864D01*
X004590Y012955D01*
X004312Y012772D02*
X004129Y012955D01*
X003945Y012772D01*
X003945Y012405D01*
X003945Y012680D02*
X004312Y012680D01*
X004312Y012772D02*
X004312Y012405D01*
X004129Y011955D02*
X003945Y011772D01*
X003945Y011405D01*
X003945Y011680D02*
X004312Y011680D01*
X004312Y011772D02*
X004129Y011955D01*
X004312Y011772D02*
X004312Y011405D01*
X004498Y011497D02*
X004498Y011864D01*
X004590Y011955D01*
X004865Y011955D01*
X004865Y011405D01*
X004590Y011405D01*
X004498Y011497D01*
X004590Y010955D02*
X004865Y010955D01*
X004865Y010405D01*
X004590Y010405D01*
X004498Y010497D01*
X004498Y010864D01*
X004590Y010955D01*
X004312Y010772D02*
X004129Y010955D01*
X003945Y010772D01*
X003945Y010405D01*
X003945Y010680D02*
X004312Y010680D01*
X004312Y010772D02*
X004312Y010405D01*
X004129Y009955D02*
X003945Y009772D01*
X003945Y009405D01*
X003945Y009680D02*
X004312Y009680D01*
X004312Y009772D02*
X004129Y009955D01*
X004312Y009772D02*
X004312Y009405D01*
X004498Y009497D02*
X004498Y009864D01*
X004590Y009955D01*
X004865Y009955D01*
X004865Y009405D01*
X004590Y009405D01*
X004498Y009497D01*
X004221Y008955D02*
X004312Y008864D01*
X004312Y008497D01*
X004221Y008405D01*
X004037Y008405D01*
X003945Y008497D01*
X003945Y008680D01*
X004129Y008680D01*
X003945Y008864D02*
X004037Y008955D01*
X004221Y008955D01*
X003760Y008955D02*
X003760Y008405D01*
X003668Y007955D02*
X003485Y007955D01*
X003393Y007864D01*
X003207Y007864D02*
X003207Y007497D01*
X003116Y007405D01*
X002932Y007405D01*
X002840Y007497D01*
X002840Y007864D02*
X002932Y007955D01*
X003116Y007955D01*
X003207Y007864D01*
X003393Y007497D02*
X003485Y007405D01*
X003668Y007405D01*
X003760Y007497D01*
X003760Y007864D01*
X003668Y007955D01*
X003945Y007955D02*
X003945Y007588D01*
X004129Y007405D01*
X004312Y007588D01*
X004312Y007955D01*
X003393Y008405D02*
X003760Y008955D01*
X003393Y008955D02*
X003393Y008405D01*
X003207Y008405D02*
X002932Y008405D01*
X002840Y008497D01*
X002840Y008864D01*
X002932Y008955D01*
X003207Y008955D01*
X003207Y008405D01*
X003116Y009405D02*
X002932Y009405D01*
X002840Y009497D01*
X002840Y009864D01*
X003207Y009497D01*
X003116Y009405D01*
X003207Y009497D02*
X003207Y009864D01*
X003116Y009955D01*
X002932Y009955D01*
X002840Y009864D01*
X002840Y010405D02*
X003207Y010405D01*
X003024Y010405D02*
X003024Y010955D01*
X003207Y010772D01*
X003207Y011405D02*
X002840Y011405D01*
X002840Y011772D02*
X002840Y011864D01*
X002932Y011955D01*
X003116Y011955D01*
X003207Y011864D01*
X003116Y012405D02*
X002932Y012405D01*
X002840Y012497D01*
X002840Y012588D01*
X002932Y012680D01*
X003024Y012680D01*
X002932Y012680D02*
X002840Y012772D01*
X002840Y012864D01*
X002932Y012955D01*
X003116Y012955D01*
X003207Y012864D01*
X003207Y012497D02*
X003116Y012405D01*
X002840Y011772D02*
X003207Y011405D01*
X002932Y013405D02*
X002932Y013955D01*
X003207Y013680D01*
X002840Y013680D01*
X002932Y014405D02*
X002840Y014497D01*
X002840Y014680D01*
X002932Y014772D01*
X003024Y014772D01*
X003207Y014680D01*
X003207Y014955D01*
X002840Y014955D01*
X002932Y015405D02*
X002840Y015497D01*
X002840Y015588D01*
X002932Y015680D01*
X003207Y015680D01*
X003207Y015497D01*
X003116Y015405D01*
X002932Y015405D01*
X003207Y015680D02*
X003024Y015864D01*
X002840Y015955D01*
X003207Y016405D02*
X003207Y016497D01*
X002840Y016864D01*
X002840Y016955D01*
X003207Y016955D01*
X002533Y018405D02*
X002349Y018405D01*
X002257Y018497D01*
X002257Y018864D01*
X002624Y018497D01*
X002533Y018405D01*
X002624Y018497D02*
X002624Y018864D01*
X002533Y018955D01*
X002349Y018955D01*
X002257Y018864D01*
X003362Y019955D02*
X003545Y019772D01*
X003731Y019313D02*
X004098Y019313D01*
X004283Y019405D02*
X004650Y019405D01*
X004467Y019405D02*
X004467Y019955D01*
X004650Y019772D01*
X004836Y019864D02*
X004927Y019955D01*
X005111Y019955D01*
X005203Y019864D01*
X005203Y019497D01*
X005111Y019405D01*
X004927Y019405D01*
X004836Y019497D01*
X004927Y018955D02*
X004836Y018864D01*
X004927Y018955D02*
X005111Y018955D01*
X005203Y018864D01*
X005203Y018497D01*
X005111Y018405D01*
X004927Y018405D01*
X004836Y018497D01*
X004650Y018405D02*
X004375Y018405D01*
X004283Y018497D01*
X004283Y018864D01*
X004375Y018955D01*
X004650Y018955D01*
X004650Y018405D01*
X004098Y018405D02*
X003914Y018405D01*
X004006Y018405D02*
X004006Y018955D01*
X004098Y018955D02*
X003914Y018955D01*
X003914Y020405D02*
X004098Y020405D01*
X004006Y020405D02*
X004006Y020955D01*
X004098Y020955D02*
X003914Y020955D01*
X004283Y020864D02*
X004283Y020497D01*
X004375Y020405D01*
X004650Y020405D01*
X004650Y020955D01*
X004375Y020955D01*
X004283Y020864D01*
X004836Y020864D02*
X004927Y020955D01*
X005111Y020955D01*
X005203Y020864D01*
X005203Y020497D01*
X005111Y020405D01*
X004927Y020405D01*
X004836Y020497D01*
X005388Y020497D02*
X005480Y020405D01*
X005755Y020405D01*
X005755Y020955D01*
X005480Y020955D01*
X005388Y020864D01*
X005388Y020772D01*
X005480Y020680D01*
X005755Y020680D01*
X005480Y020680D02*
X005388Y020588D01*
X005388Y020497D01*
X005480Y019955D02*
X005388Y019864D01*
X005388Y019772D01*
X005480Y019680D01*
X005755Y019680D01*
X005755Y019405D02*
X005480Y019405D01*
X005388Y019497D01*
X005388Y019588D01*
X005480Y019680D01*
X005480Y019955D02*
X005755Y019955D01*
X005755Y019405D01*
X005755Y018955D02*
X005480Y018955D01*
X005388Y018864D01*
X005388Y018772D01*
X005480Y018680D01*
X005755Y018680D01*
X005755Y018405D02*
X005480Y018405D01*
X005388Y018497D01*
X005388Y018588D01*
X005480Y018680D01*
X005755Y018405D02*
X005755Y018955D01*
X005755Y017955D02*
X005480Y017955D01*
X005388Y017864D01*
X005388Y017772D01*
X005480Y017680D01*
X005755Y017680D01*
X005755Y017405D02*
X005480Y017405D01*
X005388Y017497D01*
X005388Y017588D01*
X005480Y017680D01*
X005755Y017405D02*
X005755Y017955D01*
X003207Y014497D02*
X003116Y014405D01*
X002932Y014405D01*
X014505Y019401D02*
X014505Y019584D01*
X014597Y019676D01*
X014688Y019676D01*
X014780Y019584D01*
X014780Y019309D01*
X014597Y019309D01*
X014505Y019401D01*
X014780Y019309D02*
X014964Y019492D01*
X015055Y019676D01*
X014780Y019861D02*
X014780Y020228D01*
X014964Y020414D02*
X015055Y020506D01*
X015055Y020689D01*
X014964Y020781D01*
X014872Y020781D01*
X014505Y020414D01*
X014505Y020781D01*
X014505Y020966D02*
X014597Y020966D01*
X014964Y021333D01*
X015055Y021333D01*
X015055Y020966D01*
X014780Y021519D02*
X014780Y021886D01*
X014872Y022071D02*
X015055Y022255D01*
X014505Y022255D01*
X014505Y022438D02*
X014505Y022071D01*
X014597Y022624D02*
X014688Y022624D01*
X014780Y022716D01*
X014780Y022899D01*
X014688Y022991D01*
X014597Y022991D01*
X014505Y022899D01*
X014505Y022716D01*
X014597Y022624D01*
X014780Y022716D02*
X014872Y022624D01*
X014964Y022624D01*
X015055Y022716D01*
X015055Y022899D01*
X014964Y022991D01*
X014872Y022991D01*
X014780Y022899D01*
X015405Y022807D02*
X015955Y022807D01*
X015772Y022624D01*
X015772Y022438D02*
X015405Y022255D01*
X015772Y022071D01*
X015405Y022624D02*
X015405Y022991D01*
X015405Y023176D02*
X015405Y023268D01*
X015497Y023268D01*
X015497Y023176D01*
X015405Y023176D01*
X015497Y023453D02*
X015405Y023544D01*
X015405Y023728D01*
X015497Y023820D01*
X015864Y023820D01*
X015497Y023453D01*
X015864Y023453D01*
X015955Y023544D01*
X015955Y023728D01*
X015864Y023820D01*
X015864Y021333D02*
X015497Y021333D01*
X015405Y021242D01*
X015405Y020966D01*
X015955Y020966D01*
X015955Y021242D01*
X015864Y021333D01*
X015864Y020781D02*
X015955Y020689D01*
X015955Y020506D01*
X015864Y020414D01*
X015497Y020414D01*
X015405Y020506D01*
X015405Y020689D01*
X015497Y020781D01*
X015680Y020781D01*
X015680Y020597D01*
X015588Y020228D02*
X015497Y020228D01*
X015405Y020137D01*
X015405Y019953D01*
X015497Y019861D01*
X015680Y019953D02*
X015680Y020137D01*
X015588Y020228D01*
X015864Y020228D02*
X015955Y020137D01*
X015955Y019953D01*
X015864Y019861D01*
X015772Y019861D01*
X015680Y019953D01*
X015680Y019676D02*
X015588Y019584D01*
X015588Y019309D01*
X015405Y019309D02*
X015955Y019309D01*
X015955Y019584D01*
X015864Y019676D01*
X015680Y019676D01*
D12*
X006088Y006051D02*
X006088Y005310D01*
X006088Y005051D02*
X005841Y004804D01*
X005594Y005051D01*
X005594Y004310D01*
X005351Y004310D02*
X005104Y004310D01*
X005228Y004310D02*
X005228Y005051D01*
X005351Y005051D02*
X005104Y005051D01*
X005104Y005310D02*
X005351Y005310D01*
X005228Y005310D02*
X005228Y006051D01*
X005351Y006051D02*
X005104Y006051D01*
X004860Y006051D02*
X004366Y005310D01*
X004366Y005051D02*
X004860Y004310D01*
X004366Y004310D02*
X004860Y005051D01*
X004860Y005310D02*
X004366Y006051D01*
X003387Y005804D02*
X003140Y006051D01*
X003140Y005310D01*
X003387Y005310D02*
X002893Y005310D01*
X003016Y005051D02*
X002893Y004927D01*
X003387Y004433D01*
X003263Y004310D01*
X003016Y004310D01*
X002893Y004433D01*
X002893Y004927D01*
X003016Y005051D02*
X003263Y005051D01*
X003387Y004927D01*
X003387Y004433D01*
X005594Y005310D02*
X005594Y006051D01*
X005841Y005804D01*
X006088Y006051D01*
X006088Y005051D02*
X006088Y004310D01*
D13*
X005180Y006680D02*
X005180Y009280D01*
X000180Y009280D01*
X000180Y006680D02*
X005180Y006680D01*
X005180Y009280D02*
X005180Y017180D01*
X006180Y017180D01*
X006180Y021180D01*
X000180Y021180D01*
X000180Y024180D02*
X005180Y024180D01*
X005180Y026180D01*
X000280Y026180D01*
X000180Y017180D02*
X005180Y017180D01*
M02*
