G75*
%MOIN*%
%OFA0B0*%
%FSLAX24Y24*%
%IPPOS*%
%LPD*%
%AMOC8*
5,1,8,0,0,1.08239X$1,22.5*
%
%ADD10C,0.0520*%
%ADD11C,0.0600*%
%ADD12C,0.0476*%
%ADD13C,0.0160*%
%ADD14R,0.0396X0.0396*%
D10*
X003420Y006180D02*
X003940Y006180D01*
X003940Y007180D02*
X003420Y007180D01*
X003420Y008180D02*
X003940Y008180D01*
X003940Y009180D02*
X003420Y009180D01*
X003420Y010180D02*
X003940Y010180D01*
X003940Y011180D02*
X003420Y011180D01*
X003420Y012180D02*
X003940Y012180D01*
X003940Y013180D02*
X003420Y013180D01*
X003420Y014180D02*
X003940Y014180D01*
X003940Y015180D02*
X003420Y015180D01*
X003420Y016180D02*
X003940Y016180D01*
X003940Y017180D02*
X003420Y017180D01*
X003420Y018180D02*
X003940Y018180D01*
X003940Y019180D02*
X003420Y019180D01*
X003420Y020180D02*
X003940Y020180D01*
X003940Y021180D02*
X003420Y021180D01*
X003420Y022180D02*
X003940Y022180D01*
X003940Y023180D02*
X003420Y023180D01*
X003420Y024180D02*
X003940Y024180D01*
X003940Y025180D02*
X003420Y025180D01*
X009420Y025180D02*
X009940Y025180D01*
X009940Y024180D02*
X009420Y024180D01*
X009420Y023180D02*
X009940Y023180D01*
X009940Y022180D02*
X009420Y022180D01*
X009420Y021180D02*
X009940Y021180D01*
X009940Y020180D02*
X009420Y020180D01*
X009420Y019180D02*
X009940Y019180D01*
X009940Y018180D02*
X009420Y018180D01*
X009420Y017180D02*
X009940Y017180D01*
X009940Y016180D02*
X009420Y016180D01*
X009420Y015180D02*
X009940Y015180D01*
X009940Y014180D02*
X009420Y014180D01*
X009420Y013180D02*
X009940Y013180D01*
X009940Y012180D02*
X009420Y012180D01*
X009420Y011180D02*
X009940Y011180D01*
X009940Y010180D02*
X009420Y010180D01*
X009420Y009180D02*
X009940Y009180D01*
X009940Y008180D02*
X009420Y008180D01*
X009420Y007180D02*
X009940Y007180D01*
X009940Y006180D02*
X009420Y006180D01*
X011920Y006180D02*
X012440Y006180D01*
X012440Y007180D02*
X011920Y007180D01*
X011920Y008180D02*
X012440Y008180D01*
X012440Y009180D02*
X011920Y009180D01*
X011920Y010180D02*
X012440Y010180D01*
X012440Y011180D02*
X011920Y011180D01*
X011920Y012180D02*
X012440Y012180D01*
X012440Y013180D02*
X011920Y013180D01*
X011920Y014180D02*
X012440Y014180D01*
X012440Y015180D02*
X011920Y015180D01*
X011920Y016180D02*
X012440Y016180D01*
X012440Y017180D02*
X011920Y017180D01*
X011920Y018180D02*
X012440Y018180D01*
X012440Y019180D02*
X011920Y019180D01*
X011920Y020180D02*
X012440Y020180D01*
X012440Y021180D02*
X011920Y021180D01*
X011920Y022180D02*
X012440Y022180D01*
X012440Y023180D02*
X011920Y023180D01*
X011920Y024180D02*
X012440Y024180D01*
X012440Y025180D02*
X011920Y025180D01*
X017920Y025180D02*
X018440Y025180D01*
X018440Y024180D02*
X017920Y024180D01*
X017920Y023180D02*
X018440Y023180D01*
X018440Y022180D02*
X017920Y022180D01*
X017920Y021180D02*
X018440Y021180D01*
X018440Y020180D02*
X017920Y020180D01*
X017920Y019180D02*
X018440Y019180D01*
X018440Y018180D02*
X017920Y018180D01*
X017920Y017180D02*
X018440Y017180D01*
X018440Y016180D02*
X017920Y016180D01*
X017920Y015180D02*
X018440Y015180D01*
X018440Y014180D02*
X017920Y014180D01*
X017920Y013180D02*
X018440Y013180D01*
X018440Y012180D02*
X017920Y012180D01*
X017920Y011180D02*
X018440Y011180D01*
X018440Y010180D02*
X017920Y010180D01*
X017920Y009180D02*
X018440Y009180D01*
X018440Y008180D02*
X017920Y008180D01*
X017920Y007180D02*
X018440Y007180D01*
X018440Y006180D02*
X017920Y006180D01*
D11*
X015680Y027880D02*
X015680Y028480D01*
X014680Y028480D02*
X014680Y027880D01*
X013680Y027880D02*
X013680Y028480D01*
X008180Y028480D02*
X008180Y027880D01*
X007180Y027880D02*
X007180Y028480D01*
X006180Y028480D02*
X006180Y027880D01*
X001980Y025680D02*
X001380Y025680D01*
X001380Y024680D02*
X001980Y024680D01*
X001980Y020680D02*
X001380Y020680D01*
X001380Y019680D02*
X001980Y019680D01*
X001980Y018680D02*
X001380Y018680D01*
X001380Y017680D02*
X001980Y017680D01*
X001980Y016680D02*
X001380Y016680D01*
X001380Y015680D02*
X001980Y015680D01*
X001980Y014680D02*
X001380Y014680D01*
X001380Y013680D02*
X001980Y013680D01*
X001980Y012680D02*
X001380Y012680D01*
X001380Y011680D02*
X001980Y011680D01*
X001980Y010680D02*
X001380Y010680D01*
X001380Y009680D02*
X001980Y009680D01*
X001980Y008680D02*
X001380Y008680D01*
X001380Y007680D02*
X001980Y007680D01*
X001980Y005680D02*
X001380Y005680D01*
X001380Y004680D02*
X001980Y004680D01*
D12*
X003680Y004180D03*
X004680Y004180D03*
X006680Y004180D03*
X007680Y004180D03*
X008680Y004180D03*
X009680Y004180D03*
X011180Y004180D03*
X012180Y004180D03*
X013680Y004180D03*
X014680Y004180D03*
X015680Y004180D03*
X016680Y004180D03*
X016680Y001180D03*
X015680Y001180D03*
X014680Y001180D03*
X013680Y001180D03*
X009680Y001180D03*
X008680Y001180D03*
X007680Y001180D03*
X006680Y001180D03*
D13*
X000660Y002133D02*
X000660Y028227D01*
X000792Y027998D01*
X000998Y027792D01*
X001252Y027646D01*
X001534Y027570D01*
X001826Y027570D01*
X002108Y027646D01*
X002362Y027792D01*
X002568Y027998D01*
X002714Y028252D01*
X002790Y028534D01*
X002790Y028826D01*
X002714Y029108D01*
X002568Y029362D01*
X002362Y029568D01*
X002133Y029700D01*
X018227Y029700D01*
X017998Y029568D01*
X017792Y029362D01*
X017646Y029108D01*
X017570Y028826D01*
X017570Y028534D01*
X017646Y028252D01*
X017792Y027998D01*
X017998Y027792D01*
X018252Y027646D01*
X018534Y027570D01*
X018826Y027570D01*
X019108Y027646D01*
X019362Y027792D01*
X019568Y027998D01*
X019700Y028227D01*
X019700Y002133D01*
X019568Y002362D01*
X019362Y002568D01*
X019108Y002714D01*
X018826Y002790D01*
X018534Y002790D01*
X018252Y002714D01*
X017998Y002568D01*
X017792Y002362D01*
X017646Y002108D01*
X017570Y001826D01*
X017570Y001534D01*
X017646Y001252D01*
X017792Y000998D01*
X017998Y000792D01*
X018227Y000660D01*
X002133Y000660D01*
X002362Y000792D01*
X002568Y000998D01*
X002714Y001252D01*
X002790Y001534D01*
X002790Y001826D01*
X002714Y002108D01*
X002568Y002362D01*
X002362Y002568D01*
X002108Y002714D01*
X001826Y002790D01*
X001534Y002790D01*
X001252Y002714D01*
X000998Y002568D01*
X000792Y002362D01*
X000660Y002133D01*
X000660Y002241D02*
X000722Y002241D01*
X000660Y002399D02*
X000829Y002399D01*
X000988Y002558D02*
X000660Y002558D01*
X000660Y002716D02*
X001258Y002716D01*
X000660Y002875D02*
X006831Y002875D01*
X006866Y002860D02*
X012547Y002860D01*
X013360Y002047D01*
X013360Y001536D01*
X013275Y001451D01*
X013202Y001275D01*
X013202Y001085D01*
X013275Y000909D01*
X013409Y000775D01*
X013585Y000702D01*
X013775Y000702D01*
X013951Y000775D01*
X014085Y000909D01*
X014158Y001085D01*
X014158Y001275D01*
X014085Y001451D01*
X014000Y001536D01*
X014000Y002244D01*
X013951Y002361D01*
X013861Y002451D01*
X012861Y003451D01*
X012744Y003500D01*
X007063Y003500D01*
X006835Y003727D01*
X006951Y003775D01*
X007085Y003909D01*
X007158Y004085D01*
X007158Y004275D01*
X007085Y004451D01*
X007000Y004536D01*
X007000Y008407D01*
X007360Y008047D01*
X007360Y004536D01*
X007275Y004451D01*
X007202Y004275D01*
X007202Y004085D01*
X007275Y003909D01*
X007409Y003775D01*
X007585Y003702D01*
X007775Y003702D01*
X007951Y003775D01*
X008085Y003909D01*
X008158Y004085D01*
X008158Y004275D01*
X008085Y004451D01*
X008000Y004536D01*
X008000Y007860D01*
X009033Y007860D01*
X009137Y007756D01*
X009321Y007680D01*
X009137Y007604D01*
X008996Y007463D01*
X008920Y007279D01*
X008920Y007081D01*
X008996Y006897D01*
X009137Y006756D01*
X009321Y006680D01*
X010039Y006680D01*
X010223Y006756D01*
X010360Y006893D01*
X010360Y006311D01*
X010348Y006349D01*
X010316Y006411D01*
X010276Y006467D01*
X010227Y006516D01*
X010171Y006556D01*
X010109Y006588D01*
X010043Y006609D01*
X009975Y006620D01*
X009680Y006620D01*
X009680Y006180D01*
X009680Y006180D01*
X009680Y005740D01*
X009975Y005740D01*
X010043Y005751D01*
X010109Y005772D01*
X010171Y005804D01*
X010227Y005844D01*
X010276Y005893D01*
X010316Y005949D01*
X010348Y006011D01*
X010360Y006049D01*
X010360Y005813D01*
X010047Y005500D01*
X009116Y005500D01*
X008999Y005451D01*
X008499Y004951D01*
X008409Y004861D01*
X008360Y004744D01*
X008360Y004536D01*
X008275Y004451D01*
X008202Y004275D01*
X008202Y004085D01*
X008275Y003909D01*
X008409Y003775D01*
X008585Y003702D01*
X008775Y003702D01*
X008951Y003775D01*
X009085Y003909D01*
X009158Y004085D01*
X009158Y004275D01*
X009085Y004451D01*
X009000Y004536D01*
X009000Y004547D01*
X009313Y004860D01*
X010244Y004860D01*
X010361Y004909D01*
X010451Y004999D01*
X010951Y005499D01*
X011000Y005616D01*
X011000Y008744D01*
X010951Y008861D01*
X010861Y008951D01*
X010374Y009438D01*
X010364Y009463D01*
X010223Y009604D01*
X010039Y009680D01*
X010223Y009756D01*
X010364Y009897D01*
X010440Y010081D01*
X010440Y010279D01*
X010364Y010463D01*
X010223Y010604D01*
X010039Y010680D01*
X010223Y010756D01*
X010364Y010897D01*
X010440Y011081D01*
X010440Y011279D01*
X010364Y011463D01*
X010223Y011604D01*
X010039Y011680D01*
X010223Y011756D01*
X010364Y011897D01*
X010440Y012081D01*
X010440Y012279D01*
X010364Y012463D01*
X010223Y012604D01*
X010039Y012680D01*
X009321Y012680D01*
X009137Y012604D01*
X008996Y012463D01*
X008920Y012279D01*
X008920Y012081D01*
X008996Y011897D01*
X009137Y011756D01*
X009321Y011680D01*
X010039Y011680D01*
X009321Y011680D01*
X009137Y011604D01*
X008996Y011463D01*
X008920Y011279D01*
X008920Y011081D01*
X008996Y010897D01*
X009137Y010756D01*
X009321Y010680D01*
X010039Y010680D01*
X009321Y010680D01*
X009137Y010604D01*
X008996Y010463D01*
X008920Y010279D01*
X008920Y010081D01*
X008996Y009897D01*
X009137Y009756D01*
X009321Y009680D01*
X010039Y009680D01*
X009321Y009680D01*
X009137Y009604D01*
X009033Y009500D01*
X008813Y009500D01*
X008500Y009813D01*
X008500Y027436D01*
X008638Y027574D01*
X008720Y027773D01*
X008720Y028587D01*
X008638Y028786D01*
X008486Y028938D01*
X008287Y029020D01*
X008073Y029020D01*
X007874Y028938D01*
X007722Y028786D01*
X007680Y028684D01*
X007638Y028786D01*
X007486Y028938D01*
X007287Y029020D01*
X007073Y029020D01*
X006874Y028938D01*
X006722Y028786D01*
X006680Y028684D01*
X006638Y028786D01*
X006486Y028938D01*
X006287Y029020D01*
X006073Y029020D01*
X005874Y028938D01*
X005722Y028786D01*
X005640Y028587D01*
X005640Y027773D01*
X005722Y027574D01*
X005860Y027436D01*
X005860Y009313D01*
X005047Y008500D01*
X004327Y008500D01*
X004223Y008604D01*
X004039Y008680D01*
X004223Y008756D01*
X004364Y008897D01*
X004440Y009081D01*
X004440Y009279D01*
X004364Y009463D01*
X004223Y009604D01*
X004039Y009680D01*
X004223Y009756D01*
X004364Y009897D01*
X004440Y010081D01*
X004440Y010279D01*
X004364Y010463D01*
X004223Y010604D01*
X004039Y010680D01*
X004223Y010756D01*
X004364Y010897D01*
X004440Y011081D01*
X004440Y011279D01*
X004364Y011463D01*
X004223Y011604D01*
X004039Y011680D01*
X004223Y011756D01*
X004364Y011897D01*
X004440Y012081D01*
X004440Y012279D01*
X004364Y012463D01*
X004223Y012604D01*
X004039Y012680D01*
X004223Y012756D01*
X004364Y012897D01*
X004440Y013081D01*
X004440Y013279D01*
X004364Y013463D01*
X004223Y013604D01*
X004039Y013680D01*
X004223Y013756D01*
X004364Y013897D01*
X004440Y014081D01*
X004440Y014279D01*
X004364Y014463D01*
X004223Y014604D01*
X004039Y014680D01*
X004223Y014756D01*
X004364Y014897D01*
X004440Y015081D01*
X004440Y015279D01*
X004364Y015463D01*
X004223Y015604D01*
X004039Y015680D01*
X004223Y015756D01*
X004364Y015897D01*
X004440Y016081D01*
X004440Y016279D01*
X004364Y016463D01*
X004223Y016604D01*
X004039Y016680D01*
X004223Y016756D01*
X004364Y016897D01*
X004440Y017081D01*
X004440Y017279D01*
X004364Y017463D01*
X004223Y017604D01*
X004039Y017680D01*
X004223Y017756D01*
X004364Y017897D01*
X004440Y018081D01*
X004440Y018279D01*
X004364Y018463D01*
X004223Y018604D01*
X004039Y018680D01*
X004223Y018756D01*
X004364Y018897D01*
X004440Y019081D01*
X004440Y019279D01*
X004364Y019463D01*
X004223Y019604D01*
X004039Y019680D01*
X004223Y019756D01*
X004364Y019897D01*
X004440Y020081D01*
X004440Y020279D01*
X004364Y020463D01*
X004223Y020604D01*
X004039Y020680D01*
X004223Y020756D01*
X004364Y020897D01*
X004440Y021081D01*
X004440Y021279D01*
X004364Y021463D01*
X004223Y021604D01*
X004039Y021680D01*
X004223Y021756D01*
X004364Y021897D01*
X004440Y022081D01*
X004440Y022279D01*
X004364Y022463D01*
X004223Y022604D01*
X004039Y022680D01*
X004223Y022756D01*
X004364Y022897D01*
X004440Y023081D01*
X004440Y023279D01*
X004364Y023463D01*
X004223Y023604D01*
X004039Y023680D01*
X004223Y023756D01*
X004364Y023897D01*
X004440Y024081D01*
X004440Y024279D01*
X004364Y024463D01*
X004223Y024604D01*
X004039Y024680D01*
X004223Y024756D01*
X004364Y024897D01*
X004440Y025081D01*
X004440Y025279D01*
X004364Y025463D01*
X004223Y025604D01*
X004039Y025680D01*
X003321Y025680D01*
X003137Y025604D01*
X002996Y025463D01*
X002920Y025279D01*
X002920Y025081D01*
X002996Y024897D01*
X003137Y024756D01*
X003321Y024680D01*
X004039Y024680D01*
X003321Y024680D01*
X003137Y024604D01*
X002996Y024463D01*
X002920Y024279D01*
X002920Y024081D01*
X002996Y023897D01*
X003137Y023756D01*
X003321Y023680D01*
X004039Y023680D01*
X003321Y023680D01*
X003137Y023604D01*
X002996Y023463D01*
X002920Y023279D01*
X002920Y023081D01*
X002996Y022897D01*
X003137Y022756D01*
X003321Y022680D01*
X004039Y022680D01*
X003321Y022680D01*
X003137Y022604D01*
X002996Y022463D01*
X002920Y022279D01*
X002920Y022081D01*
X002996Y021897D01*
X003137Y021756D01*
X003321Y021680D01*
X004039Y021680D01*
X003321Y021680D01*
X003137Y021604D01*
X002996Y021463D01*
X002920Y021279D01*
X002920Y021081D01*
X002996Y020897D01*
X003137Y020756D01*
X003321Y020680D01*
X004039Y020680D01*
X003321Y020680D01*
X003137Y020604D01*
X002996Y020463D01*
X002920Y020279D01*
X002920Y020081D01*
X002996Y019897D01*
X003137Y019756D01*
X003321Y019680D01*
X004039Y019680D01*
X003321Y019680D01*
X003137Y019604D01*
X002996Y019463D01*
X002920Y019279D01*
X002920Y019081D01*
X002996Y018897D01*
X003137Y018756D01*
X003321Y018680D01*
X004039Y018680D01*
X003321Y018680D01*
X003137Y018604D01*
X002996Y018463D01*
X002986Y018438D01*
X002466Y017918D01*
X002438Y017986D01*
X002286Y018138D01*
X002184Y018180D01*
X002286Y018222D01*
X002438Y018374D01*
X002520Y018573D01*
X002520Y018787D01*
X002438Y018986D01*
X002286Y019138D01*
X002184Y019180D01*
X002286Y019222D01*
X002438Y019374D01*
X002520Y019573D01*
X002520Y019787D01*
X002438Y019986D01*
X002286Y020138D01*
X002184Y020180D01*
X002286Y020222D01*
X002438Y020374D01*
X002520Y020573D01*
X002520Y020787D01*
X002438Y020986D01*
X002286Y021138D01*
X002087Y021220D01*
X001273Y021220D01*
X001074Y021138D01*
X000922Y020986D01*
X000840Y020787D01*
X000840Y020573D01*
X000922Y020374D01*
X001074Y020222D01*
X001176Y020180D01*
X001074Y020138D01*
X000922Y019986D01*
X000840Y019787D01*
X000840Y019573D01*
X000922Y019374D01*
X001074Y019222D01*
X001176Y019180D01*
X001074Y019138D01*
X000922Y018986D01*
X000840Y018787D01*
X000840Y018573D01*
X000922Y018374D01*
X001074Y018222D01*
X001176Y018180D01*
X001074Y018138D01*
X000922Y017986D01*
X000840Y017787D01*
X000840Y017573D01*
X000922Y017374D01*
X001074Y017222D01*
X001176Y017180D01*
X001074Y017138D01*
X000922Y016986D01*
X000840Y016787D01*
X000840Y016573D01*
X000922Y016374D01*
X001074Y016222D01*
X001176Y016180D01*
X001074Y016138D01*
X000922Y015986D01*
X000840Y015787D01*
X000840Y015573D01*
X000922Y015374D01*
X001074Y015222D01*
X001176Y015180D01*
X001074Y015138D01*
X000922Y014986D01*
X000840Y014787D01*
X000840Y014573D01*
X000922Y014374D01*
X001074Y014222D01*
X001176Y014180D01*
X001074Y014138D01*
X000922Y013986D01*
X000840Y013787D01*
X000840Y013573D01*
X000922Y013374D01*
X001074Y013222D01*
X001176Y013180D01*
X001074Y013138D01*
X000922Y012986D01*
X000840Y012787D01*
X000840Y012573D01*
X000922Y012374D01*
X001074Y012222D01*
X001176Y012180D01*
X001074Y012138D01*
X000922Y011986D01*
X000840Y011787D01*
X000840Y011573D01*
X000922Y011374D01*
X001074Y011222D01*
X001176Y011180D01*
X001074Y011138D01*
X000922Y010986D01*
X000840Y010787D01*
X000840Y010573D01*
X000922Y010374D01*
X001074Y010222D01*
X001176Y010180D01*
X001074Y010138D01*
X000922Y009986D01*
X000840Y009787D01*
X000840Y009573D01*
X000922Y009374D01*
X001074Y009222D01*
X001259Y009145D01*
X001196Y009125D01*
X001128Y009091D01*
X001067Y009046D01*
X001014Y008993D01*
X000969Y008932D01*
X000935Y008864D01*
X000912Y008792D01*
X000900Y008718D01*
X000900Y008700D01*
X001660Y008700D01*
X001660Y008660D01*
X000900Y008660D01*
X000900Y008642D01*
X000912Y008568D01*
X000935Y008496D01*
X000969Y008428D01*
X001014Y008367D01*
X001067Y008314D01*
X001128Y008269D01*
X001196Y008235D01*
X001259Y008215D01*
X001074Y008138D01*
X000922Y007986D01*
X000840Y007787D01*
X000840Y007573D01*
X000922Y007374D01*
X001074Y007222D01*
X001273Y007140D01*
X002087Y007140D01*
X002215Y007193D01*
X002499Y006909D01*
X002659Y006749D01*
X002659Y006749D01*
X002981Y006427D01*
X002920Y006279D01*
X002920Y006081D01*
X002996Y005897D01*
X003137Y005756D01*
X003321Y005680D01*
X004039Y005680D01*
X004223Y005756D01*
X004364Y005897D01*
X004440Y006081D01*
X004440Y006279D01*
X004364Y006463D01*
X004223Y006604D01*
X004039Y006680D01*
X004223Y006756D01*
X004364Y006897D01*
X004440Y007081D01*
X004440Y007279D01*
X004364Y007463D01*
X004223Y007604D01*
X004039Y007680D01*
X004223Y007756D01*
X004327Y007860D01*
X005244Y007860D01*
X005361Y007909D01*
X005451Y007999D01*
X006180Y008727D01*
X006360Y008547D01*
X006360Y004536D01*
X006275Y004451D01*
X006227Y004335D01*
X005111Y005451D01*
X004994Y005500D01*
X003313Y005500D01*
X002861Y005951D01*
X002744Y006000D01*
X002424Y006000D01*
X002286Y006138D01*
X002087Y006220D01*
X001273Y006220D01*
X001074Y006138D01*
X000922Y005986D01*
X000840Y005787D01*
X000840Y005573D01*
X000922Y005374D01*
X001074Y005222D01*
X001176Y005180D01*
X001074Y005138D01*
X000922Y004986D01*
X000840Y004787D01*
X000840Y004573D01*
X000922Y004374D01*
X001074Y004222D01*
X001273Y004140D01*
X002087Y004140D01*
X002286Y004222D01*
X002438Y004374D01*
X002520Y004573D01*
X002520Y004787D01*
X002438Y004986D01*
X002286Y005138D01*
X002184Y005180D01*
X002286Y005222D01*
X002424Y005360D01*
X002547Y005360D01*
X002909Y004999D01*
X002999Y004909D01*
X003116Y004860D01*
X004797Y004860D01*
X006659Y002999D01*
X006749Y002909D01*
X006866Y002860D01*
X006624Y003033D02*
X000660Y003033D01*
X000660Y003192D02*
X006466Y003192D01*
X006307Y003350D02*
X000660Y003350D01*
X000660Y003509D02*
X006149Y003509D01*
X005990Y003667D02*
X000660Y003667D01*
X000660Y003826D02*
X003359Y003826D01*
X003409Y003775D02*
X003585Y003702D01*
X003775Y003702D01*
X003951Y003775D01*
X004085Y003909D01*
X004158Y004085D01*
X004158Y004275D01*
X004085Y004451D01*
X003951Y004585D01*
X003775Y004658D01*
X003585Y004658D01*
X003409Y004585D01*
X003275Y004451D01*
X003202Y004275D01*
X003202Y004085D01*
X003275Y003909D01*
X003409Y003775D01*
X003244Y003984D02*
X000660Y003984D01*
X000660Y004143D02*
X001267Y004143D01*
X000995Y004301D02*
X000660Y004301D01*
X000660Y004460D02*
X000887Y004460D01*
X000840Y004618D02*
X000660Y004618D01*
X000660Y004777D02*
X000840Y004777D01*
X000901Y004935D02*
X000660Y004935D01*
X000660Y005094D02*
X001030Y005094D01*
X001044Y005252D02*
X000660Y005252D01*
X000660Y005411D02*
X000907Y005411D01*
X000841Y005569D02*
X000660Y005569D01*
X000660Y005728D02*
X000840Y005728D01*
X000881Y005886D02*
X000660Y005886D01*
X000660Y006045D02*
X000981Y006045D01*
X001232Y006203D02*
X000660Y006203D01*
X000660Y006362D02*
X002954Y006362D01*
X002920Y006203D02*
X002128Y006203D01*
X002379Y006045D02*
X002935Y006045D01*
X002927Y005886D02*
X003007Y005886D01*
X003085Y005728D02*
X003206Y005728D01*
X003244Y005569D02*
X006360Y005569D01*
X006360Y005411D02*
X005152Y005411D01*
X005311Y005252D02*
X006360Y005252D01*
X006360Y005094D02*
X005469Y005094D01*
X005628Y004935D02*
X006360Y004935D01*
X006360Y004777D02*
X005786Y004777D01*
X005945Y004618D02*
X006360Y004618D01*
X006284Y004460D02*
X006103Y004460D01*
X005673Y003984D02*
X005049Y003984D01*
X005037Y003961D02*
X005067Y004020D01*
X005088Y004082D01*
X005098Y004147D01*
X005098Y004180D01*
X005098Y004213D01*
X005088Y004278D01*
X005067Y004340D01*
X005037Y004399D01*
X004999Y004452D01*
X004952Y004499D01*
X004899Y004537D01*
X004840Y004567D01*
X004778Y004588D01*
X004713Y004598D01*
X004680Y004598D01*
X004647Y004598D01*
X004582Y004588D01*
X004520Y004567D01*
X004461Y004537D01*
X004408Y004499D01*
X004361Y004452D01*
X004323Y004399D01*
X004293Y004340D01*
X004272Y004278D01*
X004262Y004213D01*
X004262Y004180D01*
X004262Y004147D01*
X004272Y004082D01*
X004293Y004020D01*
X004323Y003961D01*
X004361Y003908D01*
X004408Y003861D01*
X004461Y003823D01*
X004520Y003793D01*
X004582Y003772D01*
X004647Y003762D01*
X004680Y003762D01*
X004713Y003762D01*
X004778Y003772D01*
X004840Y003793D01*
X004899Y003823D01*
X004952Y003861D01*
X004999Y003908D01*
X005037Y003961D01*
X004903Y003826D02*
X005832Y003826D01*
X005515Y004143D02*
X005097Y004143D01*
X005098Y004180D02*
X004680Y004180D01*
X005098Y004180D01*
X005080Y004301D02*
X005356Y004301D01*
X005198Y004460D02*
X004991Y004460D01*
X005039Y004618D02*
X003871Y004618D01*
X004076Y004460D02*
X004369Y004460D01*
X004280Y004301D02*
X004147Y004301D01*
X004158Y004143D02*
X004263Y004143D01*
X004262Y004180D02*
X004680Y004180D01*
X004680Y004180D01*
X004680Y004180D01*
X004680Y004598D01*
X004680Y004180D01*
X004680Y003762D01*
X004680Y004180D01*
X004680Y004180D01*
X004680Y004180D01*
X004262Y004180D01*
X004311Y003984D02*
X004116Y003984D01*
X004001Y003826D02*
X004457Y003826D01*
X004680Y003826D02*
X004680Y003826D01*
X004680Y003984D02*
X004680Y003984D01*
X004680Y004143D02*
X004680Y004143D01*
X004680Y004301D02*
X004680Y004301D01*
X004680Y004460D02*
X004680Y004460D01*
X004881Y004777D02*
X002520Y004777D01*
X002520Y004618D02*
X003489Y004618D01*
X003284Y004460D02*
X002473Y004460D01*
X002365Y004301D02*
X003213Y004301D01*
X003202Y004143D02*
X002093Y004143D01*
X002459Y004935D02*
X002972Y004935D01*
X002814Y005094D02*
X002330Y005094D01*
X002316Y005252D02*
X002655Y005252D01*
X002680Y005680D02*
X003180Y005180D01*
X004930Y005180D01*
X006930Y003180D01*
X012680Y003180D01*
X013680Y002180D01*
X013680Y001180D01*
X013990Y000814D02*
X014370Y000814D01*
X014409Y000775D02*
X014585Y000702D01*
X014775Y000702D01*
X014951Y000775D01*
X015085Y000909D01*
X015158Y001085D01*
X015158Y001275D01*
X015085Y001451D01*
X014951Y001585D01*
X014775Y001658D01*
X014585Y001658D01*
X014409Y001585D01*
X014275Y001451D01*
X014202Y001275D01*
X014202Y001085D01*
X014275Y000909D01*
X014409Y000775D01*
X014249Y000973D02*
X014111Y000973D01*
X014158Y001131D02*
X014202Y001131D01*
X014208Y001290D02*
X014152Y001290D01*
X014086Y001448D02*
X014274Y001448D01*
X014461Y001607D02*
X014000Y001607D01*
X014000Y001765D02*
X017570Y001765D01*
X017570Y001607D02*
X016899Y001607D01*
X016951Y001585D02*
X016775Y001658D01*
X016585Y001658D01*
X016409Y001585D01*
X016275Y001451D01*
X016202Y001275D01*
X016202Y001085D01*
X016275Y000909D01*
X016409Y000775D01*
X016585Y000702D01*
X016775Y000702D01*
X016951Y000775D01*
X017085Y000909D01*
X017158Y001085D01*
X017158Y001275D01*
X017085Y001451D01*
X016951Y001585D01*
X017086Y001448D02*
X017593Y001448D01*
X017636Y001290D02*
X017152Y001290D01*
X017158Y001131D02*
X017715Y001131D01*
X017818Y000973D02*
X017111Y000973D01*
X016990Y000814D02*
X017976Y000814D01*
X017596Y001924D02*
X014000Y001924D01*
X014000Y002082D02*
X017639Y002082D01*
X017722Y002241D02*
X014000Y002241D01*
X013914Y002399D02*
X017829Y002399D01*
X017988Y002558D02*
X013755Y002558D01*
X013597Y002716D02*
X018258Y002716D01*
X019102Y002716D02*
X019700Y002716D01*
X019700Y002558D02*
X019372Y002558D01*
X019531Y002399D02*
X019700Y002399D01*
X019700Y002241D02*
X019638Y002241D01*
X019700Y002875D02*
X013438Y002875D01*
X013280Y003033D02*
X019700Y003033D01*
X019700Y003192D02*
X013121Y003192D01*
X012963Y003350D02*
X019700Y003350D01*
X019700Y003509D02*
X007054Y003509D01*
X006896Y003667D02*
X019700Y003667D01*
X019700Y003826D02*
X016903Y003826D01*
X016899Y003823D02*
X016952Y003861D01*
X016999Y003908D01*
X017037Y003961D01*
X017067Y004020D01*
X017088Y004082D01*
X017098Y004147D01*
X017098Y004180D01*
X017098Y004213D01*
X017088Y004278D01*
X017067Y004340D01*
X017037Y004399D01*
X016999Y004452D01*
X016952Y004499D01*
X016899Y004537D01*
X016840Y004567D01*
X016778Y004588D01*
X016713Y004598D01*
X016680Y004598D01*
X016647Y004598D01*
X016582Y004588D01*
X016520Y004567D01*
X016461Y004537D01*
X016408Y004499D01*
X016361Y004452D01*
X016323Y004399D01*
X016293Y004340D01*
X016272Y004278D01*
X016262Y004213D01*
X016262Y004180D01*
X016262Y004147D01*
X016272Y004082D01*
X016293Y004020D01*
X016323Y003961D01*
X016361Y003908D01*
X016408Y003861D01*
X016461Y003823D01*
X016520Y003793D01*
X016582Y003772D01*
X016647Y003762D01*
X016680Y003762D01*
X016713Y003762D01*
X016778Y003772D01*
X016840Y003793D01*
X016899Y003823D01*
X017049Y003984D02*
X019700Y003984D01*
X019700Y004143D02*
X017097Y004143D01*
X017098Y004180D02*
X016680Y004180D01*
X016680Y004180D01*
X016680Y004598D01*
X016680Y004180D01*
X017098Y004180D01*
X017080Y004301D02*
X019700Y004301D01*
X019700Y004460D02*
X016991Y004460D01*
X016680Y004460D02*
X016680Y004460D01*
X016680Y004301D02*
X016680Y004301D01*
X016680Y004180D02*
X016680Y004180D01*
X016680Y004180D01*
X016262Y004180D01*
X016680Y004180D01*
X016680Y003762D01*
X016680Y004180D01*
X016680Y004180D01*
X016680Y004143D02*
X016680Y004143D01*
X016680Y003984D02*
X016680Y003984D01*
X016680Y003826D02*
X016680Y003826D01*
X016457Y003826D02*
X016001Y003826D01*
X015951Y003775D02*
X016085Y003909D01*
X016158Y004085D01*
X016158Y004275D01*
X016085Y004451D01*
X016000Y004536D01*
X016000Y004547D01*
X016313Y004860D01*
X018994Y004860D01*
X019111Y004909D01*
X019361Y005159D01*
X019451Y005249D01*
X019500Y005366D01*
X019500Y008744D01*
X019451Y008861D01*
X018951Y009361D01*
X018874Y009438D01*
X018864Y009463D01*
X018723Y009604D01*
X018539Y009680D01*
X018723Y009756D01*
X018864Y009897D01*
X018940Y010081D01*
X018940Y010279D01*
X018864Y010463D01*
X018723Y010604D01*
X018539Y010680D01*
X017821Y010680D01*
X017637Y010604D01*
X017496Y010463D01*
X017420Y010279D01*
X017420Y010081D01*
X017496Y009897D01*
X017637Y009756D01*
X017821Y009680D01*
X018539Y009680D01*
X017821Y009680D01*
X017637Y009604D01*
X017533Y009500D01*
X016000Y009500D01*
X016000Y027436D01*
X016138Y027574D01*
X016220Y027773D01*
X016220Y028587D01*
X016138Y028786D01*
X015986Y028938D01*
X015787Y029020D01*
X015573Y029020D01*
X015374Y028938D01*
X015222Y028786D01*
X015180Y028684D01*
X015138Y028786D01*
X014986Y028938D01*
X014787Y029020D01*
X014573Y029020D01*
X014374Y028938D01*
X014222Y028786D01*
X014180Y028684D01*
X014138Y028786D01*
X013986Y028938D01*
X013787Y029020D01*
X013573Y029020D01*
X013374Y028938D01*
X013222Y028786D01*
X013140Y028587D01*
X013140Y027773D01*
X013222Y027574D01*
X013360Y027436D01*
X013360Y008500D01*
X012827Y008500D01*
X012723Y008604D01*
X012539Y008680D01*
X012723Y008756D01*
X012864Y008897D01*
X012940Y009081D01*
X012940Y009279D01*
X012864Y009463D01*
X012723Y009604D01*
X012539Y009680D01*
X011821Y009680D01*
X011637Y009604D01*
X011496Y009463D01*
X011420Y009279D01*
X011420Y009081D01*
X011496Y008897D01*
X011637Y008756D01*
X011821Y008680D01*
X012539Y008680D01*
X011821Y008680D01*
X011637Y008604D01*
X011496Y008463D01*
X011420Y008279D01*
X011420Y008081D01*
X011496Y007897D01*
X011637Y007756D01*
X011821Y007680D01*
X011637Y007604D01*
X011496Y007463D01*
X011420Y007279D01*
X011420Y007081D01*
X011496Y006897D01*
X011637Y006756D01*
X011821Y006680D01*
X011637Y006604D01*
X011496Y006463D01*
X011420Y006279D01*
X011420Y006081D01*
X011496Y005897D01*
X011637Y005756D01*
X011821Y005680D01*
X011860Y005680D01*
X011860Y004536D01*
X011775Y004451D01*
X011702Y004275D01*
X011702Y004085D01*
X011775Y003909D01*
X011909Y003775D01*
X012085Y003702D01*
X012275Y003702D01*
X012451Y003775D01*
X012585Y003909D01*
X012658Y004085D01*
X012658Y004275D01*
X012585Y004451D01*
X012500Y004536D01*
X012500Y005680D01*
X012539Y005680D01*
X012723Y005756D01*
X012864Y005897D01*
X012940Y006081D01*
X012940Y006279D01*
X012864Y006463D01*
X012723Y006604D01*
X012539Y006680D01*
X011821Y006680D01*
X012539Y006680D01*
X012723Y006756D01*
X012864Y006897D01*
X012940Y007081D01*
X012940Y007279D01*
X012864Y007463D01*
X012723Y007604D01*
X012539Y007680D01*
X011821Y007680D01*
X012539Y007680D01*
X012723Y007756D01*
X012827Y007860D01*
X013360Y007860D01*
X013360Y004536D01*
X013275Y004451D01*
X013202Y004275D01*
X013202Y004085D01*
X013275Y003909D01*
X013409Y003775D01*
X013585Y003702D01*
X013775Y003702D01*
X013951Y003775D01*
X014085Y003909D01*
X014158Y004085D01*
X014158Y004275D01*
X014085Y004451D01*
X014000Y004536D01*
X014000Y027436D01*
X014138Y027574D01*
X014180Y027676D01*
X014222Y027574D01*
X014360Y027436D01*
X014360Y004536D01*
X014275Y004451D01*
X014202Y004275D01*
X014202Y004085D01*
X014275Y003909D01*
X014409Y003775D01*
X014585Y003702D01*
X014775Y003702D01*
X014951Y003775D01*
X015085Y003909D01*
X015158Y004085D01*
X015158Y004275D01*
X015085Y004451D01*
X015000Y004536D01*
X015000Y007860D01*
X017533Y007860D01*
X017637Y007756D01*
X017821Y007680D01*
X017637Y007604D01*
X017496Y007463D01*
X017420Y007279D01*
X017420Y007081D01*
X017496Y006897D01*
X017637Y006756D01*
X017821Y006680D01*
X018539Y006680D01*
X018723Y006756D01*
X018860Y006893D01*
X018860Y006311D01*
X018848Y006349D01*
X018816Y006411D01*
X018776Y006467D01*
X018727Y006516D01*
X018671Y006556D01*
X018609Y006588D01*
X018543Y006609D01*
X018475Y006620D01*
X018180Y006620D01*
X018180Y006180D01*
X018180Y006180D01*
X018180Y005740D01*
X018475Y005740D01*
X018543Y005751D01*
X018609Y005772D01*
X018671Y005804D01*
X018727Y005844D01*
X018776Y005893D01*
X018816Y005949D01*
X018848Y006011D01*
X018860Y006049D01*
X018860Y005563D01*
X018797Y005500D01*
X016116Y005500D01*
X015999Y005451D01*
X015909Y005361D01*
X015409Y004861D01*
X015360Y004744D01*
X015360Y004536D01*
X015275Y004451D01*
X015202Y004275D01*
X015202Y004085D01*
X015275Y003909D01*
X015409Y003775D01*
X015585Y003702D01*
X015775Y003702D01*
X015951Y003775D01*
X016116Y003984D02*
X016311Y003984D01*
X016263Y004143D02*
X016158Y004143D01*
X016147Y004301D02*
X016280Y004301D01*
X016369Y004460D02*
X016076Y004460D01*
X016071Y004618D02*
X019700Y004618D01*
X019700Y004777D02*
X016229Y004777D01*
X016180Y005180D02*
X018930Y005180D01*
X019180Y005430D01*
X019180Y008680D01*
X018680Y009180D01*
X018180Y009180D01*
X015680Y009180D01*
X015680Y028180D01*
X016220Y028235D02*
X017656Y028235D01*
X017608Y028393D02*
X016220Y028393D01*
X016220Y028552D02*
X017570Y028552D01*
X017570Y028710D02*
X016169Y028710D01*
X016055Y028869D02*
X017581Y028869D01*
X017624Y029027D02*
X002736Y029027D01*
X002779Y028869D02*
X005805Y028869D01*
X005691Y028710D02*
X002790Y028710D01*
X002790Y028552D02*
X005640Y028552D01*
X005640Y028393D02*
X002752Y028393D01*
X002704Y028235D02*
X005640Y028235D01*
X005640Y028076D02*
X002613Y028076D01*
X002487Y027918D02*
X005640Y027918D01*
X005646Y027759D02*
X002305Y027759D01*
X001940Y027601D02*
X005711Y027601D01*
X005854Y027442D02*
X000660Y027442D01*
X000660Y027284D02*
X005860Y027284D01*
X005860Y027125D02*
X000660Y027125D01*
X000660Y026967D02*
X005860Y026967D01*
X005860Y026808D02*
X000660Y026808D01*
X000660Y026650D02*
X005860Y026650D01*
X005860Y026491D02*
X000660Y026491D01*
X000660Y026333D02*
X005860Y026333D01*
X005860Y026174D02*
X002198Y026174D01*
X002286Y026138D02*
X002087Y026220D01*
X001273Y026220D01*
X001074Y026138D01*
X000922Y025986D01*
X000840Y025787D01*
X000840Y025573D01*
X000922Y025374D01*
X001074Y025222D01*
X001176Y025180D01*
X001074Y025138D01*
X000922Y024986D01*
X000840Y024787D01*
X000840Y024573D01*
X000922Y024374D01*
X001074Y024222D01*
X001273Y024140D01*
X002087Y024140D01*
X002286Y024222D01*
X002438Y024374D01*
X002520Y024573D01*
X002520Y024787D01*
X002438Y024986D01*
X002286Y025138D01*
X002184Y025180D01*
X002286Y025222D01*
X002438Y025374D01*
X002520Y025573D01*
X002520Y025787D01*
X002438Y025986D01*
X002286Y026138D01*
X002408Y026016D02*
X005860Y026016D01*
X005860Y025857D02*
X002491Y025857D01*
X002520Y025699D02*
X005860Y025699D01*
X005860Y025540D02*
X004287Y025540D01*
X004398Y025382D02*
X005860Y025382D01*
X005860Y025223D02*
X004440Y025223D01*
X004433Y025065D02*
X005860Y025065D01*
X005860Y024906D02*
X004368Y024906D01*
X004203Y024748D02*
X005860Y024748D01*
X005860Y024589D02*
X004238Y024589D01*
X004377Y024431D02*
X005860Y024431D01*
X005860Y024272D02*
X004440Y024272D01*
X004440Y024114D02*
X005860Y024114D01*
X005860Y023955D02*
X004388Y023955D01*
X004264Y023797D02*
X005860Y023797D01*
X005860Y023638D02*
X004141Y023638D01*
X004348Y023480D02*
X005860Y023480D01*
X005860Y023321D02*
X004423Y023321D01*
X004440Y023163D02*
X005860Y023163D01*
X005860Y023004D02*
X004408Y023004D01*
X004313Y022846D02*
X005860Y022846D01*
X005860Y022687D02*
X004056Y022687D01*
X004299Y022529D02*
X005860Y022529D01*
X005860Y022370D02*
X004402Y022370D01*
X004440Y022212D02*
X005860Y022212D01*
X005860Y022053D02*
X004429Y022053D01*
X004362Y021895D02*
X005860Y021895D01*
X005860Y021736D02*
X004175Y021736D01*
X004250Y021578D02*
X005860Y021578D01*
X005860Y021419D02*
X004382Y021419D01*
X004440Y021261D02*
X005860Y021261D01*
X005860Y021102D02*
X004440Y021102D01*
X004383Y020944D02*
X005860Y020944D01*
X005860Y020785D02*
X004252Y020785D01*
X004169Y020627D02*
X005860Y020627D01*
X005860Y020468D02*
X004359Y020468D01*
X004428Y020310D02*
X005860Y020310D01*
X005860Y020151D02*
X004440Y020151D01*
X004404Y019993D02*
X004770Y019993D01*
X004778Y020014D02*
X004742Y019926D01*
X004742Y019434D01*
X004778Y019346D01*
X004846Y019278D01*
X004860Y019273D01*
X004860Y018087D01*
X004846Y018082D01*
X004778Y018014D01*
X004742Y017926D01*
X004742Y017434D01*
X004778Y017346D01*
X004846Y017278D01*
X004934Y017242D01*
X005426Y017242D01*
X005514Y017278D01*
X005582Y017346D01*
X005618Y017434D01*
X005618Y017926D01*
X005582Y018014D01*
X005514Y018082D01*
X005500Y018087D01*
X005500Y019273D01*
X005514Y019278D01*
X005582Y019346D01*
X005618Y019434D01*
X005618Y019926D01*
X005582Y020014D01*
X005514Y020082D01*
X005426Y020118D01*
X004934Y020118D01*
X004846Y020082D01*
X004778Y020014D01*
X004742Y019834D02*
X004301Y019834D01*
X004310Y019517D02*
X004742Y019517D01*
X004742Y019676D02*
X004050Y019676D01*
X004407Y019359D02*
X004773Y019359D01*
X004860Y019200D02*
X004440Y019200D01*
X004424Y019042D02*
X004860Y019042D01*
X004860Y018883D02*
X004350Y018883D01*
X004147Y018725D02*
X004860Y018725D01*
X004860Y018566D02*
X004261Y018566D01*
X004387Y018408D02*
X004860Y018408D01*
X004860Y018249D02*
X004440Y018249D01*
X004440Y018091D02*
X004860Y018091D01*
X004744Y017932D02*
X004378Y017932D01*
X004241Y017774D02*
X004742Y017774D01*
X004742Y017615D02*
X004196Y017615D01*
X004039Y017680D02*
X003321Y017680D01*
X003188Y017735D01*
X003000Y017547D01*
X003000Y017467D01*
X003137Y017604D01*
X003321Y017680D01*
X004039Y017680D01*
X003680Y018180D02*
X003180Y018180D01*
X002680Y017680D01*
X002680Y007180D01*
X002180Y007680D01*
X001680Y007680D01*
X002121Y007154D02*
X002253Y007154D01*
X002412Y006996D02*
X000660Y006996D01*
X000660Y007154D02*
X001239Y007154D01*
X000984Y007313D02*
X000660Y007313D01*
X000660Y007471D02*
X000882Y007471D01*
X000840Y007630D02*
X000660Y007630D01*
X000660Y007788D02*
X000840Y007788D01*
X000906Y007947D02*
X000660Y007947D01*
X000660Y008105D02*
X001041Y008105D01*
X001140Y008264D02*
X000660Y008264D01*
X000660Y008422D02*
X000974Y008422D01*
X000910Y008581D02*
X000660Y008581D01*
X000660Y008739D02*
X000903Y008739D01*
X000952Y008898D02*
X000660Y008898D01*
X000660Y009056D02*
X001081Y009056D01*
X001093Y009215D02*
X000660Y009215D01*
X000660Y009373D02*
X000923Y009373D01*
X000857Y009532D02*
X000660Y009532D01*
X000660Y009690D02*
X000840Y009690D01*
X000865Y009849D02*
X000660Y009849D01*
X000660Y010007D02*
X000943Y010007D01*
X001141Y010166D02*
X000660Y010166D01*
X000660Y010324D02*
X000972Y010324D01*
X000877Y010483D02*
X000660Y010483D01*
X000660Y010641D02*
X000840Y010641D01*
X000845Y010800D02*
X000660Y010800D01*
X000660Y010958D02*
X000911Y010958D01*
X001053Y011117D02*
X000660Y011117D01*
X000660Y011275D02*
X001021Y011275D01*
X000898Y011434D02*
X000660Y011434D01*
X000660Y011592D02*
X000840Y011592D01*
X000840Y011751D02*
X000660Y011751D01*
X000660Y011909D02*
X000890Y011909D01*
X001004Y012068D02*
X000660Y012068D01*
X000660Y012226D02*
X001070Y012226D01*
X000918Y012385D02*
X000660Y012385D01*
X000660Y012543D02*
X000852Y012543D01*
X000840Y012702D02*
X000660Y012702D01*
X000660Y012860D02*
X000870Y012860D01*
X000955Y013019D02*
X000660Y013019D01*
X000660Y013177D02*
X001169Y013177D01*
X000961Y013336D02*
X000660Y013336D01*
X000660Y013494D02*
X000873Y013494D01*
X000840Y013653D02*
X000660Y013653D01*
X000660Y013811D02*
X000850Y013811D01*
X000915Y013970D02*
X000660Y013970D01*
X000660Y014128D02*
X001064Y014128D01*
X001010Y014287D02*
X000660Y014287D01*
X000660Y014445D02*
X000893Y014445D01*
X000840Y014604D02*
X000660Y014604D01*
X000660Y014762D02*
X000840Y014762D01*
X000895Y014921D02*
X000660Y014921D01*
X000660Y015079D02*
X001015Y015079D01*
X001059Y015238D02*
X000660Y015238D01*
X000660Y015396D02*
X000913Y015396D01*
X000847Y015555D02*
X000660Y015555D01*
X000660Y015713D02*
X000840Y015713D01*
X000875Y015872D02*
X000660Y015872D01*
X000660Y016030D02*
X000966Y016030D01*
X001155Y016189D02*
X000660Y016189D01*
X000660Y016347D02*
X000949Y016347D01*
X000868Y016506D02*
X000660Y016506D01*
X000660Y016664D02*
X000840Y016664D01*
X000855Y016823D02*
X000660Y016823D01*
X000660Y016981D02*
X000920Y016981D01*
X001078Y017140D02*
X000660Y017140D01*
X000660Y017298D02*
X000998Y017298D01*
X000888Y017457D02*
X000660Y017457D01*
X000660Y017615D02*
X000840Y017615D01*
X000840Y017774D02*
X000660Y017774D01*
X000660Y017932D02*
X000900Y017932D01*
X001027Y018091D02*
X000660Y018091D01*
X000660Y018249D02*
X001047Y018249D01*
X000908Y018408D02*
X000660Y018408D01*
X000660Y018566D02*
X000843Y018566D01*
X000840Y018725D02*
X000660Y018725D01*
X000660Y018883D02*
X000880Y018883D01*
X000978Y019042D02*
X000660Y019042D01*
X000660Y019200D02*
X001128Y019200D01*
X000938Y019359D02*
X000660Y019359D01*
X000660Y019517D02*
X000863Y019517D01*
X000840Y019676D02*
X000660Y019676D01*
X000660Y019834D02*
X000859Y019834D01*
X000929Y019993D02*
X000660Y019993D01*
X000660Y020151D02*
X001106Y020151D01*
X000987Y020310D02*
X000660Y020310D01*
X000660Y020468D02*
X000883Y020468D01*
X000840Y020627D02*
X000660Y020627D01*
X000660Y020785D02*
X000840Y020785D01*
X000905Y020944D02*
X000660Y020944D01*
X000660Y021102D02*
X001038Y021102D01*
X000660Y021261D02*
X002920Y021261D01*
X002920Y021102D02*
X002322Y021102D01*
X002455Y020944D02*
X002977Y020944D01*
X003108Y020785D02*
X002520Y020785D01*
X002520Y020627D02*
X003191Y020627D01*
X003001Y020468D02*
X002477Y020468D01*
X002373Y020310D02*
X002932Y020310D01*
X002920Y020151D02*
X002254Y020151D01*
X002431Y019993D02*
X002956Y019993D01*
X003059Y019834D02*
X002501Y019834D01*
X002520Y019676D02*
X003310Y019676D01*
X003050Y019517D02*
X002497Y019517D01*
X002422Y019359D02*
X002953Y019359D01*
X002920Y019200D02*
X002232Y019200D01*
X002382Y019042D02*
X002936Y019042D01*
X003010Y018883D02*
X002480Y018883D01*
X002520Y018725D02*
X003213Y018725D01*
X003099Y018566D02*
X002517Y018566D01*
X002452Y018408D02*
X002955Y018408D01*
X002796Y018249D02*
X002313Y018249D01*
X002333Y018091D02*
X002638Y018091D01*
X002479Y017932D02*
X002460Y017932D01*
X003068Y017615D02*
X003164Y017615D01*
X003000Y016893D02*
X003137Y016756D01*
X003321Y016680D01*
X004039Y016680D01*
X003321Y016680D01*
X003137Y016604D01*
X003000Y016467D01*
X003000Y016893D01*
X003000Y016823D02*
X003070Y016823D01*
X003000Y016664D02*
X003282Y016664D01*
X003038Y016506D02*
X003000Y016506D01*
X003000Y015893D02*
X003137Y015756D01*
X003321Y015680D01*
X004039Y015680D01*
X003321Y015680D01*
X003137Y015604D01*
X003000Y015467D01*
X003000Y015893D01*
X003000Y015872D02*
X003021Y015872D01*
X003000Y015713D02*
X003241Y015713D01*
X003087Y015555D02*
X003000Y015555D01*
X003000Y014893D02*
X003137Y014756D01*
X003321Y014680D01*
X004039Y014680D01*
X003321Y014680D01*
X003137Y014604D01*
X003000Y014467D01*
X003000Y014893D01*
X003000Y014762D02*
X003131Y014762D01*
X003136Y014604D02*
X003000Y014604D01*
X003000Y013893D02*
X003137Y013756D01*
X003321Y013680D01*
X004039Y013680D01*
X003321Y013680D01*
X003137Y013604D01*
X003000Y013467D01*
X003000Y013893D01*
X003000Y013811D02*
X003082Y013811D01*
X003000Y013653D02*
X003254Y013653D01*
X003027Y013494D02*
X003000Y013494D01*
X003000Y012893D02*
X003137Y012756D01*
X003321Y012680D01*
X004039Y012680D01*
X003321Y012680D01*
X003137Y012604D01*
X003000Y012467D01*
X003000Y012893D01*
X003000Y012860D02*
X003033Y012860D01*
X003000Y012702D02*
X003269Y012702D01*
X003076Y012543D02*
X003000Y012543D01*
X003000Y011893D02*
X003137Y011756D01*
X003321Y011680D01*
X004039Y011680D01*
X003321Y011680D01*
X003137Y011604D01*
X003000Y011467D01*
X003000Y011893D01*
X003000Y011751D02*
X003150Y011751D01*
X003125Y011592D02*
X003000Y011592D01*
X003000Y010893D02*
X003137Y010756D01*
X003321Y010680D01*
X004039Y010680D01*
X003321Y010680D01*
X003137Y010604D01*
X003000Y010467D01*
X003000Y010893D01*
X003000Y010800D02*
X003093Y010800D01*
X003000Y010641D02*
X003226Y010641D01*
X003015Y010483D02*
X003000Y010483D01*
X003000Y009893D02*
X003137Y009756D01*
X003321Y009680D01*
X004039Y009680D01*
X003321Y009680D01*
X003137Y009604D01*
X003000Y009467D01*
X003000Y009893D01*
X003000Y009849D02*
X003044Y009849D01*
X003000Y009690D02*
X003296Y009690D01*
X003064Y009532D02*
X003000Y009532D01*
X003000Y008893D02*
X003137Y008756D01*
X003321Y008680D01*
X004039Y008680D01*
X003321Y008680D01*
X003137Y008604D01*
X003000Y008467D01*
X003000Y008893D01*
X003000Y008739D02*
X003178Y008739D01*
X003113Y008581D02*
X003000Y008581D01*
X003000Y007893D02*
X003137Y007756D01*
X003321Y007680D01*
X004039Y007680D01*
X003321Y007680D01*
X003137Y007604D01*
X003000Y007467D01*
X003000Y007893D01*
X003000Y007788D02*
X003105Y007788D01*
X003199Y007630D02*
X003000Y007630D01*
X003000Y007471D02*
X003004Y007471D01*
X002680Y007180D02*
X002930Y006930D01*
X003680Y006180D01*
X004043Y006679D02*
X006360Y006679D01*
X006360Y006837D02*
X004304Y006837D01*
X004405Y006996D02*
X006360Y006996D01*
X006360Y007154D02*
X004440Y007154D01*
X004426Y007313D02*
X006360Y007313D01*
X006360Y007471D02*
X004356Y007471D01*
X004161Y007630D02*
X006360Y007630D01*
X006360Y007788D02*
X004255Y007788D01*
X003680Y008180D02*
X005180Y008180D01*
X006180Y009180D01*
X006680Y008680D01*
X006680Y004180D01*
X007116Y003984D02*
X007244Y003984D01*
X007202Y004143D02*
X007158Y004143D01*
X007147Y004301D02*
X007213Y004301D01*
X007284Y004460D02*
X007076Y004460D01*
X007000Y004618D02*
X007360Y004618D01*
X007360Y004777D02*
X007000Y004777D01*
X007000Y004935D02*
X007360Y004935D01*
X007360Y005094D02*
X007000Y005094D01*
X007000Y005252D02*
X007360Y005252D01*
X007360Y005411D02*
X007000Y005411D01*
X007000Y005569D02*
X007360Y005569D01*
X007360Y005728D02*
X007000Y005728D01*
X007000Y005886D02*
X007360Y005886D01*
X007360Y006045D02*
X007000Y006045D01*
X007000Y006203D02*
X007360Y006203D01*
X007360Y006362D02*
X007000Y006362D01*
X007000Y006520D02*
X007360Y006520D01*
X007360Y006679D02*
X007000Y006679D01*
X007000Y006837D02*
X007360Y006837D01*
X007360Y006996D02*
X007000Y006996D01*
X007000Y007154D02*
X007360Y007154D01*
X007360Y007313D02*
X007000Y007313D01*
X007000Y007471D02*
X007360Y007471D01*
X007360Y007630D02*
X007000Y007630D01*
X007000Y007788D02*
X007360Y007788D01*
X007360Y007947D02*
X007000Y007947D01*
X007000Y008105D02*
X007302Y008105D01*
X007144Y008264D02*
X007000Y008264D01*
X007180Y008680D02*
X007680Y008180D01*
X007680Y004180D01*
X007359Y003826D02*
X007001Y003826D01*
X008001Y003826D02*
X008359Y003826D01*
X008244Y003984D02*
X008116Y003984D01*
X008158Y004143D02*
X008202Y004143D01*
X008213Y004301D02*
X008147Y004301D01*
X008076Y004460D02*
X008284Y004460D01*
X008360Y004618D02*
X008000Y004618D01*
X008000Y004777D02*
X008374Y004777D01*
X008482Y004935D02*
X008000Y004935D01*
X008000Y005094D02*
X008641Y005094D01*
X008799Y005252D02*
X008000Y005252D01*
X008000Y005411D02*
X008958Y005411D01*
X009180Y005180D02*
X008680Y004680D01*
X008680Y004180D01*
X009116Y003984D02*
X009311Y003984D01*
X009323Y003961D02*
X009361Y003908D01*
X009408Y003861D01*
X009461Y003823D01*
X009520Y003793D01*
X009582Y003772D01*
X009647Y003762D01*
X009680Y003762D01*
X009713Y003762D01*
X009778Y003772D01*
X009840Y003793D01*
X009899Y003823D01*
X009952Y003861D01*
X009999Y003908D01*
X010037Y003961D01*
X010067Y004020D01*
X010088Y004082D01*
X010098Y004147D01*
X010098Y004180D01*
X010098Y004213D01*
X010088Y004278D01*
X010067Y004340D01*
X010037Y004399D01*
X009999Y004452D01*
X009952Y004499D01*
X009899Y004537D01*
X009840Y004567D01*
X009778Y004588D01*
X009713Y004598D01*
X009680Y004598D01*
X009647Y004598D01*
X009582Y004588D01*
X009520Y004567D01*
X009461Y004537D01*
X009408Y004499D01*
X009361Y004452D01*
X009323Y004399D01*
X009293Y004340D01*
X009272Y004278D01*
X009262Y004213D01*
X009262Y004180D01*
X009262Y004147D01*
X009272Y004082D01*
X009293Y004020D01*
X009323Y003961D01*
X009457Y003826D02*
X009001Y003826D01*
X009158Y004143D02*
X009263Y004143D01*
X009262Y004180D02*
X009680Y004180D01*
X009680Y004180D01*
X009680Y004598D01*
X009680Y004180D01*
X010098Y004180D01*
X009680Y004180D01*
X009680Y004180D01*
X009680Y004180D01*
X009262Y004180D01*
X009280Y004301D02*
X009147Y004301D01*
X009076Y004460D02*
X009369Y004460D01*
X009680Y004460D02*
X009680Y004460D01*
X009680Y004301D02*
X009680Y004301D01*
X009680Y004180D02*
X009680Y003762D01*
X009680Y004180D01*
X009680Y004180D01*
X009680Y004143D02*
X009680Y004143D01*
X009680Y003984D02*
X009680Y003984D01*
X009680Y003826D02*
X009680Y003826D01*
X009903Y003826D02*
X010957Y003826D01*
X010961Y003823D02*
X011020Y003793D01*
X011082Y003772D01*
X011147Y003762D01*
X011180Y003762D01*
X011213Y003762D01*
X011278Y003772D01*
X011340Y003793D01*
X011399Y003823D01*
X011452Y003861D01*
X011499Y003908D01*
X011537Y003961D01*
X011567Y004020D01*
X011588Y004082D01*
X011598Y004147D01*
X011598Y004180D01*
X011598Y004213D01*
X011588Y004278D01*
X011567Y004340D01*
X011537Y004399D01*
X011499Y004452D01*
X011452Y004499D01*
X011399Y004537D01*
X011340Y004567D01*
X011278Y004588D01*
X011213Y004598D01*
X011180Y004598D01*
X011147Y004598D01*
X011082Y004588D01*
X011020Y004567D01*
X010961Y004537D01*
X010908Y004499D01*
X010861Y004452D01*
X010823Y004399D01*
X010793Y004340D01*
X010772Y004278D01*
X010762Y004213D01*
X010762Y004180D01*
X010762Y004147D01*
X010772Y004082D01*
X010793Y004020D01*
X010823Y003961D01*
X010861Y003908D01*
X010908Y003861D01*
X010961Y003823D01*
X011180Y003826D02*
X011180Y003826D01*
X011180Y003762D02*
X011180Y004180D01*
X011598Y004180D01*
X011180Y004180D01*
X011180Y004180D01*
X011180Y004180D01*
X011180Y004598D01*
X011180Y004180D01*
X011180Y004180D01*
X011180Y004180D01*
X010762Y004180D01*
X011180Y004180D01*
X011180Y003762D01*
X011180Y003984D02*
X011180Y003984D01*
X011180Y004143D02*
X011180Y004143D01*
X011180Y004301D02*
X011180Y004301D01*
X011180Y004460D02*
X011180Y004460D01*
X010869Y004460D02*
X009991Y004460D01*
X010080Y004301D02*
X010780Y004301D01*
X010763Y004143D02*
X010097Y004143D01*
X010049Y003984D02*
X010811Y003984D01*
X011403Y003826D02*
X011859Y003826D01*
X011744Y003984D02*
X011549Y003984D01*
X011597Y004143D02*
X011702Y004143D01*
X011713Y004301D02*
X011580Y004301D01*
X011491Y004460D02*
X011784Y004460D01*
X011860Y004618D02*
X009071Y004618D01*
X009229Y004777D02*
X011860Y004777D01*
X011860Y004935D02*
X010388Y004935D01*
X010546Y005094D02*
X011860Y005094D01*
X011860Y005252D02*
X010705Y005252D01*
X010863Y005411D02*
X011860Y005411D01*
X011860Y005569D02*
X010980Y005569D01*
X011000Y005728D02*
X011706Y005728D01*
X011507Y005886D02*
X011000Y005886D01*
X011000Y006045D02*
X011435Y006045D01*
X011420Y006203D02*
X011000Y006203D01*
X011000Y006362D02*
X011454Y006362D01*
X011553Y006520D02*
X011000Y006520D01*
X011000Y006679D02*
X011817Y006679D01*
X012180Y006180D02*
X012180Y004180D01*
X012616Y003984D02*
X013244Y003984D01*
X013202Y004143D02*
X012658Y004143D01*
X012647Y004301D02*
X013213Y004301D01*
X013284Y004460D02*
X012576Y004460D01*
X012500Y004618D02*
X013360Y004618D01*
X013360Y004777D02*
X012500Y004777D01*
X012500Y004935D02*
X013360Y004935D01*
X013360Y005094D02*
X012500Y005094D01*
X012500Y005252D02*
X013360Y005252D01*
X013360Y005411D02*
X012500Y005411D01*
X012500Y005569D02*
X013360Y005569D01*
X013360Y005728D02*
X012654Y005728D01*
X012853Y005886D02*
X013360Y005886D01*
X013360Y006045D02*
X012925Y006045D01*
X012940Y006203D02*
X013360Y006203D01*
X013360Y006362D02*
X012906Y006362D01*
X012807Y006520D02*
X013360Y006520D01*
X013360Y006679D02*
X012543Y006679D01*
X012804Y006837D02*
X013360Y006837D01*
X013360Y006996D02*
X012905Y006996D01*
X012940Y007154D02*
X013360Y007154D01*
X013360Y007313D02*
X012926Y007313D01*
X012856Y007471D02*
X013360Y007471D01*
X013360Y007630D02*
X012661Y007630D01*
X012755Y007788D02*
X013360Y007788D01*
X013680Y008180D02*
X013680Y004180D01*
X014001Y003826D02*
X014359Y003826D01*
X014244Y003984D02*
X014116Y003984D01*
X014158Y004143D02*
X014202Y004143D01*
X014213Y004301D02*
X014147Y004301D01*
X014076Y004460D02*
X014284Y004460D01*
X014360Y004618D02*
X014000Y004618D01*
X014000Y004777D02*
X014360Y004777D01*
X014360Y004935D02*
X014000Y004935D01*
X014000Y005094D02*
X014360Y005094D01*
X014360Y005252D02*
X014000Y005252D01*
X014000Y005411D02*
X014360Y005411D01*
X014360Y005569D02*
X014000Y005569D01*
X014000Y005728D02*
X014360Y005728D01*
X014360Y005886D02*
X014000Y005886D01*
X014000Y006045D02*
X014360Y006045D01*
X014360Y006203D02*
X014000Y006203D01*
X014000Y006362D02*
X014360Y006362D01*
X014360Y006520D02*
X014000Y006520D01*
X014000Y006679D02*
X014360Y006679D01*
X014360Y006837D02*
X014000Y006837D01*
X014000Y006996D02*
X014360Y006996D01*
X014360Y007154D02*
X014000Y007154D01*
X014000Y007313D02*
X014360Y007313D01*
X014360Y007471D02*
X014000Y007471D01*
X014000Y007630D02*
X014360Y007630D01*
X014360Y007788D02*
X014000Y007788D01*
X014000Y007947D02*
X014360Y007947D01*
X014360Y008105D02*
X014000Y008105D01*
X014000Y008264D02*
X014360Y008264D01*
X014360Y008422D02*
X014000Y008422D01*
X014000Y008581D02*
X014360Y008581D01*
X014360Y008739D02*
X014000Y008739D01*
X014000Y008898D02*
X014360Y008898D01*
X014360Y009056D02*
X014000Y009056D01*
X014000Y009215D02*
X014360Y009215D01*
X014360Y009373D02*
X014000Y009373D01*
X014000Y009532D02*
X014360Y009532D01*
X014360Y009690D02*
X014000Y009690D01*
X014000Y009849D02*
X014360Y009849D01*
X014360Y010007D02*
X014000Y010007D01*
X014000Y010166D02*
X014360Y010166D01*
X014360Y010324D02*
X014000Y010324D01*
X014000Y010483D02*
X014360Y010483D01*
X014360Y010641D02*
X014000Y010641D01*
X014000Y010800D02*
X014360Y010800D01*
X014360Y010958D02*
X014000Y010958D01*
X014000Y011117D02*
X014360Y011117D01*
X014360Y011275D02*
X014000Y011275D01*
X014000Y011434D02*
X014360Y011434D01*
X014360Y011592D02*
X014000Y011592D01*
X014000Y011751D02*
X014360Y011751D01*
X014360Y011909D02*
X014000Y011909D01*
X014000Y012068D02*
X014360Y012068D01*
X014360Y012226D02*
X014000Y012226D01*
X014000Y012385D02*
X014360Y012385D01*
X014360Y012543D02*
X014000Y012543D01*
X014000Y012702D02*
X014360Y012702D01*
X014360Y012860D02*
X014000Y012860D01*
X014000Y013019D02*
X014360Y013019D01*
X014360Y013177D02*
X014000Y013177D01*
X014000Y013336D02*
X014360Y013336D01*
X014360Y013494D02*
X014000Y013494D01*
X014000Y013653D02*
X014360Y013653D01*
X014360Y013811D02*
X014000Y013811D01*
X014000Y013970D02*
X014360Y013970D01*
X014360Y014128D02*
X014000Y014128D01*
X014000Y014287D02*
X014360Y014287D01*
X014360Y014445D02*
X014000Y014445D01*
X014000Y014604D02*
X014360Y014604D01*
X014360Y014762D02*
X014000Y014762D01*
X014000Y014921D02*
X014360Y014921D01*
X014360Y015079D02*
X014000Y015079D01*
X014000Y015238D02*
X014360Y015238D01*
X014360Y015396D02*
X014000Y015396D01*
X014000Y015555D02*
X014360Y015555D01*
X014360Y015713D02*
X014000Y015713D01*
X014000Y015872D02*
X014360Y015872D01*
X014360Y016030D02*
X014000Y016030D01*
X014000Y016189D02*
X014360Y016189D01*
X014360Y016347D02*
X014000Y016347D01*
X014000Y016506D02*
X014360Y016506D01*
X014360Y016664D02*
X014000Y016664D01*
X014000Y016823D02*
X014360Y016823D01*
X014360Y016981D02*
X014000Y016981D01*
X014000Y017140D02*
X014360Y017140D01*
X014360Y017298D02*
X014000Y017298D01*
X014000Y017457D02*
X014360Y017457D01*
X014360Y017615D02*
X014000Y017615D01*
X014000Y017774D02*
X014360Y017774D01*
X014360Y017932D02*
X014000Y017932D01*
X014000Y018091D02*
X014360Y018091D01*
X014360Y018249D02*
X014000Y018249D01*
X014000Y018408D02*
X014360Y018408D01*
X014360Y018566D02*
X014000Y018566D01*
X014000Y018725D02*
X014360Y018725D01*
X014360Y018883D02*
X014000Y018883D01*
X014000Y019042D02*
X014360Y019042D01*
X014360Y019200D02*
X014000Y019200D01*
X014000Y019359D02*
X014360Y019359D01*
X014360Y019517D02*
X014000Y019517D01*
X014000Y019676D02*
X014360Y019676D01*
X014360Y019834D02*
X014000Y019834D01*
X014000Y019993D02*
X014360Y019993D01*
X014360Y020151D02*
X014000Y020151D01*
X014000Y020310D02*
X014360Y020310D01*
X014360Y020468D02*
X014000Y020468D01*
X014000Y020627D02*
X014360Y020627D01*
X014360Y020785D02*
X014000Y020785D01*
X014000Y020944D02*
X014360Y020944D01*
X014360Y021102D02*
X014000Y021102D01*
X014000Y021261D02*
X014360Y021261D01*
X014360Y021419D02*
X014000Y021419D01*
X014000Y021578D02*
X014360Y021578D01*
X014360Y021736D02*
X014000Y021736D01*
X014000Y021895D02*
X014360Y021895D01*
X014360Y022053D02*
X014000Y022053D01*
X014000Y022212D02*
X014360Y022212D01*
X014360Y022370D02*
X014000Y022370D01*
X014000Y022529D02*
X014360Y022529D01*
X014360Y022687D02*
X014000Y022687D01*
X014000Y022846D02*
X014360Y022846D01*
X014360Y023004D02*
X014000Y023004D01*
X014000Y023163D02*
X014360Y023163D01*
X014360Y023321D02*
X014000Y023321D01*
X014000Y023480D02*
X014360Y023480D01*
X014360Y023638D02*
X014000Y023638D01*
X014000Y023797D02*
X014360Y023797D01*
X014360Y023955D02*
X014000Y023955D01*
X014000Y024114D02*
X014360Y024114D01*
X014360Y024272D02*
X014000Y024272D01*
X014000Y024431D02*
X014360Y024431D01*
X014360Y024589D02*
X014000Y024589D01*
X014000Y024748D02*
X014360Y024748D01*
X014360Y024906D02*
X014000Y024906D01*
X014000Y025065D02*
X014360Y025065D01*
X014360Y025223D02*
X014000Y025223D01*
X014000Y025382D02*
X014360Y025382D01*
X014360Y025540D02*
X014000Y025540D01*
X014000Y025699D02*
X014360Y025699D01*
X014360Y025857D02*
X014000Y025857D01*
X014000Y026016D02*
X014360Y026016D01*
X014360Y026174D02*
X014000Y026174D01*
X014000Y026333D02*
X014360Y026333D01*
X014360Y026491D02*
X014000Y026491D01*
X014000Y026650D02*
X014360Y026650D01*
X014360Y026808D02*
X014000Y026808D01*
X014000Y026967D02*
X014360Y026967D01*
X014360Y027125D02*
X014000Y027125D01*
X014000Y027284D02*
X014360Y027284D01*
X014354Y027442D02*
X014006Y027442D01*
X014149Y027601D02*
X014211Y027601D01*
X013680Y028180D02*
X013680Y008180D01*
X012180Y008180D01*
X011613Y008581D02*
X011000Y008581D01*
X011000Y008739D02*
X011678Y008739D01*
X011496Y008898D02*
X010915Y008898D01*
X010757Y009056D02*
X011430Y009056D01*
X011420Y009215D02*
X010598Y009215D01*
X010440Y009373D02*
X011459Y009373D01*
X011564Y009532D02*
X010296Y009532D01*
X010064Y009690D02*
X011796Y009690D01*
X011821Y009680D02*
X011637Y009756D01*
X011496Y009897D01*
X011420Y010081D01*
X011420Y010279D01*
X011496Y010463D01*
X011637Y010604D01*
X011821Y010680D01*
X012539Y010680D01*
X012723Y010604D01*
X012864Y010463D01*
X012940Y010279D01*
X012940Y010081D01*
X012864Y009897D01*
X012723Y009756D01*
X012539Y009680D01*
X011821Y009680D01*
X011544Y009849D02*
X010316Y009849D01*
X010410Y010007D02*
X011450Y010007D01*
X011420Y010166D02*
X010440Y010166D01*
X010422Y010324D02*
X011438Y010324D01*
X011515Y010483D02*
X010345Y010483D01*
X010134Y010641D02*
X011726Y010641D01*
X011821Y010680D02*
X011637Y010756D01*
X011496Y010897D01*
X011420Y011081D01*
X011420Y011279D01*
X011496Y011463D01*
X011637Y011604D01*
X011821Y011680D01*
X012539Y011680D01*
X012723Y011604D01*
X012864Y011463D01*
X012940Y011279D01*
X012940Y011081D01*
X012864Y010897D01*
X012723Y010756D01*
X012539Y010680D01*
X011821Y010680D01*
X011593Y010800D02*
X010267Y010800D01*
X010389Y010958D02*
X011471Y010958D01*
X011420Y011117D02*
X010440Y011117D01*
X010440Y011275D02*
X011420Y011275D01*
X011484Y011434D02*
X010376Y011434D01*
X010235Y011592D02*
X011625Y011592D01*
X011650Y011751D02*
X010210Y011751D01*
X010369Y011909D02*
X011491Y011909D01*
X011496Y011897D02*
X011637Y011756D01*
X011821Y011680D01*
X012539Y011680D01*
X012723Y011756D01*
X012864Y011897D01*
X012940Y012081D01*
X012940Y012279D01*
X012864Y012463D01*
X012723Y012604D01*
X012539Y012680D01*
X011821Y012680D01*
X011637Y012604D01*
X011496Y012463D01*
X011420Y012279D01*
X011420Y012081D01*
X011496Y011897D01*
X011425Y012068D02*
X010435Y012068D01*
X010440Y012226D02*
X011420Y012226D01*
X011464Y012385D02*
X010396Y012385D01*
X010284Y012543D02*
X011576Y012543D01*
X011637Y012756D02*
X011496Y012897D01*
X011420Y013081D01*
X011420Y013279D01*
X011496Y013463D01*
X011637Y013604D01*
X011821Y013680D01*
X012539Y013680D01*
X012723Y013604D01*
X012864Y013463D01*
X012940Y013279D01*
X012940Y013081D01*
X012864Y012897D01*
X012723Y012756D01*
X012539Y012680D01*
X011821Y012680D01*
X011637Y012756D01*
X011769Y012702D02*
X010091Y012702D01*
X010039Y012680D02*
X010223Y012756D01*
X010364Y012897D01*
X010440Y013081D01*
X010440Y013279D01*
X010364Y013463D01*
X010223Y013604D01*
X010039Y013680D01*
X009321Y013680D01*
X009137Y013604D01*
X008996Y013463D01*
X008920Y013279D01*
X008920Y013081D01*
X008996Y012897D01*
X009137Y012756D01*
X009321Y012680D01*
X010039Y012680D01*
X010327Y012860D02*
X011533Y012860D01*
X011446Y013019D02*
X010414Y013019D01*
X010440Y013177D02*
X011420Y013177D01*
X011443Y013336D02*
X010417Y013336D01*
X010333Y013494D02*
X011527Y013494D01*
X011754Y013653D02*
X010106Y013653D01*
X010039Y013680D02*
X010223Y013756D01*
X010364Y013897D01*
X010440Y014081D01*
X010440Y014279D01*
X010364Y014463D01*
X010223Y014604D01*
X010039Y014680D01*
X009321Y014680D01*
X009137Y014604D01*
X008996Y014463D01*
X008920Y014279D01*
X008920Y014081D01*
X008996Y013897D01*
X009137Y013756D01*
X009321Y013680D01*
X010039Y013680D01*
X010278Y013811D02*
X011582Y013811D01*
X011637Y013756D02*
X011496Y013897D01*
X011420Y014081D01*
X011420Y014279D01*
X011496Y014463D01*
X011637Y014604D01*
X011821Y014680D01*
X012539Y014680D01*
X012723Y014604D01*
X012864Y014463D01*
X012940Y014279D01*
X012940Y014081D01*
X012864Y013897D01*
X012723Y013756D01*
X012539Y013680D01*
X011821Y013680D01*
X011637Y013756D01*
X011466Y013970D02*
X010394Y013970D01*
X010440Y014128D02*
X011420Y014128D01*
X011423Y014287D02*
X010437Y014287D01*
X010371Y014445D02*
X011489Y014445D01*
X011636Y014604D02*
X010224Y014604D01*
X010223Y014756D02*
X010364Y014897D01*
X010440Y015081D01*
X010440Y015279D01*
X010364Y015463D01*
X010223Y015604D01*
X010039Y015680D01*
X009321Y015680D01*
X009137Y015604D01*
X008996Y015463D01*
X008920Y015279D01*
X008920Y015081D01*
X008996Y014897D01*
X009137Y014756D01*
X009321Y014680D01*
X010039Y014680D01*
X010223Y014756D01*
X010229Y014762D02*
X011631Y014762D01*
X011637Y014756D02*
X011821Y014680D01*
X012539Y014680D01*
X012723Y014756D01*
X012864Y014897D01*
X012940Y015081D01*
X012940Y015279D01*
X012864Y015463D01*
X012723Y015604D01*
X012539Y015680D01*
X011821Y015680D01*
X011637Y015604D01*
X011496Y015463D01*
X011420Y015279D01*
X011420Y015081D01*
X011496Y014897D01*
X011637Y014756D01*
X011486Y014921D02*
X010374Y014921D01*
X010439Y015079D02*
X011421Y015079D01*
X011420Y015238D02*
X010440Y015238D01*
X010392Y015396D02*
X011468Y015396D01*
X011587Y015555D02*
X010273Y015555D01*
X010223Y015756D02*
X010364Y015897D01*
X010440Y016081D01*
X010440Y016279D01*
X010364Y016463D01*
X010223Y016604D01*
X010039Y016680D01*
X009321Y016680D01*
X009137Y016604D01*
X008996Y016463D01*
X008920Y016279D01*
X008920Y016081D01*
X008996Y015897D01*
X009137Y015756D01*
X009321Y015680D01*
X010039Y015680D01*
X010223Y015756D01*
X010119Y015713D02*
X011741Y015713D01*
X011821Y015680D02*
X011637Y015756D01*
X011496Y015897D01*
X011420Y016081D01*
X011420Y016279D01*
X011496Y016463D01*
X011637Y016604D01*
X011821Y016680D01*
X012539Y016680D01*
X012723Y016604D01*
X012864Y016463D01*
X012940Y016279D01*
X012940Y016081D01*
X012864Y015897D01*
X012723Y015756D01*
X012539Y015680D01*
X011821Y015680D01*
X011521Y015872D02*
X010339Y015872D01*
X010419Y016030D02*
X011441Y016030D01*
X011420Y016189D02*
X010440Y016189D01*
X010412Y016347D02*
X011448Y016347D01*
X011538Y016506D02*
X010322Y016506D01*
X010223Y016756D02*
X010364Y016897D01*
X010440Y017081D01*
X010440Y017279D01*
X010364Y017463D01*
X010223Y017604D01*
X010039Y017680D01*
X009321Y017680D01*
X009137Y017604D01*
X008996Y017463D01*
X008920Y017279D01*
X008920Y017081D01*
X008996Y016897D01*
X009137Y016756D01*
X009321Y016680D01*
X010039Y016680D01*
X010223Y016756D01*
X010290Y016823D02*
X011570Y016823D01*
X011637Y016756D02*
X011496Y016897D01*
X011420Y017081D01*
X011420Y017279D01*
X011496Y017463D01*
X011637Y017604D01*
X011821Y017680D01*
X012539Y017680D01*
X012723Y017604D01*
X012864Y017463D01*
X012940Y017279D01*
X012940Y017081D01*
X012864Y016897D01*
X012723Y016756D01*
X012539Y016680D01*
X011821Y016680D01*
X011637Y016756D01*
X011782Y016664D02*
X010078Y016664D01*
X010399Y016981D02*
X011461Y016981D01*
X011420Y017140D02*
X010440Y017140D01*
X010432Y017298D02*
X011428Y017298D01*
X011493Y017457D02*
X010367Y017457D01*
X010196Y017615D02*
X011664Y017615D01*
X011637Y017756D02*
X011821Y017680D01*
X012539Y017680D01*
X012723Y017756D01*
X012864Y017897D01*
X012940Y018081D01*
X012940Y018279D01*
X012864Y018463D01*
X012723Y018604D01*
X012539Y018680D01*
X011821Y018680D01*
X011637Y018604D01*
X011496Y018463D01*
X011420Y018279D01*
X011420Y018081D01*
X011496Y017897D01*
X011637Y017756D01*
X011619Y017774D02*
X010241Y017774D01*
X010223Y017756D02*
X010364Y017897D01*
X010440Y018081D01*
X010440Y018279D01*
X010364Y018463D01*
X010223Y018604D01*
X010039Y018680D01*
X009321Y018680D01*
X009137Y018604D01*
X008996Y018463D01*
X008920Y018279D01*
X008920Y018081D01*
X008996Y017897D01*
X009137Y017756D01*
X009321Y017680D01*
X010039Y017680D01*
X010223Y017756D01*
X010378Y017932D02*
X011482Y017932D01*
X011420Y018091D02*
X010440Y018091D01*
X010440Y018249D02*
X011420Y018249D01*
X011473Y018408D02*
X010387Y018408D01*
X010261Y018566D02*
X011599Y018566D01*
X011637Y018756D02*
X011496Y018897D01*
X011420Y019081D01*
X011420Y019279D01*
X011496Y019463D01*
X011637Y019604D01*
X011821Y019680D01*
X012539Y019680D01*
X012723Y019604D01*
X012864Y019463D01*
X012940Y019279D01*
X012940Y019081D01*
X012864Y018897D01*
X012723Y018756D01*
X012539Y018680D01*
X011821Y018680D01*
X011637Y018756D01*
X011713Y018725D02*
X010147Y018725D01*
X010223Y018756D02*
X010039Y018680D01*
X009321Y018680D01*
X009137Y018756D01*
X008996Y018897D01*
X008920Y019081D01*
X008920Y019279D01*
X008996Y019463D01*
X009137Y019604D01*
X009321Y019680D01*
X010039Y019680D01*
X010223Y019604D01*
X010364Y019463D01*
X010440Y019279D01*
X010440Y019081D01*
X010364Y018897D01*
X010223Y018756D01*
X010350Y018883D02*
X011510Y018883D01*
X011436Y019042D02*
X010424Y019042D01*
X010440Y019200D02*
X011420Y019200D01*
X011453Y019359D02*
X010407Y019359D01*
X010310Y019517D02*
X011550Y019517D01*
X011637Y019756D02*
X011496Y019897D01*
X011420Y020081D01*
X011420Y020279D01*
X011496Y020463D01*
X011637Y020604D01*
X011821Y020680D01*
X012539Y020680D01*
X012723Y020604D01*
X012864Y020463D01*
X012940Y020279D01*
X012940Y020081D01*
X012864Y019897D01*
X012723Y019756D01*
X012539Y019680D01*
X011821Y019680D01*
X011637Y019756D01*
X011559Y019834D02*
X010301Y019834D01*
X010364Y019897D02*
X010440Y020081D01*
X010440Y020279D01*
X010364Y020463D01*
X010223Y020604D01*
X010039Y020680D01*
X009321Y020680D01*
X009137Y020604D01*
X008996Y020463D01*
X008920Y020279D01*
X008920Y020081D01*
X008996Y019897D01*
X009137Y019756D01*
X009321Y019680D01*
X010039Y019680D01*
X010223Y019756D01*
X010364Y019897D01*
X010404Y019993D02*
X011456Y019993D01*
X011420Y020151D02*
X010440Y020151D01*
X010428Y020310D02*
X011432Y020310D01*
X011501Y020468D02*
X010359Y020468D01*
X010169Y020627D02*
X011691Y020627D01*
X011637Y020756D02*
X011821Y020680D01*
X012539Y020680D01*
X012723Y020756D01*
X012864Y020897D01*
X012940Y021081D01*
X012940Y021279D01*
X012864Y021463D01*
X012723Y021604D01*
X012539Y021680D01*
X011821Y021680D01*
X011637Y021604D01*
X011496Y021463D01*
X011420Y021279D01*
X011420Y021081D01*
X011496Y020897D01*
X011637Y020756D01*
X011608Y020785D02*
X010252Y020785D01*
X010223Y020756D02*
X010364Y020897D01*
X010440Y021081D01*
X010440Y021279D01*
X010364Y021463D01*
X010223Y021604D01*
X010039Y021680D01*
X009321Y021680D01*
X009137Y021604D01*
X008996Y021463D01*
X008920Y021279D01*
X008920Y021081D01*
X008996Y020897D01*
X009137Y020756D01*
X009321Y020680D01*
X010039Y020680D01*
X010223Y020756D01*
X010383Y020944D02*
X011477Y020944D01*
X011420Y021102D02*
X010440Y021102D01*
X010440Y021261D02*
X011420Y021261D01*
X011478Y021419D02*
X010382Y021419D01*
X010250Y021578D02*
X011610Y021578D01*
X011685Y021736D02*
X010175Y021736D01*
X010223Y021756D02*
X010039Y021680D01*
X009321Y021680D01*
X009137Y021756D01*
X008996Y021897D01*
X008920Y022081D01*
X008920Y022279D01*
X008996Y022463D01*
X009137Y022604D01*
X009321Y022680D01*
X010039Y022680D01*
X010223Y022604D01*
X010364Y022463D01*
X010440Y022279D01*
X010440Y022081D01*
X010364Y021897D01*
X010223Y021756D01*
X010362Y021895D02*
X011498Y021895D01*
X011496Y021897D02*
X011637Y021756D01*
X011821Y021680D01*
X012539Y021680D01*
X012723Y021756D01*
X012864Y021897D01*
X012940Y022081D01*
X012940Y022279D01*
X012864Y022463D01*
X012723Y022604D01*
X012539Y022680D01*
X011821Y022680D01*
X011637Y022604D01*
X011496Y022463D01*
X011420Y022279D01*
X011420Y022081D01*
X011496Y021897D01*
X011431Y022053D02*
X010429Y022053D01*
X010440Y022212D02*
X011420Y022212D01*
X011458Y022370D02*
X010402Y022370D01*
X010299Y022529D02*
X011561Y022529D01*
X011637Y022756D02*
X011496Y022897D01*
X011420Y023081D01*
X011420Y023279D01*
X011496Y023463D01*
X011637Y023604D01*
X011821Y023680D01*
X012539Y023680D01*
X012723Y023604D01*
X012864Y023463D01*
X012940Y023279D01*
X012940Y023081D01*
X012864Y022897D01*
X012723Y022756D01*
X012539Y022680D01*
X011821Y022680D01*
X011637Y022756D01*
X011547Y022846D02*
X010313Y022846D01*
X010364Y022897D02*
X010440Y023081D01*
X010440Y023279D01*
X010364Y023463D01*
X010223Y023604D01*
X010039Y023680D01*
X009321Y023680D01*
X009137Y023604D01*
X008996Y023463D01*
X008920Y023279D01*
X008920Y023081D01*
X008996Y022897D01*
X009137Y022756D01*
X009321Y022680D01*
X010039Y022680D01*
X010223Y022756D01*
X010364Y022897D01*
X010408Y023004D02*
X011452Y023004D01*
X011420Y023163D02*
X010440Y023163D01*
X010423Y023321D02*
X011437Y023321D01*
X011512Y023480D02*
X010348Y023480D01*
X010141Y023638D02*
X011719Y023638D01*
X011821Y023680D02*
X011637Y023756D01*
X011496Y023897D01*
X011420Y024081D01*
X011420Y024279D01*
X011496Y024463D01*
X011637Y024604D01*
X011821Y024680D01*
X012539Y024680D01*
X012723Y024604D01*
X012864Y024463D01*
X012940Y024279D01*
X012940Y024081D01*
X012864Y023897D01*
X012723Y023756D01*
X012539Y023680D01*
X011821Y023680D01*
X011596Y023797D02*
X010264Y023797D01*
X010223Y023756D02*
X010364Y023897D01*
X010440Y024081D01*
X010440Y024279D01*
X010364Y024463D01*
X010223Y024604D01*
X010039Y024680D01*
X009321Y024680D01*
X009137Y024604D01*
X008996Y024463D01*
X008920Y024279D01*
X008920Y024081D01*
X008996Y023897D01*
X009137Y023756D01*
X009321Y023680D01*
X010039Y023680D01*
X010223Y023756D01*
X010388Y023955D02*
X011472Y023955D01*
X011420Y024114D02*
X010440Y024114D01*
X010440Y024272D02*
X011420Y024272D01*
X011483Y024431D02*
X010377Y024431D01*
X010238Y024589D02*
X011622Y024589D01*
X011657Y024748D02*
X010203Y024748D01*
X010223Y024756D02*
X010364Y024897D01*
X010440Y025081D01*
X010440Y025279D01*
X010364Y025463D01*
X010223Y025604D01*
X010039Y025680D01*
X009321Y025680D01*
X009137Y025604D01*
X008996Y025463D01*
X008920Y025279D01*
X008920Y025081D01*
X008996Y024897D01*
X009137Y024756D01*
X009321Y024680D01*
X010039Y024680D01*
X010223Y024756D01*
X010368Y024906D02*
X011492Y024906D01*
X011496Y024897D02*
X011637Y024756D01*
X011821Y024680D01*
X012539Y024680D01*
X012723Y024756D01*
X012864Y024897D01*
X012940Y025081D01*
X012940Y025279D01*
X012864Y025463D01*
X012723Y025604D01*
X012539Y025680D01*
X011821Y025680D01*
X011637Y025604D01*
X011496Y025463D01*
X011420Y025279D01*
X011420Y025081D01*
X011496Y024897D01*
X011427Y025065D02*
X010433Y025065D01*
X010440Y025223D02*
X011420Y025223D01*
X011462Y025382D02*
X010398Y025382D01*
X010287Y025540D02*
X011573Y025540D01*
X012787Y025540D02*
X013360Y025540D01*
X013360Y025382D02*
X012898Y025382D01*
X012940Y025223D02*
X013360Y025223D01*
X013360Y025065D02*
X012933Y025065D01*
X012868Y024906D02*
X013360Y024906D01*
X013360Y024748D02*
X012703Y024748D01*
X012738Y024589D02*
X013360Y024589D01*
X013360Y024431D02*
X012877Y024431D01*
X012940Y024272D02*
X013360Y024272D01*
X013360Y024114D02*
X012940Y024114D01*
X012888Y023955D02*
X013360Y023955D01*
X013360Y023797D02*
X012764Y023797D01*
X012641Y023638D02*
X013360Y023638D01*
X013360Y023480D02*
X012848Y023480D01*
X012923Y023321D02*
X013360Y023321D01*
X013360Y023163D02*
X012940Y023163D01*
X012908Y023004D02*
X013360Y023004D01*
X013360Y022846D02*
X012813Y022846D01*
X012556Y022687D02*
X013360Y022687D01*
X013360Y022529D02*
X012799Y022529D01*
X012902Y022370D02*
X013360Y022370D01*
X013360Y022212D02*
X012940Y022212D01*
X012929Y022053D02*
X013360Y022053D01*
X013360Y021895D02*
X012862Y021895D01*
X012675Y021736D02*
X013360Y021736D01*
X013360Y021578D02*
X012750Y021578D01*
X012882Y021419D02*
X013360Y021419D01*
X013360Y021261D02*
X012940Y021261D01*
X012940Y021102D02*
X013360Y021102D01*
X013360Y020944D02*
X012883Y020944D01*
X012752Y020785D02*
X013360Y020785D01*
X013360Y020627D02*
X012669Y020627D01*
X012859Y020468D02*
X013360Y020468D01*
X013360Y020310D02*
X012928Y020310D01*
X012940Y020151D02*
X013360Y020151D01*
X013360Y019993D02*
X012904Y019993D01*
X012801Y019834D02*
X013360Y019834D01*
X013360Y019676D02*
X012550Y019676D01*
X012810Y019517D02*
X013360Y019517D01*
X013360Y019359D02*
X012907Y019359D01*
X012940Y019200D02*
X013360Y019200D01*
X013360Y019042D02*
X012924Y019042D01*
X012850Y018883D02*
X013360Y018883D01*
X013360Y018725D02*
X012647Y018725D01*
X012761Y018566D02*
X013360Y018566D01*
X013360Y018408D02*
X012887Y018408D01*
X012940Y018249D02*
X013360Y018249D01*
X013360Y018091D02*
X012940Y018091D01*
X012878Y017932D02*
X013360Y017932D01*
X013360Y017774D02*
X012741Y017774D01*
X012696Y017615D02*
X013360Y017615D01*
X013360Y017457D02*
X012867Y017457D01*
X012932Y017298D02*
X013360Y017298D01*
X013360Y017140D02*
X012940Y017140D01*
X012899Y016981D02*
X013360Y016981D01*
X013360Y016823D02*
X012790Y016823D01*
X012578Y016664D02*
X013360Y016664D01*
X013360Y016506D02*
X012822Y016506D01*
X012912Y016347D02*
X013360Y016347D01*
X013360Y016189D02*
X012940Y016189D01*
X012919Y016030D02*
X013360Y016030D01*
X013360Y015872D02*
X012839Y015872D01*
X012773Y015555D02*
X013360Y015555D01*
X013360Y015713D02*
X012619Y015713D01*
X012892Y015396D02*
X013360Y015396D01*
X013360Y015238D02*
X012940Y015238D01*
X012939Y015079D02*
X013360Y015079D01*
X013360Y014921D02*
X012874Y014921D01*
X012729Y014762D02*
X013360Y014762D01*
X013360Y014604D02*
X012724Y014604D01*
X012871Y014445D02*
X013360Y014445D01*
X013360Y014287D02*
X012937Y014287D01*
X012940Y014128D02*
X013360Y014128D01*
X013360Y013970D02*
X012894Y013970D01*
X012778Y013811D02*
X013360Y013811D01*
X013360Y013653D02*
X012606Y013653D01*
X012833Y013494D02*
X013360Y013494D01*
X013360Y013336D02*
X012917Y013336D01*
X012940Y013177D02*
X013360Y013177D01*
X013360Y013019D02*
X012914Y013019D01*
X012827Y012860D02*
X013360Y012860D01*
X013360Y012702D02*
X012591Y012702D01*
X012784Y012543D02*
X013360Y012543D01*
X013360Y012385D02*
X012896Y012385D01*
X012940Y012226D02*
X013360Y012226D01*
X013360Y012068D02*
X012935Y012068D01*
X012869Y011909D02*
X013360Y011909D01*
X013360Y011751D02*
X012710Y011751D01*
X012735Y011592D02*
X013360Y011592D01*
X013360Y011434D02*
X012876Y011434D01*
X012940Y011275D02*
X013360Y011275D01*
X013360Y011117D02*
X012940Y011117D01*
X012889Y010958D02*
X013360Y010958D01*
X013360Y010800D02*
X012767Y010800D01*
X012634Y010641D02*
X013360Y010641D01*
X013360Y010483D02*
X012845Y010483D01*
X012922Y010324D02*
X013360Y010324D01*
X013360Y010166D02*
X012940Y010166D01*
X012910Y010007D02*
X013360Y010007D01*
X013360Y009849D02*
X012816Y009849D01*
X012564Y009690D02*
X013360Y009690D01*
X013360Y009532D02*
X012796Y009532D01*
X012901Y009373D02*
X013360Y009373D01*
X013360Y009215D02*
X012940Y009215D01*
X012930Y009056D02*
X013360Y009056D01*
X013360Y008898D02*
X012864Y008898D01*
X012682Y008739D02*
X013360Y008739D01*
X013360Y008581D02*
X012747Y008581D01*
X011699Y007630D02*
X011000Y007630D01*
X011000Y007788D02*
X011605Y007788D01*
X011476Y007947D02*
X011000Y007947D01*
X011000Y008105D02*
X011420Y008105D01*
X011420Y008264D02*
X011000Y008264D01*
X011000Y008422D02*
X011479Y008422D01*
X011504Y007471D02*
X011000Y007471D01*
X011000Y007313D02*
X011434Y007313D01*
X011420Y007154D02*
X011000Y007154D01*
X011000Y006996D02*
X011455Y006996D01*
X011556Y006837D02*
X011000Y006837D01*
X010360Y006837D02*
X010304Y006837D01*
X010360Y006679D02*
X008000Y006679D01*
X008000Y006837D02*
X009056Y006837D01*
X008955Y006996D02*
X008000Y006996D01*
X008000Y007154D02*
X008920Y007154D01*
X008934Y007313D02*
X008000Y007313D01*
X008000Y007471D02*
X009004Y007471D01*
X009199Y007630D02*
X008000Y007630D01*
X008000Y007788D02*
X009105Y007788D01*
X009321Y007680D02*
X010039Y007680D01*
X009321Y007680D01*
X009680Y008180D02*
X007680Y008180D01*
X007180Y008680D02*
X007180Y028180D01*
X007669Y028710D02*
X007691Y028710D01*
X007805Y028869D02*
X007555Y028869D01*
X008180Y028180D02*
X008180Y009680D01*
X008680Y009180D01*
X009680Y009180D01*
X010180Y009180D01*
X010680Y008680D01*
X010680Y005680D01*
X010180Y005180D01*
X009180Y005180D01*
X009317Y005751D02*
X009385Y005740D01*
X009680Y005740D01*
X009680Y006180D01*
X009680Y006180D01*
X009680Y006180D01*
X008980Y006180D01*
X008980Y006215D01*
X008991Y006283D01*
X009012Y006349D01*
X009044Y006411D01*
X009084Y006467D01*
X009133Y006516D01*
X009189Y006556D01*
X009251Y006588D01*
X009317Y006609D01*
X009385Y006620D01*
X009680Y006620D01*
X009680Y006180D01*
X008980Y006180D01*
X008980Y006145D01*
X008991Y006077D01*
X009012Y006011D01*
X009044Y005949D01*
X009084Y005893D01*
X009133Y005844D01*
X009189Y005804D01*
X009251Y005772D01*
X009317Y005751D01*
X009092Y005886D02*
X008000Y005886D01*
X008000Y005728D02*
X010275Y005728D01*
X010268Y005886D02*
X010360Y005886D01*
X010359Y006045D02*
X010360Y006045D01*
X010341Y006362D02*
X010360Y006362D01*
X010360Y006520D02*
X010221Y006520D01*
X009680Y006520D02*
X009680Y006520D01*
X009680Y006362D02*
X009680Y006362D01*
X009680Y006203D02*
X009680Y006203D01*
X009680Y006045D02*
X009680Y006045D01*
X009680Y005886D02*
X009680Y005886D01*
X010116Y005569D02*
X008000Y005569D01*
X008000Y006045D02*
X009001Y006045D01*
X008980Y006203D02*
X008000Y006203D01*
X008000Y006362D02*
X009019Y006362D01*
X009139Y006520D02*
X008000Y006520D01*
X006360Y006520D02*
X004307Y006520D01*
X004406Y006362D02*
X006360Y006362D01*
X006360Y006203D02*
X004440Y006203D01*
X004425Y006045D02*
X006360Y006045D01*
X006360Y005886D02*
X004353Y005886D01*
X004154Y005728D02*
X006360Y005728D01*
X006360Y007947D02*
X005399Y007947D01*
X005558Y008105D02*
X006360Y008105D01*
X006360Y008264D02*
X005716Y008264D01*
X005875Y008422D02*
X006360Y008422D01*
X006327Y008581D02*
X006033Y008581D01*
X006180Y009180D02*
X006180Y028180D01*
X006669Y028710D02*
X006691Y028710D01*
X006805Y028869D02*
X006555Y028869D01*
X008506Y027442D02*
X013354Y027442D01*
X013360Y027284D02*
X008500Y027284D01*
X008500Y027125D02*
X013360Y027125D01*
X013360Y026967D02*
X008500Y026967D01*
X008500Y026808D02*
X013360Y026808D01*
X013360Y026650D02*
X008500Y026650D01*
X008500Y026491D02*
X013360Y026491D01*
X013360Y026333D02*
X008500Y026333D01*
X008500Y026174D02*
X013360Y026174D01*
X013360Y026016D02*
X008500Y026016D01*
X008500Y025857D02*
X013360Y025857D01*
X013360Y025699D02*
X008500Y025699D01*
X008500Y025540D02*
X009073Y025540D01*
X008962Y025382D02*
X008500Y025382D01*
X008500Y025223D02*
X008920Y025223D01*
X008927Y025065D02*
X008500Y025065D01*
X008500Y024906D02*
X008992Y024906D01*
X009157Y024748D02*
X008500Y024748D01*
X008500Y024589D02*
X009122Y024589D01*
X008983Y024431D02*
X008500Y024431D01*
X008500Y024272D02*
X008920Y024272D01*
X008920Y024114D02*
X008500Y024114D01*
X008500Y023955D02*
X008972Y023955D01*
X009096Y023797D02*
X008500Y023797D01*
X008500Y023638D02*
X009219Y023638D01*
X009012Y023480D02*
X008500Y023480D01*
X008500Y023321D02*
X008937Y023321D01*
X008920Y023163D02*
X008500Y023163D01*
X008500Y023004D02*
X008952Y023004D01*
X009047Y022846D02*
X008500Y022846D01*
X008500Y022687D02*
X009304Y022687D01*
X009061Y022529D02*
X008500Y022529D01*
X008500Y022370D02*
X008958Y022370D01*
X008920Y022212D02*
X008500Y022212D01*
X008500Y022053D02*
X008931Y022053D01*
X008998Y021895D02*
X008500Y021895D01*
X008500Y021736D02*
X009185Y021736D01*
X009110Y021578D02*
X008500Y021578D01*
X008500Y021419D02*
X008978Y021419D01*
X008920Y021261D02*
X008500Y021261D01*
X008500Y021102D02*
X008920Y021102D01*
X008977Y020944D02*
X008500Y020944D01*
X008500Y020785D02*
X009108Y020785D01*
X009191Y020627D02*
X008500Y020627D01*
X008500Y020468D02*
X009001Y020468D01*
X008932Y020310D02*
X008500Y020310D01*
X008500Y020151D02*
X008920Y020151D01*
X008956Y019993D02*
X008500Y019993D01*
X008500Y019834D02*
X009059Y019834D01*
X009310Y019676D02*
X008500Y019676D01*
X008500Y019517D02*
X009050Y019517D01*
X008953Y019359D02*
X008500Y019359D01*
X008500Y019200D02*
X008920Y019200D01*
X008936Y019042D02*
X008500Y019042D01*
X008500Y018883D02*
X009010Y018883D01*
X009213Y018725D02*
X008500Y018725D01*
X008500Y018566D02*
X009099Y018566D01*
X008973Y018408D02*
X008500Y018408D01*
X008500Y018249D02*
X008920Y018249D01*
X008920Y018091D02*
X008500Y018091D01*
X008500Y017932D02*
X008982Y017932D01*
X009119Y017774D02*
X008500Y017774D01*
X008500Y017615D02*
X009164Y017615D01*
X008993Y017457D02*
X008500Y017457D01*
X008500Y017298D02*
X008928Y017298D01*
X008920Y017140D02*
X008500Y017140D01*
X008500Y016981D02*
X008961Y016981D01*
X009070Y016823D02*
X008500Y016823D01*
X008500Y016664D02*
X009282Y016664D01*
X009038Y016506D02*
X008500Y016506D01*
X008500Y016347D02*
X008948Y016347D01*
X008920Y016189D02*
X008500Y016189D01*
X008500Y016030D02*
X008941Y016030D01*
X009021Y015872D02*
X008500Y015872D01*
X008500Y015713D02*
X009241Y015713D01*
X009087Y015555D02*
X008500Y015555D01*
X008500Y015396D02*
X008968Y015396D01*
X008920Y015238D02*
X008500Y015238D01*
X008500Y015079D02*
X008921Y015079D01*
X008986Y014921D02*
X008500Y014921D01*
X008500Y014762D02*
X009131Y014762D01*
X009136Y014604D02*
X008500Y014604D01*
X008500Y014445D02*
X008989Y014445D01*
X008923Y014287D02*
X008500Y014287D01*
X008500Y014128D02*
X008920Y014128D01*
X008966Y013970D02*
X008500Y013970D01*
X008500Y013811D02*
X009082Y013811D01*
X009254Y013653D02*
X008500Y013653D01*
X008500Y013494D02*
X009027Y013494D01*
X008943Y013336D02*
X008500Y013336D01*
X008500Y013177D02*
X008920Y013177D01*
X008946Y013019D02*
X008500Y013019D01*
X008500Y012860D02*
X009033Y012860D01*
X009269Y012702D02*
X008500Y012702D01*
X008500Y012543D02*
X009076Y012543D01*
X008964Y012385D02*
X008500Y012385D01*
X008500Y012226D02*
X008920Y012226D01*
X008925Y012068D02*
X008500Y012068D01*
X008500Y011909D02*
X008991Y011909D01*
X009150Y011751D02*
X008500Y011751D01*
X008500Y011592D02*
X009125Y011592D01*
X008984Y011434D02*
X008500Y011434D01*
X008500Y011275D02*
X008920Y011275D01*
X008920Y011117D02*
X008500Y011117D01*
X008500Y010958D02*
X008971Y010958D01*
X009093Y010800D02*
X008500Y010800D01*
X008500Y010641D02*
X009226Y010641D01*
X009015Y010483D02*
X008500Y010483D01*
X008500Y010324D02*
X008938Y010324D01*
X008920Y010166D02*
X008500Y010166D01*
X008500Y010007D02*
X008950Y010007D01*
X009044Y009849D02*
X008500Y009849D01*
X008623Y009690D02*
X009296Y009690D01*
X009064Y009532D02*
X008781Y009532D01*
X010039Y007680D02*
X010223Y007756D01*
X010360Y007893D01*
X010360Y007467D01*
X010223Y007604D01*
X010039Y007680D01*
X010161Y007630D02*
X010360Y007630D01*
X010360Y007788D02*
X010255Y007788D01*
X010356Y007471D02*
X010360Y007471D01*
X012501Y003826D02*
X013359Y003826D01*
X012691Y002716D02*
X002102Y002716D01*
X002372Y002558D02*
X012850Y002558D01*
X013008Y002399D02*
X002531Y002399D01*
X002638Y002241D02*
X013167Y002241D01*
X013325Y002082D02*
X002721Y002082D01*
X002764Y001924D02*
X013360Y001924D01*
X013360Y001765D02*
X002790Y001765D01*
X002790Y001607D02*
X006461Y001607D01*
X006409Y001585D02*
X006275Y001451D01*
X006202Y001275D01*
X006202Y001085D01*
X006275Y000909D01*
X006409Y000775D01*
X006585Y000702D01*
X006775Y000702D01*
X006951Y000775D01*
X007085Y000909D01*
X007158Y001085D01*
X007158Y001275D01*
X007085Y001451D01*
X006951Y001585D01*
X006775Y001658D01*
X006585Y001658D01*
X006409Y001585D01*
X006274Y001448D02*
X002767Y001448D01*
X002724Y001290D02*
X006208Y001290D01*
X006202Y001131D02*
X002645Y001131D01*
X002542Y000973D02*
X006249Y000973D01*
X006370Y000814D02*
X002384Y000814D01*
X002680Y005680D02*
X001680Y005680D01*
X002570Y006837D02*
X000660Y006837D01*
X000660Y006679D02*
X002729Y006679D01*
X002887Y006520D02*
X000660Y006520D01*
X002499Y006909D02*
X002499Y006909D01*
X003633Y006680D02*
X004039Y006680D01*
X003633Y006680D01*
X003633Y006680D01*
X004247Y008581D02*
X005128Y008581D01*
X005286Y008739D02*
X004182Y008739D01*
X004364Y008898D02*
X005445Y008898D01*
X005603Y009056D02*
X004430Y009056D01*
X004440Y009215D02*
X005762Y009215D01*
X005860Y009373D02*
X004401Y009373D01*
X004296Y009532D02*
X005860Y009532D01*
X005860Y009690D02*
X004064Y009690D01*
X004316Y009849D02*
X005860Y009849D01*
X005860Y010007D02*
X004410Y010007D01*
X004440Y010166D02*
X005860Y010166D01*
X005860Y010324D02*
X004422Y010324D01*
X004345Y010483D02*
X005860Y010483D01*
X005860Y010641D02*
X004134Y010641D01*
X004267Y010800D02*
X005860Y010800D01*
X005860Y010958D02*
X004389Y010958D01*
X004440Y011117D02*
X005860Y011117D01*
X005860Y011275D02*
X004440Y011275D01*
X004376Y011434D02*
X005860Y011434D01*
X005860Y011592D02*
X004235Y011592D01*
X004210Y011751D02*
X005860Y011751D01*
X005860Y011909D02*
X004369Y011909D01*
X004435Y012068D02*
X005860Y012068D01*
X005860Y012226D02*
X004440Y012226D01*
X004396Y012385D02*
X005860Y012385D01*
X005860Y012543D02*
X004284Y012543D01*
X004091Y012702D02*
X005860Y012702D01*
X005860Y012860D02*
X004327Y012860D01*
X004414Y013019D02*
X005860Y013019D01*
X005860Y013177D02*
X004440Y013177D01*
X004417Y013336D02*
X005860Y013336D01*
X005860Y013494D02*
X004333Y013494D01*
X004106Y013653D02*
X005860Y013653D01*
X005860Y013811D02*
X004278Y013811D01*
X004394Y013970D02*
X005860Y013970D01*
X005860Y014128D02*
X004440Y014128D01*
X004437Y014287D02*
X005860Y014287D01*
X005860Y014445D02*
X004371Y014445D01*
X004224Y014604D02*
X005860Y014604D01*
X005860Y014762D02*
X004229Y014762D01*
X004374Y014921D02*
X005860Y014921D01*
X005860Y015079D02*
X004439Y015079D01*
X004440Y015238D02*
X005860Y015238D01*
X005860Y015396D02*
X004392Y015396D01*
X004273Y015555D02*
X005860Y015555D01*
X005860Y015713D02*
X004119Y015713D01*
X004339Y015872D02*
X005860Y015872D01*
X005860Y016030D02*
X004419Y016030D01*
X004440Y016189D02*
X005860Y016189D01*
X005860Y016347D02*
X004412Y016347D01*
X004322Y016506D02*
X005860Y016506D01*
X005860Y016664D02*
X004078Y016664D01*
X004290Y016823D02*
X005860Y016823D01*
X005860Y016981D02*
X004399Y016981D01*
X004440Y017140D02*
X005860Y017140D01*
X005860Y017298D02*
X005534Y017298D01*
X005618Y017457D02*
X005860Y017457D01*
X005860Y017615D02*
X005618Y017615D01*
X005618Y017774D02*
X005860Y017774D01*
X005860Y017932D02*
X005616Y017932D01*
X005500Y018091D02*
X005860Y018091D01*
X005860Y018249D02*
X005500Y018249D01*
X005500Y018408D02*
X005860Y018408D01*
X005860Y018566D02*
X005500Y018566D01*
X005500Y018725D02*
X005860Y018725D01*
X005860Y018883D02*
X005500Y018883D01*
X005500Y019042D02*
X005860Y019042D01*
X005860Y019200D02*
X005500Y019200D01*
X005587Y019359D02*
X005860Y019359D01*
X005860Y019517D02*
X005618Y019517D01*
X005618Y019676D02*
X005860Y019676D01*
X005860Y019834D02*
X005618Y019834D01*
X005590Y019993D02*
X005860Y019993D01*
X005180Y019680D02*
X005180Y017680D01*
X004742Y017457D02*
X004367Y017457D01*
X004432Y017298D02*
X004826Y017298D01*
X002978Y021419D02*
X000660Y021419D01*
X000660Y021578D02*
X003110Y021578D01*
X003185Y021736D02*
X000660Y021736D01*
X000660Y021895D02*
X002998Y021895D01*
X002931Y022053D02*
X000660Y022053D01*
X000660Y022212D02*
X002920Y022212D01*
X002958Y022370D02*
X000660Y022370D01*
X000660Y022529D02*
X003061Y022529D01*
X003304Y022687D02*
X000660Y022687D01*
X000660Y022846D02*
X003047Y022846D01*
X002952Y023004D02*
X000660Y023004D01*
X000660Y023163D02*
X002920Y023163D01*
X002937Y023321D02*
X000660Y023321D01*
X000660Y023480D02*
X003012Y023480D01*
X003219Y023638D02*
X000660Y023638D01*
X000660Y023797D02*
X003096Y023797D01*
X002972Y023955D02*
X000660Y023955D01*
X000660Y024114D02*
X002920Y024114D01*
X002920Y024272D02*
X002336Y024272D01*
X002461Y024431D02*
X002983Y024431D01*
X003122Y024589D02*
X002520Y024589D01*
X002520Y024748D02*
X003157Y024748D01*
X002992Y024906D02*
X002471Y024906D01*
X002359Y025065D02*
X002927Y025065D01*
X002920Y025223D02*
X002287Y025223D01*
X002441Y025382D02*
X002962Y025382D01*
X003073Y025540D02*
X002507Y025540D01*
X001420Y027601D02*
X000660Y027601D01*
X000660Y027759D02*
X001055Y027759D01*
X000873Y027918D02*
X000660Y027918D01*
X000660Y028076D02*
X000747Y028076D01*
X000660Y026174D02*
X001162Y026174D01*
X000952Y026016D02*
X000660Y026016D01*
X000660Y025857D02*
X000869Y025857D01*
X000840Y025699D02*
X000660Y025699D01*
X000660Y025540D02*
X000853Y025540D01*
X000919Y025382D02*
X000660Y025382D01*
X000660Y025223D02*
X001073Y025223D01*
X001001Y025065D02*
X000660Y025065D01*
X000660Y024906D02*
X000889Y024906D01*
X000840Y024748D02*
X000660Y024748D01*
X000660Y024589D02*
X000840Y024589D01*
X000899Y024431D02*
X000660Y024431D01*
X000660Y024272D02*
X001024Y024272D01*
X002670Y029186D02*
X017690Y029186D01*
X017782Y029344D02*
X002578Y029344D01*
X002427Y029503D02*
X017933Y029503D01*
X018159Y029661D02*
X002201Y029661D01*
X008555Y028869D02*
X013305Y028869D01*
X013191Y028710D02*
X008669Y028710D01*
X008720Y028552D02*
X013140Y028552D01*
X013140Y028393D02*
X008720Y028393D01*
X008720Y028235D02*
X013140Y028235D01*
X013140Y028076D02*
X008720Y028076D01*
X008720Y027918D02*
X013140Y027918D01*
X013146Y027759D02*
X008714Y027759D01*
X008649Y027601D02*
X013211Y027601D01*
X014169Y028710D02*
X014191Y028710D01*
X014305Y028869D02*
X014055Y028869D01*
X014680Y028180D02*
X014680Y008180D01*
X014680Y004180D01*
X015001Y003826D02*
X015359Y003826D01*
X015244Y003984D02*
X015116Y003984D01*
X015158Y004143D02*
X015202Y004143D01*
X015213Y004301D02*
X015147Y004301D01*
X015076Y004460D02*
X015284Y004460D01*
X015360Y004618D02*
X015000Y004618D01*
X015000Y004777D02*
X015374Y004777D01*
X015482Y004935D02*
X015000Y004935D01*
X015000Y005094D02*
X015641Y005094D01*
X015799Y005252D02*
X015000Y005252D01*
X015000Y005411D02*
X015958Y005411D01*
X016180Y005180D02*
X015680Y004680D01*
X015680Y004180D01*
X015000Y005569D02*
X018860Y005569D01*
X018860Y005728D02*
X015000Y005728D01*
X015000Y005886D02*
X017592Y005886D01*
X017584Y005893D02*
X017633Y005844D01*
X017689Y005804D01*
X017751Y005772D01*
X017817Y005751D01*
X017885Y005740D01*
X018180Y005740D01*
X018180Y006180D01*
X018180Y006180D01*
X018180Y006180D01*
X017480Y006180D01*
X017480Y006215D01*
X017491Y006283D01*
X017512Y006349D01*
X017544Y006411D01*
X017584Y006467D01*
X017633Y006516D01*
X017689Y006556D01*
X017751Y006588D01*
X017817Y006609D01*
X017885Y006620D01*
X018180Y006620D01*
X018180Y006180D01*
X017480Y006180D01*
X017480Y006145D01*
X017491Y006077D01*
X017512Y006011D01*
X017544Y005949D01*
X017584Y005893D01*
X017501Y006045D02*
X015000Y006045D01*
X015000Y006203D02*
X017480Y006203D01*
X017519Y006362D02*
X015000Y006362D01*
X015000Y006520D02*
X017639Y006520D01*
X017556Y006837D02*
X015000Y006837D01*
X015000Y006679D02*
X018860Y006679D01*
X018860Y006837D02*
X018804Y006837D01*
X018860Y006520D02*
X018721Y006520D01*
X018841Y006362D02*
X018860Y006362D01*
X018859Y006045D02*
X018860Y006045D01*
X018860Y005886D02*
X018768Y005886D01*
X018180Y005886D02*
X018180Y005886D01*
X018180Y006045D02*
X018180Y006045D01*
X018180Y006203D02*
X018180Y006203D01*
X018180Y006362D02*
X018180Y006362D01*
X018180Y006520D02*
X018180Y006520D01*
X018860Y007467D02*
X018723Y007604D01*
X018539Y007680D01*
X017821Y007680D01*
X018539Y007680D01*
X018723Y007756D01*
X018860Y007893D01*
X018860Y007467D01*
X018860Y007471D02*
X018856Y007471D01*
X018860Y007630D02*
X018661Y007630D01*
X018755Y007788D02*
X018860Y007788D01*
X019500Y007788D02*
X019700Y007788D01*
X019700Y007630D02*
X019500Y007630D01*
X019500Y007471D02*
X019700Y007471D01*
X019700Y007313D02*
X019500Y007313D01*
X019500Y007154D02*
X019700Y007154D01*
X019700Y006996D02*
X019500Y006996D01*
X019500Y006837D02*
X019700Y006837D01*
X019700Y006679D02*
X019500Y006679D01*
X019500Y006520D02*
X019700Y006520D01*
X019700Y006362D02*
X019500Y006362D01*
X019500Y006203D02*
X019700Y006203D01*
X019700Y006045D02*
X019500Y006045D01*
X019500Y005886D02*
X019700Y005886D01*
X019700Y005728D02*
X019500Y005728D01*
X019500Y005569D02*
X019700Y005569D01*
X019700Y005411D02*
X019500Y005411D01*
X019453Y005252D02*
X019700Y005252D01*
X019700Y005094D02*
X019296Y005094D01*
X019138Y004935D02*
X019700Y004935D01*
X019700Y007947D02*
X019500Y007947D01*
X019500Y008105D02*
X019700Y008105D01*
X019700Y008264D02*
X019500Y008264D01*
X019500Y008422D02*
X019700Y008422D01*
X019700Y008581D02*
X019500Y008581D01*
X019500Y008739D02*
X019700Y008739D01*
X019700Y008898D02*
X019415Y008898D01*
X019257Y009056D02*
X019700Y009056D01*
X019700Y009215D02*
X019098Y009215D01*
X018940Y009373D02*
X019700Y009373D01*
X019700Y009532D02*
X018796Y009532D01*
X018564Y009690D02*
X019700Y009690D01*
X019700Y009849D02*
X018816Y009849D01*
X018910Y010007D02*
X019700Y010007D01*
X019700Y010166D02*
X018940Y010166D01*
X018922Y010324D02*
X019700Y010324D01*
X019700Y010483D02*
X018845Y010483D01*
X018634Y010641D02*
X019700Y010641D01*
X019700Y010800D02*
X018767Y010800D01*
X018723Y010756D02*
X018864Y010897D01*
X018940Y011081D01*
X018940Y011279D01*
X018864Y011463D01*
X018723Y011604D01*
X018539Y011680D01*
X017821Y011680D01*
X017637Y011604D01*
X017496Y011463D01*
X017420Y011279D01*
X017420Y011081D01*
X017496Y010897D01*
X017637Y010756D01*
X017821Y010680D01*
X018539Y010680D01*
X018723Y010756D01*
X018889Y010958D02*
X019700Y010958D01*
X019700Y011117D02*
X018940Y011117D01*
X018940Y011275D02*
X019700Y011275D01*
X019700Y011434D02*
X018876Y011434D01*
X018735Y011592D02*
X019700Y011592D01*
X019700Y011751D02*
X018710Y011751D01*
X018723Y011756D02*
X018864Y011897D01*
X018940Y012081D01*
X018940Y012279D01*
X018864Y012463D01*
X018723Y012604D01*
X018539Y012680D01*
X018723Y012756D01*
X018864Y012897D01*
X018940Y013081D01*
X018940Y013279D01*
X018864Y013463D01*
X018723Y013604D01*
X018539Y013680D01*
X018723Y013756D01*
X018864Y013897D01*
X018940Y014081D01*
X018940Y014279D01*
X018864Y014463D01*
X018723Y014604D01*
X018539Y014680D01*
X018723Y014756D01*
X018864Y014897D01*
X018940Y015081D01*
X018940Y015279D01*
X018864Y015463D01*
X018723Y015604D01*
X018539Y015680D01*
X018723Y015756D01*
X018864Y015897D01*
X018940Y016081D01*
X018940Y016279D01*
X018864Y016463D01*
X018723Y016604D01*
X018539Y016680D01*
X018723Y016756D01*
X018864Y016897D01*
X018940Y017081D01*
X018940Y017279D01*
X018864Y017463D01*
X018723Y017604D01*
X018539Y017680D01*
X018723Y017756D01*
X018864Y017897D01*
X018940Y018081D01*
X018940Y018279D01*
X018864Y018463D01*
X018723Y018604D01*
X018539Y018680D01*
X018723Y018756D01*
X018864Y018897D01*
X018940Y019081D01*
X018940Y019279D01*
X018864Y019463D01*
X018723Y019604D01*
X018539Y019680D01*
X018723Y019756D01*
X018864Y019897D01*
X018940Y020081D01*
X018940Y020279D01*
X018864Y020463D01*
X018723Y020604D01*
X018539Y020680D01*
X018723Y020756D01*
X018864Y020897D01*
X018940Y021081D01*
X018940Y021279D01*
X018864Y021463D01*
X018723Y021604D01*
X018539Y021680D01*
X018723Y021756D01*
X018864Y021897D01*
X018940Y022081D01*
X018940Y022279D01*
X018864Y022463D01*
X018723Y022604D01*
X018539Y022680D01*
X018723Y022756D01*
X018864Y022897D01*
X018940Y023081D01*
X018940Y023279D01*
X018864Y023463D01*
X018723Y023604D01*
X018539Y023680D01*
X018723Y023756D01*
X018864Y023897D01*
X018940Y024081D01*
X018940Y024279D01*
X018864Y024463D01*
X018723Y024604D01*
X018539Y024680D01*
X018723Y024756D01*
X018864Y024897D01*
X018940Y025081D01*
X018940Y025279D01*
X018864Y025463D01*
X018723Y025604D01*
X018539Y025680D01*
X017821Y025680D01*
X017637Y025604D01*
X017496Y025463D01*
X017420Y025279D01*
X017420Y025081D01*
X017496Y024897D01*
X017637Y024756D01*
X017821Y024680D01*
X018539Y024680D01*
X017821Y024680D01*
X017637Y024604D01*
X017496Y024463D01*
X017420Y024279D01*
X017420Y024081D01*
X017496Y023897D01*
X017637Y023756D01*
X017821Y023680D01*
X018539Y023680D01*
X017821Y023680D01*
X017637Y023604D01*
X017496Y023463D01*
X017420Y023279D01*
X017420Y023081D01*
X017496Y022897D01*
X017637Y022756D01*
X017821Y022680D01*
X018539Y022680D01*
X017821Y022680D01*
X017637Y022604D01*
X017496Y022463D01*
X017420Y022279D01*
X017420Y022081D01*
X017496Y021897D01*
X017637Y021756D01*
X017821Y021680D01*
X018539Y021680D01*
X017821Y021680D01*
X017637Y021604D01*
X017496Y021463D01*
X017420Y021279D01*
X017420Y021081D01*
X017496Y020897D01*
X017637Y020756D01*
X017821Y020680D01*
X018539Y020680D01*
X017821Y020680D01*
X017637Y020604D01*
X017496Y020463D01*
X017420Y020279D01*
X017420Y020081D01*
X017496Y019897D01*
X017637Y019756D01*
X017821Y019680D01*
X018539Y019680D01*
X017821Y019680D01*
X017637Y019604D01*
X017496Y019463D01*
X017420Y019279D01*
X017420Y019081D01*
X017496Y018897D01*
X017637Y018756D01*
X017821Y018680D01*
X018539Y018680D01*
X017821Y018680D01*
X017637Y018604D01*
X017496Y018463D01*
X017420Y018279D01*
X017420Y018081D01*
X017496Y017897D01*
X017637Y017756D01*
X017821Y017680D01*
X018539Y017680D01*
X017821Y017680D01*
X017637Y017604D01*
X017496Y017463D01*
X017420Y017279D01*
X017420Y017081D01*
X017496Y016897D01*
X017637Y016756D01*
X017821Y016680D01*
X018539Y016680D01*
X017821Y016680D01*
X017637Y016604D01*
X017496Y016463D01*
X017420Y016279D01*
X017420Y016081D01*
X017496Y015897D01*
X017637Y015756D01*
X017821Y015680D01*
X018539Y015680D01*
X017821Y015680D01*
X017637Y015604D01*
X017496Y015463D01*
X017420Y015279D01*
X017420Y015081D01*
X017496Y014897D01*
X017637Y014756D01*
X017821Y014680D01*
X018539Y014680D01*
X017821Y014680D01*
X017637Y014604D01*
X017496Y014463D01*
X017420Y014279D01*
X017420Y014081D01*
X017496Y013897D01*
X017637Y013756D01*
X017821Y013680D01*
X018539Y013680D01*
X017821Y013680D01*
X017637Y013604D01*
X017496Y013463D01*
X017420Y013279D01*
X017420Y013081D01*
X017496Y012897D01*
X017637Y012756D01*
X017821Y012680D01*
X018539Y012680D01*
X017821Y012680D01*
X017637Y012604D01*
X017496Y012463D01*
X017420Y012279D01*
X017420Y012081D01*
X017496Y011897D01*
X017637Y011756D01*
X017821Y011680D01*
X018539Y011680D01*
X018723Y011756D01*
X018869Y011909D02*
X019700Y011909D01*
X019700Y012068D02*
X018935Y012068D01*
X018940Y012226D02*
X019700Y012226D01*
X019700Y012385D02*
X018896Y012385D01*
X018784Y012543D02*
X019700Y012543D01*
X019700Y012702D02*
X018591Y012702D01*
X018827Y012860D02*
X019700Y012860D01*
X019700Y013019D02*
X018914Y013019D01*
X018940Y013177D02*
X019700Y013177D01*
X019700Y013336D02*
X018917Y013336D01*
X018833Y013494D02*
X019700Y013494D01*
X019700Y013653D02*
X018606Y013653D01*
X018778Y013811D02*
X019700Y013811D01*
X019700Y013970D02*
X018894Y013970D01*
X018940Y014128D02*
X019700Y014128D01*
X019700Y014287D02*
X018937Y014287D01*
X018871Y014445D02*
X019700Y014445D01*
X019700Y014604D02*
X018724Y014604D01*
X018729Y014762D02*
X019700Y014762D01*
X019700Y014921D02*
X018874Y014921D01*
X018939Y015079D02*
X019700Y015079D01*
X019700Y015238D02*
X018940Y015238D01*
X018892Y015396D02*
X019700Y015396D01*
X019700Y015555D02*
X018773Y015555D01*
X018619Y015713D02*
X019700Y015713D01*
X019700Y015872D02*
X018839Y015872D01*
X018919Y016030D02*
X019700Y016030D01*
X019700Y016189D02*
X018940Y016189D01*
X018912Y016347D02*
X019700Y016347D01*
X019700Y016506D02*
X018822Y016506D01*
X018578Y016664D02*
X019700Y016664D01*
X019700Y016823D02*
X018790Y016823D01*
X018899Y016981D02*
X019700Y016981D01*
X019700Y017140D02*
X018940Y017140D01*
X018932Y017298D02*
X019700Y017298D01*
X019700Y017457D02*
X018867Y017457D01*
X018696Y017615D02*
X019700Y017615D01*
X019700Y017774D02*
X018741Y017774D01*
X018878Y017932D02*
X019700Y017932D01*
X019700Y018091D02*
X018940Y018091D01*
X018940Y018249D02*
X019700Y018249D01*
X019700Y018408D02*
X018887Y018408D01*
X018761Y018566D02*
X019700Y018566D01*
X019700Y018725D02*
X018647Y018725D01*
X018850Y018883D02*
X019700Y018883D01*
X019700Y019042D02*
X018924Y019042D01*
X018940Y019200D02*
X019700Y019200D01*
X019700Y019359D02*
X018907Y019359D01*
X018810Y019517D02*
X019700Y019517D01*
X019700Y019676D02*
X018550Y019676D01*
X018801Y019834D02*
X019700Y019834D01*
X019700Y019993D02*
X018904Y019993D01*
X018940Y020151D02*
X019700Y020151D01*
X019700Y020310D02*
X018928Y020310D01*
X018859Y020468D02*
X019700Y020468D01*
X019700Y020627D02*
X018669Y020627D01*
X018752Y020785D02*
X019700Y020785D01*
X019700Y020944D02*
X018883Y020944D01*
X018940Y021102D02*
X019700Y021102D01*
X019700Y021261D02*
X018940Y021261D01*
X018882Y021419D02*
X019700Y021419D01*
X019700Y021578D02*
X018750Y021578D01*
X018675Y021736D02*
X019700Y021736D01*
X019700Y021895D02*
X018862Y021895D01*
X018929Y022053D02*
X019700Y022053D01*
X019700Y022212D02*
X018940Y022212D01*
X018902Y022370D02*
X019700Y022370D01*
X019700Y022529D02*
X018799Y022529D01*
X018556Y022687D02*
X019700Y022687D01*
X019700Y022846D02*
X018813Y022846D01*
X018908Y023004D02*
X019700Y023004D01*
X019700Y023163D02*
X018940Y023163D01*
X018923Y023321D02*
X019700Y023321D01*
X019700Y023480D02*
X018848Y023480D01*
X018641Y023638D02*
X019700Y023638D01*
X019700Y023797D02*
X018764Y023797D01*
X018888Y023955D02*
X019700Y023955D01*
X019700Y024114D02*
X018940Y024114D01*
X018940Y024272D02*
X019700Y024272D01*
X019700Y024431D02*
X018877Y024431D01*
X018738Y024589D02*
X019700Y024589D01*
X019700Y024748D02*
X018703Y024748D01*
X018868Y024906D02*
X019700Y024906D01*
X019700Y025065D02*
X018933Y025065D01*
X018940Y025223D02*
X019700Y025223D01*
X019700Y025382D02*
X018898Y025382D01*
X018787Y025540D02*
X019700Y025540D01*
X019700Y025699D02*
X016000Y025699D01*
X016000Y025857D02*
X019700Y025857D01*
X019700Y026016D02*
X016000Y026016D01*
X016000Y026174D02*
X019700Y026174D01*
X019700Y026333D02*
X016000Y026333D01*
X016000Y026491D02*
X019700Y026491D01*
X019700Y026650D02*
X016000Y026650D01*
X016000Y026808D02*
X019700Y026808D01*
X019700Y026967D02*
X016000Y026967D01*
X016000Y027125D02*
X019700Y027125D01*
X019700Y027284D02*
X016000Y027284D01*
X016006Y027442D02*
X019700Y027442D01*
X019700Y027601D02*
X018940Y027601D01*
X019305Y027759D02*
X019700Y027759D01*
X019700Y027918D02*
X019487Y027918D01*
X019613Y028076D02*
X019700Y028076D01*
X018420Y027601D02*
X016149Y027601D01*
X016214Y027759D02*
X018055Y027759D01*
X017873Y027918D02*
X016220Y027918D01*
X016220Y028076D02*
X017747Y028076D01*
X017573Y025540D02*
X016000Y025540D01*
X016000Y025382D02*
X017462Y025382D01*
X017420Y025223D02*
X016000Y025223D01*
X016000Y025065D02*
X017427Y025065D01*
X017492Y024906D02*
X016000Y024906D01*
X016000Y024748D02*
X017657Y024748D01*
X017622Y024589D02*
X016000Y024589D01*
X016000Y024431D02*
X017483Y024431D01*
X017420Y024272D02*
X016000Y024272D01*
X016000Y024114D02*
X017420Y024114D01*
X017472Y023955D02*
X016000Y023955D01*
X016000Y023797D02*
X017596Y023797D01*
X017719Y023638D02*
X016000Y023638D01*
X016000Y023480D02*
X017512Y023480D01*
X017437Y023321D02*
X016000Y023321D01*
X016000Y023163D02*
X017420Y023163D01*
X017452Y023004D02*
X016000Y023004D01*
X016000Y022846D02*
X017547Y022846D01*
X017804Y022687D02*
X016000Y022687D01*
X016000Y022529D02*
X017561Y022529D01*
X017458Y022370D02*
X016000Y022370D01*
X016000Y022212D02*
X017420Y022212D01*
X017431Y022053D02*
X016000Y022053D01*
X016000Y021895D02*
X017498Y021895D01*
X017685Y021736D02*
X016000Y021736D01*
X016000Y021578D02*
X017610Y021578D01*
X017478Y021419D02*
X016000Y021419D01*
X016000Y021261D02*
X017420Y021261D01*
X017420Y021102D02*
X016000Y021102D01*
X016000Y020944D02*
X017477Y020944D01*
X017608Y020785D02*
X016000Y020785D01*
X016000Y020627D02*
X017691Y020627D01*
X017501Y020468D02*
X016000Y020468D01*
X016000Y020310D02*
X017432Y020310D01*
X017420Y020151D02*
X016000Y020151D01*
X016000Y019993D02*
X017456Y019993D01*
X017559Y019834D02*
X016000Y019834D01*
X016000Y019676D02*
X017810Y019676D01*
X017550Y019517D02*
X016000Y019517D01*
X016000Y019359D02*
X017453Y019359D01*
X017420Y019200D02*
X016000Y019200D01*
X016000Y019042D02*
X017436Y019042D01*
X017510Y018883D02*
X016000Y018883D01*
X016000Y018725D02*
X017713Y018725D01*
X017599Y018566D02*
X016000Y018566D01*
X016000Y018408D02*
X017473Y018408D01*
X017420Y018249D02*
X016000Y018249D01*
X016000Y018091D02*
X017420Y018091D01*
X017482Y017932D02*
X016000Y017932D01*
X016000Y017774D02*
X017619Y017774D01*
X017664Y017615D02*
X016000Y017615D01*
X016000Y017457D02*
X017493Y017457D01*
X017428Y017298D02*
X016000Y017298D01*
X016000Y017140D02*
X017420Y017140D01*
X017461Y016981D02*
X016000Y016981D01*
X016000Y016823D02*
X017570Y016823D01*
X017782Y016664D02*
X016000Y016664D01*
X016000Y016506D02*
X017538Y016506D01*
X017448Y016347D02*
X016000Y016347D01*
X016000Y016189D02*
X017420Y016189D01*
X017441Y016030D02*
X016000Y016030D01*
X016000Y015872D02*
X017521Y015872D01*
X017741Y015713D02*
X016000Y015713D01*
X016000Y015555D02*
X017587Y015555D01*
X017468Y015396D02*
X016000Y015396D01*
X016000Y015238D02*
X017420Y015238D01*
X017421Y015079D02*
X016000Y015079D01*
X016000Y014921D02*
X017486Y014921D01*
X017631Y014762D02*
X016000Y014762D01*
X016000Y014604D02*
X017636Y014604D01*
X017489Y014445D02*
X016000Y014445D01*
X016000Y014287D02*
X017423Y014287D01*
X017420Y014128D02*
X016000Y014128D01*
X016000Y013970D02*
X017466Y013970D01*
X017582Y013811D02*
X016000Y013811D01*
X016000Y013653D02*
X017754Y013653D01*
X017527Y013494D02*
X016000Y013494D01*
X016000Y013336D02*
X017443Y013336D01*
X017420Y013177D02*
X016000Y013177D01*
X016000Y013019D02*
X017446Y013019D01*
X017533Y012860D02*
X016000Y012860D01*
X016000Y012702D02*
X017769Y012702D01*
X017576Y012543D02*
X016000Y012543D01*
X016000Y012385D02*
X017464Y012385D01*
X017420Y012226D02*
X016000Y012226D01*
X016000Y012068D02*
X017425Y012068D01*
X017491Y011909D02*
X016000Y011909D01*
X016000Y011751D02*
X017650Y011751D01*
X017625Y011592D02*
X016000Y011592D01*
X016000Y011434D02*
X017484Y011434D01*
X017420Y011275D02*
X016000Y011275D01*
X016000Y011117D02*
X017420Y011117D01*
X017471Y010958D02*
X016000Y010958D01*
X016000Y010800D02*
X017593Y010800D01*
X017726Y010641D02*
X016000Y010641D01*
X016000Y010483D02*
X017515Y010483D01*
X017438Y010324D02*
X016000Y010324D01*
X016000Y010166D02*
X017420Y010166D01*
X017450Y010007D02*
X016000Y010007D01*
X016000Y009849D02*
X017544Y009849D01*
X017796Y009690D02*
X016000Y009690D01*
X016000Y009532D02*
X017564Y009532D01*
X018180Y008180D02*
X014680Y008180D01*
X015000Y007788D02*
X017605Y007788D01*
X017699Y007630D02*
X015000Y007630D01*
X015000Y007471D02*
X017504Y007471D01*
X017434Y007313D02*
X015000Y007313D01*
X015000Y007154D02*
X017420Y007154D01*
X017455Y006996D02*
X015000Y006996D01*
X015585Y001658D02*
X015409Y001585D01*
X015275Y001451D01*
X015202Y001275D01*
X015202Y001085D01*
X015275Y000909D01*
X015409Y000775D01*
X015585Y000702D01*
X015775Y000702D01*
X015951Y000775D01*
X016085Y000909D01*
X016158Y001085D01*
X016158Y001275D01*
X016085Y001451D01*
X015951Y001585D01*
X015775Y001658D01*
X015585Y001658D01*
X015461Y001607D02*
X014899Y001607D01*
X015086Y001448D02*
X015274Y001448D01*
X015208Y001290D02*
X015152Y001290D01*
X015158Y001131D02*
X015202Y001131D01*
X015249Y000973D02*
X015111Y000973D01*
X014990Y000814D02*
X015370Y000814D01*
X015990Y000814D02*
X016370Y000814D01*
X016249Y000973D02*
X016111Y000973D01*
X016158Y001131D02*
X016202Y001131D01*
X016208Y001290D02*
X016152Y001290D01*
X016086Y001448D02*
X016274Y001448D01*
X016461Y001607D02*
X015899Y001607D01*
X013360Y001607D02*
X009899Y001607D01*
X009951Y001585D02*
X009775Y001658D01*
X009585Y001658D01*
X009409Y001585D01*
X009275Y001451D01*
X009202Y001275D01*
X009202Y001085D01*
X009275Y000909D01*
X009409Y000775D01*
X009585Y000702D01*
X009775Y000702D01*
X009951Y000775D01*
X010085Y000909D01*
X010158Y001085D01*
X010158Y001275D01*
X010085Y001451D01*
X009951Y001585D01*
X010086Y001448D02*
X013274Y001448D01*
X013208Y001290D02*
X010152Y001290D01*
X010158Y001131D02*
X013202Y001131D01*
X013249Y000973D02*
X010111Y000973D01*
X009990Y000814D02*
X013370Y000814D01*
X009461Y001607D02*
X008899Y001607D01*
X008951Y001585D02*
X008775Y001658D01*
X008585Y001658D01*
X008409Y001585D01*
X008275Y001451D01*
X008202Y001275D01*
X008202Y001085D01*
X008275Y000909D01*
X008409Y000775D01*
X008585Y000702D01*
X008775Y000702D01*
X008951Y000775D01*
X009085Y000909D01*
X009158Y001085D01*
X009158Y001275D01*
X009085Y001451D01*
X008951Y001585D01*
X009086Y001448D02*
X009274Y001448D01*
X009208Y001290D02*
X009152Y001290D01*
X009158Y001131D02*
X009202Y001131D01*
X009249Y000973D02*
X009111Y000973D01*
X008990Y000814D02*
X009370Y000814D01*
X008370Y000814D02*
X007990Y000814D01*
X007951Y000775D02*
X008085Y000909D01*
X008158Y001085D01*
X008158Y001275D01*
X008085Y001451D01*
X007951Y001585D01*
X007775Y001658D01*
X007585Y001658D01*
X007409Y001585D01*
X007275Y001451D01*
X007202Y001275D01*
X007202Y001085D01*
X007275Y000909D01*
X007409Y000775D01*
X007585Y000702D01*
X007775Y000702D01*
X007951Y000775D01*
X008111Y000973D02*
X008249Y000973D01*
X008202Y001131D02*
X008158Y001131D01*
X008152Y001290D02*
X008208Y001290D01*
X008274Y001448D02*
X008086Y001448D01*
X007899Y001607D02*
X008461Y001607D01*
X007461Y001607D02*
X006899Y001607D01*
X007086Y001448D02*
X007274Y001448D01*
X007208Y001290D02*
X007152Y001290D01*
X007158Y001131D02*
X007202Y001131D01*
X007249Y000973D02*
X007111Y000973D01*
X006990Y000814D02*
X007370Y000814D01*
X010050Y019676D02*
X011810Y019676D01*
X011804Y022687D02*
X010056Y022687D01*
X015055Y028869D02*
X015305Y028869D01*
X015191Y028710D02*
X015169Y028710D01*
D14*
X005180Y019680D03*
X005180Y017680D03*
X003680Y018180D03*
M02*
