%
M48
M72
T01C0.0236
T02C0.0276
T03C0.0320
T04C0.0400
T05C0.1250
%
T01
X8100Y6100
X5600Y7600
X7100Y8100
X8100Y9100
X14850Y8600
X14850Y7850
T02
X18100Y9100
X19100Y9100
X20100Y9100
X21100Y9100
X21100Y6100
X20100Y6100
X19100Y6100
X18100Y6100
X18100Y4116
X17100Y4116
X19100Y4116
X20100Y4116
X21100Y4116
X22100Y4116
X8600Y4100
X8600Y5100
T03
X9850Y6100
X10850Y6100
X11850Y6100
X12850Y6100
X13850Y6100
X14850Y6100
X15850Y6100
X15850Y3100
X14850Y3100
X13850Y3100
X12850Y3100
X11850Y3100
X10850Y3100
X9850Y3100
T04
X3100Y3600
X2100Y3600
X2100Y4600
X3100Y4600
X3100Y5600
X2100Y5600
X2100Y6600
X3100Y6600
X3100Y7600
X2100Y7600
X6100Y10297
X7100Y10297
X8100Y10297
X9100Y10297
X11850Y10297
X12850Y10297
X13850Y10297
X14850Y10297
X15850Y10297
X16850Y10297
T05
X1084Y1084
X1084Y10927
X22738Y10927
X22738Y1084
M30
