G75*
%MOIN*%
%OFA0B0*%
%FSLAX24Y24*%
%IPPOS*%
%LPD*%
%AMOC8*
5,1,8,0,0,1.08239X$1,22.5*
%
%ADD10C,0.1340*%
%ADD11C,0.0600*%
%ADD12C,0.0556*%
%ADD13C,0.0680*%
%ADD14R,0.0556X0.0556*%
%ADD15C,0.0674*%
%ADD16OC8,0.0680*%
%ADD17OC8,0.0556*%
%ADD18C,0.0634*%
%ADD19R,0.0634X0.0634*%
%ADD20R,0.0476X0.0476*%
D10*
X001755Y001755D03*
X001755Y020259D03*
X030101Y020259D03*
X030101Y001755D03*
D11*
X027190Y002930D02*
X026670Y002930D01*
X026670Y003930D02*
X027190Y003930D01*
X027190Y004930D02*
X026670Y004930D01*
X026670Y005930D02*
X027190Y005930D01*
X027190Y006930D02*
X026670Y006930D01*
X026670Y007930D02*
X027190Y007930D01*
X027190Y008930D02*
X026670Y008930D01*
X026670Y009930D02*
X027190Y009930D01*
X024190Y009930D02*
X023670Y009930D01*
X023670Y008930D02*
X024190Y008930D01*
X024190Y007930D02*
X023670Y007930D01*
X023670Y006930D02*
X024190Y006930D01*
X024190Y005930D02*
X023670Y005930D01*
X023670Y004930D02*
X024190Y004930D01*
X024190Y003930D02*
X023670Y003930D01*
X023670Y002930D02*
X024190Y002930D01*
X020190Y002932D02*
X019670Y002932D01*
X019670Y003932D02*
X020190Y003932D01*
X020190Y004932D02*
X019670Y004932D01*
X019670Y005932D02*
X020190Y005932D01*
X020190Y006932D02*
X019670Y006932D01*
X019670Y007932D02*
X020190Y007932D01*
X020190Y008932D02*
X019670Y008932D01*
X019670Y009932D02*
X020190Y009932D01*
X020190Y010932D02*
X019670Y010932D01*
X017190Y010932D02*
X016670Y010932D01*
X016670Y009932D02*
X017190Y009932D01*
X017190Y008932D02*
X016670Y008932D01*
X016670Y007932D02*
X017190Y007932D01*
X017190Y006932D02*
X016670Y006932D01*
X016670Y005932D02*
X017190Y005932D01*
X017190Y004932D02*
X016670Y004932D01*
X016670Y003932D02*
X017190Y003932D01*
X017190Y002932D02*
X016670Y002932D01*
X016670Y001932D02*
X017190Y001932D01*
X019670Y001932D02*
X020190Y001932D01*
X023670Y012430D02*
X024190Y012430D01*
X024190Y013430D02*
X023670Y013430D01*
X023670Y014430D02*
X024190Y014430D01*
X024190Y015430D02*
X023670Y015430D01*
X023670Y016430D02*
X024190Y016430D01*
X024190Y017430D02*
X023670Y017430D01*
X023670Y018430D02*
X024190Y018430D01*
X024190Y019430D02*
X023670Y019430D01*
X026670Y019430D02*
X027190Y019430D01*
X027190Y018430D02*
X026670Y018430D01*
X026670Y017430D02*
X027190Y017430D01*
X027190Y016430D02*
X026670Y016430D01*
X026670Y015430D02*
X027190Y015430D01*
X027190Y014430D02*
X026670Y014430D01*
X026670Y013430D02*
X027190Y013430D01*
X027190Y012430D02*
X026670Y012430D01*
D12*
X025930Y011180D03*
X024930Y011180D03*
X019930Y011930D03*
X016930Y011930D03*
X016430Y015680D03*
X015430Y015680D03*
X014430Y015680D03*
X014430Y018680D03*
X015430Y018680D03*
X016430Y018680D03*
X020930Y016930D03*
X010430Y016430D03*
X010430Y015430D03*
X010430Y014430D03*
X007430Y014430D03*
X006430Y014430D03*
X006430Y015430D03*
X007430Y015430D03*
X007430Y016430D03*
X006430Y016430D03*
X006430Y017430D03*
X007430Y017430D03*
X007430Y018430D03*
X006430Y018430D03*
X006430Y019430D03*
X007430Y019430D03*
X010430Y019430D03*
X010430Y018430D03*
X010430Y017430D03*
X003430Y017430D03*
X003430Y018430D03*
X003430Y019430D03*
X003430Y016430D03*
X003430Y015430D03*
X003430Y014430D03*
X024930Y001680D03*
X025930Y001680D03*
D13*
X028130Y001930D02*
X028730Y001930D01*
X028730Y002930D02*
X028130Y002930D01*
X028130Y003930D02*
X028730Y003930D01*
X028730Y004930D02*
X028130Y004930D01*
X028130Y005930D02*
X028730Y005930D01*
X028730Y011430D02*
X028130Y011430D01*
X028130Y012430D02*
X028730Y012430D01*
X028730Y013430D02*
X028130Y013430D01*
X028130Y014430D02*
X028730Y014430D01*
X028730Y015430D02*
X028130Y015430D01*
X028130Y016930D02*
X028730Y016930D01*
X028730Y017930D02*
X028130Y017930D01*
X028130Y018930D02*
X028730Y018930D01*
X028730Y019930D02*
X028130Y019930D01*
X019930Y014230D02*
X019930Y013630D01*
X018930Y013630D02*
X018930Y014230D01*
X017930Y014230D02*
X017930Y013630D01*
X016930Y013630D02*
X016930Y014230D01*
X014730Y012930D02*
X014130Y012930D01*
X014130Y011930D02*
X014730Y011930D01*
X014730Y010930D02*
X014130Y010930D01*
X013730Y007930D02*
X013130Y007930D01*
X013130Y006930D02*
X013730Y006930D01*
X015130Y006930D02*
X015730Y006930D01*
X015730Y005930D02*
X015130Y005930D01*
X015130Y004930D02*
X015730Y004930D01*
X015730Y003930D02*
X015130Y003930D01*
X015130Y002930D02*
X015730Y002930D01*
X013730Y003930D02*
X013130Y003930D01*
X013130Y004930D02*
X013730Y004930D01*
X013730Y005930D02*
X013130Y005930D01*
X011230Y005930D02*
X010630Y005930D01*
X010630Y004930D02*
X011230Y004930D01*
X011230Y003930D02*
X010630Y003930D01*
X010630Y002930D02*
X011230Y002930D01*
X007930Y002480D02*
X007930Y001880D01*
X006930Y001880D02*
X006930Y002480D01*
X005930Y002480D02*
X005930Y001880D01*
X010630Y006930D02*
X011230Y006930D01*
X011230Y007930D02*
X010630Y007930D01*
X015130Y007930D02*
X015730Y007930D01*
X012230Y014430D02*
X011630Y014430D01*
X011630Y015430D02*
X012230Y015430D01*
X012230Y016430D02*
X011630Y016430D01*
X011630Y017430D02*
X012230Y017430D01*
X012230Y018430D02*
X011630Y018430D01*
X011630Y019430D02*
X012230Y019430D01*
X014430Y019630D02*
X014430Y020230D01*
X015430Y020230D02*
X015430Y019630D01*
X016430Y019630D02*
X016430Y020230D01*
D14*
X019930Y016930D03*
X023180Y021180D03*
X026180Y021180D03*
X011180Y020430D03*
X010180Y020430D03*
X009180Y020430D03*
X008180Y020430D03*
X028430Y009930D03*
X028430Y008930D03*
X028430Y007930D03*
X028430Y006930D03*
D15*
X021430Y019133D02*
X021430Y019727D01*
X020430Y019727D02*
X020430Y019133D01*
X019430Y019133D02*
X019430Y019727D01*
D16*
X007430Y005930D03*
X006430Y005930D03*
X005430Y005930D03*
X005430Y004930D03*
X006430Y004930D03*
X007430Y004930D03*
X004430Y004930D03*
X003430Y004930D03*
X003430Y005930D03*
X004430Y005930D03*
D17*
X003930Y010930D03*
X003930Y011930D03*
X003930Y012930D03*
X001930Y012930D03*
X001930Y011930D03*
X001930Y010930D03*
X005930Y010930D03*
X005930Y011930D03*
X005930Y012930D03*
X007930Y012930D03*
X007930Y011930D03*
X007930Y010930D03*
X009930Y010930D03*
X009930Y011930D03*
X009930Y012930D03*
X011930Y012930D03*
X011930Y011930D03*
X011930Y010930D03*
D18*
X017930Y017430D03*
D19*
X017930Y016430D03*
D20*
X015930Y014930D03*
X012930Y013930D03*
X012930Y009930D03*
X013430Y009430D03*
X011930Y006930D03*
X009930Y005430D03*
X007430Y007930D03*
X007430Y009930D03*
X017680Y003430D03*
X021930Y007930D03*
X025930Y005930D03*
X025930Y015430D03*
X020930Y015430D03*
M02*
