G75*
%MOIN*%
%OFA0B0*%
%FSLAX24Y24*%
%IPPOS*%
%LPD*%
%AMOC8*
5,1,8,0,0,1.08239X$1,22.5*
%
%ADD10C,0.0000*%
%ADD11C,0.0030*%
%ADD12C,0.0040*%
%ADD13C,0.0060*%
%ADD14C,0.0050*%
%ADD15C,0.0080*%
%ADD16C,0.0100*%
%ADD17C,0.0006*%
%ADD18C,0.0200*%
%ADD19C,0.0010*%
D10*
X000180Y000180D02*
X000180Y021834D01*
X031676Y021834D01*
X031676Y000180D01*
X000180Y000180D01*
X001125Y001755D02*
X001127Y001805D01*
X001133Y001855D01*
X001143Y001904D01*
X001157Y001952D01*
X001174Y001999D01*
X001195Y002044D01*
X001220Y002088D01*
X001248Y002129D01*
X001280Y002168D01*
X001314Y002205D01*
X001351Y002239D01*
X001391Y002269D01*
X001433Y002296D01*
X001477Y002320D01*
X001523Y002341D01*
X001570Y002357D01*
X001618Y002370D01*
X001668Y002379D01*
X001717Y002384D01*
X001768Y002385D01*
X001818Y002382D01*
X001867Y002375D01*
X001916Y002364D01*
X001964Y002349D01*
X002010Y002331D01*
X002055Y002309D01*
X002098Y002283D01*
X002139Y002254D01*
X002178Y002222D01*
X002214Y002187D01*
X002246Y002149D01*
X002276Y002109D01*
X002303Y002066D01*
X002326Y002022D01*
X002345Y001976D01*
X002361Y001928D01*
X002373Y001879D01*
X002381Y001830D01*
X002385Y001780D01*
X002385Y001730D01*
X002381Y001680D01*
X002373Y001631D01*
X002361Y001582D01*
X002345Y001534D01*
X002326Y001488D01*
X002303Y001444D01*
X002276Y001401D01*
X002246Y001361D01*
X002214Y001323D01*
X002178Y001288D01*
X002139Y001256D01*
X002098Y001227D01*
X002055Y001201D01*
X002010Y001179D01*
X001964Y001161D01*
X001916Y001146D01*
X001867Y001135D01*
X001818Y001128D01*
X001768Y001125D01*
X001717Y001126D01*
X001668Y001131D01*
X001618Y001140D01*
X001570Y001153D01*
X001523Y001169D01*
X001477Y001190D01*
X001433Y001214D01*
X001391Y001241D01*
X001351Y001271D01*
X001314Y001305D01*
X001280Y001342D01*
X001248Y001381D01*
X001220Y001422D01*
X001195Y001466D01*
X001174Y001511D01*
X001157Y001558D01*
X001143Y001606D01*
X001133Y001655D01*
X001127Y001705D01*
X001125Y001755D01*
X001125Y020259D02*
X001127Y020309D01*
X001133Y020359D01*
X001143Y020408D01*
X001157Y020456D01*
X001174Y020503D01*
X001195Y020548D01*
X001220Y020592D01*
X001248Y020633D01*
X001280Y020672D01*
X001314Y020709D01*
X001351Y020743D01*
X001391Y020773D01*
X001433Y020800D01*
X001477Y020824D01*
X001523Y020845D01*
X001570Y020861D01*
X001618Y020874D01*
X001668Y020883D01*
X001717Y020888D01*
X001768Y020889D01*
X001818Y020886D01*
X001867Y020879D01*
X001916Y020868D01*
X001964Y020853D01*
X002010Y020835D01*
X002055Y020813D01*
X002098Y020787D01*
X002139Y020758D01*
X002178Y020726D01*
X002214Y020691D01*
X002246Y020653D01*
X002276Y020613D01*
X002303Y020570D01*
X002326Y020526D01*
X002345Y020480D01*
X002361Y020432D01*
X002373Y020383D01*
X002381Y020334D01*
X002385Y020284D01*
X002385Y020234D01*
X002381Y020184D01*
X002373Y020135D01*
X002361Y020086D01*
X002345Y020038D01*
X002326Y019992D01*
X002303Y019948D01*
X002276Y019905D01*
X002246Y019865D01*
X002214Y019827D01*
X002178Y019792D01*
X002139Y019760D01*
X002098Y019731D01*
X002055Y019705D01*
X002010Y019683D01*
X001964Y019665D01*
X001916Y019650D01*
X001867Y019639D01*
X001818Y019632D01*
X001768Y019629D01*
X001717Y019630D01*
X001668Y019635D01*
X001618Y019644D01*
X001570Y019657D01*
X001523Y019673D01*
X001477Y019694D01*
X001433Y019718D01*
X001391Y019745D01*
X001351Y019775D01*
X001314Y019809D01*
X001280Y019846D01*
X001248Y019885D01*
X001220Y019926D01*
X001195Y019970D01*
X001174Y020015D01*
X001157Y020062D01*
X001143Y020110D01*
X001133Y020159D01*
X001127Y020209D01*
X001125Y020259D01*
X029471Y020259D02*
X029473Y020309D01*
X029479Y020359D01*
X029489Y020408D01*
X029503Y020456D01*
X029520Y020503D01*
X029541Y020548D01*
X029566Y020592D01*
X029594Y020633D01*
X029626Y020672D01*
X029660Y020709D01*
X029697Y020743D01*
X029737Y020773D01*
X029779Y020800D01*
X029823Y020824D01*
X029869Y020845D01*
X029916Y020861D01*
X029964Y020874D01*
X030014Y020883D01*
X030063Y020888D01*
X030114Y020889D01*
X030164Y020886D01*
X030213Y020879D01*
X030262Y020868D01*
X030310Y020853D01*
X030356Y020835D01*
X030401Y020813D01*
X030444Y020787D01*
X030485Y020758D01*
X030524Y020726D01*
X030560Y020691D01*
X030592Y020653D01*
X030622Y020613D01*
X030649Y020570D01*
X030672Y020526D01*
X030691Y020480D01*
X030707Y020432D01*
X030719Y020383D01*
X030727Y020334D01*
X030731Y020284D01*
X030731Y020234D01*
X030727Y020184D01*
X030719Y020135D01*
X030707Y020086D01*
X030691Y020038D01*
X030672Y019992D01*
X030649Y019948D01*
X030622Y019905D01*
X030592Y019865D01*
X030560Y019827D01*
X030524Y019792D01*
X030485Y019760D01*
X030444Y019731D01*
X030401Y019705D01*
X030356Y019683D01*
X030310Y019665D01*
X030262Y019650D01*
X030213Y019639D01*
X030164Y019632D01*
X030114Y019629D01*
X030063Y019630D01*
X030014Y019635D01*
X029964Y019644D01*
X029916Y019657D01*
X029869Y019673D01*
X029823Y019694D01*
X029779Y019718D01*
X029737Y019745D01*
X029697Y019775D01*
X029660Y019809D01*
X029626Y019846D01*
X029594Y019885D01*
X029566Y019926D01*
X029541Y019970D01*
X029520Y020015D01*
X029503Y020062D01*
X029489Y020110D01*
X029479Y020159D01*
X029473Y020209D01*
X029471Y020259D01*
X029471Y001755D02*
X029473Y001805D01*
X029479Y001855D01*
X029489Y001904D01*
X029503Y001952D01*
X029520Y001999D01*
X029541Y002044D01*
X029566Y002088D01*
X029594Y002129D01*
X029626Y002168D01*
X029660Y002205D01*
X029697Y002239D01*
X029737Y002269D01*
X029779Y002296D01*
X029823Y002320D01*
X029869Y002341D01*
X029916Y002357D01*
X029964Y002370D01*
X030014Y002379D01*
X030063Y002384D01*
X030114Y002385D01*
X030164Y002382D01*
X030213Y002375D01*
X030262Y002364D01*
X030310Y002349D01*
X030356Y002331D01*
X030401Y002309D01*
X030444Y002283D01*
X030485Y002254D01*
X030524Y002222D01*
X030560Y002187D01*
X030592Y002149D01*
X030622Y002109D01*
X030649Y002066D01*
X030672Y002022D01*
X030691Y001976D01*
X030707Y001928D01*
X030719Y001879D01*
X030727Y001830D01*
X030731Y001780D01*
X030731Y001730D01*
X030727Y001680D01*
X030719Y001631D01*
X030707Y001582D01*
X030691Y001534D01*
X030672Y001488D01*
X030649Y001444D01*
X030622Y001401D01*
X030592Y001361D01*
X030560Y001323D01*
X030524Y001288D01*
X030485Y001256D01*
X030444Y001227D01*
X030401Y001201D01*
X030356Y001179D01*
X030310Y001161D01*
X030262Y001146D01*
X030213Y001135D01*
X030164Y001128D01*
X030114Y001125D01*
X030063Y001126D01*
X030014Y001131D01*
X029964Y001140D01*
X029916Y001153D01*
X029869Y001169D01*
X029823Y001190D01*
X029779Y001214D01*
X029737Y001241D01*
X029697Y001271D01*
X029660Y001305D01*
X029626Y001342D01*
X029594Y001381D01*
X029566Y001422D01*
X029541Y001466D01*
X029520Y001511D01*
X029503Y001558D01*
X029489Y001606D01*
X029479Y001655D01*
X029473Y001705D01*
X029471Y001755D01*
D11*
X030545Y003164D02*
X030545Y003349D01*
X030606Y003410D01*
X030730Y003410D01*
X030792Y003349D01*
X030792Y003164D01*
X030915Y003164D02*
X030545Y003164D01*
X030730Y003532D02*
X030853Y003532D01*
X030915Y003594D01*
X030915Y003717D01*
X030853Y003779D01*
X030730Y003779D01*
X030668Y003717D01*
X030668Y003594D01*
X030730Y003532D01*
X030668Y003900D02*
X030853Y003900D01*
X030915Y003962D01*
X030853Y004024D01*
X030915Y004085D01*
X030853Y004147D01*
X030668Y004147D01*
X030730Y004268D02*
X030668Y004330D01*
X030668Y004454D01*
X030730Y004515D01*
X030792Y004515D01*
X030792Y004268D01*
X030853Y004268D02*
X030730Y004268D01*
X030853Y004268D02*
X030915Y004330D01*
X030915Y004454D01*
X030915Y004637D02*
X030668Y004637D01*
X030668Y004760D02*
X030668Y004822D01*
X030668Y004760D02*
X030792Y004637D01*
X030853Y004944D02*
X030915Y005005D01*
X030915Y005129D01*
X030853Y005191D01*
X030730Y005191D01*
X030730Y005067D01*
X030853Y004944D02*
X030606Y004944D01*
X030545Y005005D01*
X030545Y005129D01*
X030606Y005191D01*
X030668Y005312D02*
X030668Y005374D01*
X030915Y005374D01*
X030915Y005435D02*
X030915Y005312D01*
X030853Y005558D02*
X030915Y005619D01*
X030915Y005804D01*
X030977Y005804D02*
X030668Y005804D01*
X030668Y005619D01*
X030730Y005558D01*
X030853Y005558D01*
X031038Y005681D02*
X031038Y005743D01*
X030977Y005804D01*
X030853Y006294D02*
X030915Y006356D01*
X030915Y006479D01*
X030853Y006541D01*
X030853Y006662D02*
X030915Y006724D01*
X030915Y006848D01*
X030853Y006909D01*
X030730Y006909D01*
X030668Y006848D01*
X030668Y006724D01*
X030730Y006662D01*
X030853Y006662D01*
X030606Y006541D02*
X030545Y006479D01*
X030545Y006356D01*
X030606Y006294D01*
X030853Y006294D01*
X030915Y007031D02*
X030668Y007031D01*
X030668Y007216D01*
X030730Y007278D01*
X030915Y007278D01*
X030853Y007461D02*
X030915Y007523D01*
X030853Y007461D02*
X030606Y007461D01*
X030668Y007399D02*
X030668Y007523D01*
X030668Y007645D02*
X030915Y007645D01*
X030792Y007645D02*
X030668Y007768D01*
X030668Y007830D01*
X030730Y007952D02*
X030853Y007952D01*
X030915Y008013D01*
X030915Y008137D01*
X030853Y008198D01*
X030730Y008198D01*
X030668Y008137D01*
X030668Y008013D01*
X030730Y007952D01*
X030915Y008320D02*
X030915Y008443D01*
X030915Y008382D02*
X030545Y008382D01*
X030545Y008320D01*
X030545Y008565D02*
X030545Y008627D01*
X030915Y008627D01*
X030915Y008565D02*
X030915Y008689D01*
X030853Y008811D02*
X030730Y008811D01*
X030668Y008873D01*
X030668Y008996D01*
X030730Y009058D01*
X030792Y009058D01*
X030792Y008811D01*
X030853Y008811D02*
X030915Y008873D01*
X030915Y008996D01*
X030915Y009179D02*
X030668Y009179D01*
X030792Y009179D02*
X030668Y009303D01*
X030668Y009364D01*
X030668Y009855D02*
X030915Y009978D01*
X030668Y010101D01*
X030606Y010223D02*
X030545Y010285D01*
X030545Y010408D01*
X030606Y010470D01*
X030853Y010223D01*
X030915Y010285D01*
X030915Y010408D01*
X030853Y010470D01*
X030606Y010470D01*
X030606Y010223D02*
X030853Y010223D01*
X030853Y010591D02*
X030853Y010653D01*
X030915Y010653D01*
X030915Y010591D01*
X030853Y010591D01*
X030915Y010775D02*
X030668Y011022D01*
X030606Y011022D01*
X030545Y010960D01*
X030545Y010837D01*
X030606Y010775D01*
X030915Y010775D02*
X030915Y011022D01*
X030915Y012195D02*
X030545Y012195D01*
X030668Y012195D02*
X030668Y012380D01*
X030730Y012442D01*
X030853Y012442D01*
X030915Y012380D01*
X030915Y012195D01*
X030853Y012563D02*
X030915Y012625D01*
X030915Y012810D01*
X030977Y012810D02*
X031038Y012748D01*
X031038Y012687D01*
X030977Y012810D02*
X030668Y012810D01*
X030668Y012563D02*
X030853Y012563D01*
X031038Y013300D02*
X031038Y013362D01*
X030977Y013423D01*
X030668Y013423D01*
X030545Y013423D02*
X030483Y013423D01*
X030668Y013607D02*
X030668Y013731D01*
X030730Y013792D01*
X030915Y013792D01*
X030915Y013607D01*
X030853Y013545D01*
X030792Y013607D01*
X030792Y013792D01*
X030853Y013914D02*
X030792Y013976D01*
X030792Y014161D01*
X030730Y014161D02*
X030915Y014161D01*
X030915Y013976D01*
X030853Y013914D01*
X030668Y013976D02*
X030668Y014099D01*
X030730Y014161D01*
X030668Y014282D02*
X030668Y014467D01*
X030730Y014529D01*
X030853Y014529D01*
X030915Y014467D01*
X030915Y014282D01*
X031038Y014282D02*
X030668Y014282D01*
X030668Y014650D02*
X030668Y014712D01*
X030915Y014712D01*
X030915Y014650D02*
X030915Y014774D01*
X030853Y014896D02*
X030915Y014958D01*
X030915Y015081D01*
X030792Y015143D02*
X030792Y014896D01*
X030853Y014896D02*
X030730Y014896D01*
X030668Y014958D01*
X030668Y015081D01*
X030730Y015143D01*
X030792Y015143D01*
X030545Y014712D02*
X030483Y014712D01*
X030730Y016001D02*
X030730Y016186D01*
X030792Y016248D01*
X030853Y016248D01*
X030915Y016186D01*
X030915Y016063D01*
X030853Y016001D01*
X030730Y016001D01*
X030606Y016124D01*
X030545Y016248D01*
X030730Y016369D02*
X030730Y016616D01*
X030606Y016738D02*
X030545Y016799D01*
X030545Y016923D01*
X030606Y016984D01*
X030668Y016984D01*
X030915Y016738D01*
X030915Y016984D01*
X030915Y017106D02*
X030915Y017353D01*
X030915Y017229D02*
X030545Y017229D01*
X030668Y017106D01*
X030730Y017474D02*
X030730Y017721D01*
X030668Y017842D02*
X030545Y017966D01*
X030915Y017966D01*
X030915Y018089D02*
X030915Y017842D01*
X030853Y018211D02*
X030792Y018211D01*
X030730Y018273D01*
X030730Y018396D01*
X030792Y018458D01*
X030853Y018458D01*
X030915Y018396D01*
X030915Y018273D01*
X030853Y018211D01*
X030730Y018273D02*
X030668Y018211D01*
X030606Y018211D01*
X030545Y018273D01*
X030545Y018396D01*
X030606Y018458D01*
X030668Y018458D01*
X030730Y018396D01*
X030545Y005374D02*
X030483Y005374D01*
D12*
X020677Y020950D02*
X020557Y021070D01*
X020617Y021070D02*
X020437Y021070D01*
X020437Y020950D02*
X020437Y021310D01*
X020617Y021310D01*
X020677Y021250D01*
X020677Y021130D01*
X020617Y021070D01*
X020309Y020950D02*
X020309Y021310D01*
X020068Y021310D02*
X020068Y020950D01*
X020188Y021070D01*
X020309Y020950D01*
X019940Y021130D02*
X019940Y021250D01*
X019880Y021310D01*
X019700Y021310D01*
X019700Y020950D01*
X019700Y021070D02*
X019880Y021070D01*
X019940Y021130D01*
X010028Y021027D02*
X010028Y021334D01*
X009951Y021410D01*
X009721Y021410D01*
X009721Y020950D01*
X009951Y020950D01*
X010028Y021027D01*
X009567Y020950D02*
X009567Y021410D01*
X009260Y021410D02*
X009567Y020950D01*
X009260Y020950D02*
X009260Y021410D01*
X009107Y021334D02*
X009030Y021410D01*
X008877Y021410D01*
X008800Y021334D01*
X008800Y021027D01*
X008877Y020950D01*
X009030Y020950D01*
X009107Y021027D01*
X009107Y021180D01*
X008953Y021180D01*
D13*
X009536Y019830D02*
X009936Y019830D01*
X009953Y019828D01*
X009970Y019824D01*
X009986Y019817D01*
X010000Y019807D01*
X010013Y019794D01*
X010023Y019780D01*
X010030Y019764D01*
X010034Y019747D01*
X010036Y019730D01*
X010036Y019130D01*
X010034Y019113D01*
X010030Y019096D01*
X010023Y019080D01*
X010013Y019066D01*
X010000Y019053D01*
X009986Y019043D01*
X009970Y019036D01*
X009953Y019032D01*
X009936Y019030D01*
X009536Y019030D01*
X009486Y019080D01*
X008374Y019080D01*
X008324Y019030D01*
X007924Y019030D01*
X007907Y019032D01*
X007890Y019036D01*
X007874Y019043D01*
X007860Y019053D01*
X007847Y019066D01*
X007837Y019080D01*
X007830Y019096D01*
X007826Y019113D01*
X007824Y019130D01*
X007824Y019730D01*
X007826Y019747D01*
X007830Y019764D01*
X007837Y019780D01*
X007847Y019794D01*
X007860Y019807D01*
X007874Y019817D01*
X007890Y019824D01*
X007907Y019828D01*
X007924Y019830D01*
X008324Y019830D01*
X008374Y019780D01*
X009486Y019780D01*
X009536Y019830D01*
X009601Y019650D02*
X009454Y019650D01*
X009381Y019577D01*
X009601Y019650D02*
X009674Y019577D01*
X009674Y019504D01*
X009381Y019210D01*
X009674Y019210D01*
X009536Y018830D02*
X009936Y018830D01*
X009953Y018828D01*
X009970Y018824D01*
X009986Y018817D01*
X010000Y018807D01*
X010013Y018794D01*
X010023Y018780D01*
X010030Y018764D01*
X010034Y018747D01*
X010036Y018730D01*
X010036Y018130D01*
X010034Y018113D01*
X010030Y018096D01*
X010023Y018080D01*
X010013Y018066D01*
X010000Y018053D01*
X009986Y018043D01*
X009970Y018036D01*
X009953Y018032D01*
X009936Y018030D01*
X009536Y018030D01*
X009486Y018080D01*
X008374Y018080D01*
X008324Y018030D01*
X007924Y018030D01*
X007907Y018032D01*
X007890Y018036D01*
X007874Y018043D01*
X007860Y018053D01*
X007847Y018066D01*
X007837Y018080D01*
X007830Y018096D01*
X007826Y018113D01*
X007824Y018130D01*
X007824Y018730D01*
X007826Y018747D01*
X007830Y018764D01*
X007837Y018780D01*
X007847Y018794D01*
X007860Y018807D01*
X007874Y018817D01*
X007890Y018824D01*
X007907Y018828D01*
X007924Y018830D01*
X008324Y018830D01*
X008374Y018780D01*
X009486Y018780D01*
X009536Y018830D01*
X009214Y018577D02*
X009141Y018650D01*
X008994Y018650D01*
X008920Y018577D01*
X008754Y018577D02*
X008754Y018430D01*
X008680Y018357D01*
X008460Y018357D01*
X008607Y018357D02*
X008754Y018210D01*
X008920Y018210D02*
X009214Y018504D01*
X009214Y018577D01*
X008754Y018577D02*
X008680Y018650D01*
X008460Y018650D01*
X008460Y018210D01*
X008324Y017830D02*
X007924Y017830D01*
X007907Y017828D01*
X007890Y017824D01*
X007874Y017817D01*
X007860Y017807D01*
X007847Y017794D01*
X007837Y017780D01*
X007830Y017764D01*
X007826Y017747D01*
X007824Y017730D01*
X007824Y017130D01*
X007826Y017113D01*
X007830Y017096D01*
X007837Y017080D01*
X007847Y017066D01*
X007860Y017053D01*
X007874Y017043D01*
X007890Y017036D01*
X007907Y017032D01*
X007924Y017030D01*
X008324Y017030D01*
X008374Y017080D01*
X009486Y017080D01*
X009536Y017030D01*
X009936Y017030D01*
X009953Y017032D01*
X009970Y017036D01*
X009986Y017043D01*
X010000Y017053D01*
X010013Y017066D01*
X010023Y017080D01*
X010030Y017096D01*
X010034Y017113D01*
X010036Y017130D01*
X010036Y017730D01*
X010034Y017747D01*
X010030Y017764D01*
X010023Y017780D01*
X010013Y017794D01*
X010000Y017807D01*
X009986Y017817D01*
X009970Y017824D01*
X009953Y017828D01*
X009936Y017830D01*
X009536Y017830D01*
X009486Y017780D01*
X008374Y017780D01*
X008324Y017830D01*
X008460Y017650D02*
X008680Y017650D01*
X008754Y017577D01*
X008754Y017430D01*
X008680Y017357D01*
X008460Y017357D01*
X008607Y017357D02*
X008754Y017210D01*
X008920Y017430D02*
X009214Y017430D01*
X009141Y017210D02*
X009141Y017650D01*
X008920Y017430D01*
X008460Y017210D02*
X008460Y017650D01*
X008920Y018210D02*
X009214Y018210D01*
X009214Y019210D02*
X008920Y019210D01*
X009067Y019210D02*
X009067Y019650D01*
X008920Y019504D01*
X008754Y019577D02*
X008680Y019650D01*
X008460Y019650D01*
X008460Y019210D01*
X008460Y019357D02*
X008680Y019357D01*
X008754Y019430D01*
X008754Y019577D01*
X008607Y019357D02*
X008754Y019210D01*
X011430Y019180D02*
X011430Y019680D01*
X011680Y019930D01*
X012180Y019930D01*
X012430Y019680D01*
X012430Y019180D01*
X012180Y018930D01*
X012430Y018680D01*
X012430Y018180D01*
X012180Y017930D01*
X011680Y017930D01*
X011430Y018180D01*
X011430Y018680D01*
X011680Y018930D01*
X011430Y019180D01*
X011680Y018930D02*
X012180Y018930D01*
X012180Y017930D02*
X012430Y017680D01*
X012430Y017180D01*
X012180Y016930D01*
X012430Y016680D01*
X012430Y016180D01*
X012180Y015930D01*
X012430Y015680D01*
X012430Y015180D01*
X012180Y014930D01*
X012430Y014680D01*
X012430Y014180D01*
X012180Y013930D01*
X011680Y013930D01*
X011430Y014180D01*
X011430Y014680D01*
X011680Y014930D01*
X011430Y015180D01*
X011430Y015680D01*
X011680Y015930D01*
X011430Y016180D01*
X011430Y016680D01*
X011680Y016930D01*
X011430Y017180D01*
X011430Y017680D01*
X011680Y017930D01*
X011680Y016930D02*
X012180Y016930D01*
X012180Y015930D02*
X011680Y015930D01*
X011680Y014930D02*
X012180Y014930D01*
X014030Y016174D02*
X014030Y016574D01*
X014080Y016624D01*
X014080Y017736D01*
X014030Y017786D01*
X014030Y018186D01*
X014032Y018203D01*
X014036Y018220D01*
X014043Y018236D01*
X014053Y018250D01*
X014066Y018263D01*
X014080Y018273D01*
X014096Y018280D01*
X014113Y018284D01*
X014130Y018286D01*
X014730Y018286D01*
X014747Y018284D01*
X014764Y018280D01*
X014780Y018273D01*
X014794Y018263D01*
X014807Y018250D01*
X014817Y018236D01*
X014824Y018220D01*
X014828Y018203D01*
X014830Y018186D01*
X014830Y017786D01*
X014780Y017736D01*
X014780Y016624D01*
X014830Y016574D01*
X014830Y016174D01*
X014828Y016157D01*
X014824Y016140D01*
X014817Y016124D01*
X014807Y016110D01*
X014794Y016097D01*
X014780Y016087D01*
X014764Y016080D01*
X014747Y016076D01*
X014730Y016074D01*
X014130Y016074D01*
X014113Y016076D01*
X014096Y016080D01*
X014080Y016087D01*
X014066Y016097D01*
X014053Y016110D01*
X014043Y016124D01*
X014036Y016140D01*
X014032Y016157D01*
X014030Y016174D01*
X014210Y016329D02*
X014210Y016549D01*
X014283Y016622D01*
X014430Y016622D01*
X014503Y016549D01*
X014503Y016329D01*
X014503Y016476D02*
X014650Y016622D01*
X014650Y016789D02*
X014650Y017083D01*
X014650Y016936D02*
X014210Y016936D01*
X014356Y016789D01*
X014430Y017250D02*
X014210Y017250D01*
X014210Y017543D01*
X014356Y017470D02*
X014430Y017543D01*
X014577Y017543D01*
X014650Y017470D01*
X014650Y017323D01*
X014577Y017250D01*
X014430Y017250D02*
X014356Y017396D01*
X014356Y017470D01*
X015030Y017786D02*
X015080Y017736D01*
X015080Y016624D01*
X015030Y016574D01*
X015030Y016174D01*
X015032Y016157D01*
X015036Y016140D01*
X015043Y016124D01*
X015053Y016110D01*
X015066Y016097D01*
X015080Y016087D01*
X015096Y016080D01*
X015113Y016076D01*
X015130Y016074D01*
X015730Y016074D01*
X015747Y016076D01*
X015764Y016080D01*
X015780Y016087D01*
X015794Y016097D01*
X015807Y016110D01*
X015817Y016124D01*
X015824Y016140D01*
X015828Y016157D01*
X015830Y016174D01*
X015830Y016574D01*
X015780Y016624D01*
X015780Y017736D01*
X015830Y017786D01*
X015830Y018186D01*
X015828Y018203D01*
X015824Y018220D01*
X015817Y018236D01*
X015807Y018250D01*
X015794Y018263D01*
X015780Y018273D01*
X015764Y018280D01*
X015747Y018284D01*
X015730Y018286D01*
X015130Y018286D01*
X015113Y018284D01*
X015096Y018280D01*
X015080Y018273D01*
X015066Y018263D01*
X015053Y018250D01*
X015043Y018236D01*
X015036Y018220D01*
X015032Y018203D01*
X015030Y018186D01*
X015030Y017786D01*
X015210Y017470D02*
X015430Y017250D01*
X015430Y017543D01*
X015650Y017470D02*
X015210Y017470D01*
X015650Y017083D02*
X015650Y016789D01*
X015650Y016936D02*
X015210Y016936D01*
X015356Y016789D01*
X015283Y016622D02*
X015430Y016622D01*
X015503Y016549D01*
X015503Y016329D01*
X015503Y016476D02*
X015650Y016622D01*
X015650Y016329D02*
X015210Y016329D01*
X015210Y016549D01*
X015283Y016622D01*
X014650Y016329D02*
X014210Y016329D01*
X016030Y016174D02*
X016030Y016574D01*
X016080Y016624D01*
X016080Y017736D01*
X016030Y017786D01*
X016030Y018186D01*
X016032Y018203D01*
X016036Y018220D01*
X016043Y018236D01*
X016053Y018250D01*
X016066Y018263D01*
X016080Y018273D01*
X016096Y018280D01*
X016113Y018284D01*
X016130Y018286D01*
X016730Y018286D01*
X016747Y018284D01*
X016764Y018280D01*
X016780Y018273D01*
X016794Y018263D01*
X016807Y018250D01*
X016817Y018236D01*
X016824Y018220D01*
X016828Y018203D01*
X016830Y018186D01*
X016830Y017786D01*
X016780Y017736D01*
X016780Y016624D01*
X016830Y016574D01*
X016830Y016174D01*
X016828Y016157D01*
X016824Y016140D01*
X016817Y016124D01*
X016807Y016110D01*
X016794Y016097D01*
X016780Y016087D01*
X016764Y016080D01*
X016747Y016076D01*
X016730Y016074D01*
X016130Y016074D01*
X016113Y016076D01*
X016096Y016080D01*
X016080Y016087D01*
X016066Y016097D01*
X016053Y016110D01*
X016043Y016124D01*
X016036Y016140D01*
X016032Y016157D01*
X016030Y016174D01*
X016210Y016329D02*
X016210Y016549D01*
X016283Y016622D01*
X016430Y016622D01*
X016503Y016549D01*
X016503Y016329D01*
X016503Y016476D02*
X016650Y016622D01*
X016650Y016789D02*
X016650Y017083D01*
X016650Y016936D02*
X016210Y016936D01*
X016356Y016789D01*
X016283Y017250D02*
X016210Y017323D01*
X016210Y017470D01*
X016283Y017543D01*
X016356Y017543D01*
X016430Y017470D01*
X016503Y017543D01*
X016577Y017543D01*
X016650Y017470D01*
X016650Y017323D01*
X016577Y017250D01*
X016430Y017396D02*
X016430Y017470D01*
X016650Y016329D02*
X016210Y016329D01*
X016680Y014430D02*
X016430Y014180D01*
X016430Y013680D01*
X016680Y013430D01*
X017180Y013430D01*
X017430Y013680D01*
X017680Y013430D01*
X018180Y013430D01*
X018430Y013680D01*
X018430Y014180D01*
X018180Y014430D01*
X017680Y014430D01*
X017430Y014180D01*
X017430Y013680D01*
X017430Y014180D02*
X017180Y014430D01*
X016680Y014430D01*
X018430Y014180D02*
X018680Y014430D01*
X019180Y014430D01*
X019430Y014180D01*
X019680Y014430D01*
X020180Y014430D01*
X020430Y014180D01*
X020430Y013680D01*
X020180Y013430D01*
X019680Y013430D01*
X019430Y013680D01*
X019180Y013430D01*
X018680Y013430D01*
X018430Y013680D01*
X019430Y013680D02*
X019430Y014180D01*
X020033Y016160D02*
X020180Y016160D01*
X020254Y016233D01*
X020420Y016233D02*
X020420Y016380D01*
X020641Y016380D01*
X020714Y016307D01*
X020714Y016233D01*
X020641Y016160D01*
X020494Y016160D01*
X020420Y016233D01*
X020420Y016380D02*
X020567Y016527D01*
X020714Y016600D01*
X019446Y016930D02*
X019448Y016992D01*
X019454Y017055D01*
X019464Y017116D01*
X019478Y017177D01*
X019495Y017237D01*
X019516Y017296D01*
X019542Y017353D01*
X019570Y017408D01*
X019602Y017462D01*
X019638Y017513D01*
X019676Y017563D01*
X019718Y017609D01*
X019762Y017653D01*
X019810Y017694D01*
X019859Y017732D01*
X019911Y017766D01*
X019965Y017797D01*
X020021Y017825D01*
X020079Y017849D01*
X020138Y017870D01*
X020198Y017886D01*
X020259Y017899D01*
X020321Y017908D01*
X020383Y017913D01*
X020446Y017914D01*
X020508Y017911D01*
X020570Y017904D01*
X020632Y017893D01*
X020692Y017878D01*
X020752Y017860D01*
X020810Y017838D01*
X020867Y017812D01*
X020922Y017782D01*
X020975Y017749D01*
X021026Y017713D01*
X021074Y017674D01*
X021120Y017631D01*
X021163Y017586D01*
X021203Y017538D01*
X021240Y017488D01*
X021274Y017435D01*
X021305Y017381D01*
X021331Y017325D01*
X021355Y017267D01*
X021374Y017207D01*
X021390Y017147D01*
X021402Y017085D01*
X021410Y017024D01*
X021414Y016961D01*
X021414Y016899D01*
X021410Y016836D01*
X021402Y016775D01*
X021390Y016713D01*
X021374Y016653D01*
X021355Y016593D01*
X021331Y016535D01*
X021305Y016479D01*
X021274Y016425D01*
X021240Y016372D01*
X021203Y016322D01*
X021163Y016274D01*
X021120Y016229D01*
X021074Y016186D01*
X021026Y016147D01*
X020975Y016111D01*
X020922Y016078D01*
X020867Y016048D01*
X020810Y016022D01*
X020752Y016000D01*
X020692Y015982D01*
X020632Y015967D01*
X020570Y015956D01*
X020508Y015949D01*
X020446Y015946D01*
X020383Y015947D01*
X020321Y015952D01*
X020259Y015961D01*
X020198Y015974D01*
X020138Y015990D01*
X020079Y016011D01*
X020021Y016035D01*
X019965Y016063D01*
X019911Y016094D01*
X019859Y016128D01*
X019810Y016166D01*
X019762Y016207D01*
X019718Y016251D01*
X019676Y016297D01*
X019638Y016347D01*
X019602Y016398D01*
X019570Y016452D01*
X019542Y016507D01*
X019516Y016564D01*
X019495Y016623D01*
X019478Y016683D01*
X019464Y016744D01*
X019454Y016805D01*
X019448Y016868D01*
X019446Y016930D01*
X019960Y016527D02*
X019960Y016233D01*
X020033Y016160D01*
X019960Y016527D02*
X020033Y016600D01*
X020180Y016600D01*
X020254Y016527D01*
X019980Y017340D02*
X019980Y017590D01*
X020110Y017470D02*
X019850Y017470D01*
X016930Y019680D02*
X016680Y019430D01*
X016180Y019430D01*
X015930Y019680D01*
X015680Y019430D01*
X015180Y019430D01*
X014930Y019680D01*
X014680Y019430D01*
X014180Y019430D01*
X013930Y019680D01*
X013930Y020180D01*
X014180Y020430D01*
X014680Y020430D01*
X014930Y020180D01*
X015180Y020430D01*
X015680Y020430D01*
X015930Y020180D01*
X016180Y020430D01*
X016680Y020430D01*
X016930Y020180D01*
X016930Y019680D01*
X015930Y019680D02*
X015930Y020180D01*
X014930Y020180D02*
X014930Y019680D01*
X010036Y016730D02*
X010036Y016130D01*
X010034Y016113D01*
X010030Y016096D01*
X010023Y016080D01*
X010013Y016066D01*
X010000Y016053D01*
X009986Y016043D01*
X009970Y016036D01*
X009953Y016032D01*
X009936Y016030D01*
X009536Y016030D01*
X009486Y016080D01*
X008374Y016080D01*
X008324Y016030D01*
X007924Y016030D01*
X007907Y016032D01*
X007890Y016036D01*
X007874Y016043D01*
X007860Y016053D01*
X007847Y016066D01*
X007837Y016080D01*
X007830Y016096D01*
X007826Y016113D01*
X007824Y016130D01*
X007824Y016730D01*
X007826Y016747D01*
X007830Y016764D01*
X007837Y016780D01*
X007847Y016794D01*
X007860Y016807D01*
X007874Y016817D01*
X007890Y016824D01*
X007907Y016828D01*
X007924Y016830D01*
X008324Y016830D01*
X008374Y016780D01*
X009486Y016780D01*
X009536Y016830D01*
X009936Y016830D01*
X009953Y016828D01*
X009970Y016824D01*
X009986Y016817D01*
X010000Y016807D01*
X010013Y016794D01*
X010023Y016780D01*
X010030Y016764D01*
X010034Y016747D01*
X010036Y016730D01*
X009214Y016650D02*
X009067Y016577D01*
X008920Y016430D01*
X009141Y016430D01*
X009214Y016357D01*
X009214Y016283D01*
X009141Y016210D01*
X008994Y016210D01*
X008920Y016283D01*
X008920Y016430D01*
X008754Y016430D02*
X008754Y016577D01*
X008680Y016650D01*
X008460Y016650D01*
X008460Y016210D01*
X008460Y016357D02*
X008680Y016357D01*
X008754Y016430D01*
X008607Y016357D02*
X008754Y016210D01*
X008680Y015650D02*
X008460Y015650D01*
X008460Y015210D01*
X008460Y015357D02*
X008680Y015357D01*
X008754Y015430D01*
X008754Y015577D01*
X008680Y015650D01*
X008920Y015577D02*
X008920Y015504D01*
X008994Y015430D01*
X009141Y015430D01*
X009214Y015357D01*
X009214Y015283D01*
X009141Y015210D01*
X008994Y015210D01*
X008920Y015283D01*
X008920Y015357D01*
X008994Y015430D01*
X009141Y015430D02*
X009214Y015504D01*
X009214Y015577D01*
X009141Y015650D01*
X008994Y015650D01*
X008920Y015577D01*
X008607Y015357D02*
X008754Y015210D01*
X008374Y015080D02*
X009486Y015080D01*
X009536Y015030D01*
X009936Y015030D01*
X009953Y015032D01*
X009970Y015036D01*
X009986Y015043D01*
X010000Y015053D01*
X010013Y015066D01*
X010023Y015080D01*
X010030Y015096D01*
X010034Y015113D01*
X010036Y015130D01*
X010036Y015730D01*
X010034Y015747D01*
X010030Y015764D01*
X010023Y015780D01*
X010013Y015794D01*
X010000Y015807D01*
X009986Y015817D01*
X009970Y015824D01*
X009953Y015828D01*
X009936Y015830D01*
X009536Y015830D01*
X009486Y015780D01*
X008374Y015780D01*
X008324Y015830D01*
X007924Y015830D01*
X007907Y015828D01*
X007890Y015824D01*
X007874Y015817D01*
X007860Y015807D01*
X007847Y015794D01*
X007837Y015780D01*
X007830Y015764D01*
X007826Y015747D01*
X007824Y015730D01*
X007824Y015130D01*
X007826Y015113D01*
X007830Y015096D01*
X007837Y015080D01*
X007847Y015066D01*
X007860Y015053D01*
X007874Y015043D01*
X007890Y015036D01*
X007907Y015032D01*
X007924Y015030D01*
X008324Y015030D01*
X008374Y015080D01*
X008324Y014830D02*
X008374Y014780D01*
X009486Y014780D01*
X009536Y014830D01*
X009936Y014830D01*
X009953Y014828D01*
X009970Y014824D01*
X009986Y014817D01*
X010000Y014807D01*
X010013Y014794D01*
X010023Y014780D01*
X010030Y014764D01*
X010034Y014747D01*
X010036Y014730D01*
X010036Y014130D01*
X010034Y014113D01*
X010030Y014096D01*
X010023Y014080D01*
X010013Y014066D01*
X010000Y014053D01*
X009986Y014043D01*
X009970Y014036D01*
X009953Y014032D01*
X009936Y014030D01*
X009536Y014030D01*
X009486Y014080D01*
X008374Y014080D01*
X008324Y014030D01*
X007924Y014030D01*
X007907Y014032D01*
X007890Y014036D01*
X007874Y014043D01*
X007860Y014053D01*
X007847Y014066D01*
X007837Y014080D01*
X007830Y014096D01*
X007826Y014113D01*
X007824Y014130D01*
X007824Y014730D01*
X007826Y014747D01*
X007830Y014764D01*
X007837Y014780D01*
X007847Y014794D01*
X007860Y014807D01*
X007874Y014817D01*
X007890Y014824D01*
X007907Y014828D01*
X007924Y014830D01*
X008324Y014830D01*
X008460Y014650D02*
X008680Y014650D01*
X008754Y014577D01*
X008754Y014430D01*
X008680Y014357D01*
X008460Y014357D01*
X008607Y014357D02*
X008754Y014210D01*
X008920Y014210D02*
X009214Y014210D01*
X009067Y014210D02*
X009067Y014650D01*
X008920Y014504D01*
X009381Y014577D02*
X009381Y014283D01*
X009674Y014577D01*
X009674Y014283D01*
X009601Y014210D01*
X009454Y014210D01*
X009381Y014283D01*
X009381Y014577D02*
X009454Y014650D01*
X009601Y014650D01*
X009674Y014577D01*
X008460Y014650D02*
X008460Y014210D01*
X009230Y012572D02*
X009230Y011288D01*
X009433Y011589D02*
X009360Y011663D01*
X009360Y011809D01*
X009433Y011883D01*
X009727Y011883D01*
X009800Y011809D01*
X009800Y011663D01*
X009727Y011589D01*
X009433Y011589D01*
X009653Y011736D02*
X009800Y011883D01*
X009580Y012050D02*
X009580Y012343D01*
X009800Y012270D02*
X009360Y012270D01*
X009580Y012050D01*
X011230Y012572D02*
X011230Y011288D01*
X011433Y011589D02*
X011360Y011663D01*
X011360Y011809D01*
X011433Y011883D01*
X011727Y011883D01*
X011800Y011809D01*
X011800Y011663D01*
X011727Y011589D01*
X011433Y011589D01*
X011653Y011736D02*
X011800Y011883D01*
X011727Y012050D02*
X011800Y012123D01*
X011800Y012270D01*
X011727Y012343D01*
X011580Y012343D01*
X011506Y012270D01*
X011506Y012196D01*
X011580Y012050D01*
X011360Y012050D01*
X011360Y012343D01*
X013930Y012180D02*
X013930Y011680D01*
X014180Y011430D01*
X014680Y011430D01*
X014930Y011680D01*
X014930Y012180D01*
X014680Y012430D01*
X014930Y012680D01*
X014930Y013180D01*
X014680Y013430D01*
X014180Y013430D01*
X013930Y013180D01*
X013930Y012680D01*
X014180Y012430D01*
X014680Y012430D01*
X014180Y012430D02*
X013930Y012180D01*
X014180Y011430D02*
X013930Y011180D01*
X013930Y010680D01*
X014180Y010430D01*
X014680Y010430D01*
X014930Y010680D01*
X014930Y011180D01*
X014680Y011430D01*
X017280Y011432D02*
X018030Y011432D01*
X018032Y011393D01*
X018038Y011354D01*
X018047Y011316D01*
X018060Y011279D01*
X018077Y011243D01*
X018097Y011210D01*
X018121Y011178D01*
X018147Y011149D01*
X018176Y011123D01*
X018208Y011099D01*
X018241Y011079D01*
X018277Y011062D01*
X018314Y011049D01*
X018352Y011040D01*
X018391Y011034D01*
X018430Y011032D01*
X018469Y011034D01*
X018508Y011040D01*
X018546Y011049D01*
X018583Y011062D01*
X018619Y011079D01*
X018652Y011099D01*
X018684Y011123D01*
X018713Y011149D01*
X018739Y011178D01*
X018763Y011210D01*
X018783Y011243D01*
X018800Y011279D01*
X018813Y011316D01*
X018822Y011354D01*
X018828Y011393D01*
X018830Y011432D01*
X019580Y011432D01*
X019580Y001432D01*
X017280Y001432D01*
X017280Y011432D01*
X017445Y011930D02*
X017447Y011976D01*
X017452Y012022D01*
X017461Y012068D01*
X017474Y012113D01*
X017490Y012156D01*
X017509Y012198D01*
X017532Y012239D01*
X017558Y012277D01*
X017587Y012314D01*
X017618Y012348D01*
X017652Y012379D01*
X017689Y012408D01*
X017727Y012434D01*
X017768Y012457D01*
X017810Y012476D01*
X017853Y012492D01*
X017898Y012505D01*
X017944Y012514D01*
X017990Y012519D01*
X018036Y012521D01*
X017445Y011930D02*
X017447Y011884D01*
X017452Y011838D01*
X017461Y011792D01*
X017474Y011747D01*
X017490Y011704D01*
X017509Y011662D01*
X017532Y011621D01*
X017558Y011583D01*
X017587Y011546D01*
X017618Y011512D01*
X017652Y011481D01*
X017689Y011452D01*
X017727Y011426D01*
X017768Y011403D01*
X017810Y011384D01*
X017853Y011368D01*
X017898Y011355D01*
X017944Y011346D01*
X017990Y011341D01*
X018036Y011339D01*
X018824Y012521D02*
X018870Y012519D01*
X018916Y012514D01*
X018962Y012505D01*
X019007Y012492D01*
X019050Y012476D01*
X019092Y012457D01*
X019133Y012434D01*
X019171Y012408D01*
X019208Y012379D01*
X019242Y012348D01*
X019273Y012314D01*
X019302Y012277D01*
X019328Y012239D01*
X019351Y012198D01*
X019370Y012156D01*
X019386Y012113D01*
X019399Y012068D01*
X019408Y012022D01*
X019413Y011976D01*
X019415Y011930D01*
X019413Y011884D01*
X019408Y011838D01*
X019399Y011792D01*
X019386Y011747D01*
X019370Y011704D01*
X019351Y011662D01*
X019328Y011621D01*
X019302Y011583D01*
X019273Y011546D01*
X019242Y011512D01*
X019208Y011481D01*
X019171Y011452D01*
X019133Y011426D01*
X019092Y011403D01*
X019050Y011384D01*
X019007Y011368D01*
X018962Y011355D01*
X018916Y011346D01*
X018870Y011341D01*
X018824Y011339D01*
X015680Y008430D02*
X015180Y008430D01*
X014930Y008180D01*
X014930Y007680D01*
X015180Y007430D01*
X014930Y007180D01*
X014930Y006680D01*
X015180Y006430D01*
X015680Y006430D01*
X015930Y006680D01*
X015930Y007180D01*
X015680Y007430D01*
X015180Y007430D01*
X015680Y007430D02*
X015930Y007680D01*
X015930Y008180D01*
X015680Y008430D01*
X013930Y008180D02*
X013930Y007680D01*
X013680Y007430D01*
X013930Y007180D01*
X013930Y006680D01*
X013680Y006430D01*
X013930Y006180D01*
X013930Y005680D01*
X013680Y005430D01*
X013930Y005180D01*
X013930Y004680D01*
X013680Y004430D01*
X013930Y004180D01*
X013930Y003680D01*
X013680Y003430D01*
X013180Y003430D01*
X012930Y003680D01*
X012930Y004180D01*
X013180Y004430D01*
X012930Y004680D01*
X012930Y005180D01*
X013180Y005430D01*
X013680Y005430D01*
X013180Y005430D02*
X012930Y005680D01*
X012930Y006180D01*
X013180Y006430D01*
X012930Y006680D01*
X012930Y007180D01*
X013180Y007430D01*
X012930Y007680D01*
X012930Y008180D01*
X013180Y008430D01*
X013680Y008430D01*
X013930Y008180D01*
X013680Y007430D02*
X013180Y007430D01*
X013180Y006430D02*
X013680Y006430D01*
X014930Y006180D02*
X014930Y005680D01*
X015180Y005430D01*
X014930Y005180D01*
X014930Y004680D01*
X015180Y004430D01*
X014930Y004180D01*
X014930Y003680D01*
X015180Y003430D01*
X014930Y003180D01*
X014930Y002680D01*
X015180Y002430D01*
X015680Y002430D01*
X015930Y002680D01*
X015930Y003180D01*
X015680Y003430D01*
X015180Y003430D01*
X015680Y003430D02*
X015930Y003680D01*
X015930Y004180D01*
X015680Y004430D01*
X015180Y004430D01*
X015680Y004430D02*
X015930Y004680D01*
X015930Y005180D01*
X015680Y005430D01*
X015180Y005430D01*
X015680Y005430D02*
X015930Y005680D01*
X015930Y006180D01*
X015680Y006430D01*
X015180Y006430D02*
X014930Y006180D01*
X013680Y004430D02*
X013180Y004430D01*
X011430Y004180D02*
X011430Y003680D01*
X011180Y003430D01*
X011430Y003180D01*
X011430Y002680D01*
X011180Y002430D01*
X010680Y002430D01*
X010430Y002680D01*
X010430Y003180D01*
X010680Y003430D01*
X010430Y003680D01*
X010430Y004180D01*
X010680Y004430D01*
X010430Y004680D01*
X010430Y005180D01*
X010680Y005430D01*
X010430Y005680D01*
X010430Y006180D01*
X010680Y006430D01*
X010430Y006680D01*
X010430Y007180D01*
X010680Y007430D01*
X010430Y007680D01*
X010430Y008180D01*
X010680Y008430D01*
X011180Y008430D01*
X011430Y008180D01*
X011430Y007680D01*
X011180Y007430D01*
X011430Y007180D01*
X011430Y006680D01*
X011180Y006430D01*
X010680Y006430D01*
X011180Y006430D02*
X011430Y006180D01*
X011430Y005680D01*
X011180Y005430D01*
X011430Y005180D01*
X011430Y004680D01*
X011180Y004430D01*
X011430Y004180D01*
X011180Y004430D02*
X010680Y004430D01*
X010680Y005430D02*
X011180Y005430D01*
X011180Y003430D02*
X010680Y003430D01*
X008430Y002430D02*
X008430Y001930D01*
X008180Y001680D01*
X007680Y001680D01*
X007430Y001930D01*
X007180Y001680D01*
X006680Y001680D01*
X006430Y001930D01*
X006180Y001680D01*
X005680Y001680D01*
X005430Y001930D01*
X005430Y002430D01*
X005680Y002680D01*
X006180Y002680D01*
X006430Y002430D01*
X006680Y002680D01*
X007180Y002680D01*
X007430Y002430D01*
X007680Y002680D01*
X008180Y002680D01*
X008430Y002430D01*
X007430Y002430D02*
X007430Y001930D01*
X006430Y001930D02*
X006430Y002430D01*
X010680Y007430D02*
X011180Y007430D01*
X007230Y011288D02*
X007230Y012572D01*
X007433Y012343D02*
X007506Y012343D01*
X007580Y012270D01*
X007653Y012343D01*
X007727Y012343D01*
X007800Y012270D01*
X007800Y012123D01*
X007727Y012050D01*
X007727Y011883D02*
X007433Y011883D01*
X007360Y011809D01*
X007360Y011663D01*
X007433Y011589D01*
X007727Y011589D01*
X007800Y011663D01*
X007800Y011809D01*
X007727Y011883D01*
X007800Y011883D02*
X007653Y011736D01*
X007433Y012050D02*
X007360Y012123D01*
X007360Y012270D01*
X007433Y012343D01*
X007580Y012270D02*
X007580Y012196D01*
X005800Y012050D02*
X005506Y012343D01*
X005433Y012343D01*
X005360Y012270D01*
X005360Y012123D01*
X005433Y012050D01*
X005433Y011883D02*
X005360Y011809D01*
X005360Y011663D01*
X005433Y011589D01*
X005727Y011589D01*
X005800Y011663D01*
X005800Y011809D01*
X005727Y011883D01*
X005433Y011883D01*
X005653Y011736D02*
X005800Y011883D01*
X005800Y012050D02*
X005800Y012343D01*
X005230Y012572D02*
X005230Y011288D01*
X003800Y011663D02*
X003727Y011589D01*
X003433Y011589D01*
X003360Y011663D01*
X003360Y011809D01*
X003433Y011883D01*
X003727Y011883D01*
X003800Y011809D01*
X003800Y011663D01*
X003653Y011736D02*
X003800Y011883D01*
X003800Y012050D02*
X003800Y012343D01*
X003800Y012196D02*
X003360Y012196D01*
X003506Y012050D01*
X003230Y012572D02*
X003230Y011288D01*
X001800Y011663D02*
X001727Y011589D01*
X001433Y011589D01*
X001360Y011663D01*
X001360Y011809D01*
X001433Y011883D01*
X001727Y011883D01*
X001800Y011809D01*
X001800Y011663D01*
X001653Y011736D02*
X001800Y011883D01*
X001727Y012050D02*
X001580Y012050D01*
X001580Y012270D01*
X001653Y012343D01*
X001727Y012343D01*
X001800Y012270D01*
X001800Y012123D01*
X001727Y012050D01*
X001580Y012050D02*
X001433Y012196D01*
X001360Y012343D01*
X001230Y012572D02*
X001230Y011288D01*
X003924Y014030D02*
X004324Y014030D01*
X004374Y014080D01*
X005486Y014080D01*
X005536Y014030D01*
X005936Y014030D01*
X005953Y014032D01*
X005970Y014036D01*
X005986Y014043D01*
X006000Y014053D01*
X006013Y014066D01*
X006023Y014080D01*
X006030Y014096D01*
X006034Y014113D01*
X006036Y014130D01*
X006036Y014730D01*
X006034Y014747D01*
X006030Y014764D01*
X006023Y014780D01*
X006013Y014794D01*
X006000Y014807D01*
X005986Y014817D01*
X005970Y014824D01*
X005953Y014828D01*
X005936Y014830D01*
X005536Y014830D01*
X005486Y014780D01*
X004374Y014780D01*
X004324Y014830D01*
X003924Y014830D01*
X003907Y014828D01*
X003890Y014824D01*
X003874Y014817D01*
X003860Y014807D01*
X003847Y014794D01*
X003837Y014780D01*
X003830Y014764D01*
X003826Y014747D01*
X003824Y014730D01*
X003824Y014130D01*
X003826Y014113D01*
X003830Y014096D01*
X003837Y014080D01*
X003847Y014066D01*
X003860Y014053D01*
X003874Y014043D01*
X003890Y014036D01*
X003907Y014032D01*
X003924Y014030D01*
X004539Y014210D02*
X004539Y014650D01*
X004759Y014650D01*
X004833Y014577D01*
X004833Y014430D01*
X004759Y014357D01*
X004539Y014357D01*
X004686Y014357D02*
X004833Y014210D01*
X005000Y014283D02*
X005073Y014210D01*
X005220Y014210D01*
X005293Y014283D01*
X005293Y014577D01*
X005220Y014650D01*
X005073Y014650D01*
X005000Y014577D01*
X005000Y014504D01*
X005073Y014430D01*
X005293Y014430D01*
X005536Y015030D02*
X005486Y015080D01*
X004374Y015080D01*
X004324Y015030D01*
X003924Y015030D01*
X003907Y015032D01*
X003890Y015036D01*
X003874Y015043D01*
X003860Y015053D01*
X003847Y015066D01*
X003837Y015080D01*
X003830Y015096D01*
X003826Y015113D01*
X003824Y015130D01*
X003824Y015730D01*
X003826Y015747D01*
X003830Y015764D01*
X003837Y015780D01*
X003847Y015794D01*
X003860Y015807D01*
X003874Y015817D01*
X003890Y015824D01*
X003907Y015828D01*
X003924Y015830D01*
X004324Y015830D01*
X004374Y015780D01*
X005486Y015780D01*
X005536Y015830D01*
X005936Y015830D01*
X005953Y015828D01*
X005970Y015824D01*
X005986Y015817D01*
X006000Y015807D01*
X006013Y015794D01*
X006023Y015780D01*
X006030Y015764D01*
X006034Y015747D01*
X006036Y015730D01*
X006036Y015130D01*
X006034Y015113D01*
X006030Y015096D01*
X006023Y015080D01*
X006013Y015066D01*
X006000Y015053D01*
X005986Y015043D01*
X005970Y015036D01*
X005953Y015032D01*
X005936Y015030D01*
X005536Y015030D01*
X005000Y015210D02*
X005000Y015283D01*
X005293Y015577D01*
X005293Y015650D01*
X005000Y015650D01*
X004833Y015577D02*
X004833Y015430D01*
X004759Y015357D01*
X004539Y015357D01*
X004539Y015210D02*
X004539Y015650D01*
X004759Y015650D01*
X004833Y015577D01*
X004686Y015357D02*
X004833Y015210D01*
X004324Y016030D02*
X003924Y016030D01*
X003907Y016032D01*
X003890Y016036D01*
X003874Y016043D01*
X003860Y016053D01*
X003847Y016066D01*
X003837Y016080D01*
X003830Y016096D01*
X003826Y016113D01*
X003824Y016130D01*
X003824Y016730D01*
X003826Y016747D01*
X003830Y016764D01*
X003837Y016780D01*
X003847Y016794D01*
X003860Y016807D01*
X003874Y016817D01*
X003890Y016824D01*
X003907Y016828D01*
X003924Y016830D01*
X004324Y016830D01*
X004374Y016780D01*
X005486Y016780D01*
X005536Y016830D01*
X005936Y016830D01*
X005953Y016828D01*
X005970Y016824D01*
X005986Y016817D01*
X006000Y016807D01*
X006013Y016794D01*
X006023Y016780D01*
X006030Y016764D01*
X006034Y016747D01*
X006036Y016730D01*
X006036Y016130D01*
X006034Y016113D01*
X006030Y016096D01*
X006023Y016080D01*
X006013Y016066D01*
X006000Y016053D01*
X005986Y016043D01*
X005970Y016036D01*
X005953Y016032D01*
X005936Y016030D01*
X005536Y016030D01*
X005486Y016080D01*
X004374Y016080D01*
X004324Y016030D01*
X004539Y016210D02*
X004539Y016650D01*
X004759Y016650D01*
X004833Y016577D01*
X004833Y016430D01*
X004759Y016357D01*
X004539Y016357D01*
X004686Y016357D02*
X004833Y016210D01*
X005000Y016283D02*
X005073Y016210D01*
X005220Y016210D01*
X005293Y016283D01*
X005293Y016430D01*
X005220Y016504D01*
X005146Y016504D01*
X005000Y016430D01*
X005000Y016650D01*
X005293Y016650D01*
X005536Y017030D02*
X005486Y017080D01*
X004374Y017080D01*
X004324Y017030D01*
X003924Y017030D01*
X003907Y017032D01*
X003890Y017036D01*
X003874Y017043D01*
X003860Y017053D01*
X003847Y017066D01*
X003837Y017080D01*
X003830Y017096D01*
X003826Y017113D01*
X003824Y017130D01*
X003824Y017730D01*
X003826Y017747D01*
X003830Y017764D01*
X003837Y017780D01*
X003847Y017794D01*
X003860Y017807D01*
X003874Y017817D01*
X003890Y017824D01*
X003907Y017828D01*
X003924Y017830D01*
X004324Y017830D01*
X004374Y017780D01*
X005486Y017780D01*
X005536Y017830D01*
X005936Y017830D01*
X005953Y017828D01*
X005970Y017824D01*
X005986Y017817D01*
X006000Y017807D01*
X006013Y017794D01*
X006023Y017780D01*
X006030Y017764D01*
X006034Y017747D01*
X006036Y017730D01*
X006036Y017130D01*
X006034Y017113D01*
X006030Y017096D01*
X006023Y017080D01*
X006013Y017066D01*
X006000Y017053D01*
X005986Y017043D01*
X005970Y017036D01*
X005953Y017032D01*
X005936Y017030D01*
X005536Y017030D01*
X005293Y017283D02*
X005220Y017210D01*
X005073Y017210D01*
X005000Y017283D01*
X004833Y017210D02*
X004686Y017357D01*
X004759Y017357D02*
X004539Y017357D01*
X004539Y017210D02*
X004539Y017650D01*
X004759Y017650D01*
X004833Y017577D01*
X004833Y017430D01*
X004759Y017357D01*
X005000Y017577D02*
X005073Y017650D01*
X005220Y017650D01*
X005293Y017577D01*
X005293Y017504D01*
X005220Y017430D01*
X005293Y017357D01*
X005293Y017283D01*
X005220Y017430D02*
X005146Y017430D01*
X005536Y018030D02*
X005486Y018080D01*
X004374Y018080D01*
X004324Y018030D01*
X003924Y018030D01*
X003907Y018032D01*
X003890Y018036D01*
X003874Y018043D01*
X003860Y018053D01*
X003847Y018066D01*
X003837Y018080D01*
X003830Y018096D01*
X003826Y018113D01*
X003824Y018130D01*
X003824Y018730D01*
X003826Y018747D01*
X003830Y018764D01*
X003837Y018780D01*
X003847Y018794D01*
X003860Y018807D01*
X003874Y018817D01*
X003890Y018824D01*
X003907Y018828D01*
X003924Y018830D01*
X004324Y018830D01*
X004374Y018780D01*
X005486Y018780D01*
X005536Y018830D01*
X005936Y018830D01*
X005953Y018828D01*
X005970Y018824D01*
X005986Y018817D01*
X006000Y018807D01*
X006013Y018794D01*
X006023Y018780D01*
X006030Y018764D01*
X006034Y018747D01*
X006036Y018730D01*
X006036Y018130D01*
X006034Y018113D01*
X006030Y018096D01*
X006023Y018080D01*
X006013Y018066D01*
X006000Y018053D01*
X005986Y018043D01*
X005970Y018036D01*
X005953Y018032D01*
X005936Y018030D01*
X005536Y018030D01*
X005293Y018210D02*
X005000Y018210D01*
X005146Y018210D02*
X005146Y018650D01*
X005000Y018504D01*
X004833Y018577D02*
X004833Y018430D01*
X004759Y018357D01*
X004539Y018357D01*
X004539Y018210D02*
X004539Y018650D01*
X004759Y018650D01*
X004833Y018577D01*
X004686Y018357D02*
X004833Y018210D01*
X004324Y019030D02*
X003924Y019030D01*
X003907Y019032D01*
X003890Y019036D01*
X003874Y019043D01*
X003860Y019053D01*
X003847Y019066D01*
X003837Y019080D01*
X003830Y019096D01*
X003826Y019113D01*
X003824Y019130D01*
X003824Y019730D01*
X003826Y019747D01*
X003830Y019764D01*
X003837Y019780D01*
X003847Y019794D01*
X003860Y019807D01*
X003874Y019817D01*
X003890Y019824D01*
X003907Y019828D01*
X003924Y019830D01*
X004324Y019830D01*
X004374Y019780D01*
X005486Y019780D01*
X005536Y019830D01*
X005936Y019830D01*
X005953Y019828D01*
X005970Y019824D01*
X005986Y019817D01*
X006000Y019807D01*
X006013Y019794D01*
X006023Y019780D01*
X006030Y019764D01*
X006034Y019747D01*
X006036Y019730D01*
X006036Y019130D01*
X006034Y019113D01*
X006030Y019096D01*
X006023Y019080D01*
X006013Y019066D01*
X006000Y019053D01*
X005986Y019043D01*
X005970Y019036D01*
X005953Y019032D01*
X005936Y019030D01*
X005536Y019030D01*
X005486Y019080D01*
X004374Y019080D01*
X004324Y019030D01*
X004372Y019210D02*
X004226Y019357D01*
X004299Y019357D02*
X004079Y019357D01*
X004079Y019210D02*
X004079Y019650D01*
X004299Y019650D01*
X004372Y019577D01*
X004372Y019430D01*
X004299Y019357D01*
X004539Y019504D02*
X004686Y019650D01*
X004686Y019210D01*
X004539Y019210D02*
X004833Y019210D01*
X005000Y019210D02*
X005293Y019210D01*
X005146Y019210D02*
X005146Y019650D01*
X005000Y019504D01*
X023710Y020907D02*
X023857Y020760D01*
X024004Y020907D01*
X024004Y021200D01*
X024170Y021127D02*
X024170Y020833D01*
X024244Y020760D01*
X024391Y020760D01*
X024464Y020833D01*
X024631Y020833D02*
X024631Y021127D01*
X024704Y021200D01*
X024851Y021200D01*
X024924Y021127D01*
X024924Y020833D02*
X024851Y020760D01*
X024704Y020760D01*
X024631Y020833D01*
X024464Y021127D02*
X024391Y021200D01*
X024244Y021200D01*
X024170Y021127D01*
X023710Y021200D02*
X023710Y020907D01*
X024280Y019930D02*
X026580Y019930D01*
X026580Y011930D01*
X025830Y011930D01*
X025828Y011969D01*
X025822Y012008D01*
X025813Y012046D01*
X025800Y012083D01*
X025783Y012119D01*
X025763Y012152D01*
X025739Y012184D01*
X025713Y012213D01*
X025684Y012239D01*
X025652Y012263D01*
X025619Y012283D01*
X025583Y012300D01*
X025546Y012313D01*
X025508Y012322D01*
X025469Y012328D01*
X025430Y012330D01*
X025391Y012328D01*
X025352Y012322D01*
X025314Y012313D01*
X025277Y012300D01*
X025241Y012283D01*
X025208Y012263D01*
X025176Y012239D01*
X025147Y012213D01*
X025121Y012184D01*
X025097Y012152D01*
X025077Y012119D01*
X025060Y012083D01*
X025047Y012046D01*
X025038Y012008D01*
X025032Y011969D01*
X025030Y011930D01*
X024280Y011930D01*
X024280Y019930D01*
X026710Y020907D02*
X026857Y020760D01*
X027004Y020907D01*
X027004Y021200D01*
X027170Y021200D02*
X027391Y021200D01*
X027464Y021127D01*
X027464Y020980D01*
X027391Y020907D01*
X027170Y020907D01*
X027170Y020760D02*
X027170Y021200D01*
X027631Y021200D02*
X027631Y020760D01*
X027924Y020760D01*
X028091Y020760D02*
X028091Y021200D01*
X028385Y021200D01*
X028238Y020980D02*
X028091Y020980D01*
X027924Y021200D02*
X027631Y021200D01*
X027631Y020980D02*
X027778Y020980D01*
X027464Y020760D02*
X027317Y020907D01*
X026710Y020907D02*
X026710Y021200D01*
X027930Y020180D02*
X028180Y020430D01*
X028680Y020430D01*
X028930Y020180D01*
X028930Y019680D01*
X028680Y019430D01*
X028930Y019180D01*
X028930Y018680D01*
X028680Y018430D01*
X028930Y018180D01*
X028930Y017680D01*
X028680Y017430D01*
X028930Y017180D01*
X028930Y016680D01*
X028680Y016430D01*
X028180Y016430D01*
X027930Y016680D01*
X027930Y017180D01*
X028180Y017430D01*
X027930Y017680D01*
X027930Y018180D01*
X028180Y018430D01*
X028680Y018430D01*
X028180Y018430D02*
X027930Y018680D01*
X027930Y019180D01*
X028180Y019430D01*
X027930Y019680D01*
X027930Y020180D01*
X028180Y019430D02*
X028680Y019430D01*
X028680Y017430D02*
X028180Y017430D01*
X028180Y015930D02*
X027930Y015680D01*
X027930Y015180D01*
X028180Y014930D01*
X027930Y014680D01*
X027930Y014180D01*
X028180Y013930D01*
X028680Y013930D01*
X028930Y014180D01*
X028930Y014680D01*
X028680Y014930D01*
X028180Y014930D01*
X028680Y014930D02*
X028930Y015180D01*
X028930Y015680D01*
X028680Y015930D01*
X028180Y015930D01*
X028180Y013930D02*
X027930Y013680D01*
X027930Y013180D01*
X028180Y012930D01*
X027930Y012680D01*
X027930Y012180D01*
X028180Y011930D01*
X027930Y011680D01*
X027930Y011180D01*
X028180Y010930D01*
X028680Y010930D01*
X028930Y011180D01*
X028930Y011680D01*
X028680Y011930D01*
X028180Y011930D01*
X028680Y011930D02*
X028930Y012180D01*
X028930Y012680D01*
X028680Y012930D01*
X028180Y012930D01*
X028680Y012930D02*
X028930Y013180D01*
X028930Y013680D01*
X028680Y013930D01*
X026415Y011180D02*
X026413Y011226D01*
X026408Y011272D01*
X026399Y011318D01*
X026386Y011363D01*
X026370Y011406D01*
X026351Y011448D01*
X026328Y011489D01*
X026302Y011527D01*
X026273Y011564D01*
X026242Y011598D01*
X026208Y011629D01*
X026171Y011658D01*
X026133Y011684D01*
X026092Y011707D01*
X026050Y011726D01*
X026007Y011742D01*
X025962Y011755D01*
X025916Y011764D01*
X025870Y011769D01*
X025824Y011771D01*
X026415Y011180D02*
X026413Y011134D01*
X026408Y011088D01*
X026399Y011042D01*
X026386Y010997D01*
X026370Y010954D01*
X026351Y010912D01*
X026328Y010871D01*
X026302Y010833D01*
X026273Y010796D01*
X026242Y010762D01*
X026208Y010731D01*
X026171Y010702D01*
X026133Y010676D01*
X026092Y010653D01*
X026050Y010634D01*
X026007Y010618D01*
X025962Y010605D01*
X025916Y010596D01*
X025870Y010591D01*
X025824Y010589D01*
X026580Y010430D02*
X024280Y010430D01*
X024280Y002430D01*
X025030Y002430D01*
X025032Y002469D01*
X025038Y002508D01*
X025047Y002546D01*
X025060Y002583D01*
X025077Y002619D01*
X025097Y002652D01*
X025121Y002684D01*
X025147Y002713D01*
X025176Y002739D01*
X025208Y002763D01*
X025241Y002783D01*
X025277Y002800D01*
X025314Y002813D01*
X025352Y002822D01*
X025391Y002828D01*
X025430Y002830D01*
X025469Y002828D01*
X025508Y002822D01*
X025546Y002813D01*
X025583Y002800D01*
X025619Y002783D01*
X025652Y002763D01*
X025684Y002739D01*
X025713Y002713D01*
X025739Y002684D01*
X025763Y002652D01*
X025783Y002619D01*
X025800Y002583D01*
X025813Y002546D01*
X025822Y002508D01*
X025828Y002469D01*
X025830Y002430D01*
X026580Y002430D01*
X026580Y010430D01*
X025036Y011771D02*
X024990Y011769D01*
X024944Y011764D01*
X024898Y011755D01*
X024853Y011742D01*
X024810Y011726D01*
X024768Y011707D01*
X024727Y011684D01*
X024689Y011658D01*
X024652Y011629D01*
X024618Y011598D01*
X024587Y011564D01*
X024558Y011527D01*
X024532Y011489D01*
X024509Y011448D01*
X024490Y011406D01*
X024474Y011363D01*
X024461Y011318D01*
X024452Y011272D01*
X024447Y011226D01*
X024445Y011180D01*
X024447Y011134D01*
X024452Y011088D01*
X024461Y011042D01*
X024474Y010997D01*
X024490Y010954D01*
X024509Y010912D01*
X024532Y010871D01*
X024558Y010833D01*
X024587Y010796D01*
X024618Y010762D01*
X024652Y010731D01*
X024689Y010702D01*
X024727Y010676D01*
X024768Y010653D01*
X024810Y010634D01*
X024853Y010618D01*
X024898Y010605D01*
X024944Y010596D01*
X024990Y010591D01*
X025036Y010589D01*
X028180Y006430D02*
X028680Y006430D01*
X028930Y006180D01*
X028930Y005680D01*
X028680Y005430D01*
X028930Y005180D01*
X028930Y004680D01*
X028680Y004430D01*
X028930Y004180D01*
X028930Y003680D01*
X028680Y003430D01*
X028930Y003180D01*
X028930Y002680D01*
X028680Y002430D01*
X028930Y002180D01*
X028930Y001680D01*
X028680Y001430D01*
X028180Y001430D01*
X027930Y001680D01*
X027930Y002180D01*
X028180Y002430D01*
X027930Y002680D01*
X027930Y003180D01*
X028180Y003430D01*
X028680Y003430D01*
X028180Y003430D02*
X027930Y003680D01*
X027930Y004180D01*
X028180Y004430D01*
X027930Y004680D01*
X027930Y005180D01*
X028180Y005430D01*
X027930Y005680D01*
X027930Y006180D01*
X028180Y006430D01*
X028180Y005430D02*
X028680Y005430D01*
X028680Y004430D02*
X028180Y004430D01*
X028180Y002430D02*
X028680Y002430D01*
X026415Y001680D02*
X026413Y001726D01*
X026408Y001772D01*
X026399Y001818D01*
X026386Y001863D01*
X026370Y001906D01*
X026351Y001948D01*
X026328Y001989D01*
X026302Y002027D01*
X026273Y002064D01*
X026242Y002098D01*
X026208Y002129D01*
X026171Y002158D01*
X026133Y002184D01*
X026092Y002207D01*
X026050Y002226D01*
X026007Y002242D01*
X025962Y002255D01*
X025916Y002264D01*
X025870Y002269D01*
X025824Y002271D01*
X026415Y001680D02*
X026413Y001634D01*
X026408Y001588D01*
X026399Y001542D01*
X026386Y001497D01*
X026370Y001454D01*
X026351Y001412D01*
X026328Y001371D01*
X026302Y001333D01*
X026273Y001296D01*
X026242Y001262D01*
X026208Y001231D01*
X026171Y001202D01*
X026133Y001176D01*
X026092Y001153D01*
X026050Y001134D01*
X026007Y001118D01*
X025962Y001105D01*
X025916Y001096D01*
X025870Y001091D01*
X025824Y001089D01*
X025036Y002271D02*
X024990Y002269D01*
X024944Y002264D01*
X024898Y002255D01*
X024853Y002242D01*
X024810Y002226D01*
X024768Y002207D01*
X024727Y002184D01*
X024689Y002158D01*
X024652Y002129D01*
X024618Y002098D01*
X024587Y002064D01*
X024558Y002027D01*
X024532Y001989D01*
X024509Y001948D01*
X024490Y001906D01*
X024474Y001863D01*
X024461Y001818D01*
X024452Y001772D01*
X024447Y001726D01*
X024445Y001680D01*
X024447Y001634D01*
X024452Y001588D01*
X024461Y001542D01*
X024474Y001497D01*
X024490Y001454D01*
X024509Y001412D01*
X024532Y001371D01*
X024558Y001333D01*
X024587Y001296D01*
X024618Y001262D01*
X024652Y001231D01*
X024689Y001202D01*
X024727Y001176D01*
X024768Y001153D01*
X024810Y001134D01*
X024853Y001118D01*
X024898Y001105D01*
X024944Y001096D01*
X024990Y001091D01*
X025036Y001089D01*
D14*
X024052Y001616D02*
X023819Y001616D01*
X024052Y001850D01*
X024052Y001908D01*
X023994Y001967D01*
X023877Y001967D01*
X023819Y001908D01*
X023684Y001908D02*
X023626Y001967D01*
X023509Y001967D01*
X023451Y001908D01*
X023451Y001675D01*
X023509Y001616D01*
X023626Y001616D01*
X023684Y001675D01*
X022430Y004055D02*
X022505Y004130D01*
X022505Y004280D01*
X022430Y004355D01*
X022280Y004355D01*
X022205Y004280D01*
X022205Y004205D01*
X022280Y004055D01*
X022055Y004055D01*
X022055Y004355D01*
X022130Y004515D02*
X022205Y004515D01*
X022280Y004590D01*
X022280Y004816D01*
X022430Y004816D02*
X022130Y004816D01*
X022055Y004741D01*
X022055Y004590D01*
X022130Y004515D01*
X022430Y004515D02*
X022505Y004590D01*
X022505Y004741D01*
X022430Y004816D01*
X022430Y004976D02*
X022505Y005051D01*
X022505Y005201D01*
X022430Y005276D01*
X022280Y005276D01*
X022205Y005201D01*
X022205Y005126D01*
X022280Y004976D01*
X022055Y004976D01*
X022055Y005276D01*
X022055Y005436D02*
X022205Y005586D01*
X022055Y005736D01*
X022505Y005736D01*
X022430Y005897D02*
X022505Y005972D01*
X022505Y006122D01*
X022430Y006197D01*
X022355Y006197D01*
X022280Y006122D01*
X022280Y005972D01*
X022205Y005897D01*
X022130Y005897D01*
X022055Y005972D01*
X022055Y006122D01*
X022130Y006197D01*
X022055Y006357D02*
X022055Y006582D01*
X022130Y006657D01*
X022205Y006657D01*
X022280Y006582D01*
X022280Y006357D01*
X022505Y006357D02*
X022055Y006357D01*
X022280Y006582D02*
X022355Y006657D01*
X022430Y006657D01*
X022505Y006582D01*
X022505Y006357D01*
X022505Y005436D02*
X022055Y005436D01*
X018503Y005226D02*
X018053Y005226D01*
X018053Y005451D01*
X018128Y005526D01*
X018278Y005526D01*
X018353Y005451D01*
X018353Y005226D01*
X018353Y005066D02*
X018428Y005066D01*
X018503Y004991D01*
X018503Y004840D01*
X018428Y004765D01*
X018278Y004840D02*
X018278Y004991D01*
X018353Y005066D01*
X018128Y005066D02*
X018053Y004991D01*
X018053Y004840D01*
X018128Y004765D01*
X018203Y004765D01*
X018278Y004840D01*
X018053Y004605D02*
X018503Y004605D01*
X018503Y004305D02*
X018053Y004305D01*
X018203Y004455D01*
X018053Y004605D01*
X018278Y005686D02*
X018278Y005986D01*
X018428Y006147D02*
X018503Y006222D01*
X018503Y006372D01*
X018428Y006447D01*
X018353Y006447D01*
X018278Y006372D01*
X018278Y006297D01*
X018278Y006372D02*
X018203Y006447D01*
X018128Y006447D01*
X018053Y006372D01*
X018053Y006222D01*
X018128Y006147D01*
X018053Y005911D02*
X018278Y005686D01*
X018503Y005911D02*
X018053Y005911D01*
X018128Y006607D02*
X018053Y006682D01*
X018053Y006832D01*
X018128Y006907D01*
X018428Y006607D01*
X018503Y006682D01*
X018503Y006832D01*
X018428Y006907D01*
X018128Y006907D01*
X018128Y007067D02*
X018428Y007067D01*
X018503Y007142D01*
X018503Y007293D01*
X018428Y007368D01*
X018278Y007368D01*
X018278Y007217D01*
X018128Y007067D02*
X018053Y007142D01*
X018053Y007293D01*
X018128Y007368D01*
X018128Y007528D02*
X018053Y007603D01*
X018053Y007753D01*
X018128Y007828D01*
X018203Y007828D01*
X018503Y007528D01*
X018503Y007828D01*
X018428Y007988D02*
X018503Y008063D01*
X018503Y008213D01*
X018428Y008288D01*
X018278Y008288D01*
X018203Y008213D01*
X018203Y008138D01*
X018278Y007988D01*
X018053Y007988D01*
X018053Y008288D01*
X018053Y008449D02*
X018278Y008449D01*
X018203Y008599D01*
X018203Y008674D01*
X018278Y008749D01*
X018428Y008749D01*
X018503Y008674D01*
X018503Y008524D01*
X018428Y008449D01*
X018053Y008449D02*
X018053Y008749D01*
X018128Y008909D02*
X018053Y008984D01*
X018053Y009134D01*
X018128Y009209D01*
X018203Y009209D01*
X018278Y009134D01*
X018353Y009209D01*
X018428Y009209D01*
X018503Y009134D01*
X018503Y008984D01*
X018428Y008909D01*
X018278Y009059D02*
X018278Y009134D01*
X017530Y011180D02*
X017532Y011204D01*
X017538Y011228D01*
X017547Y011250D01*
X017560Y011270D01*
X017576Y011288D01*
X017595Y011303D01*
X017616Y011316D01*
X017638Y011324D01*
X017662Y011329D01*
X017686Y011330D01*
X017710Y011327D01*
X017733Y011320D01*
X017755Y011310D01*
X017775Y011296D01*
X017792Y011279D01*
X017807Y011260D01*
X017818Y011239D01*
X017826Y011216D01*
X017830Y011192D01*
X017830Y011168D01*
X017826Y011144D01*
X017818Y011121D01*
X017807Y011100D01*
X017792Y011081D01*
X017775Y011064D01*
X017755Y011050D01*
X017733Y011040D01*
X017710Y011033D01*
X017686Y011030D01*
X017662Y011031D01*
X017638Y011036D01*
X017616Y011044D01*
X017595Y011057D01*
X017576Y011072D01*
X017560Y011090D01*
X017547Y011110D01*
X017538Y011132D01*
X017532Y011156D01*
X017530Y011180D01*
X018031Y011794D02*
X018148Y011794D01*
X018206Y011852D01*
X018341Y011794D02*
X018575Y011794D01*
X018458Y011794D02*
X018458Y012144D01*
X018341Y012027D01*
X018206Y012086D02*
X018148Y012144D01*
X018031Y012144D01*
X017973Y012086D01*
X017973Y011852D01*
X018031Y011794D01*
X018031Y014675D02*
X018106Y014750D01*
X018106Y014900D01*
X017956Y014900D01*
X017806Y015050D02*
X017806Y014750D01*
X017881Y014675D01*
X018031Y014675D01*
X017646Y014750D02*
X017646Y015050D01*
X017571Y015125D01*
X017421Y015125D01*
X017346Y015050D01*
X017346Y014750D01*
X017421Y014675D01*
X017571Y014675D01*
X017646Y014750D01*
X017806Y015050D02*
X017881Y015125D01*
X018031Y015125D01*
X018106Y015050D01*
X017186Y015050D02*
X017186Y014900D01*
X017111Y014825D01*
X016885Y014825D01*
X016885Y014675D02*
X016885Y015125D01*
X017111Y015125D01*
X017186Y015050D01*
X017036Y014825D02*
X017186Y014675D01*
X016725Y014900D02*
X016650Y014825D01*
X016425Y014825D01*
X016425Y014675D02*
X016425Y015125D01*
X016650Y015125D01*
X016725Y015050D01*
X016725Y014900D01*
X013685Y013184D02*
X013685Y013034D01*
X013685Y013109D02*
X013235Y013109D01*
X013235Y013034D02*
X013235Y013184D01*
X013310Y012874D02*
X013235Y012799D01*
X013235Y012573D01*
X013685Y012573D01*
X013685Y012799D01*
X013610Y012874D01*
X013310Y012874D01*
X013235Y012417D02*
X013235Y012267D01*
X013235Y012342D02*
X013685Y012342D01*
X013685Y012267D02*
X013685Y012417D01*
X013685Y012106D02*
X013235Y012106D01*
X013385Y011956D01*
X013235Y011806D01*
X013685Y011806D01*
X013685Y011346D02*
X013235Y011646D01*
X013235Y011186D02*
X013685Y010885D01*
X013685Y011186D02*
X013235Y010885D01*
X013235Y010725D02*
X013235Y010425D01*
X013235Y010575D02*
X013685Y010575D01*
X009430Y007180D02*
X001430Y007180D01*
X001430Y003680D01*
X009430Y003680D01*
X009430Y007180D01*
X012604Y003185D02*
X012829Y003185D01*
X012904Y003110D01*
X012904Y002960D01*
X012829Y002885D01*
X012604Y002885D01*
X012754Y002885D02*
X012904Y002735D01*
X013064Y002735D02*
X013364Y002735D01*
X013525Y002735D02*
X013750Y002735D01*
X013825Y002810D01*
X013825Y003110D01*
X013750Y003185D01*
X013525Y003185D01*
X013525Y002735D01*
X013214Y002960D02*
X013064Y002960D01*
X013064Y003185D02*
X013064Y002735D01*
X013064Y003185D02*
X013364Y003185D01*
X012604Y003185D02*
X012604Y002735D01*
X008325Y001360D02*
X008325Y001210D01*
X008250Y001135D01*
X008025Y001135D01*
X008175Y001135D02*
X008325Y000985D01*
X008025Y000985D02*
X008025Y001435D01*
X008250Y001435D01*
X008325Y001360D01*
X007864Y001435D02*
X007864Y000985D01*
X007714Y001135D01*
X007564Y000985D01*
X007564Y001435D01*
X007404Y001360D02*
X007404Y001210D01*
X007329Y001135D01*
X007104Y001135D01*
X007104Y000985D02*
X007104Y001435D01*
X007329Y001435D01*
X007404Y001360D01*
X006944Y001360D02*
X006869Y001435D01*
X006718Y001435D01*
X006643Y001360D01*
X006643Y001060D01*
X006718Y000985D01*
X006869Y000985D01*
X006944Y001060D01*
X006944Y001210D01*
X006794Y001210D01*
X002405Y004705D02*
X001955Y004705D01*
X001955Y004930D01*
X002030Y005005D01*
X002180Y005005D01*
X002255Y004930D01*
X002255Y004705D01*
X002330Y005165D02*
X002030Y005165D01*
X001955Y005240D01*
X001955Y005391D01*
X002030Y005466D01*
X002330Y005466D01*
X002405Y005391D01*
X002405Y005240D01*
X002330Y005165D01*
X001955Y005626D02*
X001955Y005926D01*
X001955Y005776D02*
X002405Y005776D01*
X002330Y006086D02*
X002405Y006161D01*
X002405Y006311D01*
X002330Y006386D01*
X002255Y006386D01*
X002180Y006311D01*
X002180Y006161D01*
X002105Y006086D01*
X002030Y006086D01*
X001955Y006161D01*
X001955Y006311D01*
X002030Y006386D01*
X018128Y006607D02*
X018428Y006607D01*
X023451Y011175D02*
X023509Y011116D01*
X023626Y011116D01*
X023684Y011175D01*
X023819Y011175D02*
X023877Y011116D01*
X023994Y011116D01*
X024052Y011175D01*
X024052Y011233D01*
X023994Y011291D01*
X023936Y011291D01*
X023994Y011291D02*
X024052Y011350D01*
X024052Y011408D01*
X023994Y011467D01*
X023877Y011467D01*
X023819Y011408D01*
X023684Y011408D02*
X023626Y011467D01*
X023509Y011467D01*
X023451Y011408D01*
X023451Y011175D01*
X022430Y013555D02*
X022505Y013630D01*
X022505Y013780D01*
X022430Y013855D01*
X022280Y013855D01*
X022205Y013780D01*
X022205Y013705D01*
X022280Y013555D01*
X022055Y013555D01*
X022055Y013855D01*
X022130Y014015D02*
X022205Y014015D01*
X022280Y014090D01*
X022280Y014316D01*
X022430Y014316D02*
X022130Y014316D01*
X022055Y014241D01*
X022055Y014090D01*
X022130Y014015D01*
X022430Y014015D02*
X022505Y014090D01*
X022505Y014241D01*
X022430Y014316D01*
X022430Y014476D02*
X022505Y014551D01*
X022505Y014701D01*
X022430Y014776D01*
X022280Y014776D01*
X022205Y014701D01*
X022205Y014626D01*
X022280Y014476D01*
X022055Y014476D01*
X022055Y014776D01*
X022055Y014936D02*
X022505Y014936D01*
X022505Y015236D01*
X022430Y015397D02*
X022505Y015472D01*
X022505Y015622D01*
X022430Y015697D01*
X022355Y015697D01*
X022280Y015622D01*
X022280Y015472D01*
X022205Y015397D01*
X022130Y015397D01*
X022055Y015472D01*
X022055Y015622D01*
X022130Y015697D01*
X022055Y015857D02*
X022055Y016082D01*
X022130Y016157D01*
X022205Y016157D01*
X022280Y016082D01*
X022280Y015857D01*
X022505Y015857D02*
X022055Y015857D01*
X022280Y016082D02*
X022355Y016157D01*
X022430Y016157D01*
X022505Y016082D01*
X022505Y015857D01*
X016991Y020675D02*
X016991Y021125D01*
X016841Y021125D02*
X017141Y021125D01*
X016681Y021125D02*
X016681Y020750D01*
X016606Y020675D01*
X016455Y020675D01*
X016380Y020750D01*
X016380Y021125D01*
X016220Y021050D02*
X016220Y020750D01*
X016145Y020675D01*
X015995Y020675D01*
X015920Y020750D01*
X015920Y021050D01*
X015995Y021125D01*
X016145Y021125D01*
X016220Y021050D01*
X015760Y020600D02*
X015460Y020600D01*
X015303Y020675D02*
X015153Y020675D01*
X015228Y020675D02*
X015228Y021125D01*
X015153Y021125D02*
X015303Y021125D01*
X014993Y021050D02*
X014993Y020750D01*
X014918Y020675D01*
X014692Y020675D01*
X014692Y021125D01*
X014918Y021125D01*
X014993Y021050D01*
X014536Y021125D02*
X014385Y021125D01*
X014460Y021125D02*
X014460Y020675D01*
X014385Y020675D02*
X014536Y020675D01*
X014225Y020675D02*
X014225Y021125D01*
X014075Y020975D01*
X013925Y021125D01*
X013925Y020675D01*
X013050Y019825D02*
X012750Y019825D01*
X012675Y019750D01*
X012675Y019525D01*
X013125Y019525D01*
X013125Y019750D01*
X013050Y019825D01*
X013125Y019364D02*
X012825Y019364D01*
X012675Y019214D01*
X012825Y019064D01*
X013125Y019064D01*
X012900Y019064D02*
X012900Y019364D01*
X012900Y018904D02*
X012975Y018829D01*
X012975Y018604D01*
X013125Y018604D02*
X012675Y018604D01*
X012675Y018829D01*
X012750Y018904D01*
X012900Y018904D01*
X013050Y018444D02*
X012750Y018444D01*
X012675Y018369D01*
X012675Y018143D01*
X013125Y018143D01*
X013125Y018369D01*
X013050Y018444D01*
X028955Y009997D02*
X028955Y009763D01*
X029013Y009705D01*
X029130Y009705D01*
X029189Y009763D01*
X029189Y009997D01*
X029130Y010055D01*
X029013Y010055D01*
X028955Y009997D01*
X029072Y009822D02*
X029189Y009705D01*
X029323Y009705D02*
X029323Y009939D01*
X029440Y010055D01*
X029557Y009939D01*
X029557Y009705D01*
X029557Y009880D02*
X029323Y009880D01*
X029323Y009055D02*
X029323Y008705D01*
X029189Y008705D02*
X029072Y008822D01*
X029189Y008763D02*
X029189Y008997D01*
X029130Y009055D01*
X029013Y009055D01*
X028955Y008997D01*
X028955Y008763D01*
X029013Y008705D01*
X029130Y008705D01*
X029189Y008763D01*
X029323Y008880D02*
X029557Y008880D01*
X029557Y009055D02*
X029557Y008705D01*
X029498Y008055D02*
X029382Y008055D01*
X029323Y007997D01*
X029323Y007763D01*
X029382Y007705D01*
X029498Y007705D01*
X029557Y007763D01*
X029557Y007880D01*
X029440Y007880D01*
X029557Y007997D02*
X029498Y008055D01*
X029189Y007997D02*
X029189Y007763D01*
X029130Y007705D01*
X029013Y007705D01*
X028955Y007763D01*
X028955Y007997D01*
X029013Y008055D01*
X029130Y008055D01*
X029189Y007997D01*
X029072Y007822D02*
X029189Y007705D01*
X029130Y007055D02*
X029189Y006997D01*
X029189Y006763D01*
X029130Y006705D01*
X029013Y006705D01*
X028955Y006763D01*
X028955Y006997D01*
X029013Y007055D01*
X029130Y007055D01*
X029323Y007055D02*
X029323Y006705D01*
X029557Y006705D01*
X029440Y006880D02*
X029323Y006880D01*
X029323Y007055D02*
X029557Y007055D01*
X029189Y006705D02*
X029072Y006822D01*
X029235Y005421D02*
X029235Y005121D01*
X029685Y005121D01*
X029685Y005421D01*
X029460Y005271D02*
X029460Y005121D01*
X029460Y004961D02*
X029460Y004810D01*
X029460Y004961D02*
X029610Y004961D01*
X029685Y004885D01*
X029685Y004735D01*
X029610Y004660D01*
X029310Y004660D01*
X029235Y004735D01*
X029235Y004885D01*
X029310Y004961D01*
X029235Y004500D02*
X029685Y004500D01*
X029235Y004200D01*
X029685Y004200D01*
X029685Y004040D02*
X029385Y004040D01*
X029235Y003890D01*
X029385Y003739D01*
X029685Y003739D01*
X029685Y003579D02*
X029535Y003429D01*
X029535Y003504D02*
X029535Y003279D01*
X029685Y003279D02*
X029235Y003279D01*
X029235Y003504D01*
X029310Y003579D01*
X029460Y003579D01*
X029535Y003504D01*
X029460Y003739D02*
X029460Y004040D01*
X029610Y003119D02*
X029310Y003119D01*
X029235Y003044D01*
X029235Y002894D01*
X029310Y002819D01*
X029610Y002819D01*
X029685Y002894D01*
X029685Y003044D01*
X029610Y003119D01*
X029410Y011025D02*
X029560Y011175D01*
X029785Y011175D01*
X029560Y011175D02*
X029410Y011325D01*
X029335Y011325D01*
X029335Y011485D02*
X029785Y011485D01*
X029785Y011786D01*
X029785Y011946D02*
X029335Y011946D01*
X029335Y011786D02*
X029335Y011485D01*
X029560Y011485D02*
X029560Y011636D01*
X029785Y011946D02*
X029785Y012246D01*
X029785Y012406D02*
X029335Y012406D01*
X029785Y012406D02*
X029785Y012706D01*
X029710Y012867D02*
X029410Y012867D01*
X029335Y012942D01*
X029335Y013092D01*
X029410Y013167D01*
X029710Y013167D01*
X029785Y013092D01*
X029785Y012942D01*
X029710Y012867D01*
X029785Y013327D02*
X029335Y013327D01*
X029335Y013627D02*
X029785Y013627D01*
X029635Y013477D01*
X029785Y013327D01*
X029410Y011025D02*
X029335Y011025D01*
X029335Y016538D02*
X029335Y016763D01*
X029410Y016838D01*
X029485Y016838D01*
X029560Y016763D01*
X029560Y016538D01*
X029560Y016763D02*
X029635Y016838D01*
X029710Y016838D01*
X029785Y016763D01*
X029785Y016538D01*
X029335Y016538D01*
X029335Y016998D02*
X029335Y017223D01*
X029410Y017298D01*
X029560Y017298D01*
X029635Y017223D01*
X029635Y016998D01*
X029785Y016998D02*
X029335Y016998D01*
X029635Y017148D02*
X029785Y017298D01*
X029710Y017458D02*
X029410Y017458D01*
X029335Y017533D01*
X029335Y017684D01*
X029410Y017759D01*
X029710Y017759D01*
X029785Y017684D01*
X029785Y017533D01*
X029710Y017458D01*
X029785Y017919D02*
X029335Y017919D01*
X029335Y018219D02*
X029785Y018219D01*
X029635Y018069D01*
X029785Y017919D01*
X029785Y018379D02*
X029335Y018379D01*
X029785Y018679D01*
X029335Y018679D01*
D15*
X025824Y011771D02*
X025036Y011771D01*
X025036Y010589D02*
X025824Y010589D01*
X018824Y011339D02*
X018036Y011339D01*
X018036Y012521D02*
X018824Y012521D01*
X025036Y002271D02*
X025824Y002271D01*
X025824Y001089D02*
X025036Y001089D01*
D16*
X021930Y018180D02*
X018930Y018180D01*
X018930Y018930D01*
X021930Y018930D01*
X021930Y018180D01*
X021930Y018930D02*
X021930Y020680D01*
X018930Y020680D01*
X018930Y018930D01*
D17*
X018296Y016422D02*
X018265Y016466D01*
X018265Y016465D02*
X018301Y016493D01*
X018334Y016524D01*
X018364Y016556D01*
X018392Y016592D01*
X018417Y016629D01*
X018439Y016668D01*
X018458Y016708D01*
X018474Y016751D01*
X018487Y016794D01*
X018496Y016838D01*
X018501Y016882D01*
X018503Y016927D01*
X018556Y016927D01*
X018557Y016927D01*
X018555Y016878D01*
X018549Y016829D01*
X018539Y016781D01*
X018525Y016734D01*
X018508Y016688D01*
X018488Y016643D01*
X018463Y016600D01*
X018436Y016560D01*
X018405Y016521D01*
X018372Y016485D01*
X018336Y016452D01*
X018297Y016422D01*
X018294Y016426D01*
X018332Y016456D01*
X018368Y016489D01*
X018401Y016524D01*
X018432Y016562D01*
X018459Y016603D01*
X018483Y016645D01*
X018504Y016690D01*
X018521Y016735D01*
X018534Y016782D01*
X018544Y016830D01*
X018550Y016878D01*
X018552Y016927D01*
X018547Y016927D01*
X018545Y016879D01*
X018539Y016831D01*
X018529Y016783D01*
X018516Y016737D01*
X018499Y016691D01*
X018479Y016648D01*
X018455Y016606D01*
X018428Y016565D01*
X018398Y016528D01*
X018365Y016492D01*
X018329Y016459D01*
X018291Y016430D01*
X018288Y016434D01*
X018326Y016463D01*
X018361Y016496D01*
X018394Y016531D01*
X018424Y016568D01*
X018451Y016608D01*
X018474Y016650D01*
X018494Y016693D01*
X018511Y016738D01*
X018524Y016784D01*
X018534Y016831D01*
X018540Y016879D01*
X018542Y016927D01*
X018537Y016927D01*
X018535Y016879D01*
X018529Y016832D01*
X018520Y016786D01*
X018506Y016740D01*
X018490Y016695D01*
X018470Y016652D01*
X018446Y016611D01*
X018420Y016571D01*
X018390Y016534D01*
X018358Y016499D01*
X018323Y016467D01*
X018285Y016438D01*
X018282Y016442D01*
X018319Y016471D01*
X018354Y016503D01*
X018386Y016537D01*
X018416Y016574D01*
X018442Y016613D01*
X018465Y016655D01*
X018485Y016697D01*
X018502Y016741D01*
X018515Y016787D01*
X018524Y016833D01*
X018530Y016880D01*
X018532Y016927D01*
X018527Y016927D01*
X018525Y016880D01*
X018519Y016834D01*
X018510Y016788D01*
X018497Y016743D01*
X018481Y016699D01*
X018461Y016657D01*
X018438Y016616D01*
X018412Y016577D01*
X018383Y016541D01*
X018351Y016506D01*
X018316Y016475D01*
X018279Y016446D01*
X018277Y016450D01*
X018313Y016479D01*
X018347Y016510D01*
X018379Y016544D01*
X018408Y016580D01*
X018434Y016619D01*
X018456Y016659D01*
X018476Y016701D01*
X018492Y016745D01*
X018505Y016789D01*
X018514Y016835D01*
X018520Y016881D01*
X018522Y016927D01*
X018517Y016927D01*
X018515Y016881D01*
X018509Y016835D01*
X018500Y016790D01*
X018487Y016746D01*
X018471Y016703D01*
X018452Y016661D01*
X018429Y016621D01*
X018404Y016583D01*
X018375Y016547D01*
X018344Y016514D01*
X018310Y016482D01*
X018274Y016454D01*
X018271Y016458D01*
X018307Y016486D01*
X018340Y016517D01*
X018371Y016550D01*
X018400Y016586D01*
X018425Y016624D01*
X018447Y016664D01*
X018467Y016705D01*
X018483Y016748D01*
X018495Y016792D01*
X018504Y016836D01*
X018510Y016881D01*
X018512Y016927D01*
X018507Y016927D01*
X018505Y016882D01*
X018499Y016837D01*
X018490Y016793D01*
X018478Y016749D01*
X018462Y016707D01*
X018443Y016666D01*
X018421Y016627D01*
X018396Y016589D01*
X018367Y016554D01*
X018337Y016521D01*
X018303Y016490D01*
X018268Y016462D01*
X017543Y017423D02*
X017576Y017380D01*
X017540Y017350D01*
X017507Y017317D01*
X017477Y017281D01*
X017450Y017243D01*
X017426Y017203D01*
X017405Y017161D01*
X017388Y017117D01*
X017375Y017072D01*
X017365Y017026D01*
X017359Y016980D01*
X017357Y016933D01*
X017304Y016933D01*
X017303Y016933D01*
X017305Y016980D01*
X017310Y017027D01*
X017319Y017073D01*
X017332Y017118D01*
X017348Y017162D01*
X017367Y017205D01*
X017389Y017247D01*
X017414Y017287D01*
X017442Y017324D01*
X017473Y017360D01*
X017507Y017393D01*
X017543Y017423D01*
X017546Y017419D01*
X017510Y017389D01*
X017477Y017356D01*
X017446Y017321D01*
X017418Y017284D01*
X017393Y017244D01*
X017371Y017203D01*
X017352Y017161D01*
X017337Y017117D01*
X017324Y017072D01*
X017315Y017026D01*
X017310Y016980D01*
X017308Y016933D01*
X017313Y016933D01*
X017315Y016979D01*
X017320Y017025D01*
X017329Y017071D01*
X017341Y017115D01*
X017357Y017159D01*
X017376Y017201D01*
X017398Y017242D01*
X017422Y017281D01*
X017450Y017318D01*
X017481Y017353D01*
X017514Y017385D01*
X017549Y017415D01*
X017552Y017411D01*
X017517Y017382D01*
X017484Y017349D01*
X017454Y017315D01*
X017427Y017278D01*
X017402Y017239D01*
X017380Y017199D01*
X017362Y017157D01*
X017346Y017114D01*
X017334Y017069D01*
X017325Y017024D01*
X017320Y016979D01*
X017318Y016933D01*
X017323Y016933D01*
X017325Y016978D01*
X017330Y017024D01*
X017339Y017068D01*
X017351Y017112D01*
X017366Y017155D01*
X017385Y017197D01*
X017406Y017237D01*
X017431Y017275D01*
X017458Y017312D01*
X017488Y017346D01*
X017520Y017378D01*
X017555Y017407D01*
X017558Y017403D01*
X017524Y017374D01*
X017492Y017342D01*
X017462Y017308D01*
X017435Y017272D01*
X017411Y017234D01*
X017389Y017195D01*
X017371Y017153D01*
X017356Y017111D01*
X017344Y017067D01*
X017335Y017023D01*
X017330Y016978D01*
X017328Y016933D01*
X017333Y016933D01*
X017335Y016978D01*
X017340Y017022D01*
X017349Y017066D01*
X017361Y017109D01*
X017376Y017151D01*
X017394Y017192D01*
X017415Y017232D01*
X017439Y017269D01*
X017466Y017305D01*
X017495Y017339D01*
X017527Y017370D01*
X017561Y017399D01*
X017564Y017395D01*
X017530Y017367D01*
X017499Y017336D01*
X017470Y017302D01*
X017443Y017267D01*
X017419Y017229D01*
X017398Y017190D01*
X017380Y017150D01*
X017365Y017108D01*
X017354Y017065D01*
X017345Y017021D01*
X017340Y016977D01*
X017338Y016933D01*
X017343Y016933D01*
X017345Y016977D01*
X017350Y017021D01*
X017358Y017064D01*
X017370Y017106D01*
X017385Y017148D01*
X017403Y017188D01*
X017423Y017227D01*
X017447Y017264D01*
X017473Y017299D01*
X017502Y017332D01*
X017534Y017363D01*
X017567Y017392D01*
X017570Y017388D01*
X017534Y017357D01*
X017501Y017323D01*
X017470Y017287D01*
X017442Y017248D01*
X017418Y017207D01*
X017397Y017164D01*
X017380Y017120D01*
X017366Y017074D01*
X017356Y017028D01*
X017350Y016981D01*
X017348Y016933D01*
X017353Y016933D01*
X017355Y016980D01*
X017361Y017027D01*
X017371Y017073D01*
X017385Y017118D01*
X017402Y017162D01*
X017422Y017204D01*
X017447Y017245D01*
X017474Y017283D01*
X017504Y017320D01*
X017538Y017353D01*
X017573Y017384D01*
X017304Y016927D02*
X017358Y016927D01*
X017357Y016927D02*
X017359Y016880D01*
X017365Y016834D01*
X017375Y016788D01*
X017388Y016743D01*
X017405Y016699D01*
X017426Y016657D01*
X017450Y016617D01*
X017477Y016579D01*
X017507Y016543D01*
X017540Y016510D01*
X017576Y016480D01*
X017543Y016437D01*
X017507Y016467D01*
X017473Y016500D01*
X017442Y016536D01*
X017414Y016573D01*
X017389Y016613D01*
X017367Y016655D01*
X017348Y016698D01*
X017332Y016742D01*
X017319Y016787D01*
X017310Y016833D01*
X017305Y016880D01*
X017303Y016927D01*
X017308Y016927D01*
X017310Y016880D01*
X017315Y016834D01*
X017324Y016788D01*
X017337Y016743D01*
X017352Y016699D01*
X017371Y016657D01*
X017393Y016616D01*
X017418Y016576D01*
X017446Y016539D01*
X017477Y016504D01*
X017510Y016471D01*
X017546Y016441D01*
X017549Y016445D01*
X017514Y016475D01*
X017481Y016507D01*
X017450Y016542D01*
X017422Y016579D01*
X017398Y016618D01*
X017376Y016659D01*
X017357Y016701D01*
X017341Y016745D01*
X017329Y016789D01*
X017320Y016835D01*
X017315Y016881D01*
X017313Y016927D01*
X017318Y016927D01*
X017320Y016881D01*
X017325Y016836D01*
X017334Y016791D01*
X017346Y016746D01*
X017362Y016703D01*
X017380Y016661D01*
X017402Y016621D01*
X017427Y016582D01*
X017454Y016545D01*
X017484Y016511D01*
X017517Y016478D01*
X017552Y016449D01*
X017555Y016453D01*
X017520Y016482D01*
X017488Y016514D01*
X017458Y016548D01*
X017431Y016585D01*
X017406Y016623D01*
X017385Y016663D01*
X017366Y016705D01*
X017351Y016748D01*
X017339Y016792D01*
X017330Y016836D01*
X017325Y016882D01*
X017323Y016927D01*
X017328Y016927D01*
X017330Y016882D01*
X017335Y016837D01*
X017344Y016793D01*
X017356Y016749D01*
X017371Y016707D01*
X017389Y016665D01*
X017411Y016626D01*
X017435Y016588D01*
X017462Y016552D01*
X017492Y016518D01*
X017524Y016486D01*
X017558Y016457D01*
X017561Y016461D01*
X017527Y016490D01*
X017495Y016521D01*
X017466Y016555D01*
X017439Y016591D01*
X017415Y016628D01*
X017394Y016668D01*
X017376Y016709D01*
X017361Y016751D01*
X017349Y016794D01*
X017340Y016838D01*
X017335Y016882D01*
X017333Y016927D01*
X017338Y016927D01*
X017340Y016883D01*
X017345Y016839D01*
X017354Y016795D01*
X017365Y016752D01*
X017380Y016710D01*
X017398Y016670D01*
X017419Y016631D01*
X017443Y016593D01*
X017470Y016558D01*
X017499Y016524D01*
X017530Y016493D01*
X017564Y016465D01*
X017567Y016468D01*
X017534Y016497D01*
X017502Y016528D01*
X017473Y016561D01*
X017447Y016596D01*
X017423Y016633D01*
X017403Y016672D01*
X017385Y016712D01*
X017370Y016754D01*
X017358Y016796D01*
X017350Y016839D01*
X017345Y016883D01*
X017343Y016927D01*
X017348Y016927D01*
X017350Y016879D01*
X017356Y016832D01*
X017366Y016786D01*
X017380Y016740D01*
X017397Y016696D01*
X017418Y016653D01*
X017442Y016612D01*
X017470Y016573D01*
X017501Y016537D01*
X017534Y016503D01*
X017570Y016472D01*
X017573Y016476D01*
X017538Y016507D01*
X017504Y016540D01*
X017474Y016577D01*
X017447Y016615D01*
X017422Y016656D01*
X017402Y016698D01*
X017385Y016742D01*
X017371Y016787D01*
X017361Y016833D01*
X017355Y016880D01*
X017353Y016927D01*
X018556Y016932D02*
X018502Y016932D01*
X018503Y016933D02*
X018501Y016977D01*
X018496Y017020D01*
X018487Y017063D01*
X018476Y017105D01*
X018461Y017146D01*
X018443Y017186D01*
X018421Y017225D01*
X018398Y017261D01*
X018371Y017296D01*
X018342Y017329D01*
X018310Y017359D01*
X018276Y017387D01*
X018308Y017429D01*
X018309Y017430D01*
X018346Y017399D01*
X018380Y017366D01*
X018412Y017331D01*
X018442Y017293D01*
X018468Y017252D01*
X018491Y017210D01*
X018511Y017167D01*
X018527Y017122D01*
X018540Y017076D01*
X018549Y017028D01*
X018555Y016981D01*
X018557Y016933D01*
X018552Y016933D01*
X018550Y016981D01*
X018544Y017028D01*
X018535Y017074D01*
X018522Y017120D01*
X018506Y017165D01*
X018486Y017208D01*
X018463Y017250D01*
X018437Y017290D01*
X018409Y017327D01*
X018377Y017363D01*
X018342Y017396D01*
X018306Y017426D01*
X018303Y017422D01*
X018339Y017392D01*
X018373Y017359D01*
X018405Y017324D01*
X018433Y017287D01*
X018459Y017247D01*
X018482Y017206D01*
X018501Y017163D01*
X018517Y017119D01*
X018530Y017073D01*
X018539Y017027D01*
X018545Y016980D01*
X018547Y016933D01*
X018542Y016933D01*
X018540Y016980D01*
X018534Y017026D01*
X018525Y017072D01*
X018513Y017117D01*
X018497Y017161D01*
X018477Y017204D01*
X018455Y017245D01*
X018429Y017284D01*
X018401Y017321D01*
X018370Y017356D01*
X018336Y017388D01*
X018300Y017418D01*
X018297Y017414D01*
X018332Y017384D01*
X018366Y017352D01*
X018397Y017318D01*
X018425Y017281D01*
X018451Y017242D01*
X018473Y017201D01*
X018492Y017159D01*
X018508Y017116D01*
X018520Y017071D01*
X018529Y017025D01*
X018535Y016979D01*
X018537Y016933D01*
X018532Y016933D01*
X018530Y016979D01*
X018525Y017025D01*
X018516Y017070D01*
X018503Y017114D01*
X018487Y017157D01*
X018468Y017199D01*
X018446Y017240D01*
X018421Y017278D01*
X018393Y017315D01*
X018362Y017349D01*
X018329Y017381D01*
X018294Y017410D01*
X018291Y017406D01*
X018326Y017377D01*
X018359Y017345D01*
X018389Y017311D01*
X018417Y017275D01*
X018442Y017237D01*
X018464Y017197D01*
X018483Y017155D01*
X018498Y017113D01*
X018511Y017069D01*
X018520Y017024D01*
X018525Y016979D01*
X018527Y016933D01*
X018522Y016933D01*
X018520Y016978D01*
X018515Y017023D01*
X018506Y017067D01*
X018494Y017111D01*
X018478Y017154D01*
X018460Y017195D01*
X018438Y017234D01*
X018413Y017272D01*
X018385Y017308D01*
X018355Y017342D01*
X018323Y017373D01*
X018288Y017402D01*
X018285Y017398D01*
X018319Y017369D01*
X018352Y017338D01*
X018382Y017305D01*
X018409Y017269D01*
X018433Y017232D01*
X018455Y017193D01*
X018474Y017152D01*
X018489Y017110D01*
X018501Y017066D01*
X018510Y017022D01*
X018515Y016978D01*
X018517Y016933D01*
X018512Y016933D01*
X018510Y016977D01*
X018505Y017022D01*
X018496Y017065D01*
X018484Y017108D01*
X018469Y017150D01*
X018451Y017190D01*
X018429Y017229D01*
X018405Y017266D01*
X018378Y017302D01*
X018348Y017335D01*
X018316Y017366D01*
X018282Y017394D01*
X018279Y017390D01*
X018313Y017362D01*
X018345Y017331D01*
X018374Y017299D01*
X018401Y017264D01*
X018425Y017227D01*
X018446Y017188D01*
X018464Y017148D01*
X018479Y017106D01*
X018491Y017064D01*
X018500Y017021D01*
X018505Y016977D01*
X018507Y016933D01*
X011213Y011268D02*
X011252Y011304D01*
X011293Y011262D01*
X011337Y011223D01*
X011384Y011186D01*
X011432Y011153D01*
X011483Y011123D01*
X011535Y011096D01*
X011589Y011072D01*
X011645Y011052D01*
X011701Y011036D01*
X011759Y011023D01*
X011817Y011014D01*
X011876Y011009D01*
X011935Y011007D01*
X011993Y011009D01*
X012052Y011015D01*
X012110Y011025D01*
X012168Y011038D01*
X012224Y011055D01*
X012279Y011076D01*
X012333Y011100D01*
X012385Y011127D01*
X012435Y011158D01*
X012484Y011192D01*
X012530Y011228D01*
X012573Y011268D01*
X012614Y011310D01*
X012652Y011355D01*
X012688Y011403D01*
X012720Y011452D01*
X012749Y011503D01*
X012774Y011557D01*
X012823Y011535D01*
X012824Y011535D01*
X012797Y011480D01*
X012768Y011428D01*
X012735Y011377D01*
X012700Y011328D01*
X012661Y011282D01*
X012619Y011238D01*
X012575Y011196D01*
X012529Y011158D01*
X012480Y011122D01*
X012429Y011090D01*
X012376Y011061D01*
X012321Y011035D01*
X012265Y011012D01*
X012208Y010993D01*
X012149Y010978D01*
X012090Y010966D01*
X012030Y010958D01*
X011970Y010954D01*
X011909Y010953D01*
X011849Y010956D01*
X011789Y010963D01*
X011730Y010974D01*
X011671Y010988D01*
X011613Y011006D01*
X011557Y011027D01*
X011501Y011052D01*
X011448Y011080D01*
X011396Y011112D01*
X011347Y011146D01*
X011299Y011184D01*
X011254Y011224D01*
X011212Y011267D01*
X011216Y011271D01*
X011259Y011226D01*
X011306Y011185D01*
X011354Y011147D01*
X011406Y011112D01*
X011459Y011080D01*
X011514Y011051D01*
X011571Y011027D01*
X011629Y011006D01*
X011689Y010988D01*
X011750Y010975D01*
X011811Y010965D01*
X011873Y010960D01*
X011935Y010958D01*
X011997Y010960D01*
X012059Y010967D01*
X012120Y010977D01*
X012180Y010991D01*
X012240Y011009D01*
X012298Y011030D01*
X012354Y011056D01*
X012409Y011084D01*
X012462Y011117D01*
X012513Y011152D01*
X012562Y011191D01*
X012607Y011233D01*
X012651Y011278D01*
X012691Y011325D01*
X012728Y011375D01*
X012762Y011427D01*
X012792Y011481D01*
X012819Y011537D01*
X012814Y011539D01*
X012788Y011483D01*
X012757Y011429D01*
X012724Y011378D01*
X012687Y011328D01*
X012647Y011281D01*
X012604Y011237D01*
X012558Y011195D01*
X012510Y011156D01*
X012460Y011121D01*
X012407Y011089D01*
X012352Y011060D01*
X012296Y011035D01*
X012238Y011013D01*
X012179Y010996D01*
X012119Y010982D01*
X012058Y010971D01*
X011996Y010965D01*
X011935Y010963D01*
X011873Y010965D01*
X011812Y010970D01*
X011751Y010980D01*
X011690Y010993D01*
X011631Y011010D01*
X011573Y011031D01*
X011516Y011056D01*
X011461Y011084D01*
X011408Y011116D01*
X011357Y011151D01*
X011309Y011189D01*
X011263Y011230D01*
X011219Y011274D01*
X011223Y011277D01*
X011266Y011234D01*
X011312Y011193D01*
X011360Y011155D01*
X011411Y011120D01*
X011464Y011089D01*
X011518Y011061D01*
X011575Y011036D01*
X011632Y011015D01*
X011691Y010998D01*
X011751Y010985D01*
X011812Y010975D01*
X011873Y010970D01*
X011935Y010968D01*
X011996Y010970D01*
X012057Y010976D01*
X012118Y010987D01*
X012178Y011000D01*
X012236Y011018D01*
X012294Y011040D01*
X012350Y011065D01*
X012404Y011093D01*
X012457Y011125D01*
X012507Y011160D01*
X012555Y011199D01*
X012601Y011240D01*
X012643Y011284D01*
X012683Y011331D01*
X012720Y011380D01*
X012753Y011432D01*
X012783Y011486D01*
X012810Y011541D01*
X012805Y011543D01*
X012779Y011488D01*
X012749Y011435D01*
X012715Y011383D01*
X012679Y011334D01*
X012639Y011288D01*
X012597Y011244D01*
X012552Y011203D01*
X012504Y011164D01*
X012454Y011129D01*
X012402Y011097D01*
X012348Y011069D01*
X012292Y011044D01*
X012235Y011023D01*
X012176Y011005D01*
X012117Y010991D01*
X012057Y010981D01*
X011996Y010975D01*
X011935Y010973D01*
X011874Y010975D01*
X011813Y010980D01*
X011752Y010990D01*
X011693Y011003D01*
X011634Y011020D01*
X011577Y011041D01*
X011521Y011065D01*
X011466Y011093D01*
X011414Y011124D01*
X011363Y011159D01*
X011315Y011197D01*
X011270Y011237D01*
X011227Y011281D01*
X011231Y011284D01*
X011273Y011241D01*
X011318Y011200D01*
X011366Y011163D01*
X011416Y011128D01*
X011469Y011097D01*
X011523Y011070D01*
X011578Y011045D01*
X011636Y011025D01*
X011694Y011008D01*
X011753Y010995D01*
X011813Y010985D01*
X011874Y010980D01*
X011935Y010978D01*
X011995Y010980D01*
X012056Y010986D01*
X012116Y010996D01*
X012175Y011010D01*
X012233Y011028D01*
X012290Y011049D01*
X012346Y011074D01*
X012400Y011102D01*
X012451Y011133D01*
X012501Y011168D01*
X012549Y011206D01*
X012594Y011247D01*
X012636Y011291D01*
X012675Y011337D01*
X012711Y011386D01*
X012744Y011437D01*
X012774Y011490D01*
X012801Y011545D01*
X012796Y011547D01*
X012770Y011492D01*
X012740Y011440D01*
X012707Y011389D01*
X012671Y011341D01*
X012632Y011294D01*
X012590Y011251D01*
X012545Y011210D01*
X012498Y011172D01*
X012449Y011138D01*
X012397Y011106D01*
X012344Y011078D01*
X012288Y011053D01*
X012232Y011032D01*
X012174Y011015D01*
X012115Y011001D01*
X012055Y010991D01*
X011995Y010985D01*
X011935Y010983D01*
X011874Y010985D01*
X011814Y010990D01*
X011754Y010999D01*
X011695Y011013D01*
X011637Y011029D01*
X011580Y011050D01*
X011525Y011074D01*
X011471Y011102D01*
X011419Y011133D01*
X011369Y011167D01*
X011322Y011204D01*
X011277Y011244D01*
X011234Y011288D01*
X011238Y011291D01*
X011280Y011248D01*
X011325Y011208D01*
X011372Y011171D01*
X011422Y011137D01*
X011473Y011106D01*
X011527Y011079D01*
X011582Y011055D01*
X011639Y011034D01*
X011696Y011017D01*
X011755Y011004D01*
X011815Y010995D01*
X011874Y010990D01*
X011935Y010988D01*
X011995Y010990D01*
X012055Y010996D01*
X012114Y011006D01*
X012172Y011020D01*
X012230Y011037D01*
X012286Y011058D01*
X012341Y011083D01*
X012395Y011111D01*
X012446Y011142D01*
X012495Y011176D01*
X012542Y011214D01*
X012587Y011254D01*
X012628Y011298D01*
X012667Y011344D01*
X012703Y011392D01*
X012736Y011442D01*
X012765Y011495D01*
X012791Y011549D01*
X012787Y011551D01*
X012761Y011497D01*
X012732Y011445D01*
X012699Y011395D01*
X012663Y011347D01*
X012625Y011301D01*
X012583Y011258D01*
X012539Y011218D01*
X012492Y011180D01*
X012443Y011146D01*
X012392Y011115D01*
X012339Y011087D01*
X012285Y011063D01*
X012228Y011042D01*
X012171Y011025D01*
X012113Y011011D01*
X012054Y011001D01*
X011994Y010995D01*
X011935Y010993D01*
X011875Y010995D01*
X011815Y011000D01*
X011756Y011009D01*
X011698Y011022D01*
X011640Y011039D01*
X011584Y011059D01*
X011529Y011083D01*
X011476Y011110D01*
X011425Y011141D01*
X011375Y011175D01*
X011328Y011212D01*
X011284Y011252D01*
X011242Y011294D01*
X011245Y011298D01*
X011287Y011255D01*
X011331Y011216D01*
X011378Y011179D01*
X011427Y011145D01*
X011478Y011115D01*
X011531Y011088D01*
X011586Y011064D01*
X011642Y011044D01*
X011699Y011027D01*
X011757Y011014D01*
X011816Y011005D01*
X011875Y011000D01*
X011935Y010998D01*
X011994Y011000D01*
X012053Y011006D01*
X012112Y011016D01*
X012170Y011029D01*
X012227Y011047D01*
X012283Y011067D01*
X012337Y011092D01*
X012390Y011119D01*
X012440Y011150D01*
X012489Y011184D01*
X012536Y011222D01*
X012580Y011262D01*
X012621Y011304D01*
X012659Y011350D01*
X012695Y011398D01*
X012727Y011447D01*
X012757Y011499D01*
X012782Y011553D01*
X012778Y011555D01*
X012752Y011502D01*
X012723Y011450D01*
X012691Y011400D01*
X012655Y011353D01*
X012617Y011308D01*
X012576Y011265D01*
X012532Y011225D01*
X012486Y011188D01*
X012438Y011154D01*
X012387Y011124D01*
X012335Y011096D01*
X012281Y011072D01*
X012225Y011051D01*
X012169Y011034D01*
X012111Y011021D01*
X012053Y011011D01*
X011994Y011005D01*
X011935Y011003D01*
X011875Y011005D01*
X011816Y011010D01*
X011758Y011019D01*
X011700Y011032D01*
X011643Y011048D01*
X011588Y011069D01*
X011533Y011092D01*
X011481Y011119D01*
X011430Y011149D01*
X011381Y011183D01*
X011335Y011219D01*
X011290Y011259D01*
X011249Y011301D01*
X012823Y012325D02*
X012774Y012303D01*
X012749Y012357D01*
X012720Y012408D01*
X012688Y012457D01*
X012652Y012505D01*
X012614Y012550D01*
X012573Y012592D01*
X012530Y012632D01*
X012484Y012668D01*
X012435Y012702D01*
X012385Y012733D01*
X012333Y012760D01*
X012279Y012784D01*
X012224Y012805D01*
X012168Y012822D01*
X012110Y012835D01*
X012052Y012845D01*
X011993Y012851D01*
X011935Y012853D01*
X011876Y012851D01*
X011817Y012846D01*
X011759Y012837D01*
X011701Y012824D01*
X011645Y012808D01*
X011589Y012788D01*
X011535Y012764D01*
X011483Y012737D01*
X011432Y012707D01*
X011384Y012674D01*
X011337Y012637D01*
X011293Y012598D01*
X011252Y012556D01*
X011213Y012592D01*
X011212Y012593D01*
X011254Y012636D01*
X011299Y012676D01*
X011347Y012714D01*
X011396Y012748D01*
X011448Y012780D01*
X011501Y012808D01*
X011557Y012833D01*
X011613Y012854D01*
X011671Y012872D01*
X011730Y012886D01*
X011789Y012897D01*
X011849Y012904D01*
X011909Y012907D01*
X011970Y012906D01*
X012030Y012902D01*
X012090Y012894D01*
X012149Y012882D01*
X012208Y012867D01*
X012265Y012848D01*
X012321Y012825D01*
X012376Y012799D01*
X012429Y012770D01*
X012480Y012738D01*
X012529Y012702D01*
X012575Y012664D01*
X012619Y012622D01*
X012661Y012578D01*
X012700Y012532D01*
X012735Y012483D01*
X012768Y012432D01*
X012797Y012380D01*
X012824Y012325D01*
X012819Y012323D01*
X012792Y012379D01*
X012762Y012433D01*
X012728Y012485D01*
X012691Y012535D01*
X012651Y012582D01*
X012607Y012627D01*
X012562Y012669D01*
X012513Y012708D01*
X012462Y012743D01*
X012409Y012776D01*
X012354Y012804D01*
X012298Y012830D01*
X012240Y012851D01*
X012180Y012869D01*
X012120Y012883D01*
X012059Y012893D01*
X011997Y012900D01*
X011935Y012902D01*
X011873Y012900D01*
X011811Y012895D01*
X011750Y012885D01*
X011689Y012872D01*
X011629Y012854D01*
X011571Y012833D01*
X011514Y012809D01*
X011459Y012780D01*
X011406Y012748D01*
X011354Y012713D01*
X011306Y012675D01*
X011259Y012634D01*
X011216Y012589D01*
X011219Y012586D01*
X011263Y012630D01*
X011309Y012671D01*
X011357Y012709D01*
X011408Y012744D01*
X011461Y012776D01*
X011516Y012804D01*
X011573Y012829D01*
X011631Y012850D01*
X011690Y012867D01*
X011751Y012880D01*
X011812Y012890D01*
X011873Y012895D01*
X011935Y012897D01*
X011996Y012895D01*
X012058Y012889D01*
X012119Y012878D01*
X012179Y012864D01*
X012238Y012847D01*
X012296Y012825D01*
X012352Y012800D01*
X012407Y012771D01*
X012460Y012739D01*
X012510Y012704D01*
X012558Y012665D01*
X012604Y012623D01*
X012647Y012579D01*
X012687Y012532D01*
X012724Y012482D01*
X012757Y012431D01*
X012788Y012377D01*
X012814Y012321D01*
X012810Y012319D01*
X012783Y012374D01*
X012753Y012428D01*
X012720Y012480D01*
X012683Y012529D01*
X012643Y012576D01*
X012601Y012620D01*
X012555Y012661D01*
X012507Y012700D01*
X012457Y012735D01*
X012404Y012767D01*
X012350Y012795D01*
X012294Y012820D01*
X012236Y012842D01*
X012178Y012860D01*
X012118Y012873D01*
X012057Y012884D01*
X011996Y012890D01*
X011935Y012892D01*
X011873Y012890D01*
X011812Y012885D01*
X011751Y012875D01*
X011691Y012862D01*
X011632Y012845D01*
X011575Y012824D01*
X011518Y012799D01*
X011464Y012771D01*
X011411Y012740D01*
X011360Y012705D01*
X011312Y012667D01*
X011266Y012626D01*
X011223Y012583D01*
X011227Y012579D01*
X011270Y012623D01*
X011315Y012663D01*
X011363Y012701D01*
X011414Y012736D01*
X011466Y012767D01*
X011521Y012795D01*
X011577Y012819D01*
X011634Y012840D01*
X011693Y012857D01*
X011752Y012870D01*
X011813Y012880D01*
X011874Y012885D01*
X011935Y012887D01*
X011996Y012885D01*
X012057Y012879D01*
X012117Y012869D01*
X012176Y012855D01*
X012235Y012837D01*
X012292Y012816D01*
X012348Y012791D01*
X012402Y012763D01*
X012454Y012731D01*
X012504Y012696D01*
X012552Y012657D01*
X012597Y012616D01*
X012639Y012572D01*
X012679Y012526D01*
X012715Y012477D01*
X012749Y012425D01*
X012779Y012372D01*
X012805Y012317D01*
X012801Y012315D01*
X012774Y012370D01*
X012744Y012423D01*
X012711Y012474D01*
X012675Y012523D01*
X012636Y012569D01*
X012594Y012613D01*
X012549Y012654D01*
X012501Y012692D01*
X012451Y012727D01*
X012400Y012758D01*
X012346Y012786D01*
X012290Y012811D01*
X012233Y012832D01*
X012175Y012850D01*
X012116Y012864D01*
X012056Y012874D01*
X011995Y012880D01*
X011935Y012882D01*
X011874Y012880D01*
X011813Y012875D01*
X011753Y012865D01*
X011694Y012852D01*
X011636Y012835D01*
X011578Y012815D01*
X011523Y012790D01*
X011469Y012763D01*
X011416Y012732D01*
X011366Y012697D01*
X011318Y012660D01*
X011273Y012619D01*
X011231Y012576D01*
X011234Y012572D01*
X011277Y012616D01*
X011322Y012656D01*
X011369Y012693D01*
X011419Y012727D01*
X011471Y012758D01*
X011525Y012786D01*
X011580Y012810D01*
X011637Y012831D01*
X011695Y012847D01*
X011754Y012861D01*
X011814Y012870D01*
X011874Y012875D01*
X011935Y012877D01*
X011995Y012875D01*
X012055Y012869D01*
X012115Y012859D01*
X012174Y012845D01*
X012232Y012828D01*
X012288Y012807D01*
X012344Y012782D01*
X012397Y012754D01*
X012449Y012722D01*
X012498Y012688D01*
X012545Y012650D01*
X012590Y012609D01*
X012632Y012566D01*
X012671Y012519D01*
X012707Y012471D01*
X012740Y012420D01*
X012770Y012368D01*
X012796Y012313D01*
X012791Y012311D01*
X012765Y012365D01*
X012736Y012418D01*
X012703Y012468D01*
X012667Y012516D01*
X012628Y012562D01*
X012587Y012606D01*
X012542Y012646D01*
X012495Y012684D01*
X012446Y012718D01*
X012395Y012749D01*
X012341Y012777D01*
X012286Y012802D01*
X012230Y012823D01*
X012172Y012840D01*
X012114Y012854D01*
X012055Y012864D01*
X011995Y012870D01*
X011935Y012872D01*
X011874Y012870D01*
X011815Y012865D01*
X011755Y012856D01*
X011696Y012843D01*
X011639Y012826D01*
X011582Y012805D01*
X011527Y012781D01*
X011473Y012754D01*
X011422Y012723D01*
X011372Y012689D01*
X011325Y012652D01*
X011280Y012612D01*
X011238Y012569D01*
X011242Y012566D01*
X011284Y012608D01*
X011328Y012648D01*
X011375Y012685D01*
X011425Y012719D01*
X011476Y012750D01*
X011529Y012777D01*
X011584Y012801D01*
X011640Y012821D01*
X011698Y012838D01*
X011756Y012851D01*
X011815Y012860D01*
X011875Y012865D01*
X011935Y012867D01*
X011994Y012865D01*
X012054Y012859D01*
X012113Y012849D01*
X012171Y012835D01*
X012228Y012818D01*
X012285Y012797D01*
X012339Y012773D01*
X012392Y012745D01*
X012443Y012714D01*
X012492Y012680D01*
X012539Y012642D01*
X012583Y012602D01*
X012625Y012559D01*
X012663Y012513D01*
X012699Y012465D01*
X012732Y012415D01*
X012761Y012363D01*
X012787Y012309D01*
X012782Y012307D01*
X012757Y012361D01*
X012727Y012413D01*
X012695Y012462D01*
X012659Y012510D01*
X012621Y012556D01*
X012580Y012598D01*
X012536Y012638D01*
X012489Y012676D01*
X012440Y012710D01*
X012390Y012741D01*
X012337Y012768D01*
X012283Y012793D01*
X012227Y012813D01*
X012170Y012831D01*
X012112Y012844D01*
X012053Y012854D01*
X011994Y012860D01*
X011935Y012862D01*
X011875Y012860D01*
X011816Y012855D01*
X011757Y012846D01*
X011699Y012833D01*
X011642Y012816D01*
X011586Y012796D01*
X011531Y012772D01*
X011478Y012745D01*
X011427Y012715D01*
X011378Y012681D01*
X011331Y012644D01*
X011287Y012605D01*
X011245Y012562D01*
X011249Y012559D01*
X011290Y012601D01*
X011335Y012641D01*
X011381Y012677D01*
X011430Y012711D01*
X011481Y012741D01*
X011533Y012768D01*
X011588Y012791D01*
X011643Y012812D01*
X011700Y012828D01*
X011758Y012841D01*
X011816Y012850D01*
X011875Y012855D01*
X011935Y012857D01*
X011994Y012855D01*
X012053Y012849D01*
X012111Y012839D01*
X012169Y012826D01*
X012225Y012809D01*
X012281Y012788D01*
X012335Y012764D01*
X012387Y012736D01*
X012438Y012706D01*
X012486Y012672D01*
X012532Y012635D01*
X012576Y012595D01*
X012617Y012552D01*
X012655Y012507D01*
X012691Y012460D01*
X012723Y012410D01*
X012752Y012358D01*
X012778Y012305D01*
X009213Y011268D02*
X009252Y011304D01*
X009293Y011262D01*
X009337Y011223D01*
X009384Y011186D01*
X009432Y011153D01*
X009483Y011123D01*
X009535Y011096D01*
X009589Y011072D01*
X009645Y011052D01*
X009701Y011036D01*
X009759Y011023D01*
X009817Y011014D01*
X009876Y011009D01*
X009935Y011007D01*
X009993Y011009D01*
X010052Y011015D01*
X010110Y011025D01*
X010168Y011038D01*
X010224Y011055D01*
X010279Y011076D01*
X010333Y011100D01*
X010385Y011127D01*
X010435Y011158D01*
X010484Y011192D01*
X010530Y011228D01*
X010573Y011268D01*
X010614Y011310D01*
X010652Y011355D01*
X010688Y011403D01*
X010720Y011452D01*
X010749Y011503D01*
X010774Y011557D01*
X010823Y011535D01*
X010824Y011535D01*
X010797Y011480D01*
X010768Y011428D01*
X010735Y011377D01*
X010700Y011328D01*
X010661Y011282D01*
X010619Y011238D01*
X010575Y011196D01*
X010529Y011158D01*
X010480Y011122D01*
X010429Y011090D01*
X010376Y011061D01*
X010321Y011035D01*
X010265Y011012D01*
X010208Y010993D01*
X010149Y010978D01*
X010090Y010966D01*
X010030Y010958D01*
X009970Y010954D01*
X009909Y010953D01*
X009849Y010956D01*
X009789Y010963D01*
X009730Y010974D01*
X009671Y010988D01*
X009613Y011006D01*
X009557Y011027D01*
X009501Y011052D01*
X009448Y011080D01*
X009396Y011112D01*
X009347Y011146D01*
X009299Y011184D01*
X009254Y011224D01*
X009212Y011267D01*
X009216Y011271D01*
X009259Y011226D01*
X009306Y011185D01*
X009354Y011147D01*
X009406Y011112D01*
X009459Y011080D01*
X009514Y011051D01*
X009571Y011027D01*
X009629Y011006D01*
X009689Y010988D01*
X009750Y010975D01*
X009811Y010965D01*
X009873Y010960D01*
X009935Y010958D01*
X009997Y010960D01*
X010059Y010967D01*
X010120Y010977D01*
X010180Y010991D01*
X010240Y011009D01*
X010298Y011030D01*
X010354Y011056D01*
X010409Y011084D01*
X010462Y011117D01*
X010513Y011152D01*
X010562Y011191D01*
X010607Y011233D01*
X010651Y011278D01*
X010691Y011325D01*
X010728Y011375D01*
X010762Y011427D01*
X010792Y011481D01*
X010819Y011537D01*
X010814Y011539D01*
X010788Y011483D01*
X010757Y011429D01*
X010724Y011378D01*
X010687Y011328D01*
X010647Y011281D01*
X010604Y011237D01*
X010558Y011195D01*
X010510Y011156D01*
X010460Y011121D01*
X010407Y011089D01*
X010352Y011060D01*
X010296Y011035D01*
X010238Y011013D01*
X010179Y010996D01*
X010119Y010982D01*
X010058Y010971D01*
X009996Y010965D01*
X009935Y010963D01*
X009873Y010965D01*
X009812Y010970D01*
X009751Y010980D01*
X009690Y010993D01*
X009631Y011010D01*
X009573Y011031D01*
X009516Y011056D01*
X009461Y011084D01*
X009408Y011116D01*
X009357Y011151D01*
X009309Y011189D01*
X009263Y011230D01*
X009219Y011274D01*
X009223Y011277D01*
X009266Y011234D01*
X009312Y011193D01*
X009360Y011155D01*
X009411Y011120D01*
X009464Y011089D01*
X009518Y011061D01*
X009575Y011036D01*
X009632Y011015D01*
X009691Y010998D01*
X009751Y010985D01*
X009812Y010975D01*
X009873Y010970D01*
X009935Y010968D01*
X009996Y010970D01*
X010057Y010976D01*
X010118Y010987D01*
X010178Y011000D01*
X010236Y011018D01*
X010294Y011040D01*
X010350Y011065D01*
X010404Y011093D01*
X010457Y011125D01*
X010507Y011160D01*
X010555Y011199D01*
X010601Y011240D01*
X010643Y011284D01*
X010683Y011331D01*
X010720Y011380D01*
X010753Y011432D01*
X010783Y011486D01*
X010810Y011541D01*
X010805Y011543D01*
X010779Y011488D01*
X010749Y011435D01*
X010715Y011383D01*
X010679Y011334D01*
X010639Y011288D01*
X010597Y011244D01*
X010552Y011203D01*
X010504Y011164D01*
X010454Y011129D01*
X010402Y011097D01*
X010348Y011069D01*
X010292Y011044D01*
X010235Y011023D01*
X010176Y011005D01*
X010117Y010991D01*
X010057Y010981D01*
X009996Y010975D01*
X009935Y010973D01*
X009874Y010975D01*
X009813Y010980D01*
X009752Y010990D01*
X009693Y011003D01*
X009634Y011020D01*
X009577Y011041D01*
X009521Y011065D01*
X009466Y011093D01*
X009414Y011124D01*
X009363Y011159D01*
X009315Y011197D01*
X009270Y011237D01*
X009227Y011281D01*
X009231Y011284D01*
X009273Y011241D01*
X009318Y011200D01*
X009366Y011163D01*
X009416Y011128D01*
X009469Y011097D01*
X009523Y011070D01*
X009578Y011045D01*
X009636Y011025D01*
X009694Y011008D01*
X009753Y010995D01*
X009813Y010985D01*
X009874Y010980D01*
X009935Y010978D01*
X009995Y010980D01*
X010056Y010986D01*
X010116Y010996D01*
X010175Y011010D01*
X010233Y011028D01*
X010290Y011049D01*
X010346Y011074D01*
X010400Y011102D01*
X010451Y011133D01*
X010501Y011168D01*
X010549Y011206D01*
X010594Y011247D01*
X010636Y011291D01*
X010675Y011337D01*
X010711Y011386D01*
X010744Y011437D01*
X010774Y011490D01*
X010801Y011545D01*
X010796Y011547D01*
X010770Y011492D01*
X010740Y011440D01*
X010707Y011389D01*
X010671Y011341D01*
X010632Y011294D01*
X010590Y011251D01*
X010545Y011210D01*
X010498Y011172D01*
X010449Y011138D01*
X010397Y011106D01*
X010344Y011078D01*
X010288Y011053D01*
X010232Y011032D01*
X010174Y011015D01*
X010115Y011001D01*
X010055Y010991D01*
X009995Y010985D01*
X009935Y010983D01*
X009874Y010985D01*
X009814Y010990D01*
X009754Y010999D01*
X009695Y011013D01*
X009637Y011029D01*
X009580Y011050D01*
X009525Y011074D01*
X009471Y011102D01*
X009419Y011133D01*
X009369Y011167D01*
X009322Y011204D01*
X009277Y011244D01*
X009234Y011288D01*
X009238Y011291D01*
X009280Y011248D01*
X009325Y011208D01*
X009372Y011171D01*
X009422Y011137D01*
X009473Y011106D01*
X009527Y011079D01*
X009582Y011055D01*
X009639Y011034D01*
X009696Y011017D01*
X009755Y011004D01*
X009815Y010995D01*
X009874Y010990D01*
X009935Y010988D01*
X009995Y010990D01*
X010055Y010996D01*
X010114Y011006D01*
X010172Y011020D01*
X010230Y011037D01*
X010286Y011058D01*
X010341Y011083D01*
X010395Y011111D01*
X010446Y011142D01*
X010495Y011176D01*
X010542Y011214D01*
X010587Y011254D01*
X010628Y011298D01*
X010667Y011344D01*
X010703Y011392D01*
X010736Y011442D01*
X010765Y011495D01*
X010791Y011549D01*
X010787Y011551D01*
X010761Y011497D01*
X010732Y011445D01*
X010699Y011395D01*
X010663Y011347D01*
X010625Y011301D01*
X010583Y011258D01*
X010539Y011218D01*
X010492Y011180D01*
X010443Y011146D01*
X010392Y011115D01*
X010339Y011087D01*
X010285Y011063D01*
X010228Y011042D01*
X010171Y011025D01*
X010113Y011011D01*
X010054Y011001D01*
X009994Y010995D01*
X009935Y010993D01*
X009875Y010995D01*
X009815Y011000D01*
X009756Y011009D01*
X009698Y011022D01*
X009640Y011039D01*
X009584Y011059D01*
X009529Y011083D01*
X009476Y011110D01*
X009425Y011141D01*
X009375Y011175D01*
X009328Y011212D01*
X009284Y011252D01*
X009242Y011294D01*
X009245Y011298D01*
X009287Y011255D01*
X009331Y011216D01*
X009378Y011179D01*
X009427Y011145D01*
X009478Y011115D01*
X009531Y011088D01*
X009586Y011064D01*
X009642Y011044D01*
X009699Y011027D01*
X009757Y011014D01*
X009816Y011005D01*
X009875Y011000D01*
X009935Y010998D01*
X009994Y011000D01*
X010053Y011006D01*
X010112Y011016D01*
X010170Y011029D01*
X010227Y011047D01*
X010283Y011067D01*
X010337Y011092D01*
X010390Y011119D01*
X010440Y011150D01*
X010489Y011184D01*
X010536Y011222D01*
X010580Y011262D01*
X010621Y011304D01*
X010659Y011350D01*
X010695Y011398D01*
X010727Y011447D01*
X010757Y011499D01*
X010782Y011553D01*
X010778Y011555D01*
X010752Y011502D01*
X010723Y011450D01*
X010691Y011400D01*
X010655Y011353D01*
X010617Y011308D01*
X010576Y011265D01*
X010532Y011225D01*
X010486Y011188D01*
X010438Y011154D01*
X010387Y011124D01*
X010335Y011096D01*
X010281Y011072D01*
X010225Y011051D01*
X010169Y011034D01*
X010111Y011021D01*
X010053Y011011D01*
X009994Y011005D01*
X009935Y011003D01*
X009875Y011005D01*
X009816Y011010D01*
X009758Y011019D01*
X009700Y011032D01*
X009643Y011048D01*
X009588Y011069D01*
X009533Y011092D01*
X009481Y011119D01*
X009430Y011149D01*
X009381Y011183D01*
X009335Y011219D01*
X009290Y011259D01*
X009249Y011301D01*
X010823Y012325D02*
X010774Y012303D01*
X010749Y012357D01*
X010720Y012408D01*
X010688Y012457D01*
X010652Y012505D01*
X010614Y012550D01*
X010573Y012592D01*
X010530Y012632D01*
X010484Y012668D01*
X010435Y012702D01*
X010385Y012733D01*
X010333Y012760D01*
X010279Y012784D01*
X010224Y012805D01*
X010168Y012822D01*
X010110Y012835D01*
X010052Y012845D01*
X009993Y012851D01*
X009935Y012853D01*
X009876Y012851D01*
X009817Y012846D01*
X009759Y012837D01*
X009701Y012824D01*
X009645Y012808D01*
X009589Y012788D01*
X009535Y012764D01*
X009483Y012737D01*
X009432Y012707D01*
X009384Y012674D01*
X009337Y012637D01*
X009293Y012598D01*
X009252Y012556D01*
X009213Y012592D01*
X009212Y012593D01*
X009254Y012636D01*
X009299Y012676D01*
X009347Y012714D01*
X009396Y012748D01*
X009448Y012780D01*
X009501Y012808D01*
X009557Y012833D01*
X009613Y012854D01*
X009671Y012872D01*
X009730Y012886D01*
X009789Y012897D01*
X009849Y012904D01*
X009909Y012907D01*
X009970Y012906D01*
X010030Y012902D01*
X010090Y012894D01*
X010149Y012882D01*
X010208Y012867D01*
X010265Y012848D01*
X010321Y012825D01*
X010376Y012799D01*
X010429Y012770D01*
X010480Y012738D01*
X010529Y012702D01*
X010575Y012664D01*
X010619Y012622D01*
X010661Y012578D01*
X010700Y012532D01*
X010735Y012483D01*
X010768Y012432D01*
X010797Y012380D01*
X010824Y012325D01*
X010819Y012323D01*
X010792Y012379D01*
X010762Y012433D01*
X010728Y012485D01*
X010691Y012535D01*
X010651Y012582D01*
X010607Y012627D01*
X010562Y012669D01*
X010513Y012708D01*
X010462Y012743D01*
X010409Y012776D01*
X010354Y012804D01*
X010298Y012830D01*
X010240Y012851D01*
X010180Y012869D01*
X010120Y012883D01*
X010059Y012893D01*
X009997Y012900D01*
X009935Y012902D01*
X009873Y012900D01*
X009811Y012895D01*
X009750Y012885D01*
X009689Y012872D01*
X009629Y012854D01*
X009571Y012833D01*
X009514Y012809D01*
X009459Y012780D01*
X009406Y012748D01*
X009354Y012713D01*
X009306Y012675D01*
X009259Y012634D01*
X009216Y012589D01*
X009219Y012586D01*
X009263Y012630D01*
X009309Y012671D01*
X009357Y012709D01*
X009408Y012744D01*
X009461Y012776D01*
X009516Y012804D01*
X009573Y012829D01*
X009631Y012850D01*
X009690Y012867D01*
X009751Y012880D01*
X009812Y012890D01*
X009873Y012895D01*
X009935Y012897D01*
X009996Y012895D01*
X010058Y012889D01*
X010119Y012878D01*
X010179Y012864D01*
X010238Y012847D01*
X010296Y012825D01*
X010352Y012800D01*
X010407Y012771D01*
X010460Y012739D01*
X010510Y012704D01*
X010558Y012665D01*
X010604Y012623D01*
X010647Y012579D01*
X010687Y012532D01*
X010724Y012482D01*
X010757Y012431D01*
X010788Y012377D01*
X010814Y012321D01*
X010810Y012319D01*
X010783Y012374D01*
X010753Y012428D01*
X010720Y012480D01*
X010683Y012529D01*
X010643Y012576D01*
X010601Y012620D01*
X010555Y012661D01*
X010507Y012700D01*
X010457Y012735D01*
X010404Y012767D01*
X010350Y012795D01*
X010294Y012820D01*
X010236Y012842D01*
X010178Y012860D01*
X010118Y012873D01*
X010057Y012884D01*
X009996Y012890D01*
X009935Y012892D01*
X009873Y012890D01*
X009812Y012885D01*
X009751Y012875D01*
X009691Y012862D01*
X009632Y012845D01*
X009575Y012824D01*
X009518Y012799D01*
X009464Y012771D01*
X009411Y012740D01*
X009360Y012705D01*
X009312Y012667D01*
X009266Y012626D01*
X009223Y012583D01*
X009227Y012579D01*
X009270Y012623D01*
X009315Y012663D01*
X009363Y012701D01*
X009414Y012736D01*
X009466Y012767D01*
X009521Y012795D01*
X009577Y012819D01*
X009634Y012840D01*
X009693Y012857D01*
X009752Y012870D01*
X009813Y012880D01*
X009874Y012885D01*
X009935Y012887D01*
X009996Y012885D01*
X010057Y012879D01*
X010117Y012869D01*
X010176Y012855D01*
X010235Y012837D01*
X010292Y012816D01*
X010348Y012791D01*
X010402Y012763D01*
X010454Y012731D01*
X010504Y012696D01*
X010552Y012657D01*
X010597Y012616D01*
X010639Y012572D01*
X010679Y012526D01*
X010715Y012477D01*
X010749Y012425D01*
X010779Y012372D01*
X010805Y012317D01*
X010801Y012315D01*
X010774Y012370D01*
X010744Y012423D01*
X010711Y012474D01*
X010675Y012523D01*
X010636Y012569D01*
X010594Y012613D01*
X010549Y012654D01*
X010501Y012692D01*
X010451Y012727D01*
X010400Y012758D01*
X010346Y012786D01*
X010290Y012811D01*
X010233Y012832D01*
X010175Y012850D01*
X010116Y012864D01*
X010056Y012874D01*
X009995Y012880D01*
X009935Y012882D01*
X009874Y012880D01*
X009813Y012875D01*
X009753Y012865D01*
X009694Y012852D01*
X009636Y012835D01*
X009578Y012815D01*
X009523Y012790D01*
X009469Y012763D01*
X009416Y012732D01*
X009366Y012697D01*
X009318Y012660D01*
X009273Y012619D01*
X009231Y012576D01*
X009234Y012572D01*
X009277Y012616D01*
X009322Y012656D01*
X009369Y012693D01*
X009419Y012727D01*
X009471Y012758D01*
X009525Y012786D01*
X009580Y012810D01*
X009637Y012831D01*
X009695Y012847D01*
X009754Y012861D01*
X009814Y012870D01*
X009874Y012875D01*
X009935Y012877D01*
X009995Y012875D01*
X010055Y012869D01*
X010115Y012859D01*
X010174Y012845D01*
X010232Y012828D01*
X010288Y012807D01*
X010344Y012782D01*
X010397Y012754D01*
X010449Y012722D01*
X010498Y012688D01*
X010545Y012650D01*
X010590Y012609D01*
X010632Y012566D01*
X010671Y012519D01*
X010707Y012471D01*
X010740Y012420D01*
X010770Y012368D01*
X010796Y012313D01*
X010791Y012311D01*
X010765Y012365D01*
X010736Y012418D01*
X010703Y012468D01*
X010667Y012516D01*
X010628Y012562D01*
X010587Y012606D01*
X010542Y012646D01*
X010495Y012684D01*
X010446Y012718D01*
X010395Y012749D01*
X010341Y012777D01*
X010286Y012802D01*
X010230Y012823D01*
X010172Y012840D01*
X010114Y012854D01*
X010055Y012864D01*
X009995Y012870D01*
X009935Y012872D01*
X009874Y012870D01*
X009815Y012865D01*
X009755Y012856D01*
X009696Y012843D01*
X009639Y012826D01*
X009582Y012805D01*
X009527Y012781D01*
X009473Y012754D01*
X009422Y012723D01*
X009372Y012689D01*
X009325Y012652D01*
X009280Y012612D01*
X009238Y012569D01*
X009242Y012566D01*
X009284Y012608D01*
X009328Y012648D01*
X009375Y012685D01*
X009425Y012719D01*
X009476Y012750D01*
X009529Y012777D01*
X009584Y012801D01*
X009640Y012821D01*
X009698Y012838D01*
X009756Y012851D01*
X009815Y012860D01*
X009875Y012865D01*
X009935Y012867D01*
X009994Y012865D01*
X010054Y012859D01*
X010113Y012849D01*
X010171Y012835D01*
X010228Y012818D01*
X010285Y012797D01*
X010339Y012773D01*
X010392Y012745D01*
X010443Y012714D01*
X010492Y012680D01*
X010539Y012642D01*
X010583Y012602D01*
X010625Y012559D01*
X010663Y012513D01*
X010699Y012465D01*
X010732Y012415D01*
X010761Y012363D01*
X010787Y012309D01*
X010782Y012307D01*
X010757Y012361D01*
X010727Y012413D01*
X010695Y012462D01*
X010659Y012510D01*
X010621Y012556D01*
X010580Y012598D01*
X010536Y012638D01*
X010489Y012676D01*
X010440Y012710D01*
X010390Y012741D01*
X010337Y012768D01*
X010283Y012793D01*
X010227Y012813D01*
X010170Y012831D01*
X010112Y012844D01*
X010053Y012854D01*
X009994Y012860D01*
X009935Y012862D01*
X009875Y012860D01*
X009816Y012855D01*
X009757Y012846D01*
X009699Y012833D01*
X009642Y012816D01*
X009586Y012796D01*
X009531Y012772D01*
X009478Y012745D01*
X009427Y012715D01*
X009378Y012681D01*
X009331Y012644D01*
X009287Y012605D01*
X009245Y012562D01*
X009249Y012559D01*
X009290Y012601D01*
X009335Y012641D01*
X009381Y012677D01*
X009430Y012711D01*
X009481Y012741D01*
X009533Y012768D01*
X009588Y012791D01*
X009643Y012812D01*
X009700Y012828D01*
X009758Y012841D01*
X009816Y012850D01*
X009875Y012855D01*
X009935Y012857D01*
X009994Y012855D01*
X010053Y012849D01*
X010111Y012839D01*
X010169Y012826D01*
X010225Y012809D01*
X010281Y012788D01*
X010335Y012764D01*
X010387Y012736D01*
X010438Y012706D01*
X010486Y012672D01*
X010532Y012635D01*
X010576Y012595D01*
X010617Y012552D01*
X010655Y012507D01*
X010691Y012460D01*
X010723Y012410D01*
X010752Y012358D01*
X010778Y012305D01*
X007213Y011268D02*
X007252Y011304D01*
X007293Y011262D01*
X007337Y011223D01*
X007384Y011186D01*
X007432Y011153D01*
X007483Y011123D01*
X007535Y011096D01*
X007589Y011072D01*
X007645Y011052D01*
X007701Y011036D01*
X007759Y011023D01*
X007817Y011014D01*
X007876Y011009D01*
X007935Y011007D01*
X007993Y011009D01*
X008052Y011015D01*
X008110Y011025D01*
X008168Y011038D01*
X008224Y011055D01*
X008279Y011076D01*
X008333Y011100D01*
X008385Y011127D01*
X008435Y011158D01*
X008484Y011192D01*
X008530Y011228D01*
X008573Y011268D01*
X008614Y011310D01*
X008652Y011355D01*
X008688Y011403D01*
X008720Y011452D01*
X008749Y011503D01*
X008774Y011557D01*
X008823Y011535D01*
X008824Y011535D01*
X008797Y011480D01*
X008768Y011428D01*
X008735Y011377D01*
X008700Y011328D01*
X008661Y011282D01*
X008619Y011238D01*
X008575Y011196D01*
X008529Y011158D01*
X008480Y011122D01*
X008429Y011090D01*
X008376Y011061D01*
X008321Y011035D01*
X008265Y011012D01*
X008208Y010993D01*
X008149Y010978D01*
X008090Y010966D01*
X008030Y010958D01*
X007970Y010954D01*
X007909Y010953D01*
X007849Y010956D01*
X007789Y010963D01*
X007730Y010974D01*
X007671Y010988D01*
X007613Y011006D01*
X007557Y011027D01*
X007501Y011052D01*
X007448Y011080D01*
X007396Y011112D01*
X007347Y011146D01*
X007299Y011184D01*
X007254Y011224D01*
X007212Y011267D01*
X007216Y011271D01*
X007259Y011226D01*
X007306Y011185D01*
X007354Y011147D01*
X007406Y011112D01*
X007459Y011080D01*
X007514Y011051D01*
X007571Y011027D01*
X007629Y011006D01*
X007689Y010988D01*
X007750Y010975D01*
X007811Y010965D01*
X007873Y010960D01*
X007935Y010958D01*
X007997Y010960D01*
X008059Y010967D01*
X008120Y010977D01*
X008180Y010991D01*
X008240Y011009D01*
X008298Y011030D01*
X008354Y011056D01*
X008409Y011084D01*
X008462Y011117D01*
X008513Y011152D01*
X008562Y011191D01*
X008607Y011233D01*
X008651Y011278D01*
X008691Y011325D01*
X008728Y011375D01*
X008762Y011427D01*
X008792Y011481D01*
X008819Y011537D01*
X008814Y011539D01*
X008788Y011483D01*
X008757Y011429D01*
X008724Y011378D01*
X008687Y011328D01*
X008647Y011281D01*
X008604Y011237D01*
X008558Y011195D01*
X008510Y011156D01*
X008460Y011121D01*
X008407Y011089D01*
X008352Y011060D01*
X008296Y011035D01*
X008238Y011013D01*
X008179Y010996D01*
X008119Y010982D01*
X008058Y010971D01*
X007996Y010965D01*
X007935Y010963D01*
X007873Y010965D01*
X007812Y010970D01*
X007751Y010980D01*
X007690Y010993D01*
X007631Y011010D01*
X007573Y011031D01*
X007516Y011056D01*
X007461Y011084D01*
X007408Y011116D01*
X007357Y011151D01*
X007309Y011189D01*
X007263Y011230D01*
X007219Y011274D01*
X007223Y011277D01*
X007266Y011234D01*
X007312Y011193D01*
X007360Y011155D01*
X007411Y011120D01*
X007464Y011089D01*
X007518Y011061D01*
X007575Y011036D01*
X007632Y011015D01*
X007691Y010998D01*
X007751Y010985D01*
X007812Y010975D01*
X007873Y010970D01*
X007935Y010968D01*
X007996Y010970D01*
X008057Y010976D01*
X008118Y010987D01*
X008178Y011000D01*
X008236Y011018D01*
X008294Y011040D01*
X008350Y011065D01*
X008404Y011093D01*
X008457Y011125D01*
X008507Y011160D01*
X008555Y011199D01*
X008601Y011240D01*
X008643Y011284D01*
X008683Y011331D01*
X008720Y011380D01*
X008753Y011432D01*
X008783Y011486D01*
X008810Y011541D01*
X008805Y011543D01*
X008779Y011488D01*
X008749Y011435D01*
X008715Y011383D01*
X008679Y011334D01*
X008639Y011288D01*
X008597Y011244D01*
X008552Y011203D01*
X008504Y011164D01*
X008454Y011129D01*
X008402Y011097D01*
X008348Y011069D01*
X008292Y011044D01*
X008235Y011023D01*
X008176Y011005D01*
X008117Y010991D01*
X008057Y010981D01*
X007996Y010975D01*
X007935Y010973D01*
X007874Y010975D01*
X007813Y010980D01*
X007752Y010990D01*
X007693Y011003D01*
X007634Y011020D01*
X007577Y011041D01*
X007521Y011065D01*
X007466Y011093D01*
X007414Y011124D01*
X007363Y011159D01*
X007315Y011197D01*
X007270Y011237D01*
X007227Y011281D01*
X007231Y011284D01*
X007273Y011241D01*
X007318Y011200D01*
X007366Y011163D01*
X007416Y011128D01*
X007469Y011097D01*
X007523Y011070D01*
X007578Y011045D01*
X007636Y011025D01*
X007694Y011008D01*
X007753Y010995D01*
X007813Y010985D01*
X007874Y010980D01*
X007935Y010978D01*
X007995Y010980D01*
X008056Y010986D01*
X008116Y010996D01*
X008175Y011010D01*
X008233Y011028D01*
X008290Y011049D01*
X008346Y011074D01*
X008400Y011102D01*
X008451Y011133D01*
X008501Y011168D01*
X008549Y011206D01*
X008594Y011247D01*
X008636Y011291D01*
X008675Y011337D01*
X008711Y011386D01*
X008744Y011437D01*
X008774Y011490D01*
X008801Y011545D01*
X008796Y011547D01*
X008770Y011492D01*
X008740Y011440D01*
X008707Y011389D01*
X008671Y011341D01*
X008632Y011294D01*
X008590Y011251D01*
X008545Y011210D01*
X008498Y011172D01*
X008449Y011138D01*
X008397Y011106D01*
X008344Y011078D01*
X008288Y011053D01*
X008232Y011032D01*
X008174Y011015D01*
X008115Y011001D01*
X008055Y010991D01*
X007995Y010985D01*
X007935Y010983D01*
X007874Y010985D01*
X007814Y010990D01*
X007754Y010999D01*
X007695Y011013D01*
X007637Y011029D01*
X007580Y011050D01*
X007525Y011074D01*
X007471Y011102D01*
X007419Y011133D01*
X007369Y011167D01*
X007322Y011204D01*
X007277Y011244D01*
X007234Y011288D01*
X007238Y011291D01*
X007280Y011248D01*
X007325Y011208D01*
X007372Y011171D01*
X007422Y011137D01*
X007473Y011106D01*
X007527Y011079D01*
X007582Y011055D01*
X007639Y011034D01*
X007696Y011017D01*
X007755Y011004D01*
X007815Y010995D01*
X007874Y010990D01*
X007935Y010988D01*
X007995Y010990D01*
X008055Y010996D01*
X008114Y011006D01*
X008172Y011020D01*
X008230Y011037D01*
X008286Y011058D01*
X008341Y011083D01*
X008395Y011111D01*
X008446Y011142D01*
X008495Y011176D01*
X008542Y011214D01*
X008587Y011254D01*
X008628Y011298D01*
X008667Y011344D01*
X008703Y011392D01*
X008736Y011442D01*
X008765Y011495D01*
X008791Y011549D01*
X008787Y011551D01*
X008761Y011497D01*
X008732Y011445D01*
X008699Y011395D01*
X008663Y011347D01*
X008625Y011301D01*
X008583Y011258D01*
X008539Y011218D01*
X008492Y011180D01*
X008443Y011146D01*
X008392Y011115D01*
X008339Y011087D01*
X008285Y011063D01*
X008228Y011042D01*
X008171Y011025D01*
X008113Y011011D01*
X008054Y011001D01*
X007994Y010995D01*
X007935Y010993D01*
X007875Y010995D01*
X007815Y011000D01*
X007756Y011009D01*
X007698Y011022D01*
X007640Y011039D01*
X007584Y011059D01*
X007529Y011083D01*
X007476Y011110D01*
X007425Y011141D01*
X007375Y011175D01*
X007328Y011212D01*
X007284Y011252D01*
X007242Y011294D01*
X007245Y011298D01*
X007287Y011255D01*
X007331Y011216D01*
X007378Y011179D01*
X007427Y011145D01*
X007478Y011115D01*
X007531Y011088D01*
X007586Y011064D01*
X007642Y011044D01*
X007699Y011027D01*
X007757Y011014D01*
X007816Y011005D01*
X007875Y011000D01*
X007935Y010998D01*
X007994Y011000D01*
X008053Y011006D01*
X008112Y011016D01*
X008170Y011029D01*
X008227Y011047D01*
X008283Y011067D01*
X008337Y011092D01*
X008390Y011119D01*
X008440Y011150D01*
X008489Y011184D01*
X008536Y011222D01*
X008580Y011262D01*
X008621Y011304D01*
X008659Y011350D01*
X008695Y011398D01*
X008727Y011447D01*
X008757Y011499D01*
X008782Y011553D01*
X008778Y011555D01*
X008752Y011502D01*
X008723Y011450D01*
X008691Y011400D01*
X008655Y011353D01*
X008617Y011308D01*
X008576Y011265D01*
X008532Y011225D01*
X008486Y011188D01*
X008438Y011154D01*
X008387Y011124D01*
X008335Y011096D01*
X008281Y011072D01*
X008225Y011051D01*
X008169Y011034D01*
X008111Y011021D01*
X008053Y011011D01*
X007994Y011005D01*
X007935Y011003D01*
X007875Y011005D01*
X007816Y011010D01*
X007758Y011019D01*
X007700Y011032D01*
X007643Y011048D01*
X007588Y011069D01*
X007533Y011092D01*
X007481Y011119D01*
X007430Y011149D01*
X007381Y011183D01*
X007335Y011219D01*
X007290Y011259D01*
X007249Y011301D01*
X008823Y012325D02*
X008774Y012303D01*
X008749Y012357D01*
X008720Y012408D01*
X008688Y012457D01*
X008652Y012505D01*
X008614Y012550D01*
X008573Y012592D01*
X008530Y012632D01*
X008484Y012668D01*
X008435Y012702D01*
X008385Y012733D01*
X008333Y012760D01*
X008279Y012784D01*
X008224Y012805D01*
X008168Y012822D01*
X008110Y012835D01*
X008052Y012845D01*
X007993Y012851D01*
X007935Y012853D01*
X007876Y012851D01*
X007817Y012846D01*
X007759Y012837D01*
X007701Y012824D01*
X007645Y012808D01*
X007589Y012788D01*
X007535Y012764D01*
X007483Y012737D01*
X007432Y012707D01*
X007384Y012674D01*
X007337Y012637D01*
X007293Y012598D01*
X007252Y012556D01*
X007213Y012592D01*
X007212Y012593D01*
X007254Y012636D01*
X007299Y012676D01*
X007347Y012714D01*
X007396Y012748D01*
X007448Y012780D01*
X007501Y012808D01*
X007557Y012833D01*
X007613Y012854D01*
X007671Y012872D01*
X007730Y012886D01*
X007789Y012897D01*
X007849Y012904D01*
X007909Y012907D01*
X007970Y012906D01*
X008030Y012902D01*
X008090Y012894D01*
X008149Y012882D01*
X008208Y012867D01*
X008265Y012848D01*
X008321Y012825D01*
X008376Y012799D01*
X008429Y012770D01*
X008480Y012738D01*
X008529Y012702D01*
X008575Y012664D01*
X008619Y012622D01*
X008661Y012578D01*
X008700Y012532D01*
X008735Y012483D01*
X008768Y012432D01*
X008797Y012380D01*
X008824Y012325D01*
X008819Y012323D01*
X008792Y012379D01*
X008762Y012433D01*
X008728Y012485D01*
X008691Y012535D01*
X008651Y012582D01*
X008607Y012627D01*
X008562Y012669D01*
X008513Y012708D01*
X008462Y012743D01*
X008409Y012776D01*
X008354Y012804D01*
X008298Y012830D01*
X008240Y012851D01*
X008180Y012869D01*
X008120Y012883D01*
X008059Y012893D01*
X007997Y012900D01*
X007935Y012902D01*
X007873Y012900D01*
X007811Y012895D01*
X007750Y012885D01*
X007689Y012872D01*
X007629Y012854D01*
X007571Y012833D01*
X007514Y012809D01*
X007459Y012780D01*
X007406Y012748D01*
X007354Y012713D01*
X007306Y012675D01*
X007259Y012634D01*
X007216Y012589D01*
X007219Y012586D01*
X007263Y012630D01*
X007309Y012671D01*
X007357Y012709D01*
X007408Y012744D01*
X007461Y012776D01*
X007516Y012804D01*
X007573Y012829D01*
X007631Y012850D01*
X007690Y012867D01*
X007751Y012880D01*
X007812Y012890D01*
X007873Y012895D01*
X007935Y012897D01*
X007996Y012895D01*
X008058Y012889D01*
X008119Y012878D01*
X008179Y012864D01*
X008238Y012847D01*
X008296Y012825D01*
X008352Y012800D01*
X008407Y012771D01*
X008460Y012739D01*
X008510Y012704D01*
X008558Y012665D01*
X008604Y012623D01*
X008647Y012579D01*
X008687Y012532D01*
X008724Y012482D01*
X008757Y012431D01*
X008788Y012377D01*
X008814Y012321D01*
X008810Y012319D01*
X008783Y012374D01*
X008753Y012428D01*
X008720Y012480D01*
X008683Y012529D01*
X008643Y012576D01*
X008601Y012620D01*
X008555Y012661D01*
X008507Y012700D01*
X008457Y012735D01*
X008404Y012767D01*
X008350Y012795D01*
X008294Y012820D01*
X008236Y012842D01*
X008178Y012860D01*
X008118Y012873D01*
X008057Y012884D01*
X007996Y012890D01*
X007935Y012892D01*
X007873Y012890D01*
X007812Y012885D01*
X007751Y012875D01*
X007691Y012862D01*
X007632Y012845D01*
X007575Y012824D01*
X007518Y012799D01*
X007464Y012771D01*
X007411Y012740D01*
X007360Y012705D01*
X007312Y012667D01*
X007266Y012626D01*
X007223Y012583D01*
X007227Y012579D01*
X007270Y012623D01*
X007315Y012663D01*
X007363Y012701D01*
X007414Y012736D01*
X007466Y012767D01*
X007521Y012795D01*
X007577Y012819D01*
X007634Y012840D01*
X007693Y012857D01*
X007752Y012870D01*
X007813Y012880D01*
X007874Y012885D01*
X007935Y012887D01*
X007996Y012885D01*
X008057Y012879D01*
X008117Y012869D01*
X008176Y012855D01*
X008235Y012837D01*
X008292Y012816D01*
X008348Y012791D01*
X008402Y012763D01*
X008454Y012731D01*
X008504Y012696D01*
X008552Y012657D01*
X008597Y012616D01*
X008639Y012572D01*
X008679Y012526D01*
X008715Y012477D01*
X008749Y012425D01*
X008779Y012372D01*
X008805Y012317D01*
X008801Y012315D01*
X008774Y012370D01*
X008744Y012423D01*
X008711Y012474D01*
X008675Y012523D01*
X008636Y012569D01*
X008594Y012613D01*
X008549Y012654D01*
X008501Y012692D01*
X008451Y012727D01*
X008400Y012758D01*
X008346Y012786D01*
X008290Y012811D01*
X008233Y012832D01*
X008175Y012850D01*
X008116Y012864D01*
X008056Y012874D01*
X007995Y012880D01*
X007935Y012882D01*
X007874Y012880D01*
X007813Y012875D01*
X007753Y012865D01*
X007694Y012852D01*
X007636Y012835D01*
X007578Y012815D01*
X007523Y012790D01*
X007469Y012763D01*
X007416Y012732D01*
X007366Y012697D01*
X007318Y012660D01*
X007273Y012619D01*
X007231Y012576D01*
X007234Y012572D01*
X007277Y012616D01*
X007322Y012656D01*
X007369Y012693D01*
X007419Y012727D01*
X007471Y012758D01*
X007525Y012786D01*
X007580Y012810D01*
X007637Y012831D01*
X007695Y012847D01*
X007754Y012861D01*
X007814Y012870D01*
X007874Y012875D01*
X007935Y012877D01*
X007995Y012875D01*
X008055Y012869D01*
X008115Y012859D01*
X008174Y012845D01*
X008232Y012828D01*
X008288Y012807D01*
X008344Y012782D01*
X008397Y012754D01*
X008449Y012722D01*
X008498Y012688D01*
X008545Y012650D01*
X008590Y012609D01*
X008632Y012566D01*
X008671Y012519D01*
X008707Y012471D01*
X008740Y012420D01*
X008770Y012368D01*
X008796Y012313D01*
X008791Y012311D01*
X008765Y012365D01*
X008736Y012418D01*
X008703Y012468D01*
X008667Y012516D01*
X008628Y012562D01*
X008587Y012606D01*
X008542Y012646D01*
X008495Y012684D01*
X008446Y012718D01*
X008395Y012749D01*
X008341Y012777D01*
X008286Y012802D01*
X008230Y012823D01*
X008172Y012840D01*
X008114Y012854D01*
X008055Y012864D01*
X007995Y012870D01*
X007935Y012872D01*
X007874Y012870D01*
X007815Y012865D01*
X007755Y012856D01*
X007696Y012843D01*
X007639Y012826D01*
X007582Y012805D01*
X007527Y012781D01*
X007473Y012754D01*
X007422Y012723D01*
X007372Y012689D01*
X007325Y012652D01*
X007280Y012612D01*
X007238Y012569D01*
X007242Y012566D01*
X007284Y012608D01*
X007328Y012648D01*
X007375Y012685D01*
X007425Y012719D01*
X007476Y012750D01*
X007529Y012777D01*
X007584Y012801D01*
X007640Y012821D01*
X007698Y012838D01*
X007756Y012851D01*
X007815Y012860D01*
X007875Y012865D01*
X007935Y012867D01*
X007994Y012865D01*
X008054Y012859D01*
X008113Y012849D01*
X008171Y012835D01*
X008228Y012818D01*
X008285Y012797D01*
X008339Y012773D01*
X008392Y012745D01*
X008443Y012714D01*
X008492Y012680D01*
X008539Y012642D01*
X008583Y012602D01*
X008625Y012559D01*
X008663Y012513D01*
X008699Y012465D01*
X008732Y012415D01*
X008761Y012363D01*
X008787Y012309D01*
X008782Y012307D01*
X008757Y012361D01*
X008727Y012413D01*
X008695Y012462D01*
X008659Y012510D01*
X008621Y012556D01*
X008580Y012598D01*
X008536Y012638D01*
X008489Y012676D01*
X008440Y012710D01*
X008390Y012741D01*
X008337Y012768D01*
X008283Y012793D01*
X008227Y012813D01*
X008170Y012831D01*
X008112Y012844D01*
X008053Y012854D01*
X007994Y012860D01*
X007935Y012862D01*
X007875Y012860D01*
X007816Y012855D01*
X007757Y012846D01*
X007699Y012833D01*
X007642Y012816D01*
X007586Y012796D01*
X007531Y012772D01*
X007478Y012745D01*
X007427Y012715D01*
X007378Y012681D01*
X007331Y012644D01*
X007287Y012605D01*
X007245Y012562D01*
X007249Y012559D01*
X007290Y012601D01*
X007335Y012641D01*
X007381Y012677D01*
X007430Y012711D01*
X007481Y012741D01*
X007533Y012768D01*
X007588Y012791D01*
X007643Y012812D01*
X007700Y012828D01*
X007758Y012841D01*
X007816Y012850D01*
X007875Y012855D01*
X007935Y012857D01*
X007994Y012855D01*
X008053Y012849D01*
X008111Y012839D01*
X008169Y012826D01*
X008225Y012809D01*
X008281Y012788D01*
X008335Y012764D01*
X008387Y012736D01*
X008438Y012706D01*
X008486Y012672D01*
X008532Y012635D01*
X008576Y012595D01*
X008617Y012552D01*
X008655Y012507D01*
X008691Y012460D01*
X008723Y012410D01*
X008752Y012358D01*
X008778Y012305D01*
X005213Y011268D02*
X005252Y011304D01*
X005293Y011262D01*
X005337Y011223D01*
X005384Y011186D01*
X005432Y011153D01*
X005483Y011123D01*
X005535Y011096D01*
X005589Y011072D01*
X005645Y011052D01*
X005701Y011036D01*
X005759Y011023D01*
X005817Y011014D01*
X005876Y011009D01*
X005935Y011007D01*
X005993Y011009D01*
X006052Y011015D01*
X006110Y011025D01*
X006168Y011038D01*
X006224Y011055D01*
X006279Y011076D01*
X006333Y011100D01*
X006385Y011127D01*
X006435Y011158D01*
X006484Y011192D01*
X006530Y011228D01*
X006573Y011268D01*
X006614Y011310D01*
X006652Y011355D01*
X006688Y011403D01*
X006720Y011452D01*
X006749Y011503D01*
X006774Y011557D01*
X006823Y011535D01*
X006824Y011535D01*
X006797Y011480D01*
X006768Y011428D01*
X006735Y011377D01*
X006700Y011328D01*
X006661Y011282D01*
X006619Y011238D01*
X006575Y011196D01*
X006529Y011158D01*
X006480Y011122D01*
X006429Y011090D01*
X006376Y011061D01*
X006321Y011035D01*
X006265Y011012D01*
X006208Y010993D01*
X006149Y010978D01*
X006090Y010966D01*
X006030Y010958D01*
X005970Y010954D01*
X005909Y010953D01*
X005849Y010956D01*
X005789Y010963D01*
X005730Y010974D01*
X005671Y010988D01*
X005613Y011006D01*
X005557Y011027D01*
X005501Y011052D01*
X005448Y011080D01*
X005396Y011112D01*
X005347Y011146D01*
X005299Y011184D01*
X005254Y011224D01*
X005212Y011267D01*
X005216Y011271D01*
X005259Y011226D01*
X005306Y011185D01*
X005354Y011147D01*
X005406Y011112D01*
X005459Y011080D01*
X005514Y011051D01*
X005571Y011027D01*
X005629Y011006D01*
X005689Y010988D01*
X005750Y010975D01*
X005811Y010965D01*
X005873Y010960D01*
X005935Y010958D01*
X005997Y010960D01*
X006059Y010967D01*
X006120Y010977D01*
X006180Y010991D01*
X006240Y011009D01*
X006298Y011030D01*
X006354Y011056D01*
X006409Y011084D01*
X006462Y011117D01*
X006513Y011152D01*
X006562Y011191D01*
X006607Y011233D01*
X006651Y011278D01*
X006691Y011325D01*
X006728Y011375D01*
X006762Y011427D01*
X006792Y011481D01*
X006819Y011537D01*
X006814Y011539D01*
X006788Y011483D01*
X006757Y011429D01*
X006724Y011378D01*
X006687Y011328D01*
X006647Y011281D01*
X006604Y011237D01*
X006558Y011195D01*
X006510Y011156D01*
X006460Y011121D01*
X006407Y011089D01*
X006352Y011060D01*
X006296Y011035D01*
X006238Y011013D01*
X006179Y010996D01*
X006119Y010982D01*
X006058Y010971D01*
X005996Y010965D01*
X005935Y010963D01*
X005873Y010965D01*
X005812Y010970D01*
X005751Y010980D01*
X005690Y010993D01*
X005631Y011010D01*
X005573Y011031D01*
X005516Y011056D01*
X005461Y011084D01*
X005408Y011116D01*
X005357Y011151D01*
X005309Y011189D01*
X005263Y011230D01*
X005219Y011274D01*
X005223Y011277D01*
X005266Y011234D01*
X005312Y011193D01*
X005360Y011155D01*
X005411Y011120D01*
X005464Y011089D01*
X005518Y011061D01*
X005575Y011036D01*
X005632Y011015D01*
X005691Y010998D01*
X005751Y010985D01*
X005812Y010975D01*
X005873Y010970D01*
X005935Y010968D01*
X005996Y010970D01*
X006057Y010976D01*
X006118Y010987D01*
X006178Y011000D01*
X006236Y011018D01*
X006294Y011040D01*
X006350Y011065D01*
X006404Y011093D01*
X006457Y011125D01*
X006507Y011160D01*
X006555Y011199D01*
X006601Y011240D01*
X006643Y011284D01*
X006683Y011331D01*
X006720Y011380D01*
X006753Y011432D01*
X006783Y011486D01*
X006810Y011541D01*
X006805Y011543D01*
X006779Y011488D01*
X006749Y011435D01*
X006715Y011383D01*
X006679Y011334D01*
X006639Y011288D01*
X006597Y011244D01*
X006552Y011203D01*
X006504Y011164D01*
X006454Y011129D01*
X006402Y011097D01*
X006348Y011069D01*
X006292Y011044D01*
X006235Y011023D01*
X006176Y011005D01*
X006117Y010991D01*
X006057Y010981D01*
X005996Y010975D01*
X005935Y010973D01*
X005874Y010975D01*
X005813Y010980D01*
X005752Y010990D01*
X005693Y011003D01*
X005634Y011020D01*
X005577Y011041D01*
X005521Y011065D01*
X005466Y011093D01*
X005414Y011124D01*
X005363Y011159D01*
X005315Y011197D01*
X005270Y011237D01*
X005227Y011281D01*
X005231Y011284D01*
X005273Y011241D01*
X005318Y011200D01*
X005366Y011163D01*
X005416Y011128D01*
X005469Y011097D01*
X005523Y011070D01*
X005578Y011045D01*
X005636Y011025D01*
X005694Y011008D01*
X005753Y010995D01*
X005813Y010985D01*
X005874Y010980D01*
X005935Y010978D01*
X005995Y010980D01*
X006056Y010986D01*
X006116Y010996D01*
X006175Y011010D01*
X006233Y011028D01*
X006290Y011049D01*
X006346Y011074D01*
X006400Y011102D01*
X006451Y011133D01*
X006501Y011168D01*
X006549Y011206D01*
X006594Y011247D01*
X006636Y011291D01*
X006675Y011337D01*
X006711Y011386D01*
X006744Y011437D01*
X006774Y011490D01*
X006801Y011545D01*
X006796Y011547D01*
X006770Y011492D01*
X006740Y011440D01*
X006707Y011389D01*
X006671Y011341D01*
X006632Y011294D01*
X006590Y011251D01*
X006545Y011210D01*
X006498Y011172D01*
X006449Y011138D01*
X006397Y011106D01*
X006344Y011078D01*
X006288Y011053D01*
X006232Y011032D01*
X006174Y011015D01*
X006115Y011001D01*
X006055Y010991D01*
X005995Y010985D01*
X005935Y010983D01*
X005874Y010985D01*
X005814Y010990D01*
X005754Y010999D01*
X005695Y011013D01*
X005637Y011029D01*
X005580Y011050D01*
X005525Y011074D01*
X005471Y011102D01*
X005419Y011133D01*
X005369Y011167D01*
X005322Y011204D01*
X005277Y011244D01*
X005234Y011288D01*
X005238Y011291D01*
X005280Y011248D01*
X005325Y011208D01*
X005372Y011171D01*
X005422Y011137D01*
X005473Y011106D01*
X005527Y011079D01*
X005582Y011055D01*
X005639Y011034D01*
X005696Y011017D01*
X005755Y011004D01*
X005815Y010995D01*
X005874Y010990D01*
X005935Y010988D01*
X005995Y010990D01*
X006055Y010996D01*
X006114Y011006D01*
X006172Y011020D01*
X006230Y011037D01*
X006286Y011058D01*
X006341Y011083D01*
X006395Y011111D01*
X006446Y011142D01*
X006495Y011176D01*
X006542Y011214D01*
X006587Y011254D01*
X006628Y011298D01*
X006667Y011344D01*
X006703Y011392D01*
X006736Y011442D01*
X006765Y011495D01*
X006791Y011549D01*
X006787Y011551D01*
X006761Y011497D01*
X006732Y011445D01*
X006699Y011395D01*
X006663Y011347D01*
X006625Y011301D01*
X006583Y011258D01*
X006539Y011218D01*
X006492Y011180D01*
X006443Y011146D01*
X006392Y011115D01*
X006339Y011087D01*
X006285Y011063D01*
X006228Y011042D01*
X006171Y011025D01*
X006113Y011011D01*
X006054Y011001D01*
X005994Y010995D01*
X005935Y010993D01*
X005875Y010995D01*
X005815Y011000D01*
X005756Y011009D01*
X005698Y011022D01*
X005640Y011039D01*
X005584Y011059D01*
X005529Y011083D01*
X005476Y011110D01*
X005425Y011141D01*
X005375Y011175D01*
X005328Y011212D01*
X005284Y011252D01*
X005242Y011294D01*
X005245Y011298D01*
X005287Y011255D01*
X005331Y011216D01*
X005378Y011179D01*
X005427Y011145D01*
X005478Y011115D01*
X005531Y011088D01*
X005586Y011064D01*
X005642Y011044D01*
X005699Y011027D01*
X005757Y011014D01*
X005816Y011005D01*
X005875Y011000D01*
X005935Y010998D01*
X005994Y011000D01*
X006053Y011006D01*
X006112Y011016D01*
X006170Y011029D01*
X006227Y011047D01*
X006283Y011067D01*
X006337Y011092D01*
X006390Y011119D01*
X006440Y011150D01*
X006489Y011184D01*
X006536Y011222D01*
X006580Y011262D01*
X006621Y011304D01*
X006659Y011350D01*
X006695Y011398D01*
X006727Y011447D01*
X006757Y011499D01*
X006782Y011553D01*
X006778Y011555D01*
X006752Y011502D01*
X006723Y011450D01*
X006691Y011400D01*
X006655Y011353D01*
X006617Y011308D01*
X006576Y011265D01*
X006532Y011225D01*
X006486Y011188D01*
X006438Y011154D01*
X006387Y011124D01*
X006335Y011096D01*
X006281Y011072D01*
X006225Y011051D01*
X006169Y011034D01*
X006111Y011021D01*
X006053Y011011D01*
X005994Y011005D01*
X005935Y011003D01*
X005875Y011005D01*
X005816Y011010D01*
X005758Y011019D01*
X005700Y011032D01*
X005643Y011048D01*
X005588Y011069D01*
X005533Y011092D01*
X005481Y011119D01*
X005430Y011149D01*
X005381Y011183D01*
X005335Y011219D01*
X005290Y011259D01*
X005249Y011301D01*
X006823Y012325D02*
X006774Y012303D01*
X006749Y012357D01*
X006720Y012408D01*
X006688Y012457D01*
X006652Y012505D01*
X006614Y012550D01*
X006573Y012592D01*
X006530Y012632D01*
X006484Y012668D01*
X006435Y012702D01*
X006385Y012733D01*
X006333Y012760D01*
X006279Y012784D01*
X006224Y012805D01*
X006168Y012822D01*
X006110Y012835D01*
X006052Y012845D01*
X005993Y012851D01*
X005935Y012853D01*
X005876Y012851D01*
X005817Y012846D01*
X005759Y012837D01*
X005701Y012824D01*
X005645Y012808D01*
X005589Y012788D01*
X005535Y012764D01*
X005483Y012737D01*
X005432Y012707D01*
X005384Y012674D01*
X005337Y012637D01*
X005293Y012598D01*
X005252Y012556D01*
X005213Y012592D01*
X005212Y012593D01*
X005254Y012636D01*
X005299Y012676D01*
X005347Y012714D01*
X005396Y012748D01*
X005448Y012780D01*
X005501Y012808D01*
X005557Y012833D01*
X005613Y012854D01*
X005671Y012872D01*
X005730Y012886D01*
X005789Y012897D01*
X005849Y012904D01*
X005909Y012907D01*
X005970Y012906D01*
X006030Y012902D01*
X006090Y012894D01*
X006149Y012882D01*
X006208Y012867D01*
X006265Y012848D01*
X006321Y012825D01*
X006376Y012799D01*
X006429Y012770D01*
X006480Y012738D01*
X006529Y012702D01*
X006575Y012664D01*
X006619Y012622D01*
X006661Y012578D01*
X006700Y012532D01*
X006735Y012483D01*
X006768Y012432D01*
X006797Y012380D01*
X006824Y012325D01*
X006819Y012323D01*
X006792Y012379D01*
X006762Y012433D01*
X006728Y012485D01*
X006691Y012535D01*
X006651Y012582D01*
X006607Y012627D01*
X006562Y012669D01*
X006513Y012708D01*
X006462Y012743D01*
X006409Y012776D01*
X006354Y012804D01*
X006298Y012830D01*
X006240Y012851D01*
X006180Y012869D01*
X006120Y012883D01*
X006059Y012893D01*
X005997Y012900D01*
X005935Y012902D01*
X005873Y012900D01*
X005811Y012895D01*
X005750Y012885D01*
X005689Y012872D01*
X005629Y012854D01*
X005571Y012833D01*
X005514Y012809D01*
X005459Y012780D01*
X005406Y012748D01*
X005354Y012713D01*
X005306Y012675D01*
X005259Y012634D01*
X005216Y012589D01*
X005219Y012586D01*
X005263Y012630D01*
X005309Y012671D01*
X005357Y012709D01*
X005408Y012744D01*
X005461Y012776D01*
X005516Y012804D01*
X005573Y012829D01*
X005631Y012850D01*
X005690Y012867D01*
X005751Y012880D01*
X005812Y012890D01*
X005873Y012895D01*
X005935Y012897D01*
X005996Y012895D01*
X006058Y012889D01*
X006119Y012878D01*
X006179Y012864D01*
X006238Y012847D01*
X006296Y012825D01*
X006352Y012800D01*
X006407Y012771D01*
X006460Y012739D01*
X006510Y012704D01*
X006558Y012665D01*
X006604Y012623D01*
X006647Y012579D01*
X006687Y012532D01*
X006724Y012482D01*
X006757Y012431D01*
X006788Y012377D01*
X006814Y012321D01*
X006810Y012319D01*
X006783Y012374D01*
X006753Y012428D01*
X006720Y012480D01*
X006683Y012529D01*
X006643Y012576D01*
X006601Y012620D01*
X006555Y012661D01*
X006507Y012700D01*
X006457Y012735D01*
X006404Y012767D01*
X006350Y012795D01*
X006294Y012820D01*
X006236Y012842D01*
X006178Y012860D01*
X006118Y012873D01*
X006057Y012884D01*
X005996Y012890D01*
X005935Y012892D01*
X005873Y012890D01*
X005812Y012885D01*
X005751Y012875D01*
X005691Y012862D01*
X005632Y012845D01*
X005575Y012824D01*
X005518Y012799D01*
X005464Y012771D01*
X005411Y012740D01*
X005360Y012705D01*
X005312Y012667D01*
X005266Y012626D01*
X005223Y012583D01*
X005227Y012579D01*
X005270Y012623D01*
X005315Y012663D01*
X005363Y012701D01*
X005414Y012736D01*
X005466Y012767D01*
X005521Y012795D01*
X005577Y012819D01*
X005634Y012840D01*
X005693Y012857D01*
X005752Y012870D01*
X005813Y012880D01*
X005874Y012885D01*
X005935Y012887D01*
X005996Y012885D01*
X006057Y012879D01*
X006117Y012869D01*
X006176Y012855D01*
X006235Y012837D01*
X006292Y012816D01*
X006348Y012791D01*
X006402Y012763D01*
X006454Y012731D01*
X006504Y012696D01*
X006552Y012657D01*
X006597Y012616D01*
X006639Y012572D01*
X006679Y012526D01*
X006715Y012477D01*
X006749Y012425D01*
X006779Y012372D01*
X006805Y012317D01*
X006801Y012315D01*
X006774Y012370D01*
X006744Y012423D01*
X006711Y012474D01*
X006675Y012523D01*
X006636Y012569D01*
X006594Y012613D01*
X006549Y012654D01*
X006501Y012692D01*
X006451Y012727D01*
X006400Y012758D01*
X006346Y012786D01*
X006290Y012811D01*
X006233Y012832D01*
X006175Y012850D01*
X006116Y012864D01*
X006056Y012874D01*
X005995Y012880D01*
X005935Y012882D01*
X005874Y012880D01*
X005813Y012875D01*
X005753Y012865D01*
X005694Y012852D01*
X005636Y012835D01*
X005578Y012815D01*
X005523Y012790D01*
X005469Y012763D01*
X005416Y012732D01*
X005366Y012697D01*
X005318Y012660D01*
X005273Y012619D01*
X005231Y012576D01*
X005234Y012572D01*
X005277Y012616D01*
X005322Y012656D01*
X005369Y012693D01*
X005419Y012727D01*
X005471Y012758D01*
X005525Y012786D01*
X005580Y012810D01*
X005637Y012831D01*
X005695Y012847D01*
X005754Y012861D01*
X005814Y012870D01*
X005874Y012875D01*
X005935Y012877D01*
X005995Y012875D01*
X006055Y012869D01*
X006115Y012859D01*
X006174Y012845D01*
X006232Y012828D01*
X006288Y012807D01*
X006344Y012782D01*
X006397Y012754D01*
X006449Y012722D01*
X006498Y012688D01*
X006545Y012650D01*
X006590Y012609D01*
X006632Y012566D01*
X006671Y012519D01*
X006707Y012471D01*
X006740Y012420D01*
X006770Y012368D01*
X006796Y012313D01*
X006791Y012311D01*
X006765Y012365D01*
X006736Y012418D01*
X006703Y012468D01*
X006667Y012516D01*
X006628Y012562D01*
X006587Y012606D01*
X006542Y012646D01*
X006495Y012684D01*
X006446Y012718D01*
X006395Y012749D01*
X006341Y012777D01*
X006286Y012802D01*
X006230Y012823D01*
X006172Y012840D01*
X006114Y012854D01*
X006055Y012864D01*
X005995Y012870D01*
X005935Y012872D01*
X005874Y012870D01*
X005815Y012865D01*
X005755Y012856D01*
X005696Y012843D01*
X005639Y012826D01*
X005582Y012805D01*
X005527Y012781D01*
X005473Y012754D01*
X005422Y012723D01*
X005372Y012689D01*
X005325Y012652D01*
X005280Y012612D01*
X005238Y012569D01*
X005242Y012566D01*
X005284Y012608D01*
X005328Y012648D01*
X005375Y012685D01*
X005425Y012719D01*
X005476Y012750D01*
X005529Y012777D01*
X005584Y012801D01*
X005640Y012821D01*
X005698Y012838D01*
X005756Y012851D01*
X005815Y012860D01*
X005875Y012865D01*
X005935Y012867D01*
X005994Y012865D01*
X006054Y012859D01*
X006113Y012849D01*
X006171Y012835D01*
X006228Y012818D01*
X006285Y012797D01*
X006339Y012773D01*
X006392Y012745D01*
X006443Y012714D01*
X006492Y012680D01*
X006539Y012642D01*
X006583Y012602D01*
X006625Y012559D01*
X006663Y012513D01*
X006699Y012465D01*
X006732Y012415D01*
X006761Y012363D01*
X006787Y012309D01*
X006782Y012307D01*
X006757Y012361D01*
X006727Y012413D01*
X006695Y012462D01*
X006659Y012510D01*
X006621Y012556D01*
X006580Y012598D01*
X006536Y012638D01*
X006489Y012676D01*
X006440Y012710D01*
X006390Y012741D01*
X006337Y012768D01*
X006283Y012793D01*
X006227Y012813D01*
X006170Y012831D01*
X006112Y012844D01*
X006053Y012854D01*
X005994Y012860D01*
X005935Y012862D01*
X005875Y012860D01*
X005816Y012855D01*
X005757Y012846D01*
X005699Y012833D01*
X005642Y012816D01*
X005586Y012796D01*
X005531Y012772D01*
X005478Y012745D01*
X005427Y012715D01*
X005378Y012681D01*
X005331Y012644D01*
X005287Y012605D01*
X005245Y012562D01*
X005249Y012559D01*
X005290Y012601D01*
X005335Y012641D01*
X005381Y012677D01*
X005430Y012711D01*
X005481Y012741D01*
X005533Y012768D01*
X005588Y012791D01*
X005643Y012812D01*
X005700Y012828D01*
X005758Y012841D01*
X005816Y012850D01*
X005875Y012855D01*
X005935Y012857D01*
X005994Y012855D01*
X006053Y012849D01*
X006111Y012839D01*
X006169Y012826D01*
X006225Y012809D01*
X006281Y012788D01*
X006335Y012764D01*
X006387Y012736D01*
X006438Y012706D01*
X006486Y012672D01*
X006532Y012635D01*
X006576Y012595D01*
X006617Y012552D01*
X006655Y012507D01*
X006691Y012460D01*
X006723Y012410D01*
X006752Y012358D01*
X006778Y012305D01*
X003213Y011268D02*
X003252Y011304D01*
X003293Y011262D01*
X003337Y011223D01*
X003384Y011186D01*
X003432Y011153D01*
X003483Y011123D01*
X003535Y011096D01*
X003589Y011072D01*
X003645Y011052D01*
X003701Y011036D01*
X003759Y011023D01*
X003817Y011014D01*
X003876Y011009D01*
X003935Y011007D01*
X003993Y011009D01*
X004052Y011015D01*
X004110Y011025D01*
X004168Y011038D01*
X004224Y011055D01*
X004279Y011076D01*
X004333Y011100D01*
X004385Y011127D01*
X004435Y011158D01*
X004484Y011192D01*
X004530Y011228D01*
X004573Y011268D01*
X004614Y011310D01*
X004652Y011355D01*
X004688Y011403D01*
X004720Y011452D01*
X004749Y011503D01*
X004774Y011557D01*
X004823Y011535D01*
X004824Y011535D01*
X004797Y011480D01*
X004768Y011428D01*
X004735Y011377D01*
X004700Y011328D01*
X004661Y011282D01*
X004619Y011238D01*
X004575Y011196D01*
X004529Y011158D01*
X004480Y011122D01*
X004429Y011090D01*
X004376Y011061D01*
X004321Y011035D01*
X004265Y011012D01*
X004208Y010993D01*
X004149Y010978D01*
X004090Y010966D01*
X004030Y010958D01*
X003970Y010954D01*
X003909Y010953D01*
X003849Y010956D01*
X003789Y010963D01*
X003730Y010974D01*
X003671Y010988D01*
X003613Y011006D01*
X003557Y011027D01*
X003501Y011052D01*
X003448Y011080D01*
X003396Y011112D01*
X003347Y011146D01*
X003299Y011184D01*
X003254Y011224D01*
X003212Y011267D01*
X003216Y011271D01*
X003259Y011226D01*
X003306Y011185D01*
X003354Y011147D01*
X003406Y011112D01*
X003459Y011080D01*
X003514Y011051D01*
X003571Y011027D01*
X003629Y011006D01*
X003689Y010988D01*
X003750Y010975D01*
X003811Y010965D01*
X003873Y010960D01*
X003935Y010958D01*
X003997Y010960D01*
X004059Y010967D01*
X004120Y010977D01*
X004180Y010991D01*
X004240Y011009D01*
X004298Y011030D01*
X004354Y011056D01*
X004409Y011084D01*
X004462Y011117D01*
X004513Y011152D01*
X004562Y011191D01*
X004607Y011233D01*
X004651Y011278D01*
X004691Y011325D01*
X004728Y011375D01*
X004762Y011427D01*
X004792Y011481D01*
X004819Y011537D01*
X004814Y011539D01*
X004788Y011483D01*
X004757Y011429D01*
X004724Y011378D01*
X004687Y011328D01*
X004647Y011281D01*
X004604Y011237D01*
X004558Y011195D01*
X004510Y011156D01*
X004460Y011121D01*
X004407Y011089D01*
X004352Y011060D01*
X004296Y011035D01*
X004238Y011013D01*
X004179Y010996D01*
X004119Y010982D01*
X004058Y010971D01*
X003996Y010965D01*
X003935Y010963D01*
X003873Y010965D01*
X003812Y010970D01*
X003751Y010980D01*
X003690Y010993D01*
X003631Y011010D01*
X003573Y011031D01*
X003516Y011056D01*
X003461Y011084D01*
X003408Y011116D01*
X003357Y011151D01*
X003309Y011189D01*
X003263Y011230D01*
X003219Y011274D01*
X003223Y011277D01*
X003266Y011234D01*
X003312Y011193D01*
X003360Y011155D01*
X003411Y011120D01*
X003464Y011089D01*
X003518Y011061D01*
X003575Y011036D01*
X003632Y011015D01*
X003691Y010998D01*
X003751Y010985D01*
X003812Y010975D01*
X003873Y010970D01*
X003935Y010968D01*
X003996Y010970D01*
X004057Y010976D01*
X004118Y010987D01*
X004178Y011000D01*
X004236Y011018D01*
X004294Y011040D01*
X004350Y011065D01*
X004404Y011093D01*
X004457Y011125D01*
X004507Y011160D01*
X004555Y011199D01*
X004601Y011240D01*
X004643Y011284D01*
X004683Y011331D01*
X004720Y011380D01*
X004753Y011432D01*
X004783Y011486D01*
X004810Y011541D01*
X004805Y011543D01*
X004779Y011488D01*
X004749Y011435D01*
X004715Y011383D01*
X004679Y011334D01*
X004639Y011288D01*
X004597Y011244D01*
X004552Y011203D01*
X004504Y011164D01*
X004454Y011129D01*
X004402Y011097D01*
X004348Y011069D01*
X004292Y011044D01*
X004235Y011023D01*
X004176Y011005D01*
X004117Y010991D01*
X004057Y010981D01*
X003996Y010975D01*
X003935Y010973D01*
X003874Y010975D01*
X003813Y010980D01*
X003752Y010990D01*
X003693Y011003D01*
X003634Y011020D01*
X003577Y011041D01*
X003521Y011065D01*
X003466Y011093D01*
X003414Y011124D01*
X003363Y011159D01*
X003315Y011197D01*
X003270Y011237D01*
X003227Y011281D01*
X003231Y011284D01*
X003273Y011241D01*
X003318Y011200D01*
X003366Y011163D01*
X003416Y011128D01*
X003469Y011097D01*
X003523Y011070D01*
X003578Y011045D01*
X003636Y011025D01*
X003694Y011008D01*
X003753Y010995D01*
X003813Y010985D01*
X003874Y010980D01*
X003935Y010978D01*
X003995Y010980D01*
X004056Y010986D01*
X004116Y010996D01*
X004175Y011010D01*
X004233Y011028D01*
X004290Y011049D01*
X004346Y011074D01*
X004400Y011102D01*
X004451Y011133D01*
X004501Y011168D01*
X004549Y011206D01*
X004594Y011247D01*
X004636Y011291D01*
X004675Y011337D01*
X004711Y011386D01*
X004744Y011437D01*
X004774Y011490D01*
X004801Y011545D01*
X004796Y011547D01*
X004770Y011492D01*
X004740Y011440D01*
X004707Y011389D01*
X004671Y011341D01*
X004632Y011294D01*
X004590Y011251D01*
X004545Y011210D01*
X004498Y011172D01*
X004449Y011138D01*
X004397Y011106D01*
X004344Y011078D01*
X004288Y011053D01*
X004232Y011032D01*
X004174Y011015D01*
X004115Y011001D01*
X004055Y010991D01*
X003995Y010985D01*
X003935Y010983D01*
X003874Y010985D01*
X003814Y010990D01*
X003754Y010999D01*
X003695Y011013D01*
X003637Y011029D01*
X003580Y011050D01*
X003525Y011074D01*
X003471Y011102D01*
X003419Y011133D01*
X003369Y011167D01*
X003322Y011204D01*
X003277Y011244D01*
X003234Y011288D01*
X003238Y011291D01*
X003280Y011248D01*
X003325Y011208D01*
X003372Y011171D01*
X003422Y011137D01*
X003473Y011106D01*
X003527Y011079D01*
X003582Y011055D01*
X003639Y011034D01*
X003696Y011017D01*
X003755Y011004D01*
X003815Y010995D01*
X003874Y010990D01*
X003935Y010988D01*
X003995Y010990D01*
X004055Y010996D01*
X004114Y011006D01*
X004172Y011020D01*
X004230Y011037D01*
X004286Y011058D01*
X004341Y011083D01*
X004395Y011111D01*
X004446Y011142D01*
X004495Y011176D01*
X004542Y011214D01*
X004587Y011254D01*
X004628Y011298D01*
X004667Y011344D01*
X004703Y011392D01*
X004736Y011442D01*
X004765Y011495D01*
X004791Y011549D01*
X004787Y011551D01*
X004761Y011497D01*
X004732Y011445D01*
X004699Y011395D01*
X004663Y011347D01*
X004625Y011301D01*
X004583Y011258D01*
X004539Y011218D01*
X004492Y011180D01*
X004443Y011146D01*
X004392Y011115D01*
X004339Y011087D01*
X004285Y011063D01*
X004228Y011042D01*
X004171Y011025D01*
X004113Y011011D01*
X004054Y011001D01*
X003994Y010995D01*
X003935Y010993D01*
X003875Y010995D01*
X003815Y011000D01*
X003756Y011009D01*
X003698Y011022D01*
X003640Y011039D01*
X003584Y011059D01*
X003529Y011083D01*
X003476Y011110D01*
X003425Y011141D01*
X003375Y011175D01*
X003328Y011212D01*
X003284Y011252D01*
X003242Y011294D01*
X003245Y011298D01*
X003287Y011255D01*
X003331Y011216D01*
X003378Y011179D01*
X003427Y011145D01*
X003478Y011115D01*
X003531Y011088D01*
X003586Y011064D01*
X003642Y011044D01*
X003699Y011027D01*
X003757Y011014D01*
X003816Y011005D01*
X003875Y011000D01*
X003935Y010998D01*
X003994Y011000D01*
X004053Y011006D01*
X004112Y011016D01*
X004170Y011029D01*
X004227Y011047D01*
X004283Y011067D01*
X004337Y011092D01*
X004390Y011119D01*
X004440Y011150D01*
X004489Y011184D01*
X004536Y011222D01*
X004580Y011262D01*
X004621Y011304D01*
X004659Y011350D01*
X004695Y011398D01*
X004727Y011447D01*
X004757Y011499D01*
X004782Y011553D01*
X004778Y011555D01*
X004752Y011502D01*
X004723Y011450D01*
X004691Y011400D01*
X004655Y011353D01*
X004617Y011308D01*
X004576Y011265D01*
X004532Y011225D01*
X004486Y011188D01*
X004438Y011154D01*
X004387Y011124D01*
X004335Y011096D01*
X004281Y011072D01*
X004225Y011051D01*
X004169Y011034D01*
X004111Y011021D01*
X004053Y011011D01*
X003994Y011005D01*
X003935Y011003D01*
X003875Y011005D01*
X003816Y011010D01*
X003758Y011019D01*
X003700Y011032D01*
X003643Y011048D01*
X003588Y011069D01*
X003533Y011092D01*
X003481Y011119D01*
X003430Y011149D01*
X003381Y011183D01*
X003335Y011219D01*
X003290Y011259D01*
X003249Y011301D01*
X004823Y012325D02*
X004774Y012303D01*
X004749Y012357D01*
X004720Y012408D01*
X004688Y012457D01*
X004652Y012505D01*
X004614Y012550D01*
X004573Y012592D01*
X004530Y012632D01*
X004484Y012668D01*
X004435Y012702D01*
X004385Y012733D01*
X004333Y012760D01*
X004279Y012784D01*
X004224Y012805D01*
X004168Y012822D01*
X004110Y012835D01*
X004052Y012845D01*
X003993Y012851D01*
X003935Y012853D01*
X003876Y012851D01*
X003817Y012846D01*
X003759Y012837D01*
X003701Y012824D01*
X003645Y012808D01*
X003589Y012788D01*
X003535Y012764D01*
X003483Y012737D01*
X003432Y012707D01*
X003384Y012674D01*
X003337Y012637D01*
X003293Y012598D01*
X003252Y012556D01*
X003213Y012592D01*
X003212Y012593D01*
X003254Y012636D01*
X003299Y012676D01*
X003347Y012714D01*
X003396Y012748D01*
X003448Y012780D01*
X003501Y012808D01*
X003557Y012833D01*
X003613Y012854D01*
X003671Y012872D01*
X003730Y012886D01*
X003789Y012897D01*
X003849Y012904D01*
X003909Y012907D01*
X003970Y012906D01*
X004030Y012902D01*
X004090Y012894D01*
X004149Y012882D01*
X004208Y012867D01*
X004265Y012848D01*
X004321Y012825D01*
X004376Y012799D01*
X004429Y012770D01*
X004480Y012738D01*
X004529Y012702D01*
X004575Y012664D01*
X004619Y012622D01*
X004661Y012578D01*
X004700Y012532D01*
X004735Y012483D01*
X004768Y012432D01*
X004797Y012380D01*
X004824Y012325D01*
X004819Y012323D01*
X004792Y012379D01*
X004762Y012433D01*
X004728Y012485D01*
X004691Y012535D01*
X004651Y012582D01*
X004607Y012627D01*
X004562Y012669D01*
X004513Y012708D01*
X004462Y012743D01*
X004409Y012776D01*
X004354Y012804D01*
X004298Y012830D01*
X004240Y012851D01*
X004180Y012869D01*
X004120Y012883D01*
X004059Y012893D01*
X003997Y012900D01*
X003935Y012902D01*
X003873Y012900D01*
X003811Y012895D01*
X003750Y012885D01*
X003689Y012872D01*
X003629Y012854D01*
X003571Y012833D01*
X003514Y012809D01*
X003459Y012780D01*
X003406Y012748D01*
X003354Y012713D01*
X003306Y012675D01*
X003259Y012634D01*
X003216Y012589D01*
X003219Y012586D01*
X003263Y012630D01*
X003309Y012671D01*
X003357Y012709D01*
X003408Y012744D01*
X003461Y012776D01*
X003516Y012804D01*
X003573Y012829D01*
X003631Y012850D01*
X003690Y012867D01*
X003751Y012880D01*
X003812Y012890D01*
X003873Y012895D01*
X003935Y012897D01*
X003996Y012895D01*
X004058Y012889D01*
X004119Y012878D01*
X004179Y012864D01*
X004238Y012847D01*
X004296Y012825D01*
X004352Y012800D01*
X004407Y012771D01*
X004460Y012739D01*
X004510Y012704D01*
X004558Y012665D01*
X004604Y012623D01*
X004647Y012579D01*
X004687Y012532D01*
X004724Y012482D01*
X004757Y012431D01*
X004788Y012377D01*
X004814Y012321D01*
X004810Y012319D01*
X004783Y012374D01*
X004753Y012428D01*
X004720Y012480D01*
X004683Y012529D01*
X004643Y012576D01*
X004601Y012620D01*
X004555Y012661D01*
X004507Y012700D01*
X004457Y012735D01*
X004404Y012767D01*
X004350Y012795D01*
X004294Y012820D01*
X004236Y012842D01*
X004178Y012860D01*
X004118Y012873D01*
X004057Y012884D01*
X003996Y012890D01*
X003935Y012892D01*
X003873Y012890D01*
X003812Y012885D01*
X003751Y012875D01*
X003691Y012862D01*
X003632Y012845D01*
X003575Y012824D01*
X003518Y012799D01*
X003464Y012771D01*
X003411Y012740D01*
X003360Y012705D01*
X003312Y012667D01*
X003266Y012626D01*
X003223Y012583D01*
X003227Y012579D01*
X003270Y012623D01*
X003315Y012663D01*
X003363Y012701D01*
X003414Y012736D01*
X003466Y012767D01*
X003521Y012795D01*
X003577Y012819D01*
X003634Y012840D01*
X003693Y012857D01*
X003752Y012870D01*
X003813Y012880D01*
X003874Y012885D01*
X003935Y012887D01*
X003996Y012885D01*
X004057Y012879D01*
X004117Y012869D01*
X004176Y012855D01*
X004235Y012837D01*
X004292Y012816D01*
X004348Y012791D01*
X004402Y012763D01*
X004454Y012731D01*
X004504Y012696D01*
X004552Y012657D01*
X004597Y012616D01*
X004639Y012572D01*
X004679Y012526D01*
X004715Y012477D01*
X004749Y012425D01*
X004779Y012372D01*
X004805Y012317D01*
X004801Y012315D01*
X004774Y012370D01*
X004744Y012423D01*
X004711Y012474D01*
X004675Y012523D01*
X004636Y012569D01*
X004594Y012613D01*
X004549Y012654D01*
X004501Y012692D01*
X004451Y012727D01*
X004400Y012758D01*
X004346Y012786D01*
X004290Y012811D01*
X004233Y012832D01*
X004175Y012850D01*
X004116Y012864D01*
X004056Y012874D01*
X003995Y012880D01*
X003935Y012882D01*
X003874Y012880D01*
X003813Y012875D01*
X003753Y012865D01*
X003694Y012852D01*
X003636Y012835D01*
X003578Y012815D01*
X003523Y012790D01*
X003469Y012763D01*
X003416Y012732D01*
X003366Y012697D01*
X003318Y012660D01*
X003273Y012619D01*
X003231Y012576D01*
X003234Y012572D01*
X003277Y012616D01*
X003322Y012656D01*
X003369Y012693D01*
X003419Y012727D01*
X003471Y012758D01*
X003525Y012786D01*
X003580Y012810D01*
X003637Y012831D01*
X003695Y012847D01*
X003754Y012861D01*
X003814Y012870D01*
X003874Y012875D01*
X003935Y012877D01*
X003995Y012875D01*
X004055Y012869D01*
X004115Y012859D01*
X004174Y012845D01*
X004232Y012828D01*
X004288Y012807D01*
X004344Y012782D01*
X004397Y012754D01*
X004449Y012722D01*
X004498Y012688D01*
X004545Y012650D01*
X004590Y012609D01*
X004632Y012566D01*
X004671Y012519D01*
X004707Y012471D01*
X004740Y012420D01*
X004770Y012368D01*
X004796Y012313D01*
X004791Y012311D01*
X004765Y012365D01*
X004736Y012418D01*
X004703Y012468D01*
X004667Y012516D01*
X004628Y012562D01*
X004587Y012606D01*
X004542Y012646D01*
X004495Y012684D01*
X004446Y012718D01*
X004395Y012749D01*
X004341Y012777D01*
X004286Y012802D01*
X004230Y012823D01*
X004172Y012840D01*
X004114Y012854D01*
X004055Y012864D01*
X003995Y012870D01*
X003935Y012872D01*
X003874Y012870D01*
X003815Y012865D01*
X003755Y012856D01*
X003696Y012843D01*
X003639Y012826D01*
X003582Y012805D01*
X003527Y012781D01*
X003473Y012754D01*
X003422Y012723D01*
X003372Y012689D01*
X003325Y012652D01*
X003280Y012612D01*
X003238Y012569D01*
X003242Y012566D01*
X003284Y012608D01*
X003328Y012648D01*
X003375Y012685D01*
X003425Y012719D01*
X003476Y012750D01*
X003529Y012777D01*
X003584Y012801D01*
X003640Y012821D01*
X003698Y012838D01*
X003756Y012851D01*
X003815Y012860D01*
X003875Y012865D01*
X003935Y012867D01*
X003994Y012865D01*
X004054Y012859D01*
X004113Y012849D01*
X004171Y012835D01*
X004228Y012818D01*
X004285Y012797D01*
X004339Y012773D01*
X004392Y012745D01*
X004443Y012714D01*
X004492Y012680D01*
X004539Y012642D01*
X004583Y012602D01*
X004625Y012559D01*
X004663Y012513D01*
X004699Y012465D01*
X004732Y012415D01*
X004761Y012363D01*
X004787Y012309D01*
X004782Y012307D01*
X004757Y012361D01*
X004727Y012413D01*
X004695Y012462D01*
X004659Y012510D01*
X004621Y012556D01*
X004580Y012598D01*
X004536Y012638D01*
X004489Y012676D01*
X004440Y012710D01*
X004390Y012741D01*
X004337Y012768D01*
X004283Y012793D01*
X004227Y012813D01*
X004170Y012831D01*
X004112Y012844D01*
X004053Y012854D01*
X003994Y012860D01*
X003935Y012862D01*
X003875Y012860D01*
X003816Y012855D01*
X003757Y012846D01*
X003699Y012833D01*
X003642Y012816D01*
X003586Y012796D01*
X003531Y012772D01*
X003478Y012745D01*
X003427Y012715D01*
X003378Y012681D01*
X003331Y012644D01*
X003287Y012605D01*
X003245Y012562D01*
X003249Y012559D01*
X003290Y012601D01*
X003335Y012641D01*
X003381Y012677D01*
X003430Y012711D01*
X003481Y012741D01*
X003533Y012768D01*
X003588Y012791D01*
X003643Y012812D01*
X003700Y012828D01*
X003758Y012841D01*
X003816Y012850D01*
X003875Y012855D01*
X003935Y012857D01*
X003994Y012855D01*
X004053Y012849D01*
X004111Y012839D01*
X004169Y012826D01*
X004225Y012809D01*
X004281Y012788D01*
X004335Y012764D01*
X004387Y012736D01*
X004438Y012706D01*
X004486Y012672D01*
X004532Y012635D01*
X004576Y012595D01*
X004617Y012552D01*
X004655Y012507D01*
X004691Y012460D01*
X004723Y012410D01*
X004752Y012358D01*
X004778Y012305D01*
X001213Y011268D02*
X001252Y011304D01*
X001293Y011262D01*
X001337Y011223D01*
X001384Y011186D01*
X001432Y011153D01*
X001483Y011123D01*
X001535Y011096D01*
X001589Y011072D01*
X001645Y011052D01*
X001701Y011036D01*
X001759Y011023D01*
X001817Y011014D01*
X001876Y011009D01*
X001935Y011007D01*
X001993Y011009D01*
X002052Y011015D01*
X002110Y011025D01*
X002168Y011038D01*
X002224Y011055D01*
X002279Y011076D01*
X002333Y011100D01*
X002385Y011127D01*
X002435Y011158D01*
X002484Y011192D01*
X002530Y011228D01*
X002573Y011268D01*
X002614Y011310D01*
X002652Y011355D01*
X002688Y011403D01*
X002720Y011452D01*
X002749Y011503D01*
X002774Y011557D01*
X002823Y011535D01*
X002824Y011535D01*
X002797Y011480D01*
X002768Y011428D01*
X002735Y011377D01*
X002700Y011328D01*
X002661Y011282D01*
X002619Y011238D01*
X002575Y011196D01*
X002529Y011158D01*
X002480Y011122D01*
X002429Y011090D01*
X002376Y011061D01*
X002321Y011035D01*
X002265Y011012D01*
X002208Y010993D01*
X002149Y010978D01*
X002090Y010966D01*
X002030Y010958D01*
X001970Y010954D01*
X001909Y010953D01*
X001849Y010956D01*
X001789Y010963D01*
X001730Y010974D01*
X001671Y010988D01*
X001613Y011006D01*
X001557Y011027D01*
X001501Y011052D01*
X001448Y011080D01*
X001396Y011112D01*
X001347Y011146D01*
X001299Y011184D01*
X001254Y011224D01*
X001212Y011267D01*
X001216Y011271D01*
X001259Y011226D01*
X001306Y011185D01*
X001354Y011147D01*
X001406Y011112D01*
X001459Y011080D01*
X001514Y011051D01*
X001571Y011027D01*
X001629Y011006D01*
X001689Y010988D01*
X001750Y010975D01*
X001811Y010965D01*
X001873Y010960D01*
X001935Y010958D01*
X001997Y010960D01*
X002059Y010967D01*
X002120Y010977D01*
X002180Y010991D01*
X002240Y011009D01*
X002298Y011030D01*
X002354Y011056D01*
X002409Y011084D01*
X002462Y011117D01*
X002513Y011152D01*
X002562Y011191D01*
X002607Y011233D01*
X002651Y011278D01*
X002691Y011325D01*
X002728Y011375D01*
X002762Y011427D01*
X002792Y011481D01*
X002819Y011537D01*
X002814Y011539D01*
X002788Y011483D01*
X002757Y011429D01*
X002724Y011378D01*
X002687Y011328D01*
X002647Y011281D01*
X002604Y011237D01*
X002558Y011195D01*
X002510Y011156D01*
X002460Y011121D01*
X002407Y011089D01*
X002352Y011060D01*
X002296Y011035D01*
X002238Y011013D01*
X002179Y010996D01*
X002119Y010982D01*
X002058Y010971D01*
X001996Y010965D01*
X001935Y010963D01*
X001873Y010965D01*
X001812Y010970D01*
X001751Y010980D01*
X001690Y010993D01*
X001631Y011010D01*
X001573Y011031D01*
X001516Y011056D01*
X001461Y011084D01*
X001408Y011116D01*
X001357Y011151D01*
X001309Y011189D01*
X001263Y011230D01*
X001219Y011274D01*
X001223Y011277D01*
X001266Y011234D01*
X001312Y011193D01*
X001360Y011155D01*
X001411Y011120D01*
X001464Y011089D01*
X001518Y011061D01*
X001575Y011036D01*
X001632Y011015D01*
X001691Y010998D01*
X001751Y010985D01*
X001812Y010975D01*
X001873Y010970D01*
X001935Y010968D01*
X001996Y010970D01*
X002057Y010976D01*
X002118Y010987D01*
X002178Y011000D01*
X002236Y011018D01*
X002294Y011040D01*
X002350Y011065D01*
X002404Y011093D01*
X002457Y011125D01*
X002507Y011160D01*
X002555Y011199D01*
X002601Y011240D01*
X002643Y011284D01*
X002683Y011331D01*
X002720Y011380D01*
X002753Y011432D01*
X002783Y011486D01*
X002810Y011541D01*
X002805Y011543D01*
X002779Y011488D01*
X002749Y011435D01*
X002715Y011383D01*
X002679Y011334D01*
X002639Y011288D01*
X002597Y011244D01*
X002552Y011203D01*
X002504Y011164D01*
X002454Y011129D01*
X002402Y011097D01*
X002348Y011069D01*
X002292Y011044D01*
X002235Y011023D01*
X002176Y011005D01*
X002117Y010991D01*
X002057Y010981D01*
X001996Y010975D01*
X001935Y010973D01*
X001874Y010975D01*
X001813Y010980D01*
X001752Y010990D01*
X001693Y011003D01*
X001634Y011020D01*
X001577Y011041D01*
X001521Y011065D01*
X001466Y011093D01*
X001414Y011124D01*
X001363Y011159D01*
X001315Y011197D01*
X001270Y011237D01*
X001227Y011281D01*
X001231Y011284D01*
X001273Y011241D01*
X001318Y011200D01*
X001366Y011163D01*
X001416Y011128D01*
X001469Y011097D01*
X001523Y011070D01*
X001578Y011045D01*
X001636Y011025D01*
X001694Y011008D01*
X001753Y010995D01*
X001813Y010985D01*
X001874Y010980D01*
X001935Y010978D01*
X001995Y010980D01*
X002056Y010986D01*
X002116Y010996D01*
X002175Y011010D01*
X002233Y011028D01*
X002290Y011049D01*
X002346Y011074D01*
X002400Y011102D01*
X002451Y011133D01*
X002501Y011168D01*
X002549Y011206D01*
X002594Y011247D01*
X002636Y011291D01*
X002675Y011337D01*
X002711Y011386D01*
X002744Y011437D01*
X002774Y011490D01*
X002801Y011545D01*
X002796Y011547D01*
X002770Y011492D01*
X002740Y011440D01*
X002707Y011389D01*
X002671Y011341D01*
X002632Y011294D01*
X002590Y011251D01*
X002545Y011210D01*
X002498Y011172D01*
X002449Y011138D01*
X002397Y011106D01*
X002344Y011078D01*
X002288Y011053D01*
X002232Y011032D01*
X002174Y011015D01*
X002115Y011001D01*
X002055Y010991D01*
X001995Y010985D01*
X001935Y010983D01*
X001874Y010985D01*
X001814Y010990D01*
X001754Y010999D01*
X001695Y011013D01*
X001637Y011029D01*
X001580Y011050D01*
X001525Y011074D01*
X001471Y011102D01*
X001419Y011133D01*
X001369Y011167D01*
X001322Y011204D01*
X001277Y011244D01*
X001234Y011288D01*
X001238Y011291D01*
X001280Y011248D01*
X001325Y011208D01*
X001372Y011171D01*
X001422Y011137D01*
X001473Y011106D01*
X001527Y011079D01*
X001582Y011055D01*
X001639Y011034D01*
X001696Y011017D01*
X001755Y011004D01*
X001815Y010995D01*
X001874Y010990D01*
X001935Y010988D01*
X001995Y010990D01*
X002055Y010996D01*
X002114Y011006D01*
X002172Y011020D01*
X002230Y011037D01*
X002286Y011058D01*
X002341Y011083D01*
X002395Y011111D01*
X002446Y011142D01*
X002495Y011176D01*
X002542Y011214D01*
X002587Y011254D01*
X002628Y011298D01*
X002667Y011344D01*
X002703Y011392D01*
X002736Y011442D01*
X002765Y011495D01*
X002791Y011549D01*
X002787Y011551D01*
X002761Y011497D01*
X002732Y011445D01*
X002699Y011395D01*
X002663Y011347D01*
X002625Y011301D01*
X002583Y011258D01*
X002539Y011218D01*
X002492Y011180D01*
X002443Y011146D01*
X002392Y011115D01*
X002339Y011087D01*
X002285Y011063D01*
X002228Y011042D01*
X002171Y011025D01*
X002113Y011011D01*
X002054Y011001D01*
X001994Y010995D01*
X001935Y010993D01*
X001875Y010995D01*
X001815Y011000D01*
X001756Y011009D01*
X001698Y011022D01*
X001640Y011039D01*
X001584Y011059D01*
X001529Y011083D01*
X001476Y011110D01*
X001425Y011141D01*
X001375Y011175D01*
X001328Y011212D01*
X001284Y011252D01*
X001242Y011294D01*
X001245Y011298D01*
X001287Y011255D01*
X001331Y011216D01*
X001378Y011179D01*
X001427Y011145D01*
X001478Y011115D01*
X001531Y011088D01*
X001586Y011064D01*
X001642Y011044D01*
X001699Y011027D01*
X001757Y011014D01*
X001816Y011005D01*
X001875Y011000D01*
X001935Y010998D01*
X001994Y011000D01*
X002053Y011006D01*
X002112Y011016D01*
X002170Y011029D01*
X002227Y011047D01*
X002283Y011067D01*
X002337Y011092D01*
X002390Y011119D01*
X002440Y011150D01*
X002489Y011184D01*
X002536Y011222D01*
X002580Y011262D01*
X002621Y011304D01*
X002659Y011350D01*
X002695Y011398D01*
X002727Y011447D01*
X002757Y011499D01*
X002782Y011553D01*
X002778Y011555D01*
X002752Y011502D01*
X002723Y011450D01*
X002691Y011400D01*
X002655Y011353D01*
X002617Y011308D01*
X002576Y011265D01*
X002532Y011225D01*
X002486Y011188D01*
X002438Y011154D01*
X002387Y011124D01*
X002335Y011096D01*
X002281Y011072D01*
X002225Y011051D01*
X002169Y011034D01*
X002111Y011021D01*
X002053Y011011D01*
X001994Y011005D01*
X001935Y011003D01*
X001875Y011005D01*
X001816Y011010D01*
X001758Y011019D01*
X001700Y011032D01*
X001643Y011048D01*
X001588Y011069D01*
X001533Y011092D01*
X001481Y011119D01*
X001430Y011149D01*
X001381Y011183D01*
X001335Y011219D01*
X001290Y011259D01*
X001249Y011301D01*
X002823Y012325D02*
X002774Y012303D01*
X002749Y012357D01*
X002720Y012408D01*
X002688Y012457D01*
X002652Y012505D01*
X002614Y012550D01*
X002573Y012592D01*
X002530Y012632D01*
X002484Y012668D01*
X002435Y012702D01*
X002385Y012733D01*
X002333Y012760D01*
X002279Y012784D01*
X002224Y012805D01*
X002168Y012822D01*
X002110Y012835D01*
X002052Y012845D01*
X001993Y012851D01*
X001935Y012853D01*
X001876Y012851D01*
X001817Y012846D01*
X001759Y012837D01*
X001701Y012824D01*
X001645Y012808D01*
X001589Y012788D01*
X001535Y012764D01*
X001483Y012737D01*
X001432Y012707D01*
X001384Y012674D01*
X001337Y012637D01*
X001293Y012598D01*
X001252Y012556D01*
X001213Y012592D01*
X001212Y012593D01*
X001254Y012636D01*
X001299Y012676D01*
X001347Y012714D01*
X001396Y012748D01*
X001448Y012780D01*
X001501Y012808D01*
X001557Y012833D01*
X001613Y012854D01*
X001671Y012872D01*
X001730Y012886D01*
X001789Y012897D01*
X001849Y012904D01*
X001909Y012907D01*
X001970Y012906D01*
X002030Y012902D01*
X002090Y012894D01*
X002149Y012882D01*
X002208Y012867D01*
X002265Y012848D01*
X002321Y012825D01*
X002376Y012799D01*
X002429Y012770D01*
X002480Y012738D01*
X002529Y012702D01*
X002575Y012664D01*
X002619Y012622D01*
X002661Y012578D01*
X002700Y012532D01*
X002735Y012483D01*
X002768Y012432D01*
X002797Y012380D01*
X002824Y012325D01*
X002819Y012323D01*
X002792Y012379D01*
X002762Y012433D01*
X002728Y012485D01*
X002691Y012535D01*
X002651Y012582D01*
X002607Y012627D01*
X002562Y012669D01*
X002513Y012708D01*
X002462Y012743D01*
X002409Y012776D01*
X002354Y012804D01*
X002298Y012830D01*
X002240Y012851D01*
X002180Y012869D01*
X002120Y012883D01*
X002059Y012893D01*
X001997Y012900D01*
X001935Y012902D01*
X001873Y012900D01*
X001811Y012895D01*
X001750Y012885D01*
X001689Y012872D01*
X001629Y012854D01*
X001571Y012833D01*
X001514Y012809D01*
X001459Y012780D01*
X001406Y012748D01*
X001354Y012713D01*
X001306Y012675D01*
X001259Y012634D01*
X001216Y012589D01*
X001219Y012586D01*
X001263Y012630D01*
X001309Y012671D01*
X001357Y012709D01*
X001408Y012744D01*
X001461Y012776D01*
X001516Y012804D01*
X001573Y012829D01*
X001631Y012850D01*
X001690Y012867D01*
X001751Y012880D01*
X001812Y012890D01*
X001873Y012895D01*
X001935Y012897D01*
X001996Y012895D01*
X002058Y012889D01*
X002119Y012878D01*
X002179Y012864D01*
X002238Y012847D01*
X002296Y012825D01*
X002352Y012800D01*
X002407Y012771D01*
X002460Y012739D01*
X002510Y012704D01*
X002558Y012665D01*
X002604Y012623D01*
X002647Y012579D01*
X002687Y012532D01*
X002724Y012482D01*
X002757Y012431D01*
X002788Y012377D01*
X002814Y012321D01*
X002810Y012319D01*
X002783Y012374D01*
X002753Y012428D01*
X002720Y012480D01*
X002683Y012529D01*
X002643Y012576D01*
X002601Y012620D01*
X002555Y012661D01*
X002507Y012700D01*
X002457Y012735D01*
X002404Y012767D01*
X002350Y012795D01*
X002294Y012820D01*
X002236Y012842D01*
X002178Y012860D01*
X002118Y012873D01*
X002057Y012884D01*
X001996Y012890D01*
X001935Y012892D01*
X001873Y012890D01*
X001812Y012885D01*
X001751Y012875D01*
X001691Y012862D01*
X001632Y012845D01*
X001575Y012824D01*
X001518Y012799D01*
X001464Y012771D01*
X001411Y012740D01*
X001360Y012705D01*
X001312Y012667D01*
X001266Y012626D01*
X001223Y012583D01*
X001227Y012579D01*
X001270Y012623D01*
X001315Y012663D01*
X001363Y012701D01*
X001414Y012736D01*
X001466Y012767D01*
X001521Y012795D01*
X001577Y012819D01*
X001634Y012840D01*
X001693Y012857D01*
X001752Y012870D01*
X001813Y012880D01*
X001874Y012885D01*
X001935Y012887D01*
X001996Y012885D01*
X002057Y012879D01*
X002117Y012869D01*
X002176Y012855D01*
X002235Y012837D01*
X002292Y012816D01*
X002348Y012791D01*
X002402Y012763D01*
X002454Y012731D01*
X002504Y012696D01*
X002552Y012657D01*
X002597Y012616D01*
X002639Y012572D01*
X002679Y012526D01*
X002715Y012477D01*
X002749Y012425D01*
X002779Y012372D01*
X002805Y012317D01*
X002801Y012315D01*
X002774Y012370D01*
X002744Y012423D01*
X002711Y012474D01*
X002675Y012523D01*
X002636Y012569D01*
X002594Y012613D01*
X002549Y012654D01*
X002501Y012692D01*
X002451Y012727D01*
X002400Y012758D01*
X002346Y012786D01*
X002290Y012811D01*
X002233Y012832D01*
X002175Y012850D01*
X002116Y012864D01*
X002056Y012874D01*
X001995Y012880D01*
X001935Y012882D01*
X001874Y012880D01*
X001813Y012875D01*
X001753Y012865D01*
X001694Y012852D01*
X001636Y012835D01*
X001578Y012815D01*
X001523Y012790D01*
X001469Y012763D01*
X001416Y012732D01*
X001366Y012697D01*
X001318Y012660D01*
X001273Y012619D01*
X001231Y012576D01*
X001234Y012572D01*
X001277Y012616D01*
X001322Y012656D01*
X001369Y012693D01*
X001419Y012727D01*
X001471Y012758D01*
X001525Y012786D01*
X001580Y012810D01*
X001637Y012831D01*
X001695Y012847D01*
X001754Y012861D01*
X001814Y012870D01*
X001874Y012875D01*
X001935Y012877D01*
X001995Y012875D01*
X002055Y012869D01*
X002115Y012859D01*
X002174Y012845D01*
X002232Y012828D01*
X002288Y012807D01*
X002344Y012782D01*
X002397Y012754D01*
X002449Y012722D01*
X002498Y012688D01*
X002545Y012650D01*
X002590Y012609D01*
X002632Y012566D01*
X002671Y012519D01*
X002707Y012471D01*
X002740Y012420D01*
X002770Y012368D01*
X002796Y012313D01*
X002791Y012311D01*
X002765Y012365D01*
X002736Y012418D01*
X002703Y012468D01*
X002667Y012516D01*
X002628Y012562D01*
X002587Y012606D01*
X002542Y012646D01*
X002495Y012684D01*
X002446Y012718D01*
X002395Y012749D01*
X002341Y012777D01*
X002286Y012802D01*
X002230Y012823D01*
X002172Y012840D01*
X002114Y012854D01*
X002055Y012864D01*
X001995Y012870D01*
X001935Y012872D01*
X001874Y012870D01*
X001815Y012865D01*
X001755Y012856D01*
X001696Y012843D01*
X001639Y012826D01*
X001582Y012805D01*
X001527Y012781D01*
X001473Y012754D01*
X001422Y012723D01*
X001372Y012689D01*
X001325Y012652D01*
X001280Y012612D01*
X001238Y012569D01*
X001242Y012566D01*
X001284Y012608D01*
X001328Y012648D01*
X001375Y012685D01*
X001425Y012719D01*
X001476Y012750D01*
X001529Y012777D01*
X001584Y012801D01*
X001640Y012821D01*
X001698Y012838D01*
X001756Y012851D01*
X001815Y012860D01*
X001875Y012865D01*
X001935Y012867D01*
X001994Y012865D01*
X002054Y012859D01*
X002113Y012849D01*
X002171Y012835D01*
X002228Y012818D01*
X002285Y012797D01*
X002339Y012773D01*
X002392Y012745D01*
X002443Y012714D01*
X002492Y012680D01*
X002539Y012642D01*
X002583Y012602D01*
X002625Y012559D01*
X002663Y012513D01*
X002699Y012465D01*
X002732Y012415D01*
X002761Y012363D01*
X002787Y012309D01*
X002782Y012307D01*
X002757Y012361D01*
X002727Y012413D01*
X002695Y012462D01*
X002659Y012510D01*
X002621Y012556D01*
X002580Y012598D01*
X002536Y012638D01*
X002489Y012676D01*
X002440Y012710D01*
X002390Y012741D01*
X002337Y012768D01*
X002283Y012793D01*
X002227Y012813D01*
X002170Y012831D01*
X002112Y012844D01*
X002053Y012854D01*
X001994Y012860D01*
X001935Y012862D01*
X001875Y012860D01*
X001816Y012855D01*
X001757Y012846D01*
X001699Y012833D01*
X001642Y012816D01*
X001586Y012796D01*
X001531Y012772D01*
X001478Y012745D01*
X001427Y012715D01*
X001378Y012681D01*
X001331Y012644D01*
X001287Y012605D01*
X001245Y012562D01*
X001249Y012559D01*
X001290Y012601D01*
X001335Y012641D01*
X001381Y012677D01*
X001430Y012711D01*
X001481Y012741D01*
X001533Y012768D01*
X001588Y012791D01*
X001643Y012812D01*
X001700Y012828D01*
X001758Y012841D01*
X001816Y012850D01*
X001875Y012855D01*
X001935Y012857D01*
X001994Y012855D01*
X002053Y012849D01*
X002111Y012839D01*
X002169Y012826D01*
X002225Y012809D01*
X002281Y012788D01*
X002335Y012764D01*
X002387Y012736D01*
X002438Y012706D01*
X002486Y012672D01*
X002532Y012635D01*
X002576Y012595D01*
X002617Y012552D01*
X002655Y012507D01*
X002691Y012460D01*
X002723Y012410D01*
X002752Y012358D01*
X002778Y012305D01*
D18*
X002030Y011930D02*
X001930Y011930D01*
X001930Y011230D02*
X001930Y010930D01*
X003930Y010930D02*
X003930Y011230D01*
X003930Y011930D02*
X004030Y011930D01*
X003930Y012630D02*
X003930Y012930D01*
X001930Y012930D02*
X001930Y012630D01*
X005930Y012630D02*
X005930Y012930D01*
X005930Y011930D02*
X006030Y011930D01*
X005930Y011230D02*
X005930Y010930D01*
X007930Y010930D02*
X007930Y011230D01*
X007930Y011930D02*
X008030Y011930D01*
X007930Y012630D02*
X007930Y012930D01*
X009930Y012930D02*
X009930Y012630D01*
X009930Y011930D02*
X010030Y011930D01*
X009930Y011230D02*
X009930Y010930D01*
X011930Y010930D02*
X011930Y011230D01*
X011930Y011930D02*
X012030Y011930D01*
X011930Y012630D02*
X011930Y012930D01*
D19*
X018774Y016935D02*
X018684Y016935D01*
X018685Y016935D02*
X018683Y016989D01*
X018677Y017042D01*
X018667Y017095D01*
X018653Y017147D01*
X018636Y017198D01*
X018615Y017247D01*
X018591Y017295D01*
X018563Y017341D01*
X018532Y017385D01*
X018498Y017427D01*
X018462Y017466D01*
X018422Y017503D01*
X018380Y017536D01*
X018336Y017567D01*
X018290Y017594D01*
X018332Y017673D01*
X018381Y017645D01*
X018427Y017613D01*
X018472Y017578D01*
X018514Y017541D01*
X018554Y017500D01*
X018590Y017457D01*
X018624Y017412D01*
X018655Y017365D01*
X018682Y017315D01*
X018706Y017264D01*
X018727Y017212D01*
X018744Y017158D01*
X018757Y017103D01*
X018767Y017048D01*
X018773Y016991D01*
X018775Y016935D01*
X018766Y016935D01*
X018764Y016991D01*
X018758Y017046D01*
X018748Y017101D01*
X018735Y017156D01*
X018718Y017209D01*
X018698Y017261D01*
X018674Y017311D01*
X018647Y017360D01*
X018617Y017407D01*
X018583Y017452D01*
X018547Y017494D01*
X018508Y017534D01*
X018466Y017571D01*
X018422Y017606D01*
X018376Y017637D01*
X018328Y017665D01*
X018324Y017657D01*
X018371Y017629D01*
X018417Y017598D01*
X018460Y017564D01*
X018502Y017528D01*
X018540Y017488D01*
X018576Y017446D01*
X018609Y017402D01*
X018639Y017356D01*
X018666Y017307D01*
X018689Y017257D01*
X018710Y017206D01*
X018726Y017153D01*
X018739Y017100D01*
X018749Y017045D01*
X018755Y016990D01*
X018757Y016935D01*
X018748Y016935D01*
X018746Y016990D01*
X018740Y017044D01*
X018731Y017098D01*
X018718Y017151D01*
X018701Y017203D01*
X018681Y017254D01*
X018658Y017303D01*
X018631Y017351D01*
X018602Y017397D01*
X018569Y017441D01*
X018534Y017482D01*
X018495Y017521D01*
X018455Y017558D01*
X018412Y017591D01*
X018366Y017622D01*
X018319Y017649D01*
X018315Y017641D01*
X018362Y017614D01*
X018406Y017584D01*
X018449Y017551D01*
X018489Y017515D01*
X018527Y017476D01*
X018562Y017435D01*
X018594Y017392D01*
X018624Y017346D01*
X018650Y017299D01*
X018673Y017250D01*
X018693Y017200D01*
X018709Y017148D01*
X018722Y017096D01*
X018731Y017043D01*
X018737Y016989D01*
X018739Y016935D01*
X018730Y016935D01*
X018728Y016988D01*
X018722Y017041D01*
X018713Y017094D01*
X018700Y017146D01*
X018684Y017197D01*
X018665Y017247D01*
X018642Y017295D01*
X018616Y017342D01*
X018587Y017386D01*
X018555Y017429D01*
X018520Y017470D01*
X018483Y017508D01*
X018443Y017544D01*
X018401Y017577D01*
X018357Y017607D01*
X018311Y017634D01*
X018307Y017626D01*
X018352Y017599D01*
X018396Y017569D01*
X018437Y017537D01*
X018477Y017502D01*
X018514Y017464D01*
X018548Y017424D01*
X018580Y017381D01*
X018608Y017337D01*
X018634Y017291D01*
X018656Y017243D01*
X018676Y017194D01*
X018692Y017144D01*
X018704Y017092D01*
X018713Y017040D01*
X018719Y016988D01*
X018721Y016935D01*
X018712Y016935D01*
X018710Y016991D01*
X018703Y017046D01*
X018693Y017101D01*
X018679Y017155D01*
X018661Y017207D01*
X018640Y017259D01*
X018614Y017308D01*
X018586Y017356D01*
X018554Y017402D01*
X018519Y017445D01*
X018481Y017485D01*
X018440Y017523D01*
X018396Y017558D01*
X018350Y017589D01*
X018302Y017618D01*
X018298Y017610D01*
X018346Y017582D01*
X018391Y017551D01*
X018434Y017516D01*
X018474Y017479D01*
X018512Y017439D01*
X018547Y017396D01*
X018578Y017351D01*
X018607Y017304D01*
X018631Y017255D01*
X018653Y017204D01*
X018670Y017152D01*
X018684Y017099D01*
X018694Y017045D01*
X018701Y016990D01*
X018703Y016935D01*
X018694Y016935D01*
X018692Y016989D01*
X018686Y017043D01*
X018676Y017097D01*
X018662Y017149D01*
X018644Y017201D01*
X018623Y017251D01*
X018599Y017300D01*
X018571Y017346D01*
X018539Y017391D01*
X018505Y017433D01*
X018468Y017472D01*
X018428Y017509D01*
X018386Y017543D01*
X018341Y017574D01*
X018294Y017602D01*
X017507Y017661D02*
X017552Y017583D01*
X017551Y017583D02*
X017507Y017555D01*
X017465Y017524D01*
X017425Y017491D01*
X017387Y017455D01*
X017352Y017416D01*
X017320Y017375D01*
X017290Y017331D01*
X017264Y017286D01*
X017241Y017239D01*
X017221Y017191D01*
X017205Y017141D01*
X017192Y017091D01*
X017183Y017039D01*
X017177Y016987D01*
X017175Y016935D01*
X017086Y016934D01*
X017085Y016935D01*
X017087Y016990D01*
X017093Y017044D01*
X017102Y017099D01*
X017115Y017152D01*
X017131Y017204D01*
X017150Y017256D01*
X017173Y017306D01*
X017199Y017354D01*
X017228Y017401D01*
X017260Y017445D01*
X017295Y017488D01*
X017333Y017528D01*
X017373Y017565D01*
X017415Y017600D01*
X017460Y017632D01*
X017506Y017661D01*
X017511Y017653D01*
X017465Y017625D01*
X017421Y017593D01*
X017379Y017558D01*
X017339Y017521D01*
X017302Y017482D01*
X017267Y017440D01*
X017236Y017396D01*
X017207Y017350D01*
X017181Y017302D01*
X017159Y017252D01*
X017139Y017202D01*
X017123Y017150D01*
X017111Y017097D01*
X017102Y017043D01*
X017096Y016989D01*
X017094Y016935D01*
X017103Y016935D01*
X017105Y016989D01*
X017111Y017042D01*
X017120Y017095D01*
X017132Y017147D01*
X017148Y017199D01*
X017167Y017249D01*
X017189Y017298D01*
X017215Y017345D01*
X017243Y017391D01*
X017275Y017434D01*
X017309Y017476D01*
X017345Y017515D01*
X017385Y017552D01*
X017426Y017586D01*
X017470Y017617D01*
X017515Y017646D01*
X017520Y017638D01*
X017472Y017608D01*
X017426Y017574D01*
X017383Y017538D01*
X017342Y017498D01*
X017304Y017456D01*
X017269Y017412D01*
X017237Y017365D01*
X017209Y017316D01*
X017184Y017265D01*
X017162Y017212D01*
X017145Y017159D01*
X017131Y017104D01*
X017121Y017048D01*
X017114Y016992D01*
X017112Y016935D01*
X017121Y016935D01*
X017123Y016991D01*
X017129Y017047D01*
X017139Y017102D01*
X017153Y017156D01*
X017171Y017209D01*
X017192Y017261D01*
X017217Y017312D01*
X017245Y017360D01*
X017276Y017406D01*
X017311Y017451D01*
X017348Y017492D01*
X017389Y017531D01*
X017431Y017567D01*
X017477Y017600D01*
X017524Y017630D01*
X017529Y017622D01*
X017482Y017593D01*
X017437Y017560D01*
X017395Y017524D01*
X017355Y017486D01*
X017318Y017445D01*
X017283Y017401D01*
X017252Y017355D01*
X017225Y017307D01*
X017200Y017258D01*
X017179Y017206D01*
X017162Y017154D01*
X017148Y017100D01*
X017138Y017045D01*
X017132Y016990D01*
X017130Y016935D01*
X017139Y016935D01*
X017141Y016990D01*
X017147Y017044D01*
X017157Y017098D01*
X017171Y017151D01*
X017188Y017203D01*
X017208Y017254D01*
X017233Y017303D01*
X017260Y017350D01*
X017291Y017396D01*
X017324Y017439D01*
X017361Y017480D01*
X017401Y017518D01*
X017443Y017553D01*
X017487Y017585D01*
X017533Y017614D01*
X017538Y017606D01*
X017492Y017578D01*
X017448Y017546D01*
X017407Y017511D01*
X017368Y017473D01*
X017331Y017433D01*
X017298Y017391D01*
X017268Y017346D01*
X017240Y017299D01*
X017217Y017250D01*
X017196Y017200D01*
X017179Y017149D01*
X017166Y017096D01*
X017156Y017043D01*
X017150Y016989D01*
X017148Y016935D01*
X017157Y016935D01*
X017159Y016988D01*
X017165Y017042D01*
X017175Y017094D01*
X017188Y017146D01*
X017205Y017197D01*
X017225Y017247D01*
X017248Y017295D01*
X017275Y017341D01*
X017305Y017385D01*
X017338Y017427D01*
X017374Y017467D01*
X017413Y017504D01*
X017454Y017539D01*
X017497Y017570D01*
X017542Y017599D01*
X017547Y017591D01*
X017502Y017563D01*
X017459Y017532D01*
X017419Y017498D01*
X017381Y017461D01*
X017345Y017422D01*
X017313Y017380D01*
X017283Y017336D01*
X017256Y017290D01*
X017233Y017243D01*
X017213Y017194D01*
X017196Y017144D01*
X017183Y017092D01*
X017174Y017040D01*
X017168Y016988D01*
X017166Y016935D01*
X017086Y016926D02*
X017176Y016926D01*
X017175Y016925D02*
X017177Y016871D01*
X017183Y016818D01*
X017193Y016765D01*
X017207Y016713D01*
X017224Y016662D01*
X017245Y016612D01*
X017269Y016564D01*
X017297Y016518D01*
X017328Y016474D01*
X017362Y016433D01*
X017399Y016393D01*
X017438Y016357D01*
X017381Y016289D01*
X017380Y016288D01*
X017339Y016326D01*
X017301Y016366D01*
X017265Y016409D01*
X017232Y016454D01*
X017202Y016501D01*
X017176Y016549D01*
X017152Y016600D01*
X017132Y016652D01*
X017116Y016705D01*
X017102Y016759D01*
X017093Y016814D01*
X017087Y016869D01*
X017085Y016925D01*
X017094Y016925D01*
X017096Y016870D01*
X017102Y016815D01*
X017111Y016761D01*
X017124Y016707D01*
X017141Y016655D01*
X017160Y016603D01*
X017184Y016553D01*
X017210Y016505D01*
X017240Y016459D01*
X017272Y016414D01*
X017307Y016372D01*
X017346Y016332D01*
X017386Y016295D01*
X017392Y016302D01*
X017352Y016339D01*
X017314Y016378D01*
X017279Y016420D01*
X017247Y016464D01*
X017218Y016510D01*
X017192Y016558D01*
X017169Y016607D01*
X017149Y016658D01*
X017133Y016710D01*
X017120Y016763D01*
X017111Y016816D01*
X017105Y016871D01*
X017103Y016925D01*
X017112Y016925D01*
X017114Y016871D01*
X017120Y016818D01*
X017129Y016765D01*
X017142Y016712D01*
X017158Y016661D01*
X017177Y016610D01*
X017200Y016562D01*
X017225Y016514D01*
X017254Y016469D01*
X017286Y016425D01*
X017321Y016384D01*
X017358Y016345D01*
X017398Y016309D01*
X017404Y016316D01*
X017364Y016352D01*
X017327Y016390D01*
X017293Y016431D01*
X017262Y016474D01*
X017233Y016519D01*
X017208Y016566D01*
X017185Y016614D01*
X017166Y016664D01*
X017150Y016715D01*
X017138Y016766D01*
X017129Y016819D01*
X017123Y016872D01*
X017121Y016925D01*
X017130Y016925D01*
X017132Y016872D01*
X017138Y016820D01*
X017147Y016768D01*
X017159Y016717D01*
X017175Y016667D01*
X017194Y016617D01*
X017216Y016570D01*
X017241Y016523D01*
X017269Y016479D01*
X017300Y016437D01*
X017334Y016396D01*
X017371Y016358D01*
X017409Y016323D01*
X017415Y016329D01*
X017377Y016365D01*
X017341Y016402D01*
X017307Y016442D01*
X017277Y016484D01*
X017249Y016528D01*
X017224Y016574D01*
X017202Y016621D01*
X017183Y016670D01*
X017168Y016719D01*
X017155Y016770D01*
X017147Y016821D01*
X017141Y016873D01*
X017139Y016925D01*
X017148Y016925D01*
X017150Y016869D01*
X017157Y016814D01*
X017167Y016759D01*
X017181Y016705D01*
X017199Y016652D01*
X017221Y016601D01*
X017246Y016551D01*
X017275Y016503D01*
X017307Y016458D01*
X017342Y016415D01*
X017380Y016374D01*
X017421Y016336D01*
X017427Y016343D01*
X017386Y016380D01*
X017349Y016421D01*
X017314Y016463D01*
X017282Y016508D01*
X017254Y016556D01*
X017229Y016605D01*
X017207Y016656D01*
X017190Y016708D01*
X017176Y016761D01*
X017166Y016815D01*
X017159Y016870D01*
X017157Y016925D01*
X017166Y016925D01*
X017168Y016871D01*
X017174Y016817D01*
X017184Y016763D01*
X017198Y016710D01*
X017216Y016659D01*
X017237Y016609D01*
X017262Y016560D01*
X017290Y016513D01*
X017321Y016469D01*
X017355Y016427D01*
X017393Y016387D01*
X017433Y016350D01*
X018474Y016285D02*
X018417Y016354D01*
X018417Y016353D02*
X018457Y016390D01*
X018495Y016429D01*
X018529Y016471D01*
X018561Y016515D01*
X018589Y016561D01*
X018614Y016610D01*
X018635Y016660D01*
X018653Y016711D01*
X018666Y016764D01*
X018676Y016817D01*
X018683Y016871D01*
X018685Y016925D01*
X018774Y016926D01*
X018775Y016925D01*
X018773Y016869D01*
X018767Y016813D01*
X018757Y016758D01*
X018744Y016703D01*
X018727Y016650D01*
X018707Y016597D01*
X018683Y016546D01*
X018656Y016497D01*
X018625Y016450D01*
X018592Y016405D01*
X018556Y016362D01*
X018517Y016322D01*
X018475Y016284D01*
X018469Y016291D01*
X018510Y016328D01*
X018549Y016368D01*
X018585Y016410D01*
X018618Y016455D01*
X018648Y016502D01*
X018675Y016550D01*
X018698Y016601D01*
X018719Y016653D01*
X018735Y016706D01*
X018748Y016760D01*
X018758Y016814D01*
X018764Y016869D01*
X018766Y016925D01*
X018757Y016925D01*
X018755Y016870D01*
X018749Y016815D01*
X018740Y016761D01*
X018727Y016708D01*
X018710Y016656D01*
X018690Y016604D01*
X018667Y016555D01*
X018640Y016506D01*
X018611Y016460D01*
X018578Y016416D01*
X018542Y016374D01*
X018504Y016335D01*
X018463Y016298D01*
X018458Y016305D01*
X018498Y016341D01*
X018536Y016380D01*
X018571Y016422D01*
X018603Y016465D01*
X018633Y016511D01*
X018659Y016559D01*
X018682Y016608D01*
X018702Y016658D01*
X018718Y016710D01*
X018731Y016763D01*
X018740Y016817D01*
X018746Y016871D01*
X018748Y016925D01*
X018739Y016925D01*
X018737Y016871D01*
X018731Y016818D01*
X018722Y016765D01*
X018709Y016713D01*
X018693Y016661D01*
X018674Y016611D01*
X018651Y016563D01*
X018625Y016516D01*
X018596Y016470D01*
X018564Y016427D01*
X018529Y016386D01*
X018492Y016348D01*
X018452Y016312D01*
X018446Y016319D01*
X018485Y016354D01*
X018522Y016392D01*
X018557Y016433D01*
X018588Y016476D01*
X018617Y016520D01*
X018643Y016567D01*
X018665Y016615D01*
X018685Y016664D01*
X018701Y016715D01*
X018713Y016767D01*
X018722Y016819D01*
X018728Y016872D01*
X018730Y016925D01*
X018721Y016925D01*
X018719Y016873D01*
X018713Y016820D01*
X018704Y016769D01*
X018692Y016718D01*
X018676Y016667D01*
X018657Y016618D01*
X018635Y016571D01*
X018609Y016525D01*
X018581Y016481D01*
X018550Y016439D01*
X018516Y016398D01*
X018479Y016361D01*
X018440Y016326D01*
X018434Y016332D01*
X018473Y016367D01*
X018509Y016405D01*
X018543Y016444D01*
X018574Y016486D01*
X018602Y016530D01*
X018627Y016575D01*
X018649Y016622D01*
X018668Y016670D01*
X018683Y016720D01*
X018696Y016770D01*
X018704Y016822D01*
X018710Y016873D01*
X018712Y016925D01*
X018703Y016925D01*
X018701Y016874D01*
X018696Y016823D01*
X018687Y016772D01*
X018675Y016722D01*
X018659Y016673D01*
X018641Y016626D01*
X018619Y016579D01*
X018594Y016534D01*
X018566Y016491D01*
X018536Y016450D01*
X018503Y016411D01*
X018467Y016374D01*
X018429Y016339D01*
X018423Y016346D01*
X018464Y016383D01*
X018502Y016423D01*
X018536Y016465D01*
X018568Y016510D01*
X018597Y016557D01*
X018622Y016606D01*
X018643Y016657D01*
X018661Y016708D01*
X018675Y016762D01*
X018685Y016816D01*
X018692Y016870D01*
X018694Y016925D01*
M02*
