%
M48
M72
T01C0.0236
T02C0.0276
T03C0.0320
T04C0.0354
T05C0.0394
T06C0.0400
T07C0.1260
%
T01
X9930Y5430
X11930Y6930
X13430Y9430
X12930Y9930
X7430Y9930
X7430Y7930
X12930Y13930
X15930Y14930
X20930Y15430
X25930Y15430
X21930Y7930
X25930Y5930
X17680Y3430
T02
X24930Y1680
X25930Y1680
X28430Y6930
X28430Y7930
X28430Y8930
X28430Y9930
X25930Y11180
X24930Y11180
X19930Y11930
X16930Y11930
X11930Y11930
X11930Y12930
X9930Y12930
X9930Y11930
X9930Y10930
X11930Y10930
X7930Y10930
X7930Y11930
X7930Y12930
X5930Y12930
X5930Y11930
X5930Y10930
X3930Y10930
X3930Y11930
X3930Y12930
X1930Y12930
X1930Y11930
X1930Y10930
X3430Y14430
X3430Y15430
X3430Y16430
X3430Y17430
X3430Y18430
X3430Y19430
X6430Y19430
X7430Y19430
X8180Y20430
X9180Y20430
X10180Y20430
X11180Y20430
X10430Y19430
X10430Y18430
X10430Y17430
X10430Y16430
X10430Y15430
X10430Y14430
X7430Y14430
X6430Y14430
X6430Y15430
X7430Y15430
X7430Y16430
X6430Y16430
X6430Y17430
X7430Y17430
X7430Y18430
X6430Y18430
X14430Y18680
X15430Y18680
X16430Y18680
X19930Y16930
X20930Y16930
X16430Y15680
X15430Y15680
X14430Y15680
X23180Y21180
X26180Y21180
T03
X26930Y19430
X26930Y18430
X26930Y17430
X26930Y16430
X26930Y15430
X26930Y14430
X26930Y13430
X26930Y12430
X23930Y12430
X23930Y13430
X23930Y14430
X23930Y15430
X23930Y16430
X23930Y17430
X23930Y18430
X23930Y19430
X19930Y10932
X19930Y9932
X19930Y8932
X19930Y7932
X19930Y6932
X19930Y5932
X19930Y4932
X19930Y3932
X19930Y2932
X19930Y1932
X16930Y1932
X16930Y2932
X16930Y3932
X16930Y4932
X16930Y5932
X16930Y6932
X16930Y7932
X16930Y8932
X16930Y9932
X16930Y10932
X23930Y9930
X23930Y8930
X23930Y7930
X23930Y6930
X23930Y5930
X23930Y4930
X23930Y3930
X23930Y2930
X26930Y2930
X26930Y3930
X26930Y4930
X26930Y5930
X26930Y6930
X26930Y7930
X26930Y8930
X26930Y9930
T04
X17930Y16430
X17930Y17430
T05
X19430Y19430
X20430Y19430
X21430Y19430
T06
X16430Y19930
X15430Y19930
X14430Y19930
X11930Y19430
X11930Y18430
X11930Y17430
X11930Y16430
X11930Y15430
X11930Y14430
X14430Y12930
X14430Y11930
X14430Y10930
X13430Y7930
X13430Y6930
X13430Y5930
X13430Y4930
X13430Y3930
X15430Y3930
X15430Y2930
X15430Y4930
X15430Y5930
X15430Y6930
X15430Y7930
X10930Y7930
X10930Y6930
X10930Y5930
X10930Y4930
X10930Y3930
X10930Y2930
X7930Y2180
X6930Y2180
X5930Y2180
X5430Y4930
X6430Y4930
X7430Y4930
X7430Y5930
X6430Y5930
X5430Y5930
X4430Y5930
X3430Y5930
X3430Y4930
X4430Y4930
X16930Y13930
X17930Y13930
X18930Y13930
X19930Y13930
X28430Y13430
X28430Y14430
X28430Y15430
X28430Y16930
X28430Y17930
X28430Y18930
X28430Y19930
X28430Y12430
X28430Y11430
X28430Y5930
X28430Y4930
X28430Y3930
X28430Y2930
X28430Y1930
T07
X1755Y1755
X1755Y20259
X30101Y20259
X30101Y1755
M30
